<?xml version="1.0" encoding="UTF-8"?>
<svg xmlns="http://www.w3.org/2000/svg" width="41" height="42" viewBox="0 0 41 42" fill="none">
  <path fill-rule="evenodd" clip-rule="evenodd" d="M24.6492 3.67353V3.67355L24.8896 6.07768C25.0529 7.71122 25.1346 8.52799 25.6874 8.75697C26.2402 8.98595 26.8755 8.46616 28.1461 7.42659L30.0161 5.89661C30.6819 5.3519 31.0147 5.07954 31.3996 5.09874C31.7844 5.11793 32.0885 5.42206 32.6968 6.03031L35.5111 8.84463C36.1194 9.45289 36.4235 9.75701 36.4427 10.1418C36.4619 10.5267 36.1895 10.8596 35.6448 11.5253L34.1146 13.3956C33.075 14.6662 32.5552 15.3015 32.7842 15.8543C33.0132 16.4071 33.83 16.4888 35.4635 16.6521L37.868 16.8926C38.7239 16.9782 39.1519 17.021 39.4104 17.3067C39.6689 17.5924 39.6689 18.0225 39.6689 18.8827V22.8627C39.6689 23.7229 39.6689 24.153 39.4104 24.4387C39.1519 24.7244 38.7239 24.7672 37.868 24.8528L35.4644 25.0931C33.8309 25.2565 33.0141 25.3382 32.7851 25.891C32.5561 26.4438 33.0759 27.0791 34.1155 28.3497L35.6448 30.2188C36.1895 30.8845 36.4618 31.2174 36.4426 31.6023C36.4235 31.9871 36.1193 32.2912 35.5111 32.8995L32.6968 35.7138C32.0885 36.3221 31.7844 36.6262 31.3995 36.6454C31.0147 36.6646 30.6818 36.3922 30.0161 35.8475L28.1462 34.3176C26.8756 33.278 26.2403 32.7583 25.6875 32.9872C25.1347 33.2162 25.053 34.033 24.8897 35.6665L24.6492 38.0716C24.5636 38.9275 24.5208 39.3555 24.2351 39.614C23.9494 39.8726 23.5193 39.8726 22.6591 39.8726H18.679C17.8188 39.8726 17.3887 39.8726 17.103 39.614C16.8174 39.3555 16.7746 38.9275 16.689 38.0716L16.4485 35.6671C16.2852 34.0336 16.2035 33.2168 15.6507 32.9878C15.0979 32.7588 14.4626 33.2786 13.192 34.3182L11.3217 35.8484C10.656 36.3931 10.3231 36.6655 9.93827 36.6463C9.55343 36.6271 9.24931 36.3229 8.64105 35.7147L5.82673 32.9004L5.82672 32.9004C5.21847 32.2921 4.91435 31.988 4.89516 31.6032C4.87596 31.2183 5.14832 30.8854 5.69303 30.2197L7.22298 28.3497L7.22299 28.3497C8.26256 27.0791 8.78235 26.4438 8.55336 25.891C8.32438 25.3382 7.50761 25.2565 5.87407 25.0932L3.46994 24.8528H3.46992C2.614 24.7672 2.18604 24.7244 1.92749 24.4387C1.66895 24.153 1.66895 23.7229 1.66895 22.8627V18.8827C1.66895 18.0225 1.66895 17.5924 1.92749 17.3067C2.18604 17.021 2.61401 16.9782 3.46994 16.8926L5.87499 16.6521C7.50852 16.4887 8.32529 16.407 8.55427 15.8542C8.78326 15.3014 8.26347 14.6661 7.22389 13.3955L5.693 11.5244C5.14829 10.8587 4.87593 10.5258 4.89512 10.141C4.91432 9.75612 5.21845 9.452 5.8267 8.84374L8.64102 6.02942C9.24927 5.42117 9.5534 5.11704 9.93823 5.09785C10.3231 5.07865 10.6559 5.35101 11.3217 5.89572L13.1921 7.42601C14.4627 8.46559 15.098 8.98538 15.6508 8.75639C16.2036 8.52741 16.2853 7.71064 16.4486 6.0771L16.689 3.67355C16.7746 2.81762 16.8174 2.38965 17.103 2.13111C17.3887 1.87256 17.8188 1.87256 18.679 1.87256H22.6591C23.5193 1.87256 23.9494 1.87256 24.2351 2.13111C24.5208 2.38965 24.5636 2.81761 24.6492 3.67353ZM20.6689 28.4726C24.8663 28.4726 28.2689 25.0699 28.2689 20.8726C28.2689 16.6752 24.8663 13.2726 20.6689 13.2726C16.4716 13.2726 13.0689 16.6752 13.0689 20.8726C13.0689 25.0699 16.4716 28.4726 20.6689 28.4726Z" fill="#C3E8DC"></path>
  <path d="M24.6492 3.67355H23.3992V3.7359L23.4054 3.79793L24.6492 3.67355ZM24.6492 3.67353H25.8992V3.61119L25.893 3.54915L24.6492 3.67353ZM24.8896 6.07768L23.6458 6.20206L23.6458 6.20206L24.8896 6.07768ZM28.1461 7.42659L27.3546 6.45914L27.3546 6.45914L28.1461 7.42659ZM30.0161 5.89661L30.8076 6.86406L30.8076 6.86406L30.0161 5.89661ZM32.6968 6.03031L31.8129 6.9142L31.8129 6.9142L32.6968 6.03031ZM35.5111 8.84463L34.6272 9.72852L34.6272 9.72852L35.5111 8.84463ZM36.4427 10.1418L37.6911 10.0796L37.6911 10.0796L36.4427 10.1418ZM35.6448 11.5253L34.6774 10.7338L34.6774 10.7338L35.6448 11.5253ZM34.1146 13.3956L35.082 14.1871L35.082 14.1871L34.1146 13.3956ZM35.4635 16.6521L35.3391 17.8959L35.3391 17.8959L35.4635 16.6521ZM37.868 16.8926L37.7436 18.1364L37.7436 18.1364L37.868 16.8926ZM39.4104 17.3067L38.4836 18.1454L38.4836 18.1454L39.4104 17.3067ZM39.4104 24.4387L38.4836 23.5999L38.4836 23.5999L39.4104 24.4387ZM37.868 24.8528L37.9923 26.0966L37.9923 26.0966L37.868 24.8528ZM35.4644 25.0931L35.34 23.8493L35.34 23.8493L35.4644 25.0931ZM34.1155 28.3497L35.083 27.5581L35.083 27.5581L34.1155 28.3497ZM35.6448 30.2188L34.6773 31.0103L34.6773 31.0103L35.6448 30.2188ZM36.4426 31.6023L37.6911 31.6645L37.6911 31.6645L36.4426 31.6023ZM31.3995 36.6454L31.4618 37.8938L31.4618 37.8938L31.3995 36.6454ZM30.0161 35.8475L29.2245 36.8149L29.2245 36.8149L30.0161 35.8475ZM28.1462 34.3176L27.3547 35.2851L27.3547 35.2851L28.1462 34.3176ZM25.6875 32.9872L25.2092 31.8324L25.2092 31.8324L25.6875 32.9872ZM24.8897 35.6665L23.6459 35.5422L23.6459 35.5422L24.8897 35.6665ZM24.6492 38.0716L25.893 38.1959L25.893 38.1959L24.6492 38.0716ZM24.2351 39.614L23.3963 38.6872L23.3963 38.6872L24.2351 39.614ZM17.103 39.614L17.9418 38.6872L17.9418 38.6872L17.103 39.614ZM16.689 38.0716L15.4452 38.1959L15.4452 38.1959L16.689 38.0716ZM16.4485 35.6671L15.2047 35.7915L15.2047 35.7915L16.4485 35.6671ZM13.192 34.3182L12.4004 33.3508L12.4004 33.3508L13.192 34.3182ZM11.3217 35.8484L10.5302 34.8809L10.5302 34.8809L11.3217 35.8484ZM9.93827 36.6463L9.876 37.8947L9.87601 37.8947L9.93827 36.6463ZM8.64105 35.7147L7.75717 36.5986L7.75717 36.5986L8.64105 35.7147ZM5.82673 32.9004L4.92425 33.7652L4.93345 33.7748L4.94285 33.7843L5.82673 32.9004ZM5.82672 32.9004L6.72921 32.0355L6.72001 32.0259L6.7106 32.0165L5.82672 32.9004ZM4.89516 31.6032L3.64671 31.6654L3.64671 31.6654L4.89516 31.6032ZM5.69303 30.2197L6.66048 31.0112L6.66048 31.0112L5.69303 30.2197ZM7.22298 28.3497L8.19043 29.1413L8.20714 29.1209L8.22298 29.0997L7.22298 28.3497ZM7.22299 28.3497L6.25554 27.5582L6.23883 27.5786L6.22299 27.5997L7.22299 28.3497ZM8.55336 25.891L7.39851 26.3694L7.39851 26.3694L8.55336 25.891ZM5.87407 25.0932L5.99845 23.8494L5.99845 23.8494L5.87407 25.0932ZM3.46994 24.8528L3.59432 23.609L3.53228 23.6028H3.46994V24.8528ZM3.46992 24.8528L3.34553 26.0966L3.40757 26.1028H3.46992V24.8528ZM1.92749 24.4387L2.85431 23.5999L2.85431 23.5999L1.92749 24.4387ZM1.92749 17.3067L1.00068 16.4679L1.00068 16.4679L1.92749 17.3067ZM3.46994 16.8926L3.59432 18.1364L3.46994 16.8926ZM5.87499 16.6521L5.75061 15.4083L5.75061 15.4083L5.87499 16.6521ZM8.55427 15.8542L9.70912 16.3326L9.70912 16.3326L8.55427 15.8542ZM7.22389 13.3955L8.19134 12.604L8.19134 12.604L7.22389 13.3955ZM5.693 11.5244L4.72555 12.316L4.72555 12.316L5.693 11.5244ZM5.8267 8.84374L4.94282 7.95986L4.94282 7.95986L5.8267 8.84374ZM11.3217 5.89572L12.1133 4.92827L12.1133 4.92827L11.3217 5.89572ZM13.1921 7.42601L12.4005 8.39346L12.4005 8.39346L13.1921 7.42601ZM16.4486 6.0771L17.6924 6.20148L17.6924 6.20148L16.4486 6.0771ZM16.689 3.67355L15.4452 3.54917L15.4452 3.54917L16.689 3.67355ZM17.103 2.13111L16.2643 1.20429L16.2643 1.20429L17.103 2.13111ZM24.2351 2.13111L23.3963 3.05792L23.3963 3.05792L24.2351 2.13111ZM25.8992 3.67355V3.67353H23.3992V3.67355H25.8992ZM26.1334 5.9533L25.893 3.54917L23.4054 3.79793L23.6458 6.20206L26.1334 5.9533ZM26.1658 7.60212C26.4522 7.72078 26.4362 7.96315 26.3547 7.63906C26.2727 7.31321 26.2193 6.81232 26.1334 5.9533L23.6458 6.20206C23.7232 6.97657 23.7923 7.70084 23.9302 8.249C24.0686 8.79893 24.3698 9.56418 25.2091 9.91182L26.1658 7.60212ZM27.3546 6.45914C26.6864 7.00582 26.2945 7.32222 26.0061 7.49467C25.7193 7.66618 25.8793 7.48346 26.1658 7.60212L25.2091 9.91182C26.0483 10.2595 26.8025 9.93134 27.2891 9.64031C27.7743 9.35021 28.3352 8.88693 28.9377 8.39403L27.3546 6.45914ZM29.2246 4.92916L27.3546 6.45914L28.9377 8.39403L30.8076 6.86406L29.2246 4.92916ZM31.4618 3.85029C30.9165 3.82309 30.4808 4.02036 30.1518 4.22552C29.8531 4.4118 29.5316 4.67797 29.2246 4.92916L30.8076 6.86406C30.9775 6.72505 31.1104 6.61645 31.2268 6.52589C31.3434 6.43508 31.4206 6.38057 31.4746 6.3469C31.5746 6.2845 31.4978 6.35519 31.3373 6.34719L31.4618 3.85029ZM33.5807 5.14643C33.3002 4.86593 33.0068 4.56909 32.728 4.35401C32.4211 4.11714 32.0072 3.87749 31.4618 3.85029L31.3373 6.34719C31.1768 6.33918 31.1074 6.26119 31.2007 6.33324C31.2511 6.37212 31.3225 6.43404 31.4295 6.536C31.5363 6.63769 31.6577 6.75897 31.8129 6.9142L33.5807 5.14643ZM36.395 7.96075L33.5807 5.14643L31.8129 6.9142L34.6272 9.72852L36.395 7.96075ZM37.6911 10.0796C37.6639 9.53423 37.4243 9.12034 37.1874 8.81337C36.9723 8.53465 36.6755 8.24125 36.395 7.96075L34.6272 9.72852C34.7824 9.88374 34.9037 10.0051 35.0054 10.1119C35.1074 10.219 35.1693 10.2903 35.2082 10.3407C35.2802 10.434 35.2022 10.3646 35.1942 10.2041L37.6911 10.0796ZM36.6123 12.3169C36.8635 12.0099 37.1296 11.6884 37.3159 11.3896C37.5211 11.0606 37.7183 10.6249 37.6911 10.0796L35.1942 10.2041C35.1862 10.0436 35.2569 9.96677 35.1945 10.0668C35.1608 10.1208 35.1063 10.198 35.0155 10.3147C34.925 10.431 34.8164 10.5639 34.6774 10.7338L36.6123 12.3169ZM35.082 14.1871L36.6123 12.3169L34.6774 10.7338L33.1471 12.604L35.082 14.1871ZM33.9391 15.3759C34.0577 15.6624 33.875 15.8224 34.0465 15.5356C34.219 15.2473 34.5354 14.8553 35.082 14.1871L33.1471 12.604C32.6543 13.2065 32.191 13.7675 31.9009 14.2526C31.6098 14.7393 31.2817 15.4934 31.6294 16.3326L33.9391 15.3759ZM35.5879 15.4083C34.7289 15.3224 34.228 15.269 33.9021 15.187C33.578 15.1055 33.8204 15.0895 33.9391 15.3759L31.6294 16.3326C31.977 17.1719 32.7423 17.4731 33.2922 17.6115C33.8403 17.7494 34.5646 17.8185 35.3391 17.8959L35.5879 15.4083ZM37.9923 15.6488L35.5879 15.4083L35.3391 17.8959L37.7436 18.1364L37.9923 15.6488ZM40.3372 16.4679C39.9708 16.0631 39.5233 15.8945 39.1455 15.8069C38.8026 15.7274 38.387 15.6883 37.9923 15.6488L37.7436 18.1364C37.962 18.1582 38.1327 18.1754 38.279 18.1936C38.4258 18.2119 38.5189 18.2279 38.5808 18.2423C38.6957 18.2689 38.5914 18.2646 38.4836 18.1454L40.3372 16.4679ZM40.9189 18.8827C40.9189 18.486 40.9214 18.0686 40.8764 17.7194C40.8268 17.3349 40.7036 16.8728 40.3372 16.4679L38.4836 18.1454C38.3757 18.0263 38.3818 17.922 38.3969 18.039C38.405 18.1021 38.4117 18.1963 38.4153 18.3441C38.4189 18.4915 38.4189 18.6631 38.4189 18.8827H40.9189ZM40.9189 22.8627V18.8827H38.4189V22.8627H40.9189ZM40.3372 25.2775C40.7036 24.8726 40.8268 24.4105 40.8764 24.0259C40.9214 23.6768 40.9189 23.2594 40.9189 22.8627H38.4189C38.4189 23.0822 38.4189 23.2538 38.4153 23.4012C38.4117 23.549 38.405 23.6432 38.3969 23.7064C38.3818 23.8233 38.3757 23.7191 38.4836 23.5999L40.3372 25.2775ZM37.9923 26.0966C38.387 26.0571 38.8026 26.018 39.1455 25.9385C39.5233 25.8509 39.9708 25.6823 40.3372 25.2774L38.4836 23.5999C38.5914 23.4808 38.6957 23.4764 38.5808 23.5031C38.5189 23.5175 38.4258 23.5335 38.2791 23.5517C38.1327 23.57 37.962 23.5871 37.7436 23.609L37.9923 26.0966ZM35.5888 26.3369L37.9923 26.0966L37.7436 23.609L35.34 23.8493L35.5888 26.3369ZM33.94 26.3693C33.8213 26.6558 33.5789 26.6398 33.903 26.5582C34.2289 26.4763 34.7298 26.4228 35.5888 26.3369L35.34 23.8493C34.5655 23.9268 33.8413 23.9959 33.2931 24.1338C32.7432 24.2721 31.9779 24.5733 31.6303 25.4126L33.94 26.3693ZM35.083 27.5581C34.5363 26.89 34.2199 26.498 34.0474 26.2096C33.8759 25.9228 34.0586 26.0829 33.94 26.3693L31.6303 25.4126C31.2826 26.2519 31.6108 27.006 31.9018 27.4927C32.1919 27.9778 32.6552 28.5388 33.1481 29.1412L35.083 27.5581ZM36.6122 29.4272L35.083 27.5581L33.1481 29.1412L34.6773 31.0103L36.6122 29.4272ZM37.6911 31.6645C37.7183 31.1192 37.521 30.6835 37.3159 30.3545C37.1296 30.0557 36.8634 29.7343 36.6122 29.4272L34.6773 31.0103C34.8163 31.1802 34.9249 31.3131 35.0155 31.4294C35.1063 31.5461 35.1608 31.6233 35.1945 31.6773C35.2569 31.7773 35.1862 31.7005 35.1942 31.54L37.6911 31.6645ZM36.395 33.7834C36.6755 33.5029 36.9723 33.2095 37.1874 32.9307C37.4242 32.6238 37.6639 32.2099 37.6911 31.6645L35.1942 31.54C35.2022 31.3795 35.2802 31.3101 35.2081 31.4034C35.1693 31.4538 35.1073 31.5252 35.0054 31.6322C34.9037 31.739 34.7824 31.8604 34.6272 32.0156L36.395 33.7834ZM33.5806 36.5977L36.395 33.7834L34.6272 32.0156L31.8129 34.8299L33.5806 36.5977ZM31.4618 37.8938C32.0072 37.8666 32.4211 37.627 32.728 37.3901C33.0067 37.175 33.3001 36.8782 33.5806 36.5977L31.8129 34.8299C31.6576 34.9851 31.5363 35.1064 31.4295 35.2081C31.3224 35.3101 31.2511 35.372 31.2007 35.4109C31.1073 35.4829 31.1768 35.4049 31.3373 35.3969L31.4618 37.8938ZM29.2245 36.8149C29.5315 37.0661 29.853 37.3323 30.1518 37.5186C30.4808 37.7237 30.9165 37.921 31.4618 37.8938L31.3373 35.3969C31.4978 35.3889 31.5746 35.4596 31.4745 35.3972C31.4205 35.3635 31.3434 35.309 31.2267 35.2182C31.1104 35.1277 30.9775 35.0191 30.8076 34.8801L29.2245 36.8149ZM27.3547 35.2851L29.2245 36.8149L30.8076 34.8801L28.9378 33.3502L27.3547 35.2851ZM26.1659 34.1421C25.8794 34.2607 25.7194 34.078 26.0062 34.2495C26.2946 34.422 26.6865 34.7384 27.3547 35.2851L28.9378 33.3502C28.3353 32.8573 27.7744 32.394 27.2892 32.1039C26.8025 31.8129 26.0484 31.4848 25.2092 31.8324L26.1659 34.1421ZM26.1335 35.7909C26.2194 34.9319 26.2728 34.431 26.3548 34.1051C26.4363 33.7811 26.4523 34.0234 26.1659 34.1421L25.2092 31.8324C24.3699 32.18 24.0687 32.9453 23.9303 33.4952C23.7924 34.0434 23.7233 34.7676 23.6459 35.5422L26.1335 35.7909ZM25.893 38.1959L26.1335 35.7909L23.6459 35.5422L23.4054 37.9472L25.893 38.1959ZM25.0738 40.5408C25.4787 40.1744 25.6473 39.7269 25.7349 39.3492C25.8144 39.0062 25.8535 38.5907 25.893 38.1959L23.4054 37.9472C23.3835 38.1656 23.3664 38.3364 23.3481 38.4827C23.3298 38.6294 23.3138 38.7225 23.2995 38.7845C23.2728 38.8994 23.2772 38.795 23.3963 38.6872L25.0738 40.5408ZM22.6591 41.1226C23.0558 41.1226 23.4731 41.125 23.8223 41.08C24.2069 41.0304 24.669 40.9072 25.0738 40.5408L23.3963 38.6872C23.5155 38.5794 23.6197 38.5854 23.5027 38.6005C23.4396 38.6086 23.3454 38.6153 23.1976 38.6189C23.0502 38.6225 22.8786 38.6226 22.6591 38.6226V41.1226ZM18.679 41.1226H22.6591V38.6226H18.679V41.1226ZM16.2643 40.5408C16.6691 40.9072 17.1313 41.0304 17.5158 41.08C17.865 41.125 18.2824 41.1226 18.679 41.1226V38.6226C18.4595 38.6226 18.2879 38.6225 18.1405 38.6189C17.9927 38.6153 17.8985 38.6086 17.8354 38.6005C17.7184 38.5854 17.8227 38.5794 17.9418 38.6872L16.2643 40.5408ZM15.4452 38.1959C15.4846 38.5907 15.5238 39.0062 15.6033 39.3492C15.6909 39.7269 15.8594 40.1744 16.2643 40.5408L17.9418 38.6872C18.061 38.795 18.0653 38.8993 18.0387 38.7845C18.0243 38.7225 18.0083 38.6294 17.99 38.4827C17.9718 38.3364 17.9546 38.1656 17.9328 37.9472L15.4452 38.1959ZM15.2047 35.7915L15.4452 38.1959L17.9328 37.9472L17.6923 35.5427L15.2047 35.7915ZM15.1723 34.1427C14.8859 34.024 14.9019 33.7816 14.9834 34.1057C15.0654 34.4316 15.1188 34.9325 15.2047 35.7915L17.6923 35.5427C17.6149 34.7682 17.5458 34.0439 17.4079 33.4958C17.2695 32.9459 16.9683 32.1806 16.129 31.833L15.1723 34.1427ZM13.9835 35.2856C14.6517 34.739 15.0436 34.4226 15.332 34.2501C15.6188 34.0786 15.4588 34.2613 15.1723 34.1427L16.129 31.833C15.2898 31.4853 14.5356 31.8135 14.049 32.1045C13.5638 32.3946 13.0029 32.8579 12.4004 33.3508L13.9835 35.2856ZM12.1133 36.8158L13.9835 35.2856L12.4004 33.3508L10.5302 34.8809L12.1133 36.8158ZM9.87601 37.8947C10.4213 37.9219 10.857 37.7246 11.186 37.5195C11.4848 37.3332 11.8063 37.067 12.1133 36.8158L10.5302 34.8809C10.3603 35.02 10.2274 35.1286 10.1111 35.2191C9.99441 35.3099 9.91727 35.3644 9.86327 35.3981C9.76319 35.4605 9.84002 35.3898 10.0005 35.3978L9.87601 37.8947ZM7.75717 36.5986C8.03766 36.8791 8.33107 37.1759 8.60979 37.391C8.91676 37.6279 9.33066 37.8675 9.876 37.8947L10.0005 35.3978C10.161 35.4058 10.2305 35.4838 10.1371 35.4118C10.0867 35.3729 10.0154 35.311 9.90832 35.209C9.80155 35.1073 9.68016 34.986 9.52493 34.8308L7.75717 36.5986ZM4.94285 33.7843L7.75717 36.5986L9.52494 34.8308L6.71061 32.0165L4.94285 33.7843ZM4.92423 33.7652L4.92425 33.7652L6.72922 32.0355L6.72921 32.0355L4.92423 33.7652ZM3.64671 31.6654C3.67391 32.2108 3.91355 32.6247 4.15043 32.9316C4.3655 33.2103 4.66234 33.5037 4.94284 33.7842L6.7106 32.0165C6.55538 31.8613 6.4341 31.7399 6.33242 31.6331C6.23045 31.526 6.16854 31.4547 6.12966 31.4043C6.05761 31.311 6.1356 31.3804 6.14361 31.5409L3.64671 31.6654ZM4.72559 29.4281C4.47439 29.7351 4.20822 30.0566 4.02194 30.3554C3.81678 30.6844 3.61951 31.1201 3.64671 31.6654L6.14361 31.5409C6.15161 31.7014 6.08092 31.7782 6.14332 31.6782C6.17699 31.6242 6.2315 31.547 6.32231 31.4303C6.41287 31.314 6.52147 31.1811 6.66048 31.0112L4.72559 29.4281ZM6.25553 27.5582L4.72558 29.4281L6.66048 31.0112L8.19043 29.1413L6.25553 27.5582ZM6.22299 27.5997L6.22298 27.5997L8.22298 29.0997L8.22299 29.0997L6.22299 27.5997ZM7.39851 26.3694C7.27986 26.0829 7.46257 25.9229 7.29107 26.2097C7.11862 26.4981 6.80222 26.89 6.25554 27.5582L8.19044 29.1413C8.68333 28.5389 9.14661 27.9779 9.4367 27.4927C9.72773 27.0061 10.0559 26.252 9.70821 25.4127L7.39851 26.3694ZM5.74969 26.337C6.60872 26.4229 7.10961 26.4763 7.43546 26.5583C7.75954 26.6398 7.51717 26.6559 7.39851 26.3694L9.70821 25.4127C9.36057 24.5734 8.59532 24.2722 8.04539 24.1338C7.49723 23.9959 6.77297 23.9268 5.99845 23.8494L5.74969 26.337ZM3.34556 26.0966L5.74969 26.337L5.99845 23.8494L3.59432 23.609L3.34556 26.0966ZM3.46992 26.1028H3.46994V23.6028H3.46992V26.1028ZM1.00068 25.2775C1.36706 25.6823 1.81463 25.8509 2.19234 25.9385C2.53529 26.018 2.95083 26.0571 3.34553 26.0966L3.5943 23.609C3.37587 23.5871 3.20514 23.57 3.05883 23.5517C2.91213 23.5335 2.81903 23.5175 2.75704 23.5031C2.64216 23.4764 2.74648 23.4808 2.85431 23.5999L1.00068 25.2775ZM0.418945 22.8627C0.418945 23.2594 0.416517 23.6768 0.461518 24.0259C0.51108 24.4105 0.634295 24.8726 1.00068 25.2775L2.85431 23.5999C2.96214 23.7191 2.95608 23.8233 2.94101 23.7064C2.93288 23.6432 2.92622 23.549 2.92261 23.4012C2.91902 23.2538 2.91895 23.0822 2.91895 22.8627H0.418945ZM0.418945 18.8827V22.8627H2.91895V18.8827H0.418945ZM1.00068 16.4679C0.634295 16.8728 0.51108 17.3349 0.461518 17.7194C0.416517 18.0686 0.418945 18.486 0.418945 18.8827H2.91895C2.91895 18.6631 2.91902 18.4915 2.92261 18.3441C2.92622 18.1963 2.93288 18.1021 2.94101 18.039C2.95608 17.922 2.96214 18.0263 2.85431 18.1454L1.00068 16.4679ZM3.34556 15.6488C2.95084 15.6883 2.5353 15.7274 2.19235 15.8069C1.81463 15.8945 1.36706 16.0631 1.00068 16.4679L2.85431 18.1454C2.74647 18.2646 2.64216 18.2689 2.75704 18.2423C2.81904 18.2279 2.91213 18.2119 3.05884 18.1936C3.20515 18.1754 3.37589 18.1582 3.59432 18.1364L3.34556 15.6488ZM5.75061 15.4083L3.34556 15.6488L3.59432 18.1364L5.99937 17.8959L5.75061 15.4083ZM7.39943 15.3759C7.51808 15.0894 7.76045 15.1054 7.43637 15.187C7.11052 15.2689 6.60963 15.3224 5.75061 15.4083L5.99937 17.8959C6.77388 17.8184 7.49814 17.7493 8.04631 17.6114C8.59624 17.4731 9.36148 17.1719 9.70912 16.3326L7.39943 15.3759ZM6.25645 14.1871C6.80313 14.8552 7.11953 15.2472 7.29198 15.5356C7.46349 15.8224 7.28077 15.6623 7.39942 15.3759L9.70912 16.3326C10.0568 15.4933 9.72864 14.7392 9.43761 14.2525C9.14752 13.7674 8.68424 13.2064 8.19134 12.604L6.25645 14.1871ZM4.72555 12.316L6.25645 14.1871L8.19134 12.604L6.66044 10.7329L4.72555 12.316ZM3.64668 10.0787C3.61948 10.624 3.81675 11.0597 4.02191 11.3887C4.20818 11.6875 4.47436 12.009 4.72555 12.316L6.66044 10.7329C6.52144 10.563 6.41283 10.4301 6.32228 10.3138C6.23147 10.1971 6.17696 10.12 6.14329 10.066C6.08088 9.96588 6.15158 10.0427 6.14357 10.2032L3.64668 10.0787ZM4.94282 7.95986C4.66232 8.24035 4.36548 8.53376 4.1504 8.81248C3.91352 9.11945 3.67388 9.53335 3.64668 10.0787L6.14357 10.2032C6.13557 10.3637 6.05758 10.4332 6.12963 10.3398C6.16851 10.2894 6.23043 10.2181 6.33239 10.111C6.43407 10.0042 6.55536 9.88285 6.71058 9.72763L4.94282 7.95986ZM7.75714 5.14554L4.94282 7.95986L6.71058 9.72763L9.5249 6.9133L7.75714 5.14554ZM9.87597 3.8494C9.33062 3.8766 8.91673 4.11625 8.60976 4.35312C8.33104 4.5682 8.03763 4.86504 7.75714 5.14554L9.5249 6.9133C9.68013 6.75808 9.80152 6.6368 9.90828 6.53511C10.0153 6.43315 10.0867 6.37123 10.1371 6.33235C10.2304 6.2603 10.161 6.33829 10.0005 6.3463L9.87597 3.8494ZM12.1133 4.92827C11.8062 4.67708 11.4848 4.41091 11.186 4.22463C10.857 4.01947 10.4213 3.8222 9.87597 3.8494L10.0005 6.3463C9.83999 6.3543 9.76316 6.28361 9.86323 6.34601C9.91724 6.37968 9.99438 6.43419 10.1111 6.525C10.2274 6.61556 10.3603 6.72416 10.5302 6.86317L12.1133 4.92827ZM13.9836 6.45856L12.1133 4.92827L10.5302 6.86317L12.4005 8.39346L13.9836 6.45856ZM15.1724 7.60154C15.4589 7.48289 15.6189 7.6656 15.3321 7.49409C15.0437 7.32165 14.6518 7.00524 13.9836 6.45856L12.4005 8.39346C13.0029 8.88635 13.5639 9.34963 14.0491 9.63973C14.5357 9.93076 15.2898 10.2589 16.1291 9.91124L15.1724 7.60154ZM15.2048 5.95272C15.1189 6.81175 15.0655 7.31263 14.9835 7.63849C14.902 7.96257 14.886 7.7202 15.1724 7.60154L16.1291 9.91124C16.9684 9.5636 17.2696 8.79835 17.408 8.24842C17.5459 7.70026 17.615 6.976 17.6924 6.20148L15.2048 5.95272ZM15.4452 3.54917L15.2048 5.95272L17.6924 6.20148L17.9328 3.79793L15.4452 3.54917ZM16.2643 1.20429C15.8594 1.57067 15.6909 2.01825 15.6033 2.39596C15.5238 2.73892 15.4846 3.15446 15.4452 3.54917L17.9328 3.79793C17.9546 3.5795 17.9718 3.40876 17.99 3.26246C18.0083 3.11575 18.0243 3.02265 18.0387 2.96066C18.0653 2.84577 18.061 2.95009 17.9418 3.05792L16.2643 1.20429ZM18.679 0.622559C18.2824 0.622559 17.865 0.62013 17.5158 0.665131C17.1313 0.714693 16.6691 0.837908 16.2643 1.20429L17.9418 3.05792C17.8226 3.16576 17.7184 3.1597 17.8354 3.14462C17.8985 3.13649 17.9927 3.12983 18.1405 3.12623C18.2879 3.12263 18.4595 3.12256 18.679 3.12256V0.622559ZM22.6591 0.622559H18.679V3.12256H22.6591V0.622559ZM25.0738 1.20429C24.669 0.837908 24.2069 0.714693 23.8223 0.665131C23.4731 0.62013 23.0558 0.622559 22.6591 0.622559V3.12256C22.8786 3.12256 23.0502 3.12263 23.1976 3.12623C23.3454 3.12983 23.4396 3.13649 23.5027 3.14462C23.6197 3.1597 23.5155 3.16576 23.3963 3.05792L25.0738 1.20429ZM25.893 3.54915C25.8535 3.15444 25.8144 2.73891 25.7349 2.39595C25.6473 2.01824 25.4787 1.57067 25.0738 1.20429L23.3963 3.05792C23.2772 2.95009 23.2728 2.84577 23.2995 2.96065C23.3138 3.02265 23.3298 3.11574 23.3481 3.26245C23.3664 3.40875 23.3835 3.57949 23.4054 3.79792L25.893 3.54915ZM27.0189 20.8726C27.0189 24.3796 24.176 27.2226 20.6689 27.2226V29.7226C25.5567 29.7226 29.5189 25.7603 29.5189 20.8726H27.0189ZM20.6689 14.5226C24.176 14.5226 27.0189 17.3655 27.0189 20.8726H29.5189C29.5189 15.9848 25.5567 12.0226 20.6689 12.0226V14.5226ZM14.3189 20.8726C14.3189 17.3655 17.1619 14.5226 20.6689 14.5226V12.0226C15.7812 12.0226 11.8189 15.9848 11.8189 20.8726H14.3189ZM20.6689 27.2226C17.1619 27.2226 14.3189 24.3796 14.3189 20.8726H11.8189C11.8189 25.7603 15.7812 29.7226 20.6689 29.7226V27.2226Z" fill="#44BA93"></path>
</svg>
