<svg width="358" height="395" viewBox="0 0 358 395" fill="none" xmlns="http://www.w3.org/2000/svg">
<rect x="26" y="44" width="332" height="351" rx="8" fill="#1A1A1A"/>
<rect x="52" y="232.479" width="280" height="136.982" rx="4.61538" fill="#282B2E"/>
<path d="M192 289.678C192 287.895 193.446 286.449 195.229 286.449C197.013 286.449 198.458 287.895 198.458 289.678C198.458 291.462 197.013 292.908 195.229 292.908C193.446 292.908 192 291.462 192 289.678Z" fill="#3C3F42"/>
<path fill-rule="evenodd" clip-rule="evenodd" d="M189.36 281.283C187.6 281.283 186.199 281.283 185.07 281.375C183.913 281.469 182.927 281.667 182.023 282.127C180.565 282.87 179.379 284.056 178.636 285.514C178.176 286.417 177.979 287.404 177.884 288.561C177.792 289.69 177.792 291.09 177.792 292.851V298.131C177.792 299.891 177.792 301.292 177.884 302.421C177.979 303.578 178.176 304.564 178.636 305.468C179.379 306.926 180.565 308.112 182.023 308.855C182.927 309.315 183.913 309.512 185.07 309.607C186.199 309.699 187.6 309.699 189.36 309.699H194.64C196.401 309.699 197.801 309.699 198.93 309.607C200.087 309.512 201.074 309.315 201.977 308.855C203.435 308.112 204.621 306.926 205.364 305.468C205.824 304.564 206.022 303.578 206.116 302.421C206.208 301.292 206.208 299.891 206.208 298.131V292.851C206.208 291.091 206.208 289.69 206.116 288.561C206.022 287.404 205.824 286.417 205.364 285.514C204.621 284.056 203.435 282.87 201.977 282.127C201.074 281.667 200.087 281.469 198.93 281.375C197.801 281.283 196.401 281.283 194.64 281.283H189.36ZM183.196 284.429C183.674 284.185 184.283 284.031 185.28 283.95C186.292 283.867 187.587 283.866 189.417 283.866H194.583C196.413 283.866 197.708 283.867 198.72 283.95C199.717 284.031 200.326 284.185 200.804 284.429C201.776 284.924 202.567 285.715 203.062 286.687C203.306 287.165 203.46 287.774 203.541 288.771C203.624 289.783 203.625 291.078 203.625 292.908V298.074C203.625 298.537 203.625 298.966 203.624 299.364L201.577 297.318C200.568 296.309 198.932 296.309 197.923 297.318L195.04 300.201C194.788 300.453 194.379 300.453 194.127 300.201L186.077 292.151C185.068 291.142 183.432 291.142 182.423 292.151L180.375 294.199V292.908C180.375 291.078 180.376 289.783 180.459 288.771C180.54 287.774 180.694 287.165 180.938 286.687C181.434 285.715 182.224 284.924 183.196 284.429Z" fill="#3C3F42"/>
<path d="M192 289.678C192 287.895 193.446 286.449 195.229 286.449C197.013 286.449 198.458 287.895 198.458 289.678C198.458 291.462 197.013 292.908 195.229 292.908C193.446 292.908 192 291.462 192 289.678Z" stroke="#3C3F42" stroke-width="0.770769"/>
<path fill-rule="evenodd" clip-rule="evenodd" d="M189.36 281.283C187.6 281.283 186.199 281.283 185.07 281.375C183.913 281.469 182.927 281.667 182.023 282.127C180.565 282.87 179.379 284.056 178.636 285.514C178.176 286.417 177.979 287.404 177.884 288.561C177.792 289.69 177.792 291.09 177.792 292.851V298.131C177.792 299.891 177.792 301.292 177.884 302.421C177.979 303.578 178.176 304.564 178.636 305.468C179.379 306.926 180.565 308.112 182.023 308.855C182.927 309.315 183.913 309.512 185.07 309.607C186.199 309.699 187.6 309.699 189.36 309.699H194.64C196.401 309.699 197.801 309.699 198.93 309.607C200.087 309.512 201.074 309.315 201.977 308.855C203.435 308.112 204.621 306.926 205.364 305.468C205.824 304.564 206.022 303.578 206.116 302.421C206.208 301.292 206.208 299.891 206.208 298.131V292.851C206.208 291.091 206.208 289.69 206.116 288.561C206.022 287.404 205.824 286.417 205.364 285.514C204.621 284.056 203.435 282.87 201.977 282.127C201.074 281.667 200.087 281.469 198.93 281.375C197.801 281.283 196.401 281.283 194.64 281.283H189.36ZM183.196 284.429C183.674 284.185 184.283 284.031 185.28 283.95C186.292 283.867 187.587 283.866 189.417 283.866H194.583C196.413 283.866 197.708 283.867 198.72 283.95C199.717 284.031 200.326 284.185 200.804 284.429C201.776 284.924 202.567 285.715 203.062 286.687C203.306 287.165 203.46 287.774 203.541 288.771C203.624 289.783 203.625 291.078 203.625 292.908V298.074C203.625 298.537 203.625 298.966 203.624 299.364L201.577 297.318C200.568 296.309 198.932 296.309 197.923 297.318L195.04 300.201C194.788 300.453 194.379 300.453 194.127 300.201L186.077 292.151C185.068 291.142 183.432 291.142 182.423 292.151L180.375 294.199V292.908C180.375 291.078 180.376 289.783 180.459 288.771C180.54 287.774 180.694 287.165 180.938 286.687C181.434 285.715 182.224 284.924 183.196 284.429Z" stroke="#3C3F42" stroke-width="0.770769"/>
<rect x="83" y="90" width="218" height="13.8462" rx="6.92308" fill="#3C3F42"/>
<rect x="144.573" y="111.231" width="94.855" height="13.8462" rx="6.92308" fill="#3C3F42"/>
<rect x="52" y="141.077" width="280" height="6" rx="3" fill="#282B2E"/>
<rect x="72.8396" y="152.615" width="237.786" height="6" rx="3" fill="#282B2E"/>
<rect x="131.084" y="164.154" width="121.832" height="6" rx="3" fill="#282B2E"/>
<rect x="141" y="190.41" width="47.9022" height="19.5" rx="5.08696" fill="#3C3F42"/>
<rect x="154.565" y="196.769" width="20.7717" height="6.78261" rx="3.3913" fill="#1C1F22"/>
<rect x="195.685" y="190.41" width="47.9022" height="19.5" rx="5.08696" fill="#3C3F42"/>
<rect x="209.25" y="196.769" width="20.7717" height="6.78261" rx="3.3913" fill="#1C1F22"/>
</svg>
