<svg width="320" height="233" viewBox="0 0 320 233" fill="none" xmlns="http://www.w3.org/2000/svg">
<rect opacity="0.6" x="22" y="47" width="244" height="171" rx="6" fill="#506558"/>
<rect opacity="0.5" x="38" y="62" width="212" height="171" rx="4" fill="#506558"/>
<rect y="32" width="288" height="171" rx="8" fill="#556A5D"/>
<path d="M0 40C0 35.5817 3.58172 32 8 32H280C284.418 32 288 35.5817 288 40V66H0V40Z" fill="#5F7467"/>
<circle cx="17" cy="49" r="5" fill="#08CF6A"/>
<circle cx="33" cy="49" r="5" fill="#FFA500"/>
<circle cx="49" cy="49" r="5" fill="#FF4E40"/>
<path d="M110.793 104.585C110.793 119.578 110.793 134.572 110.793 150.019C108.555 150.019 106.317 150.019 104.011 150.019C103.936 140.546 103.862 131.073 103.785 121.312C98.1897 126.907 92.5947 132.501 86.8301 138.265C85.9329 137.817 85.357 137.307 84.6655 136.608C84.5422 136.485 84.4189 136.362 84.2919 136.235C83.885 135.829 83.4797 135.422 83.0745 135.014C82.7908 134.73 82.507 134.446 82.2231 134.162C81.6278 133.567 81.0332 132.97 80.4393 132.373C79.6819 131.612 78.9231 130.853 78.1637 130.094C77.5769 129.507 76.9908 128.919 76.4048 128.332C76.1255 128.052 75.846 127.772 75.5664 127.492C73.1179 125.041 73.1179 125.041 72.1784 123.951C71.3803 123.031 70.5111 122.174 69.6495 121.312C69.5749 130.86 69.5003 140.408 69.4234 150.245C67.1854 150.245 64.9474 150.245 62.6416 150.245C62.6416 135.252 62.6416 120.259 62.6416 104.811C64.4218 106.337 64.4218 106.337 65.264 107.18C65.5497 107.465 65.5497 107.465 65.8412 107.756C66.0448 107.961 66.2483 108.165 66.4581 108.375C66.6788 108.596 66.8995 108.817 67.1203 109.037C67.7152 109.632 68.3095 110.228 68.9037 110.824C69.5263 111.448 70.1495 112.071 70.7727 112.694C71.9508 113.873 73.1283 115.052 74.3057 116.232C75.6468 117.575 76.9886 118.918 78.3305 120.261C81.0891 123.022 83.8468 125.783 86.604 128.545C86.8535 128.333 87.1028 128.121 87.3519 127.909C87.4907 127.791 87.6295 127.672 87.7725 127.551C88.3981 127.004 88.9851 126.423 89.5711 125.835C89.6956 125.71 89.82 125.586 89.9483 125.458C90.2092 125.197 90.4698 124.936 90.7301 124.675C91.1235 124.281 91.5182 123.887 91.9129 123.494C92.1685 123.238 92.424 122.982 92.6794 122.727C92.7949 122.612 92.9103 122.497 93.0292 122.378C93.6451 121.758 94.2324 121.124 94.802 120.461C95.5676 119.583 96.3674 118.751 97.1921 117.929C97.4102 117.71 97.4102 117.71 97.6327 117.487C98.1069 117.012 98.5818 116.538 99.0568 116.064C99.3885 115.732 99.7203 115.4 100.052 115.068C100.744 114.376 101.436 113.685 102.128 112.993C103.017 112.105 103.906 111.216 104.794 110.327C105.477 109.643 106.16 108.96 106.844 108.277C107.172 107.949 107.5 107.621 107.828 107.293C108.283 106.836 108.74 106.381 109.196 105.926C109.333 105.789 109.469 105.652 109.609 105.512C110.541 104.585 110.541 104.585 110.793 104.585Z" fill="white"/>
<path d="M181.722 100.434C182.429 100.745 182.908 101.107 183.453 101.65C183.614 101.809 183.775 101.968 183.94 102.131C184.201 102.393 184.201 102.393 184.468 102.66C184.745 102.935 184.745 102.935 185.029 103.216C185.64 103.823 186.25 104.432 186.861 105.041C187.284 105.462 187.708 105.883 188.132 106.304C189.134 107.3 190.134 108.296 191.134 109.293C192.273 110.428 193.414 111.562 194.554 112.695C196.899 115.027 199.243 117.36 201.585 119.694C202.784 118.701 203.901 117.652 205.002 116.553C205.179 116.378 205.355 116.203 205.537 116.023C206.115 115.449 206.692 114.875 207.27 114.3C207.672 113.9 208.075 113.501 208.477 113.101C209.426 112.159 210.374 111.217 211.322 110.274C212.401 109.2 213.482 108.127 214.562 107.054C216.783 104.848 219.003 102.641 221.223 100.434C221.996 100.796 222.5 101.201 223.103 101.807C223.373 102.078 223.373 102.078 223.649 102.354C223.836 102.543 224.022 102.731 224.214 102.925C224.403 103.116 224.593 103.306 224.788 103.502C225.256 103.971 225.723 104.442 226.189 104.913C225.875 105.615 225.51 106.09 224.963 106.631C224.803 106.79 224.643 106.95 224.478 107.114C224.302 107.287 224.126 107.46 223.945 107.638C223.76 107.821 223.575 108.005 223.385 108.194C222.773 108.801 222.159 109.406 221.546 110.012C221.121 110.432 220.697 110.853 220.272 111.273C219.269 112.267 218.265 113.26 217.26 114.252C216.116 115.382 214.973 116.513 213.831 117.645C211.481 119.972 209.129 122.297 206.777 124.621C207.766 125.796 208.808 126.891 209.901 127.971C210.073 128.141 210.245 128.312 210.422 128.488C210.986 129.047 211.55 129.605 212.115 130.163C212.508 130.553 212.9 130.942 213.293 131.332C214.323 132.353 215.354 133.374 216.386 134.395C217.439 135.438 218.492 136.481 219.545 137.525C221.608 139.57 223.673 141.614 225.737 143.658C225.521 143.909 225.305 144.16 225.089 144.411C224.909 144.621 224.909 144.621 224.725 144.835C224.336 145.279 223.931 145.7 223.51 146.113C223.362 146.26 223.213 146.407 223.06 146.557C222.91 146.705 222.76 146.852 222.605 147.003C222.45 147.156 222.295 147.31 222.135 147.467C221.756 147.84 221.377 148.213 220.997 148.585C219.813 147.603 218.709 146.57 217.622 145.485C217.45 145.314 217.278 145.144 217.1 144.968C216.537 144.409 215.974 143.849 215.411 143.289C215.019 142.899 214.627 142.509 214.234 142.119C213.205 141.097 212.176 140.074 211.147 139.051C210.096 138.006 209.044 136.961 207.992 135.916C205.931 133.869 203.871 131.821 201.811 129.772C200.627 130.754 199.523 131.787 198.435 132.872C198.263 133.043 198.091 133.213 197.914 133.389C197.351 133.949 196.788 134.509 196.225 135.069C195.833 135.458 195.44 135.848 195.048 136.238C194.018 137.26 192.99 138.283 191.961 139.306C190.91 140.352 189.858 141.396 188.806 142.441C186.745 144.488 184.685 146.536 182.625 148.585C182.372 148.371 182.118 148.156 181.865 147.942C181.724 147.822 181.583 147.703 181.438 147.58C180.991 147.195 180.567 146.793 180.15 146.375C180.002 146.228 179.854 146.081 179.702 145.929C179.554 145.78 179.406 145.631 179.253 145.477C179.022 145.246 179.022 145.246 178.785 145.01C178.409 144.635 178.034 144.258 177.659 143.882C178.648 142.707 179.69 141.612 180.783 140.533C180.955 140.362 181.127 140.191 181.304 140.016C181.868 139.456 182.432 138.898 182.997 138.34C183.39 137.95 183.783 137.561 184.175 137.171C185.206 136.15 186.237 135.129 187.268 134.109C188.321 133.066 189.374 132.022 190.427 130.978C192.491 128.933 194.555 126.889 196.619 124.845C195.618 123.656 194.561 122.548 193.454 121.455C193.277 121.28 193.101 121.105 192.919 120.925C192.341 120.351 191.762 119.778 191.183 119.205C190.78 118.806 190.377 118.406 189.974 118.007C189.025 117.066 188.075 116.125 187.125 115.185C186.043 114.114 184.961 113.042 183.879 111.969C181.656 109.766 179.432 107.563 177.208 105.361C177.573 104.594 177.98 104.094 178.592 103.496C178.865 103.227 178.865 103.227 179.143 102.953C179.333 102.769 179.523 102.584 179.719 102.394C179.91 102.205 180.102 102.017 180.3 101.823C180.773 101.359 181.247 100.896 181.722 100.434Z" fill="#F9AD03"/>
<path d="M142.264 102.094C144.505 102.094 146.747 102.094 149.056 102.094C149.131 113.678 149.206 125.261 149.283 137.195C153.915 132.591 158.548 127.988 163.321 123.245C165.104 124.764 165.104 124.764 165.754 125.416C165.892 125.553 166.029 125.691 166.172 125.833C166.309 125.972 166.447 126.111 166.589 126.254C166.733 126.398 166.878 126.543 167.026 126.691C167.376 127.042 167.726 127.393 168.075 127.745C167.745 128.5 167.327 128.994 166.743 129.573C166.559 129.756 166.376 129.939 166.187 130.128C165.985 130.326 165.784 130.525 165.576 130.73C165.361 130.943 165.147 131.156 164.933 131.369C164.352 131.946 163.77 132.522 163.187 133.098C162.579 133.7 161.971 134.304 161.364 134.907C160.213 136.049 159.061 137.19 157.909 138.33C156.597 139.629 155.287 140.928 153.977 142.228C151.281 144.902 148.585 147.574 145.887 150.245C144.583 149.169 143.384 148.014 142.189 146.821C141.983 146.617 141.778 146.413 141.566 146.202C141.006 145.646 140.448 145.09 139.889 144.533C139.304 143.95 138.717 143.367 138.131 142.784C137.024 141.683 135.916 140.581 134.809 139.478C133.548 138.222 132.286 136.967 131.025 135.712C128.431 133.132 125.838 130.551 123.245 127.97C123.611 127.199 124.02 126.697 124.634 126.096C124.816 125.916 124.999 125.736 125.186 125.551C125.377 125.365 125.568 125.18 125.764 124.989C125.956 124.799 126.149 124.61 126.347 124.416C126.821 123.949 127.297 123.484 127.773 123.02C129.382 124.325 130.823 125.797 132.287 127.258C132.537 127.507 132.787 127.756 133.037 128.004C133.958 128.92 134.877 129.837 135.797 130.754C138.886 133.831 138.886 133.831 142.038 136.97C142.112 125.461 142.187 113.952 142.264 102.094Z" fill="white"/>
<rect x="257" y="1" width="62" height="62" rx="31" fill="#08CF6A"/>
<rect x="257" y="1" width="62" height="62" rx="31" stroke="white" stroke-width="2"/>
<path d="M274 32.0001L283.667 41L303 23" stroke="white" stroke-width="5" stroke-linecap="round" stroke-linejoin="round"/>
</svg>
