<?xml version="1.0" encoding="UTF-8"?>
<svg xmlns="http://www.w3.org/2000/svg" width="45" height="54" viewBox="0 0 45 54" fill="none">
  <g clipPath="url(#clip0_1080_23526)">
    <path d="M27.6722 42.8583C28.0495 41.2788 28.7515 39.8764 29.8604 38.6852C32.395 35.9596 36.4516 35.1349 39.8357 36.6725C43.282 38.2379 45.3398 41.8022 44.9546 45.5358C44.5244 49.6996 41.2195 53.0417 37.1769 53.4021C32.8998 53.7826 29.0792 51.2402 27.8741 47.1758C27.7436 46.7379 27.5712 46.609 27.1255 46.6121C23.8314 46.6323 20.5374 46.64 17.2433 46.6183C14.1667 46.5965 11.2392 45.9474 8.62539 44.253C4.99588 41.9016 3.6851 38.4523 4.18829 34.273C4.69614 30.0595 7.31616 27.5327 11.0963 26.0495C13.0439 25.2854 15.0784 24.9422 17.175 24.9484C20.643 24.9593 24.111 24.9655 27.579 24.9468C29.6942 24.936 31.7427 24.5617 33.639 23.5739C36.7576 21.9463 38.0218 18.4675 36.6722 15.2433C35.936 13.4837 34.5445 12.4167 32.8454 11.7132C31.2162 11.0376 29.5079 10.7317 27.7451 10.7301C24.4511 10.727 21.1571 10.7363 17.863 10.7192C17.4452 10.7177 17.2713 10.8373 17.1486 11.2519C15.9326 15.3505 12.1338 17.9053 7.87837 17.5139C3.84972 17.1411 0.57276 13.9046 0.0649079 9.79516C-0.486429 5.34563 2.53117 1.1477 6.96361 0.192568C11.3852 -0.75946 15.8565 1.89162 17.1269 6.26504C17.3039 6.8754 17.5617 7.01517 18.155 7.01207C21.6618 6.99032 25.1702 6.96392 28.6754 7.03692C31.269 7.09127 33.7229 7.78394 35.9702 9.11491C39.8528 11.4166 41.3018 15.0927 40.7862 19.2968C40.2535 23.6376 37.5357 26.1769 33.6328 27.6476C31.6713 28.3869 29.6259 28.6773 27.537 28.6788C24.069 28.682 20.6011 28.6664 17.1331 28.6851C14.8889 28.6975 12.7643 29.1867 10.8028 30.3298C6.77414 32.678 6.81141 38.8996 10.7997 41.2198C12.7301 42.3442 14.8206 42.8459 17.0135 42.8801C20.4426 42.9329 23.8718 42.8956 27.301 42.894C27.4143 42.894 27.5293 42.8738 27.6737 42.8599L27.6722 42.8583ZM41.2242 44.6241C41.2242 41.8348 39.0375 39.6419 36.2544 39.6404C33.5225 39.6404 31.3172 41.8597 31.3203 44.604C31.3234 47.3451 33.535 49.5613 36.2668 49.5629C39.0095 49.5644 41.2242 47.3591 41.2257 44.6226L41.2242 44.6241ZM8.71702 3.74753C5.97897 3.72268 3.75964 5.91871 3.74256 8.66608C3.72548 11.4212 5.89977 13.6468 8.63471 13.6747C11.365 13.7027 13.6294 11.4911 13.6464 8.7779C13.6635 5.98705 11.4939 3.77238 8.71702 3.74753Z" fill="#44BA93"></path>
    <path d="M41.2228 44.6257C41.2228 47.3622 39.0066 49.5676 36.2639 49.566C33.5321 49.5645 31.322 47.3467 31.3174 44.6071C31.3143 41.8613 33.5196 39.6435 36.2515 39.6435C39.0346 39.6435 41.2228 41.8364 41.2213 44.6273L41.2228 44.6257Z" fill="white"></path>
    <path d="M8.71773 3.74752C11.4946 3.77237 13.6642 5.98704 13.6471 8.77789C13.6301 11.4911 11.3673 13.7027 8.63541 13.6747C5.90047 13.6467 3.72618 11.4212 3.74326 8.66607C3.76035 5.91871 5.97968 3.72267 8.71773 3.74752Z" fill="#C3E8DC"></path>
  </g>
  <defs>
    <clipPath id="clip0_1080_23526">
      <rect width="45" height="53.4409" fill="white"></rect>
    </clipPath>
  </defs>
</svg>
