<?xml version="1.0" encoding="UTF-8"?>
<svg xmlns="http://www.w3.org/2000/svg" width="45" height="45" viewBox="0 0 45 45" fill="none">
  <g clipPath="url(#clip0_1080_23522)">
    <path d="M22.4935 1.4453e-06C28.5906 1.4453e-06 34.6891 -0.00261986 40.7863 0.0013121C42.9069 0.00262275 44.4902 1.23071 44.9083 3.20193C44.9751 3.51911 44.9882 3.85201 44.9908 4.17706C44.9987 5.89664 45.0079 7.61621 44.9908 9.33579C44.9817 10.3017 44.5124 11.0934 43.903 11.7946C41.456 14.6112 38.9959 17.416 36.5397 20.2247C34.6118 22.4292 32.6864 24.6377 30.7506 26.8356C30.4609 27.1646 30.3443 27.5133 30.3456 27.9484C30.3574 31.0599 30.3535 34.1727 30.3508 37.2842C30.3508 39.3511 29.339 40.7574 27.3835 41.4167C24.9863 42.224 22.5891 43.0327 20.1906 43.8348C17.2692 44.8126 14.6571 42.937 14.6544 39.857C14.6505 35.9093 14.6466 31.9616 14.661 28.0152C14.6623 27.5237 14.5273 27.1423 14.2036 26.7727C9.94263 21.9168 5.68956 17.049 1.43518 12.1838C1.28445 12.0108 1.12586 11.8444 0.986933 11.6635C0.37879 10.8679 -0.0262026 10.0147 0.00132112 8.96357C0.043262 7.37636 0.00656373 5.78654 0.013117 4.19803C0.0249129 1.69468 1.70517 0.00524406 4.20066 0.00262275C10.2991 -0.00261986 16.3963 1.4453e-06 22.4935 1.4453e-06ZM4.62269 11.0593C4.77079 11.2415 4.85861 11.3568 4.95428 11.4656C8.82727 15.8825 12.6963 20.3047 16.5785 24.7137C17.3963 25.643 17.8052 26.6902 17.8 27.9314C17.7843 31.7309 17.7948 35.5318 17.7948 39.3314C17.7948 39.5765 17.7856 39.8229 17.7987 40.068C17.8315 40.7115 18.2561 41.0471 18.8892 40.9278C19.0491 40.8977 19.2037 40.8426 19.3584 40.7915C21.6979 40.0182 24.0374 39.2436 26.3782 38.469C27.1541 38.2121 27.3036 38.009 27.3036 37.1911C27.3036 34.0783 27.314 30.9668 27.2983 27.854C27.2931 26.664 27.6889 25.6574 28.4687 24.7674C32.3732 20.3125 36.2697 15.8497 40.1676 11.3896C40.2476 11.2992 40.3118 11.1956 40.414 11.058H4.62269V11.0593ZM41.9396 7.88097C41.9396 6.68565 41.9396 5.52572 41.9396 4.3671C41.9396 3.42343 41.6945 3.17965 40.7509 3.17965C30.5828 3.17965 20.4148 3.17965 10.2467 3.17965C8.25189 3.17965 6.25838 3.17965 4.26357 3.17965C3.42999 3.17965 3.15475 3.45751 3.15344 4.30288C3.15082 5.3514 3.15082 6.39993 3.15344 7.44714C3.15344 7.58738 3.17441 7.72762 3.18752 7.88097H41.9396Z" fill="#44BA93"></path>
    <path d="M4.62289 11.0593H40.4129C40.3107 11.1969 40.2452 11.3005 40.1665 11.3909C36.2686 15.8524 32.3734 20.3152 28.4676 24.7688C27.6878 25.6574 27.292 26.6653 27.2972 27.8554C27.3116 30.9682 27.3025 34.0797 27.3025 37.1925C27.3025 38.0103 27.153 38.2148 26.3771 38.4703C24.0376 39.2449 21.6981 40.0195 19.3573 40.7928C19.2026 40.8439 19.0466 40.9003 18.8881 40.9291C18.2563 41.0471 17.8317 40.7129 17.7976 40.0693C17.7845 39.8243 17.7937 39.5779 17.7937 39.3328C17.7937 35.5332 17.7832 31.7323 17.7989 27.9327C17.8041 26.6902 17.3952 25.643 16.5774 24.715C12.6952 20.306 8.82616 15.8852 4.95318 11.4669C4.8575 11.3582 4.76969 11.2428 4.62158 11.0606L4.62289 11.0593Z" fill="white"></path>
    <path d="M41.9394 7.88098H3.18597C3.17418 7.72763 3.15321 7.58739 3.1519 7.44715C3.14927 6.39863 3.14796 5.3501 3.1519 4.30289C3.15452 3.45752 3.42844 3.18097 4.26202 3.17966C6.25684 3.17835 8.25034 3.17966 10.2452 3.17966C20.4132 3.17966 30.5813 3.17966 40.7493 3.17966C41.693 3.17966 41.9368 3.42344 41.9381 4.36711C41.9381 5.52573 41.9381 6.68566 41.9381 7.88098H41.9394Z" fill="#C3E8DC"></path>
  </g>
  <defs>
    <clipPath id="clip0_1080_23522">
      <rect width="45" height="44.0983" fill="white"></rect>
    </clipPath>
  </defs>
</svg>
