<?xml version="1.0" encoding="UTF-8"?>
<svg xmlns="http://www.w3.org/2000/svg" width="45" height="46" viewBox="0 0 45 46" fill="none">
  <g clipPath="url(#clip0_1080_23530)">
    <path d="M22.5101 1.20238e-06C34.9152 0.00402709 45.0094 10.1157 45 22.5275C44.9906 34.9782 34.9246 45.0913 22.545 45.0899C10.0889 45.0872 0.00268446 34.9849 5.3438e-07 22.5074C-0.00268339 10.1023 10.105 -0.00402468 22.5101 1.20238e-06ZM3.214 22.5812C3.214 33.2552 11.8455 41.8437 22.5973 41.8692C33.0767 41.8947 41.7766 33.1733 41.7847 22.6362C41.7941 11.8992 33.1773 3.21132 22.5302 3.22205C11.8482 3.23144 3.214 11.8858 3.214 22.5825V22.5812Z" fill="#44BA93"></path>
    <path d="M3.21387 22.5812C3.21387 11.8844 11.8481 3.2301 22.5301 3.22071C33.1785 3.21132 41.7939 11.8978 41.7845 22.6349C41.7765 33.1733 33.0765 41.8934 22.5972 41.8679C11.8454 41.8424 3.21387 33.2538 3.21387 22.5798V22.5812ZM20.8929 17.2845C20.8929 18.9955 20.8607 20.7065 20.9143 22.4148C20.9278 22.8456 21.1062 23.3689 21.3934 23.6749C22.7488 25.1135 24.1659 26.493 25.5669 27.8873C25.944 28.2631 26.4097 28.4335 26.9424 28.3382C27.5691 28.2268 28.0106 27.8672 28.216 27.2593C28.4307 26.6272 28.2723 26.0636 27.812 25.5966C26.6942 24.464 25.5736 23.3327 24.4356 22.2202C24.186 21.976 24.0975 21.729 24.0988 21.3855C24.1109 18.3835 24.1069 15.3816 24.1055 12.3809C24.1055 11.2161 23.4869 10.4754 22.5113 10.4686C21.5115 10.4606 20.8915 11.2 20.8915 12.4038C20.8915 14.0302 20.8915 15.6567 20.8915 17.2831L20.8929 17.2845Z" fill="#C3E8DC"></path>
    <path d="M20.893 17.2831C20.893 15.6567 20.893 14.0302 20.893 12.4037C20.893 11.2013 21.513 10.4606 22.5128 10.4686C23.4884 10.4767 24.107 11.2161 24.107 12.3809C24.107 15.3829 24.1124 18.3849 24.1003 21.3855C24.099 21.729 24.1862 21.9746 24.4371 22.2202C25.5751 23.3327 26.6943 24.464 27.8135 25.5966C28.2751 26.0636 28.4321 26.6272 28.2174 27.2593C28.0108 27.8672 27.5706 28.2268 26.9439 28.3382C26.4125 28.4321 25.9468 28.2617 25.5684 27.8873C24.1674 26.493 22.7503 25.1135 21.3949 23.6749C21.1064 23.3689 20.9292 22.8442 20.9158 22.4148C20.8621 20.7065 20.8943 18.9941 20.8943 17.2845L20.893 17.2831Z" fill="#44BA93"></path>
  </g>
  <defs>
    <clipPath id="clip0_1080_23530">
      <rect width="45" height="45.0899" fill="white"></rect>
    </clipPath>
  </defs>
</svg>
