<?xml version="1.0" encoding="UTF-8"?>
<svg xmlns="http://www.w3.org/2000/svg" width="46" height="47" viewBox="0 0 46 47" fill="none">
  <g clipPath="url(#clip0_1080_23478)">
    <path d="M0 21.9058C0.115822 21.0379 0.185077 20.1602 0.355825 19.3032C2.11226 10.4887 7.12009 4.40458 15.4199 1.37526C22.0074 -1.02923 28.4302 -0.214765 34.5127 3.30931C34.5879 3.35307 34.6631 3.39319 34.8267 3.48436C34.7264 2.87533 34.6452 2.34776 34.5533 1.82139C34.3992 0.944933 34.8506 0.214348 35.6374 0.0818454C36.3933 -0.0457944 37.0393 0.482999 37.1909 1.35338C37.4703 2.96407 37.7497 4.57477 38.0303 6.18546C38.176 7.02059 37.7366 7.722 36.9282 7.87274C35.2601 8.18515 33.5897 8.48298 31.918 8.76986C31.2195 8.89021 30.5353 8.36871 30.4075 7.65879C30.2762 6.93549 30.7586 6.23044 31.4941 6.07848C31.7711 6.02135 32.0505 5.97759 32.3288 5.92775C32.607 5.87791 32.884 5.82685 33.2804 5.75513C33.0595 5.61655 32.921 5.52173 32.7765 5.43907C20.7979 -1.38176 5.7935 5.62871 3.08422 19.3311C2.8478 20.5273 2.77974 21.7636 2.69735 22.9853C2.62929 23.9809 2.36898 24.4829 1.66211 24.6799C1.01136 24.8622 0.495528 24.5644 0 23.7256C0 23.119 0 22.5124 0 21.9058Z" fill="#44BA93"></path>
    <path d="M9.56309 46.6557C8.88249 46.3493 8.61144 45.7865 8.50039 45.062C8.26756 43.5352 7.98457 42.0181 7.72307 40.4961C7.58576 39.6975 8.03949 38.9985 8.82995 38.8502C10.498 38.5378 12.1685 38.2412 13.8402 37.9519C14.5399 37.8315 15.2217 38.3445 15.3554 39.0556C15.4867 39.7558 15.033 40.4682 14.319 40.6311C13.7542 40.7599 13.1787 40.8438 12.5195 40.9642C12.6736 41.0724 12.7679 41.1501 12.8718 41.2097C16.4432 43.2568 20.2749 44.2354 24.3621 43.8403C32.3347 43.0696 38.0016 38.8988 41.3915 31.5395C42.5569 29.011 43.0501 26.3026 43.0739 23.5115C43.0787 22.9159 43.2769 22.443 43.8047 22.1573C44.7169 21.6638 45.7582 22.336 45.757 23.4313C45.7534 26.2163 45.3378 28.9429 44.3086 31.5212C40.9844 39.8494 34.9771 44.8456 26.2499 46.3919C25.6075 46.5062 24.9567 46.5669 24.3107 46.6532H21.5406C21.4104 46.6277 21.2802 46.5876 21.1489 46.5779C18.6641 46.3955 16.2724 45.8084 13.9882 44.8031C12.9709 44.3545 11.9894 43.8196 10.9422 43.3006C11.0198 43.7589 11.0962 44.1989 11.1667 44.6402C11.3458 45.7658 11.2109 46.0673 10.2771 46.6532H9.5619L9.56309 46.6557Z" fill="#44BA93"></path>
    <path d="M35.8978 14.5153C35.7712 14.8496 35.7008 15.1316 35.5646 15.3759C35.2709 15.9023 34.9318 16.4031 34.6404 16.9307C34.57 17.0595 34.5652 17.2735 34.6178 17.4145C34.8255 17.981 35.0512 18.5426 35.3079 19.0872C35.382 19.244 35.5658 19.4008 35.7306 19.4507C36.3002 19.6233 36.8864 19.7375 37.4608 19.8931C38.1438 20.0779 38.5151 20.5605 38.5199 21.2802C38.5283 22.6757 38.5294 24.07 38.5199 25.4655C38.5151 26.1584 38.1402 26.6447 37.4835 26.8246C36.8948 26.9863 36.2942 27.1018 35.7103 27.2792C35.5491 27.3279 35.3784 27.4993 35.3031 27.6585C35.0966 28.0937 34.9891 28.5824 34.7467 28.9933C34.49 29.4297 34.5497 29.7518 34.8267 30.1335C35.1085 30.5225 35.3414 30.9492 35.5825 31.3674C35.9611 32.0226 35.9037 32.6121 35.3855 33.1495C34.4351 34.1329 33.4763 35.109 32.5115 36.0779C31.967 36.6237 31.3867 36.6833 30.7252 36.2809C30.2392 35.9855 29.7532 35.6913 29.2864 35.368C29.0571 35.2087 28.8828 35.2209 28.6404 35.3424C28.1747 35.5746 27.6935 35.7873 27.2004 35.949C26.8696 36.0572 26.7287 36.2408 26.6666 36.5738C26.5651 37.1233 26.4314 37.6679 26.2893 38.2088C26.1078 38.9042 25.6338 39.2798 24.9257 39.2847C23.5705 39.2932 22.2152 39.292 20.86 39.2847C20.1256 39.281 19.66 38.9078 19.4713 38.1821C19.3233 37.6108 19.1764 37.0382 19.0701 36.4596C19.0176 36.1751 18.8803 36.0609 18.6271 35.9745C18.1913 35.825 17.7388 35.6828 17.3519 35.4421C16.922 35.1747 16.6056 35.2513 16.2331 35.5272C15.8366 35.8202 15.4068 36.0669 14.9817 36.3161C14.3763 36.6711 13.7996 36.6152 13.3041 36.1216C12.3142 35.1358 11.3351 34.1377 10.3655 33.1312C9.86284 32.6097 9.80911 32.0201 10.1757 31.3868C10.479 30.8653 10.8157 30.3633 11.0999 29.832C11.1799 29.6813 11.1823 29.437 11.1237 29.2704C10.9327 28.7307 10.6796 28.2128 10.4873 27.6731C10.4014 27.4324 10.2963 27.3035 10.0384 27.2513C9.45567 27.1334 8.87775 26.9875 8.30222 26.8319C7.61923 26.6471 7.25027 26.1633 7.24549 25.4437C7.23714 24.0481 7.23594 22.6538 7.24549 21.2583C7.25027 20.5666 7.6252 20.0804 8.28312 19.9017C8.85745 19.7461 9.43537 19.5965 10.0193 19.4823C10.2975 19.4276 10.4109 19.289 10.4945 19.0301C10.6402 18.5864 10.7823 18.1269 11.0187 17.7306C11.279 17.2954 11.2133 16.972 10.9387 16.5915C10.6485 16.1904 10.4073 15.7503 10.1613 15.3188C9.81149 14.7025 9.86523 14.1165 10.3512 13.6121C11.3196 12.6043 12.2999 11.6075 13.2886 10.6204C13.8008 10.1086 14.3739 10.0503 15.002 10.4259C15.5286 10.7396 16.036 11.0872 16.5674 11.3911C16.694 11.4628 16.9029 11.4689 17.0414 11.4167C17.5979 11.2051 18.1495 10.9754 18.6844 10.714C18.8397 10.6387 18.9961 10.4527 19.0438 10.2849C19.2122 9.70506 19.3232 9.10819 19.4761 8.52348C19.6576 7.82693 20.1304 7.45009 20.8385 7.44523C22.2093 7.43672 23.5788 7.43551 24.9496 7.44523C25.6314 7.45009 26.1078 7.82937 26.2845 8.49917C26.4421 9.09847 26.558 9.70992 26.7263 10.3056C26.7705 10.4612 26.9174 10.6362 27.0618 10.7055C27.5992 10.9632 28.1484 11.1978 28.7072 11.3996C28.8684 11.458 29.1072 11.4385 29.2577 11.3547C29.7664 11.0714 30.2464 10.7371 30.7455 10.4356C31.3891 10.0479 31.967 10.1062 32.4948 10.635C33.4715 11.6136 34.4482 12.5922 35.3939 13.6023C35.6255 13.8491 35.7378 14.2138 35.9002 14.5177L35.8978 14.5153ZM9.93806 24.4213C10.5231 24.5623 11.0855 24.6985 11.6491 24.831C12.2211 24.9659 12.559 25.327 12.7679 25.8886C13.1393 26.8902 13.5381 27.8822 13.9715 28.8571C14.208 29.3883 14.2342 29.8709 13.9369 30.3669C13.6814 30.7936 13.4294 31.2239 13.1572 31.6397C13.0199 31.8487 13.0032 31.9958 13.2062 32.1818C13.5596 32.5064 13.8975 32.8516 14.2163 33.2102C14.3978 33.4145 14.5423 33.4035 14.7489 33.2625C15.119 33.0097 15.5119 32.7896 15.8832 32.538C16.4516 32.1502 16.9889 32.1867 17.6002 32.493C18.4635 32.9258 19.3567 33.3099 20.2677 33.6211C20.9173 33.8436 21.3161 34.2022 21.4558 34.8829C21.5692 35.4397 21.7137 35.9916 21.8403 36.5277H23.9287C24.0636 35.9405 24.195 35.3813 24.3191 34.8197C24.4564 34.1973 24.8373 33.8545 25.426 33.6393C26.3598 33.299 27.2839 32.9209 28.1771 32.4833C28.7741 32.1915 29.2983 32.1539 29.8559 32.5234C30.3276 32.8358 30.8147 33.1251 31.2112 33.3719C31.733 32.8443 32.2141 32.3581 32.7204 31.8475C32.4685 31.4318 32.201 30.9601 31.9049 30.5079C31.5144 29.9135 31.5455 29.3592 31.8583 28.7197C32.287 27.8433 32.6524 26.9291 32.9616 26.0028C33.1825 25.3415 33.5455 24.9453 34.2166 24.8103C34.7527 24.7021 35.2805 24.555 35.819 24.4238V22.2952C35.2411 22.1591 34.6775 22.0253 34.1151 21.8928C33.5443 21.7579 33.2028 21.4005 32.9951 20.8377C32.6237 19.836 32.2261 18.8429 31.7915 17.8691C31.555 17.3379 31.5252 16.8565 31.8237 16.3606C32.0804 15.9339 32.3324 15.5048 32.6034 15.0878C32.7371 14.8812 32.7622 14.7316 32.5592 14.5444C32.207 14.2186 31.8691 13.8734 31.5479 13.516C31.3688 13.3167 31.2267 13.3167 31.0165 13.4625C30.6476 13.7178 30.2523 13.933 29.8822 14.1858C29.2959 14.5858 28.749 14.5286 28.1245 14.2114C27.278 13.7798 26.3944 13.4103 25.4977 13.1039C24.8493 12.8827 24.4457 12.5277 24.3072 11.8445C24.1938 11.2866 24.0493 10.7359 23.9227 10.1962H21.8343C21.6994 10.7821 21.5681 11.3413 21.4439 11.9029C21.3066 12.5229 20.9292 12.8705 20.3382 13.0845C19.4044 13.4236 18.4803 13.8029 17.5859 14.2393C16.9889 14.5298 16.4635 14.5712 15.9059 14.2004C15.4342 13.888 14.9495 13.5963 14.5542 13.3483C14.0265 13.8783 13.5441 14.3621 13.0378 14.8702C13.3005 15.3042 13.5787 15.7868 13.8784 16.2548C14.2414 16.8213 14.2092 17.3562 13.9226 17.9652C13.4939 18.8745 13.1202 19.8153 12.7871 20.766C12.5757 21.3653 12.2414 21.7555 11.6312 21.8977C11.0688 22.029 10.5088 22.1664 9.93806 22.3037V24.4201V24.4213Z" fill="#44BA93"></path>
    <path d="M22.8853 15.627C27.0668 15.6282 30.4746 19.0963 30.4782 23.3534C30.4818 27.6287 27.0572 31.1054 22.8554 31.0957C18.6798 31.086 15.2792 27.6044 15.2852 23.3461C15.2911 19.0915 18.7037 15.627 22.8853 15.6282V15.627Z" fill="#C3E8DC"></path>
    <path d="M22.8853 15.6273C27.0668 15.6285 30.4746 19.0966 30.4782 23.3537C30.4818 27.629 27.0572 31.1057 22.8554 31.096C18.6798 31.0863 15.2792 27.6047 15.2852 23.3464C15.2911 19.0918 18.7037 15.6273 22.8853 15.6285V15.6273ZM27.7952 23.3501C27.7892 20.5979 25.5742 18.3527 22.8697 18.3588C20.1676 18.3636 17.961 20.6198 17.9658 23.3732C17.9706 26.1229 20.1891 28.3718 22.8912 28.3657C25.5933 28.3596 27.7999 26.1034 27.7952 23.3513V23.3501Z" fill="#44BA93"></path>
  </g>
  <defs>
    <clipPath id="clip0_1080_23478">
      <rect width="45.7582" height="46.6554" fill="white"></rect>
    </clipPath>
  </defs>
</svg>
