<?xml version="1.0" encoding="UTF-8"?>
<svg xmlns="http://www.w3.org/2000/svg" width="46" height="46" viewBox="0 0 46 46" fill="none">
  <g clipPath="url(#clip0_1080_23472)">
    <path d="M1.07927 45.2581C1.01686 45.2227 0.956849 45.1826 0.892039 45.152C-0.110127 44.6782 -0.303359 43.5691 0.493573 42.7795C1.99142 41.2945 3.49647 39.8177 5.00512 38.3444C5.12034 38.2313 5.28236 38.1653 5.42639 38.0733C4.60785 36.9678 4.00535 35.9047 3.6621 34.7191C2.51471 30.7566 3.32124 27.222 6.17891 24.206C7.76077 22.5371 9.44585 20.9637 11.0901 19.3525C11.7634 18.6925 12.5844 18.6996 13.2709 19.3679C13.8758 19.9572 14.4699 20.5571 15.094 21.1782C15.2416 21.0426 15.3616 20.9389 15.4744 20.8281C16.7563 19.5682 18.0369 18.3083 19.3175 17.0472C19.7496 16.6217 20.268 16.4909 20.8417 16.6748C21.4058 16.8551 21.7251 17.2688 21.8031 17.8428C21.8715 18.3484 21.6567 18.755 21.2966 19.1074C20.034 20.3437 18.7774 21.5872 17.5136 22.8223C17.3984 22.9355 17.2387 23.005 17.1187 23.0828C18.9586 24.8908 20.7037 26.6056 22.5544 28.4242C22.6432 28.2945 22.7284 28.1119 22.8641 27.9775C24.1183 26.7317 25.3737 25.4895 26.6423 24.259C27.324 23.5978 28.2938 23.6544 28.8435 24.3569C29.2911 24.9308 29.2239 25.7052 28.649 26.2768C27.4272 27.4907 26.1958 28.6964 24.9668 29.9033C24.8192 30.0483 24.6608 30.185 24.4795 30.3512C24.5876 30.4749 24.6656 30.5739 24.7556 30.6635C25.3041 31.2069 25.8646 31.7396 26.4023 32.2935C26.9603 32.8687 26.9892 33.6878 26.4299 34.2429C24.6392 36.0214 22.8977 37.8577 21.0062 39.5289C17.336 42.7724 11.8811 43.0234 7.79078 40.2585C7.66836 40.176 7.54594 40.0935 7.2999 39.9131C7.21348 40.0534 7.15107 40.2172 7.03705 40.3304C5.64482 41.7105 4.25259 43.0906 2.84356 44.4531C2.53031 44.756 2.14985 44.9929 1.79939 45.2592H1.08047L1.07927 45.2581ZM12.2687 22.464C10.7961 23.8418 9.20461 25.1571 7.82919 26.6622C6.26893 28.37 5.74804 30.4985 6.14291 32.7602C6.66619 35.7609 8.41488 37.8706 11.341 38.8677C14.3367 39.8884 17.0743 39.2684 19.4051 37.1482C20.6125 36.0497 21.7395 34.8652 22.9109 33.7279C23.0561 33.5864 23.2481 33.491 23.385 33.3979C19.5695 29.644 15.8573 25.9939 12.2687 22.464Z" fill="#44BA93"></path>
    <path d="M46 1.76789C45.7288 2.11204 45.49 2.48684 45.1815 2.79445C43.7965 4.18048 42.3946 5.55001 40.9928 6.91836C40.8776 7.03032 40.7132 7.09397 40.5703 7.18C41.5497 8.48589 42.2134 9.78116 42.5339 11.2226C43.3584 14.9399 42.5015 18.2399 39.8538 21.0214C38.2588 22.6974 36.5677 24.285 34.9126 25.9044C34.2369 26.5655 33.4136 26.5585 32.733 25.889C28.3811 21.6119 24.0328 17.3324 19.6857 13.0506C18.9968 12.3717 19.0064 11.5644 19.7037 10.8749C21.2784 9.32151 22.8482 7.76341 24.4349 6.22063C28.2011 2.55755 33.896 2.06844 38.2528 5.02435C38.362 5.0986 38.4736 5.1705 38.7052 5.34257C38.7916 5.20232 38.8553 5.03967 38.9693 4.92535C40.3711 3.53461 41.7741 2.14504 43.1928 0.77198C43.494 0.482046 43.8637 0.256934 44.2021 0C44.4422 0 44.681 0 44.9211 0C45.4275 0.208611 45.7876 0.56219 45.9988 1.06074V1.76789H46ZM33.8852 22.9649C35.3423 21.4905 36.8905 20.0715 38.2576 18.4981C39.7518 16.7773 40.2547 14.6818 39.8514 12.4554C39.2981 9.40166 37.4942 7.28254 34.4949 6.33142C31.4812 5.3744 28.764 6.07095 26.4668 8.22542C25.4598 9.16947 24.4985 10.1607 23.5083 11.1236C23.2239 11.4006 22.913 11.6504 22.6382 11.8909C26.4248 15.6187 30.1346 19.2724 33.8852 22.9649Z" fill="#44BA93"></path>
    <path d="M45.9997 1.06074C45.7884 0.56219 45.4284 0.208611 44.9219 0H45.9997V1.06074Z" fill="white"></path>
    <path d="M12.2689 22.464C15.8575 25.9939 19.5685 29.6452 23.3851 33.3979C23.2495 33.491 23.0575 33.5864 22.9111 33.7279C21.7397 34.8664 20.6139 36.0509 19.4053 37.1481C17.0733 39.2684 14.3356 39.8884 11.3411 38.8677C8.41506 37.8706 6.66637 35.7609 6.14309 32.7602C5.74822 30.4985 6.26911 28.37 7.82937 26.6622C9.20479 25.1571 10.7963 23.8418 12.2689 22.464Z" fill="#C3E8DC"></path>
    <path d="M33.8838 22.9649C30.1332 19.2724 26.4233 15.6187 22.6367 11.8908C22.9116 11.6504 23.2224 11.4006 23.5069 11.1236C24.497 10.1618 25.4584 9.16947 26.4654 8.22542C28.7637 6.07095 31.4798 5.3744 34.4935 6.33142C37.4928 7.28372 39.2967 9.40166 39.85 12.4554C40.2532 14.6818 39.7515 16.7773 38.2561 18.4981C36.8891 20.0715 35.3396 21.4905 33.8838 22.9649Z" fill="white"></path>
  </g>
  <defs>
    <clipPath id="clip0_1080_23472">
      <rect width="46" height="45.2581" fill="white"></rect>
    </clipPath>
  </defs>
</svg>
