<?xml version="1.0" encoding="UTF-8"?>
<svg xmlns="http://www.w3.org/2000/svg" width="45" height="42" viewBox="0 0 45 42" fill="none">
  <g clipPath="url(#clip0_1080_23539)">
    <path d="M44.1657 27.2308C43.631 25.9677 42.8659 24.8332 41.8915 23.8588C40.9172 22.8845 39.7827 22.1194 38.5196 21.5847C37.2115 21.0311 35.8225 20.7503 34.3916 20.7503C33.2857 20.7503 32.1959 20.9211 31.1466 21.2587L26.9694 13.5801C27.5045 12.8192 27.7955 11.904 27.7944 10.9704C27.7944 8.46613 25.757 6.42871 23.2527 6.42871C20.7484 6.42871 18.7109 8.46613 18.7109 10.9704C18.7109 13.4747 20.7442 15.508 23.2448 15.5122L28.7238 25.5841C28.7465 25.6259 28.7727 25.6665 28.8013 25.7043C28.96 25.9155 29.1913 26.0522 29.4526 26.0893C29.707 26.1253 29.9601 26.0631 30.168 25.9137C31.2909 25.2057 33.1425 24.6522 34.3919 24.6522C38.0901 24.6522 41.0986 27.6608 41.0986 31.359C41.0986 35.0572 38.0901 38.0658 34.3919 38.0658C33.0951 38.0658 31.8344 37.6931 30.7459 36.9881L30.7438 36.9867C29.9511 36.4795 28.9145 36.5983 28.2569 37.2643C28.2395 37.2784 28.2223 37.2944 28.2056 37.3123C28.1297 37.3935 28.0605 37.4819 28 37.5752C27.4238 38.4614 27.676 39.6509 28.5609 40.2262C30.2982 41.3646 32.3145 41.9668 34.3919 41.9675C35.8229 41.9675 37.2118 41.6867 38.5198 41.133C39.7829 40.5984 40.9174 39.8333 41.8918 38.8589C42.8662 37.8845 43.6312 36.75 44.1659 35.487C44.7196 34.1789 45.0003 32.7901 45.0003 31.359C45.0003 29.9279 44.7196 28.5391 44.1659 27.231L44.1657 27.2308Z" fill="#44BA93"></path>
    <path d="M6.89835 32.7212C7.50447 33.7712 8.48396 34.5226 9.65629 34.8366C10.048 34.9415 10.4455 34.9935 10.8405 34.9935C11.6271 34.9935 12.4036 34.7872 13.1025 34.3836C15.2689 33.1329 16.0157 30.3545 14.7691 28.186L20.7516 18.4059C20.7769 18.3646 20.7992 18.3212 20.818 18.2771C20.9213 18.0342 20.9236 17.7657 20.825 17.5209C20.7289 17.2828 20.5481 17.0951 20.3149 16.9899C19.1403 16.3713 17.7356 15.0446 17.111 13.9628C15.262 10.7603 16.3631 6.6504 19.5658 4.80117C22.7684 2.95218 26.8783 4.0535 28.7275 7.25605C29.3761 8.37918 29.6838 9.65733 29.6174 10.9526V10.9552C29.5745 11.8952 30.1952 12.7332 31.1007 12.9696C31.1218 12.9778 31.1445 12.9847 31.1689 12.9903C31.2766 13.0151 31.3873 13.0307 31.4977 13.0367C31.5323 13.0386 31.5666 13.0395 31.601 13.0395C32.6118 13.0395 33.46 12.2454 33.5145 11.2255C33.6314 9.15168 33.1448 7.10452 32.1069 5.30496C31.3914 4.0658 30.454 3.00323 29.3204 2.14719C28.2258 1.32062 26.9959 0.720769 25.6649 0.364105C24.3334 0.00767325 22.9684 -0.0877001 21.6072 0.0807697C20.1975 0.255273 18.8544 0.706614 17.615 1.42203C16.3756 2.13745 15.3133 3.07517 14.4572 4.20851C13.6306 5.3031 13.0308 6.53298 12.6741 7.86403C12.3175 9.19508 12.2221 10.5602 12.3908 11.9215C12.5653 13.3312 13.0166 14.6743 13.7323 15.9137C14.2853 16.8714 14.9782 17.7297 15.7952 18.47L11.2335 25.9267C10.307 25.8437 9.36878 26.0492 8.561 26.5171C6.39224 27.7692 5.64643 30.5525 6.89858 32.7212H6.89835Z" fill="#44BA93"></path>
    <path d="M31.5656 35.2647C32.2791 35.6766 33.0588 35.8724 33.829 35.8722C35.3998 35.8722 36.9297 35.0574 37.77 33.6022C38.3761 32.5522 38.5371 31.3284 38.2229 30.156C37.9087 28.9837 37.1576 28.0042 36.1073 27.3979C35.0573 26.7917 33.8334 26.6309 32.6611 26.9449C31.4911 27.2584 30.5132 28.0072 29.9071 29.0536L18.4461 28.7626C18.3973 28.7614 18.3481 28.7637 18.2994 28.7698C18.0376 28.802 17.804 28.9343 17.6415 29.1422C17.4837 29.3443 17.4116 29.5945 17.4373 29.8488C17.4888 31.1754 17.0421 33.0553 16.4177 34.1369C15.5227 35.6872 14.0763 36.7964 12.3449 37.2605C10.6136 37.7244 8.80638 37.487 7.25604 36.592C4.05349 34.7428 2.95217 30.6329 4.80117 27.4304C5.44952 26.3072 6.40279 25.4018 7.55748 24.8116L7.5598 24.8105C8.39588 24.3772 8.81126 23.4198 8.5625 22.5169C8.55971 22.4995 8.556 22.4814 8.55089 22.463L8.54695 22.4491C8.3808 21.9059 7.98585 21.4671 7.46327 21.2452C6.94069 21.0232 6.35081 21.0431 5.84586 21.3C3.9913 22.2354 2.46162 23.6806 1.42202 25.4793C0.706606 26.7186 0.255265 28.0618 0.0807621 29.4717C-0.0877077 30.8329 0.00766568 32.1981 0.36433 33.5291C0.720994 34.8602 1.32085 36.0901 2.14742 37.1847C3.00346 38.3182 4.06579 39.256 5.30518 39.9714C6.54457 40.6868 7.88769 41.1381 9.29741 41.3126C9.73274 41.3665 10.1683 41.3934 10.6032 41.3934C11.5281 41.3934 12.4494 41.2716 13.3546 41.0291C14.6857 40.6724 15.9155 40.0723 17.0101 39.2457C18.1437 38.3897 19.0812 37.3271 19.7968 36.0878C20.3498 35.1301 20.7466 34.1012 20.9791 33.0237L29.7175 33.2453C30.109 34.0891 30.7562 34.7987 31.5651 35.2644L31.5656 35.2647Z" fill="#44BA93"></path>
  </g>
  <defs>
    <clipPath id="clip0_1080_23539">
      <rect width="45" height="41.9675" fill="white"></rect>
    </clipPath>
  </defs>
</svg>
