<?xml version="1.0" encoding="UTF-8"?>
<svg xmlns="http://www.w3.org/2000/svg" width="45" height="46" viewBox="0 0 45 46" fill="none">
  <g clipPath="url(#clip0_1080_23510)">
    <path d="M8.03681 3.21976C8.03681 2.63618 8.02742 2.13444 8.03815 1.63135C8.05962 0.692259 8.75991 -0.0080362 9.65876 1.31712e-05C10.5321 0.00806254 11.2244 0.704333 11.2472 1.61391C11.2606 2.13041 11.2499 2.64691 11.2499 3.19025H20.893C20.893 2.72607 20.8903 2.24847 20.893 1.76953C20.8984 0.732506 21.545 0.0120872 22.476 -0.00132839C23.4245 -0.014744 24.0993 0.71909 24.106 1.7749C24.1087 2.24042 24.106 2.70594 24.106 3.19293H33.7492C33.7492 2.71399 33.7465 2.23505 33.7492 1.75612C33.7559 0.724456 34.4119 0.00403786 35.3443 -0.00266995C36.2753 -0.00937776 36.9528 0.716407 36.9622 1.73599C36.9662 2.2042 36.9622 2.67375 36.9622 3.21708C37.3432 3.21708 37.7028 3.20903 38.0636 3.21842C39.0497 3.24257 40.0465 3.18622 41.0178 3.32038C43.2032 3.62223 44.8922 5.57957 44.9901 7.79985C44.9968 7.95011 44.9982 8.1017 44.9982 8.25196C44.9982 18.853 44.9995 29.4527 44.9982 40.0537C44.9982 42.4457 43.6123 44.3306 41.4108 44.9142C40.9641 45.0322 40.4865 45.0819 40.0237 45.0819C28.34 45.0912 16.6577 45.0912 4.97403 45.0872C2.09235 45.0872 0.00488095 42.9904 0.00353939 40.0993C-0.000485298 29.4661 -0.00182686 18.8329 0.00353939 8.1983C0.00488095 5.3126 2.09772 3.23184 4.98342 3.21976C5.98422 3.21574 6.98369 3.21976 8.03681 3.21976ZM3.21524 16.1269V16.6394C3.21524 24.4218 3.21524 32.2042 3.21524 39.9866C3.21524 41.2504 3.83236 41.8675 5.09342 41.8675C16.6926 41.8675 28.293 41.8675 39.8922 41.8675C41.1855 41.8675 41.7851 41.2597 41.7851 39.9504C41.7851 32.1841 41.7851 24.4191 41.7851 16.6528V16.1256H3.21524V16.1269ZM3.21926 12.8455H41.7811C41.7811 11.1846 41.8026 9.55864 41.7717 7.93401C41.7556 7.11163 41.0553 6.47573 40.2222 6.44488C39.7875 6.42878 39.3515 6.44085 38.9169 6.44085C38.2716 6.44085 37.6276 6.44085 36.9636 6.44085C36.9636 6.90235 36.9636 7.28738 36.9636 7.6724C36.9636 8.92006 36.3532 9.66731 35.343 9.6606C34.3542 9.65255 33.7505 8.90798 33.7492 7.69655C33.7492 7.28469 33.7492 6.87418 33.7492 6.46768H24.106C24.106 6.99089 24.1127 7.49129 24.1047 7.99035C24.0886 8.94018 23.4138 9.64987 22.5217 9.66194C21.608 9.67401 20.9078 8.95628 20.8943 7.98499C20.8876 7.48593 20.8943 6.98821 20.8943 6.47439H11.2512C11.2512 6.98821 11.2566 7.47251 11.2512 7.95547C11.2391 8.94018 10.5643 9.65792 9.65205 9.66194C8.74113 9.66596 8.05157 8.94689 8.03949 7.97023C8.03279 7.47251 8.03949 6.97613 8.03949 6.45024C6.8777 6.45024 5.77494 6.42073 4.67486 6.45963C3.89139 6.48781 3.24475 7.15188 3.23134 7.94072C3.20316 9.56535 3.22329 11.19 3.22329 12.8495L3.21926 12.8455Z" fill="#44BA93"></path>
    <path d="M3.21582 16.1269H41.7857V16.6542C41.7857 24.4205 41.7857 32.1854 41.7857 39.9517C41.7857 41.2611 41.186 41.8688 39.8928 41.8688C28.2936 41.8688 16.6931 41.8688 5.09401 41.8688C3.83294 41.8688 3.21582 41.2503 3.21582 39.9879C3.21582 32.2055 3.21582 24.4231 3.21582 16.6407V16.1283V16.1269ZM22.5236 27.3759C20.4482 27.3759 18.3728 27.3759 16.2974 27.3759C15.1906 27.3759 14.4594 28.0279 14.4675 28.9979C14.4742 29.9437 15.2067 30.5943 16.2759 30.5943C20.4267 30.5957 24.5775 30.5957 28.7283 30.5943C29.7975 30.5943 30.5287 29.9437 30.5354 28.9952C30.5421 28.0454 29.8096 27.3759 28.7511 27.3746C26.6757 27.3719 24.6003 27.3746 22.5249 27.3746L22.5236 27.3759Z" fill="white"></path>
    <path d="M3.21985 12.8455C3.21985 11.1873 3.19973 9.56131 3.2279 7.93668C3.24132 7.14784 3.88795 6.48377 4.67142 6.45559C5.7715 6.41669 6.87427 6.4462 8.03606 6.4462C8.03606 6.97209 8.03069 7.46981 8.03606 7.96619C8.04813 8.94285 8.7377 9.66193 9.64862 9.6579C10.5595 9.65388 11.2357 8.93614 11.2478 7.95143C11.2531 7.46847 11.2478 6.98417 11.2478 6.47035H20.8909C20.8909 6.98417 20.8855 7.48189 20.8909 7.98095C20.9057 8.95224 21.606 9.66997 22.5182 9.6579C23.4104 9.64583 24.0865 8.93748 24.1013 7.98631C24.1093 7.48725 24.1026 6.98819 24.1026 6.46364H33.7457C33.7457 6.87014 33.7457 7.28065 33.7457 7.69251C33.7457 8.90528 34.3508 9.64851 35.3395 9.65656C36.3497 9.66461 36.9601 8.91602 36.9601 7.66836C36.9601 7.28334 36.9601 6.89831 36.9601 6.43681C37.6229 6.43681 38.2682 6.43681 38.9134 6.43681C39.3481 6.43681 39.7841 6.42474 40.2188 6.44084C41.0519 6.47303 41.7522 7.10759 41.7683 7.92997C41.7991 9.5546 41.7777 11.1806 41.7777 12.8414H3.21985V12.8455Z" fill="#C3E8DC"></path>
  </g>
  <defs>
    <clipPath id="clip0_1080_23510">
      <rect width="45" height="45.0912" fill="white"></rect>
    </clipPath>
  </defs>
</svg>
