<?xml version="1.0" encoding="UTF-8"?>
<svg xmlns="http://www.w3.org/2000/svg" width="59" height="41" viewBox="0 0 59 41" fill="none">
  <g clipPath="url(#clip0_1080_23534)">
    <path d="M26.2052 30.0784C27.301 26.2116 27.2902 22.2531 27.8397 18.3755C28.0497 16.8884 28.1558 15.3862 28.3528 13.8974C28.5799 12.1857 30.0188 10.9313 31.7453 10.7599C32.9728 10.6384 33.7251 10.8149 34.3628 12.1599C36.1078 15.8411 40.4718 17.4348 44.2653 16.0446C48.1214 14.6311 50.3425 10.6238 49.4689 6.65171C48.5972 2.67961 44.8898 -0.108925 40.8264 0.283512C37.5266 0.601878 35.2215 2.37882 33.9179 5.43432C33.8175 5.66764 33.7396 5.90992 33.6486 6.14683C33.6325 6.18787 33.5959 6.21993 33.5869 6.23305C32.531 6.31133 31.4773 6.28755 30.4638 6.48209C26.8564 7.16847 24.2894 10.0381 23.8921 13.6927C23.4148 18.0812 22.9245 22.4699 22.4305 26.8568C22.2137 28.7743 20.7805 30.0341 18.8651 30.2027C17.6707 30.3071 17.0121 30.0754 16.4295 28.8298C14.7982 25.3324 10.7962 23.6871 7.07729 24.7257C3.33622 25.7702 0.887026 29.2373 1.12847 33.148C1.3602 36.8974 4.3103 40.0605 8.08915 40.6108C11.9459 41.173 15.6624 38.9323 16.9383 35.2335C17.0964 34.7768 17.2907 34.6423 17.759 34.6355C25.9269 34.5327 34.0965 34.415 42.264 34.2826C42.7655 34.2753 42.9659 34.4338 43.1466 34.895C44.6191 38.6767 48.6318 40.8134 52.5156 39.9134C56.5028 38.9897 59.195 35.302 58.8532 31.2332C58.5381 27.4794 55.55 24.3763 51.7662 23.8724C48.0363 23.3771 44.4118 25.57 43.1047 29.1598C42.9159 29.6782 42.6964 29.8576 42.1355 29.8638C37.0435 29.9131 31.9539 29.9956 26.8623 30.069C26.6365 30.0722 26.4107 30.0755 26.2034 30.0785L26.2052 30.0784ZM50.6467 28.2739C52.7083 28.2294 54.3977 29.843 54.4327 31.8905C54.4696 33.938 52.8316 35.6292 50.7864 35.6606C48.7653 35.6897 47.0984 34.0886 47.0452 32.0656C46.9913 29.9942 48.5814 28.3185 50.6449 28.2739L50.6467 28.2739ZM37.8155 8.44643C37.7858 6.38775 39.4129 4.70961 41.4619 4.68752C43.5034 4.66368 45.1859 6.31641 45.2025 8.36415C45.2205 10.384 43.6078 12.036 41.5794 12.0745C39.5103 12.1154 37.8452 10.5107 37.8136 8.44646L37.8155 8.44643ZM9.21776 28.8706C11.2871 28.8464 12.9302 30.4644 12.9452 32.5363C12.9596 34.5637 11.3507 36.2193 9.32968 36.2558C7.28465 36.2945 5.58754 34.655 5.55442 32.6131C5.52305 30.5637 7.15583 28.8929 9.21773 28.8688L9.21776 28.8706Z" fill="#44BA93"></path>
    <path d="M50.6469 28.274C48.5834 28.3185 46.9933 29.9924 47.0472 32.0656C47.1004 34.0887 48.7655 35.6897 50.7885 35.6606C52.8336 35.6311 54.4698 33.938 54.4347 31.8906C54.3978 29.8431 52.7104 28.2294 50.6487 28.2739L50.6469 28.274Z" fill="white"></path>
    <path d="M37.8157 8.44841C37.8455 10.5127 39.5125 12.1174 41.5815 12.0764C43.6099 12.0361 45.2226 10.386 45.2046 8.3661C45.1862 6.31839 43.5056 4.66564 41.464 4.68948C39.4132 4.71345 37.7861 6.39159 37.8176 8.44839L37.8157 8.44841Z" fill="white"></path>
    <path d="M9.21811 28.8707C7.15806 28.8948 5.52344 30.5656 5.55481 32.615C5.58607 34.657 7.28503 36.2965 9.33007 36.2578C11.351 36.2194 12.9581 34.5656 12.9456 32.5382C12.9324 30.4645 11.2874 28.8483 9.21814 28.8726L9.21811 28.8707Z" fill="#C3E8DC"></path>
  </g>
  <defs>
    <clipPath id="clip0_1080_23534">
      <rect width="40" height="57.7778" fill="white" transform="matrix(-0.0144018 -0.999896 -0.999896 0.0144018 59 40)"></rect>
    </clipPath>
  </defs>
</svg>
