<svg xmlns="http://www.w3.org/2000/svg" width="32.875" height="32.875" viewBox="0 0 32.875 32.875">
  <g id="Group_34256" data-name="Group 34256" transform="translate(-20 -20)">
    <g id="Group_34246" data-name="Group 34246">
      <path id="Traced_layer" data-name="Traced layer" d="M3.119.125c-.446.236-.47.323-.51,1.827-.039,1.484-.081,1.67-.464,2.075a1.845,1.845,0,0,1-1.088.52,1.059,1.059,0,0,0-1.044.806,1.035,1.035,0,0,0,.41.958,2.568,2.568,0,0,0,2.222-.246,4.393,4.393,0,0,0,1.431-1.4,4.643,4.643,0,0,0,.46-2.608C4.535.926,4.523.781,4.4.535A.783.783,0,0,0,4,.13.862.862,0,0,0,3.119.125ZM6.112.143c-.489.28-.487.27-.487,3.09,0,2.788,0,2.8.442,3.092a.965.965,0,0,0,1.368-.368c.1-.2.112-.471.112-2.723C7.547.921,7.538.716,7.428.51A1.085,1.085,0,0,0,6.586,0,1.156,1.156,0,0,0,6.112.143ZM9.169.131a.8.8,0,0,0-.4.4c-.119.245-.131.392-.131,1.523A4.643,4.643,0,0,0,9.1,4.667a4.393,4.393,0,0,0,1.431,1.4,2.568,2.568,0,0,0,2.222.246,1.035,1.035,0,0,0,.41-.958,1.059,1.059,0,0,0-1.044-.806,1.845,1.845,0,0,1-1.088-.52c-.384-.4-.425-.591-.464-2.075C10.523.44,10.5.357,10.039.122A.838.838,0,0,0,9.169.131Z" transform="translate(29.877 42.434)" fill="#2c2b46" opacity="0.4"/>
      <path id="Traced_layer-2" data-name="Traced layer" d="M3.145.1a5.551,5.551,0,0,0-.89.355A4.22,4.22,0,0,0,.176,2.885L.027,3.3.008,8.533C-.014,14.42-.023,14.29.45,15.254a4.279,4.279,0,0,0,2.619,2.153,7.635,7.635,0,0,0,1.33.135l.977.036v-1.4a4.92,4.92,0,0,1,.433-2.716,4.276,4.276,0,0,1,1.809-1.786c.969-.474.581-.454,8.78-.454s7.81-.02,8.78.454a4.276,4.276,0,0,1,1.809,1.786,4.92,4.92,0,0,1,.433,2.716v1.4l.977-.036a7.635,7.635,0,0,0,1.33-.135,4.279,4.279,0,0,0,2.619-2.153c.473-.964.465-.833.443-6.721L32.771,3.3l-.148-.417A4.155,4.155,0,0,0,30.487.428a5.393,5.393,0,0,0-.938-.357C29.016-.038,3.6-.015,3.145.1ZM23.36,3.819A.945.945,0,0,1,23.69,5.1c-.246.427-.445.488-1.524.467-.813-.016-.951-.034-1.1-.146a.973.973,0,0,1-.171-1.41c.24-.3.446-.354,1.41-.336C23.077,3.685,23.2,3.7,23.36,3.819Zm4.573-.052a1.18,1.18,0,0,1,.374.336,1.042,1.042,0,0,1-.057,1.127c-.29.311-.437.347-1.393.347-.82,0-.908-.012-1.109-.145a.951.951,0,0,1,.1-1.648A4.2,4.2,0,0,1,27.933,3.767Zm-18.9,9.442a2.359,2.359,0,0,0-1.558,1.239c-.137.3-.149.426-.168,1.72L7.29,17.561H25.508l-.021-1.394c-.019-1.294-.031-1.417-.168-1.72A2.607,2.607,0,0,0,24.312,13.4a2.685,2.685,0,0,0-.6-.2C23.285,13.124,9.448,13.127,9.036,13.208Z" transform="translate(20.064 23.909)" fill="#2c2b46"/>
    </g>
    <rect id="Rectangle_4322" data-name="Rectangle 4322" width="32.875" height="32.875" transform="translate(20 20)" fill="none"/>
  </g>
</svg>
