<svg xmlns="http://www.w3.org/2000/svg" width="32.88" height="32.88" viewBox="0 0 32.88 32.88">
  <g id="Group_34488" data-name="Group 34488" transform="translate(-17.763 -22.316)">
    <rect id="Rectangle_4326" data-name="Rectangle 4326" width="32.88" height="32.88" transform="translate(17.763 22.316)" fill="none"/>
    <g id="Group_34487" data-name="Group 34487">
      <path id="Traced_layer" data-name="Traced layer" d="M15.155.107a1.088,1.088,0,0,0-.362.336c-.081.126-2.088,4.45-4.46,9.609L6.02,19.431l-.46-.081a4.649,4.649,0,0,0-4.171,1.366A4.629,4.629,0,0,0,.1,23.131a4.811,4.811,0,0,0,4.969,5.746,4.614,4.614,0,0,0,3.12-1.422,3.544,3.544,0,0,0,.882-1.191,4.475,4.475,0,0,0,.223-3.829l-.2-.586,3.986-8.758c2.192-4.817,4.038-8.931,4.1-9.143a4.193,4.193,0,0,0-.054-2.2C16.639.39,15.876-.248,15.155.107Zm8.478,0a.866.866,0,0,0-.5.856.846.846,0,0,0,.143.554c.274.384.408.409,2.194.409h1.611V3.852H25.474c-1.785,0-1.92.025-2.194.409a1.1,1.1,0,0,0,0,1.108c.274.384.408.409,2.194.409h1.611V7.7H25.474c-1.785,0-1.92.025-2.194.409a1.1,1.1,0,0,0,0,1.108c.274.384.408.409,2.194.409h1.611v1.927H25.474c-1.785,0-1.92.025-2.194.409a.846.846,0,0,0-.143.554.846.846,0,0,0,.143.554c.274.384.408.409,2.194.409h1.611v1.927H25.474c-1.785,0-1.92.025-2.194.409a1.1,1.1,0,0,0,0,1.108c.274.384.408.409,2.194.409h1.611v1.927H25.474c-1.785,0-1.92.025-2.194.409a1.1,1.1,0,0,0,0,1.108c.274.384.408.409,2.194.409h1.611v1.927H25.474c-1.785,0-1.92.025-2.194.409a1.1,1.1,0,0,0,0,1.108c.274.384.408.409,2.194.409h1.611V26.97H25.474c-1.785,0-1.92.025-2.194.409a1.1,1.1,0,0,0,0,1.108c.3.414.252.409,3.725.409,1.869,0,3.283-.027,3.488-.066a2.926,2.926,0,0,0,2.305-2.35c.084-.511.084-23.556,0-24.068A2.926,2.926,0,0,0,30.495.064C30.288.025,28.879,0,27,0,24.224,0,23.818.014,23.633.105ZM5.331,21.256a2.871,2.871,0,0,1-.943,5.663,2.889,2.889,0,0,1-2.364-2.15,2.5,2.5,0,0,1,0-1.378A2.875,2.875,0,0,1,5.331,21.256Z" transform="translate(17.771 24.309)" fill="#2c2b46"/>
      <path id="Traced_layer-2" data-name="Traced layer" d="M1.131,2.172C.577,3.394.124,4.432.124,4.479a2.5,2.5,0,0,0,.193.493,2.8,2.8,0,0,1,.193.476,2.972,2.972,0,0,1-.162.467,4.708,4.708,0,0,0,1.041,5.108,4.713,4.713,0,0,0,3.677,1.432,4.614,4.614,0,0,0,3.12-1.422,3.55,3.55,0,0,0,.883-1.191,4.123,4.123,0,0,0,.521-2.183,4.123,4.123,0,0,0-.521-2.183,3.55,3.55,0,0,0-.883-1.191A4.606,4.606,0,0,0,6.126,3.039a4.833,4.833,0,0,0-2.067-.116L3.6,3.014,2.914,1.532C2.538.716,2.21.027,2.185,0A23.284,23.284,0,0,0,1.131,2.172Zm4.2,2.662a2.872,2.872,0,0,1-.1,5.663A2.948,2.948,0,0,1,2.294,9.058a3.516,3.516,0,0,1-.373-1.4,3.547,3.547,0,0,1,.1-.689A2.875,2.875,0,0,1,5.33,4.835Z" transform="translate(29.326 40.73)" fill="#2c2b46" opacity="0.4"/>
      <path id="Traced_layer-3" data-name="Traced layer" d="M1.31.129A3.588,3.588,0,0,0,0,2.922C0,3.714.124,4.05,1.866,7.887c.925,2.038,1.7,3.724,1.72,3.748S5.452,7.757,5.619,7.3A32.765,32.765,0,0,0,4.133,3.867C3.293,2.041,2.554.47,2.49.377A1.205,1.205,0,0,0,1.713,0,1.228,1.228,0,0,0,1.31.129Z" transform="translate(21.622 24.307)" fill="#2c2b46" opacity="0.4"/>
    </g>
  </g>
</svg>
