<svg xmlns="http://www.w3.org/2000/svg" width="29.082" height="29.082" viewBox="0 0 29.082 29.082">
  <g id="Group_34257" data-name="Group 34257" transform="translate(-21.496 -21.495)">
    <g id="Group_34249" data-name="Group 34249">
      <path id="Traced_layer" data-name="Traced layer" d="M2.253.718,0,1.466v9.607l2.248.747a9.954,9.954,0,0,0,2.5.719.774.774,0,0,0,.645-.439c.1-.187.1-.455.1-5.843V.61L5.371.423A1.464,1.464,0,0,0,5.1.127C4.783-.105,4.654-.078,2.253.718Z" transform="translate(45.072 22.412)" fill="#2c2b46" opacity="0.4"/>
      <path id="Traced_layer-2" data-name="Traced layer" d="M6.007.067A8.84,8.84,0,0,0,3.952.749,7.688,7.688,0,0,0,.715,3.976a7.026,7.026,0,0,0,1.34,8.043A7.18,7.18,0,0,0,6.695,14.15c1.019.076.384.174,11.155-1.725,2.042-.36,3.771-.668,3.841-.684l.128-.029V7.064c0-2.556-.02-4.648-.045-4.648s-3.08-.538-6.789-1.2C8.477.068,8.21.025,7.362,0A7.061,7.061,0,0,0,6.007.067Zm1.727,4.4A2.765,2.765,0,0,1,9.119,5.2,2.648,2.648,0,1,1,5.374,8.941a2.579,2.579,0,0,1-.7-2.494A2.68,2.68,0,0,1,6.682,4.48,2.271,2.271,0,0,1,7.734,4.462Zm-.792,1.7a1.1,1.1,0,0,0-.58.549.958.958,0,1,0,1.825.156,1.11,1.11,0,0,0-.647-.706A.91.91,0,0,0,6.943,6.16Zm2.97,9.377-2.976.523.018.137c.1.722,1.005,5.761,1.08,5.983a3.167,3.167,0,0,0,.817,1.245,3.3,3.3,0,0,0,1.392.737c.275.044.268.032.46.732a5.436,5.436,0,0,0,3.108,3.485,4.356,4.356,0,0,0,2.082.364,3.746,3.746,0,0,0,1.4-.155,5.5,5.5,0,0,0,3.792-3.926,10.011,10.011,0,0,0,.156-2.517c.033-2.044.035-2.072.166-2.283a1.249,1.249,0,0,1,.761-.56,1.19,1.19,0,0,1,1.3.56l.133.214.028,4.086.028,4.086.155.2a.831.831,0,0,0,.8.308.774.774,0,0,0,.616-.437c.1-.185.1-.41.1-4.176,0-2.687-.02-4.078-.063-4.281a2.8,2.8,0,0,0-.811-1.439,2.743,2.743,0,0,0-2.631-.788,2.969,2.969,0,0,0-2.122,1.878,7.757,7.757,0,0,0-.157,2.429,8.373,8.373,0,0,1-.163,2.494,3.643,3.643,0,0,1-4.36,2.532,3.671,3.671,0,0,1-2.7-2.557c-.126-.425-.122-.439.15-.578a3.565,3.565,0,0,0,.643-.526,2.847,2.847,0,0,0,.852-1.641c.1-.56.11-.46-.49-3.934-.249-1.442-.453-2.647-.453-2.679C13.031,14.984,13.278,14.946,9.913,15.537Z" transform="translate(21.552 21.608)" fill="#2c2b46"/>
    </g>
    <rect id="Rectangle_4326" data-name="Rectangle 4326" width="29.082" height="29.082" transform="translate(21.496 21.495)" fill="none"/>
  </g>
</svg>
