<svg xmlns="http://www.w3.org/2000/svg" width="32.88" height="32.88" viewBox="0 0 32.88 32.88">
  <g id="Group_34482" data-name="Group 34482" transform="translate(-19.365 -19.896)">
    <rect id="Rectangle_4325" data-name="Rectangle 4325" width="32.88" height="32.88" transform="translate(19.365 19.896)" fill="none"/>
    <g id="Group_34479" data-name="Group 34479">
      <path id="Traced_layer" data-name="Traced layer" d="M4.431.1a.938.938,0,0,0-.515.852.938.938,0,0,0,.515.852c.206.1.472.112,3.38.1,3.075-.016,3.161-.02,3.334-.149a.891.891,0,0,0,.435-.8.891.891,0,0,0-.435-.8C10.972.027,10.885.023,7.811.006,4.9-.009,4.636,0,4.431.1Zm25.1,0a1.187,1.187,0,0,0-.369.334c-.127.19-.146.3-.146.851v.633h-.594c-.689,0-.958.1-1.186.443A.967.967,0,0,0,27.6,3.732a1.825,1.825,0,0,0,.817.112h.594v.633c0,.551.019.661.146.851A.955.955,0,0,0,30.774,5.3c.1-.14.135-.3.156-.809l.025-.635.63-.022c.514-.018.663-.046.807-.154a.891.891,0,0,0,.434-.8.891.891,0,0,0-.434-.8c-.144-.108-.293-.136-.807-.154l-.63-.022-.025-.635C30.9.593,30.837.432,30.479.165A1,1,0,0,0,29.53.1ZM.515,3.956a.962.962,0,0,0,0,1.7c.206.1.473.112,3.412.1,3.107-.016,3.193-.02,3.366-.149a.891.891,0,0,0,.435-.8.891.891,0,0,0-.435-.8c-.173-.129-.259-.133-3.366-.149C.988,3.844.721,3.851.515,3.956ZM23.688,27.2a1.187,1.187,0,0,0-.369.334c-.127.19-.146.3-.146.851v.633H22.58c-.689,0-.958.1-1.186.443a.967.967,0,0,0,.369,1.371,1.825,1.825,0,0,0,.817.112h.594v.633c0,.551.019.661.146.851a.955.955,0,0,0,1.613-.028c.1-.14.135-.3.156-.809l.025-.635.63-.022c.514-.018.663-.046.807-.154a.952.952,0,0,0,0-1.6c-.144-.108-.293-.136-.807-.154l-.63-.022-.025-.635c-.027-.678-.093-.839-.451-1.107A1,1,0,0,0,23.688,27.2Z" transform="translate(19.391 19.907)" fill="#2c2b46" opacity="0.4"/>
      <path id="Traced_layer-2" data-name="Traced layer" d="M16.817.036A7.409,7.409,0,0,0,14.072,1.1a36.1,36.1,0,0,0-4.509,4.56,4.479,4.479,0,0,0-.593,2.194l-.032.771L11.626,5.96c2.847-2.827,2.958-2.92,3.806-3.169a4.138,4.138,0,0,1,1.806,0,3.445,3.445,0,0,1,2.1,1.762l.236.485.449-.156a3.472,3.472,0,0,1,2.125,0A3.358,3.358,0,0,1,24.146,9.5c-.03.072.086.156.456.331a3.384,3.384,0,0,1,1.592,4.428c-.034.081.064.154.451.339a3.58,3.58,0,0,1,1.518,1.464,3.432,3.432,0,0,1-.031,3.162,15.83,15.83,0,0,1-2.213,2.416c-1.1,1.114-2.009,2.05-2.009,2.079a3.426,3.426,0,0,0,.851.022,3.981,3.981,0,0,0,1.364-.2c.981-.332,1.258-.546,3.2-2.471,1.918-1.9,2.263-2.307,2.7-3.153a6.911,6.911,0,0,0,.166-5.888c-.506-1.116-.511-1.121-5.353-5.981C21.867,1.052,21.8.989,20.6.5A6.531,6.531,0,0,0,17.866,0C17.395.006,16.922.022,16.817.036Zm-1.1,4.694c-.11.06-2.421,2.314-5.135,5.008-4.71,4.675-4.937,4.89-4.98,4.72-.024-.1-.118-1.507-.207-3.132L5.232,8.372l-.21-.415a1.9,1.9,0,0,0-3.1-.442c-.39.431-.466.685-.577,1.922-.187,2.069-.311,3.094-.835,6.9A29.43,29.43,0,0,0,0,21.825a10.023,10.023,0,0,0,.119,2.216,8.58,8.58,0,0,0,2.539,4.516A9.714,9.714,0,0,0,7.6,31.209a12,12,0,0,0,3.577.038,10.268,10.268,0,0,0,3.7-1.5c.586-.386,1.156-.934,6.054-5.825,3.147-3.142,5.453-5.494,5.517-5.626a2.041,2.041,0,0,0,.135-.612,1.4,1.4,0,0,0-1.3-1.5c-.652-.054-.656-.051-2.957,2.236-2.277,2.263-2.269,2.257-2.818,2.154a.935.935,0,0,1-.621-1.373c.068-.131,1.313-1.423,2.767-2.871a36.1,36.1,0,0,0,2.763-2.89,1.425,1.425,0,0,0-1.853-1.924,36.1,36.1,0,0,0-3,2.853c-2.413,2.408-2.791,2.759-3,2.8A.962.962,0,0,1,15.4,16c.039-.212.458-.656,3.467-3.677,1.883-1.89,3.465-3.522,3.517-3.628a1.372,1.372,0,0,0,.1-.949,1.094,1.094,0,0,0-.407-.665A1.311,1.311,0,0,0,20.443,6.8c-.124.063-1.712,1.607-3.531,3.431s-3.413,3.372-3.544,3.44A.934.934,0,0,1,12,13.053c-.105-.561-.166-.486,2.8-3.461a36.108,36.108,0,0,0,2.852-3A1.462,1.462,0,0,0,16.9,4.715,1.751,1.751,0,0,0,15.718,4.73Z" transform="translate(19.425 21.384)" fill="#2c2b46"/>
    </g>
  </g>
</svg>
