<svg xmlns="http://www.w3.org/2000/svg" width="32.893" height="32.88" viewBox="0 0 32.893 32.88">
  <g id="Group_34486" data-name="Group 34486" transform="translate(-19.353 -20.042)">
    <rect id="Rectangle_4326" data-name="Rectangle 4326" width="32.88" height="32.88" transform="translate(19.36 20.042)" fill="none"/>
    <g id="Group_34485" data-name="Group 34485">
      <path id="Traced_layer" data-name="Traced layer" d="M.478.145A1.364,1.364,0,0,0,.132.514C0,.738,0,.77,0,10.339c0,9.487,0,9.6.128,9.814a.992.992,0,0,0,.738.472l.225.022.044-.441a5.029,5.029,0,0,1,2.894-4.12,4.523,4.523,0,0,1,1.88-.461A4.9,4.9,0,0,1,9.8,17.2a4.988,4.988,0,0,1,1.355,2.873l.082.578h7.829l.017-9.761c.011-6.636,0-9.866-.051-10.089a1,1,0,0,0-.556-.724C18.374.02,15.909,0,9.514,0H.693Zm9.35,2.748c.225.085,5.869,3.614,6.123,3.828a.953.953,0,0,1,.095,1.3.914.914,0,0,1-.866.317l-.32-.031v2.241c0,2.119-.007,2.255-.129,2.494a.885.885,0,0,1-.383.383c-.247.126-.37.129-4.821.129-4.533,0-4.569,0-4.809-.136a1.17,1.17,0,0,1-.378-.378c-.131-.234-.136-.319-.136-2.485V8.308l-.369.026a.748.748,0,0,1-.594-.126A.961.961,0,0,1,2.967,6.88c.118-.161,5.61-3.67,6.149-3.928A.778.778,0,0,1,9.829,2.893Zm12.334,9.871-1.139.019v7.9l.369-.019.369-.019.049-.353a5.1,5.1,0,0,1,1.578-3.288,4.851,4.851,0,0,1,3.7-1.381,4.43,4.43,0,0,1,1.993.523A4.946,4.946,0,0,1,31.851,20.1c.038.49.046.512.2.512a.918.918,0,0,0,.679-.45c.129-.207.142-.323.162-1.477.046-2.674-.222-3.638-1.32-4.732a4.315,4.315,0,0,0-2.158-1.145C28.921,12.718,26,12.7,22.163,12.763Zm-16.8,4.87a3.213,3.213,0,0,0-2.231,2.242,3.659,3.659,0,0,0-.086.771,3.12,3.12,0,0,0,4.583,2.744,3.635,3.635,0,0,0,1.315-1.383,3.122,3.122,0,0,0-3.581-4.375Zm20.749-.01a3.153,3.153,0,0,0-2.339,3.494,3.1,3.1,0,0,0,5.183,1.8,3.1,3.1,0,0,0,0-4.531A3.088,3.088,0,0,0,26.116,17.623Z" transform="translate(19.353 24.602)" fill="#2c2b46"/>
      <path id="Traced_layer-2" data-name="Traced layer" d="M0,2.868V5.736l1.647-.042c.906-.023,2.579-.042,3.718-.042h2.07l-.9-1.943C6.038,2.64,5.552,1.648,5.452,1.5A3.938,3.938,0,0,0,4.155.39,4.844,4.844,0,0,0,1.5,0H0Z" transform="translate(40.376 29.74)" fill="#2c2b46" opacity="0.4"/>
      <path id="Traced_layer-3" data-name="Traced layer" d="M1.685,1.063,0,2.125V6.673H6.806L6.789,4.384,6.772,2.095,5.1,1.047C4.185.471,3.42,0,3.4,0S2.612.479,1.685,1.063Z" transform="translate(25.484 29.552)" fill="#2c2b46" opacity="0.4"/>
    </g>
  </g>
</svg>
