<svg xmlns="http://www.w3.org/2000/svg" width="27.818" height="27.818" viewBox="0 0 27.818 27.818">
  <g id="Group_34258" data-name="Group 34258" transform="translate(-22.76 -22.76)">
    <g id="Group_34248" data-name="Group 34248">
      <path id="Traced_layer" data-name="Traced layer" d="M1.871.078A2.317,2.317,0,0,0,.728.73,2.33,2.33,0,0,0,.06,1.942,17.236,17.236,0,0,0,0,3.826v1.6H17.894v-1.6a16.546,16.546,0,0,0-.061-1.884A2.466,2.466,0,0,0,15.953.061C15.518-.03,2.24-.015,1.871.078Zm9.084,1.93a.861.861,0,0,1,.432.7.865.865,0,0,1-.817.813.915.915,0,0,1-.707-.445.777.777,0,0,1,.309-1.053A.735.735,0,0,1,10.955,2.008Zm3.254,0a.861.861,0,0,1,.432.7.865.865,0,0,1-.817.813.915.915,0,0,1-.707-.445.777.777,0,0,1,.309-1.053A.735.735,0,0,1,14.208,2.008Z" transform="translate(32.627 28.291)" fill="#2c2b46" opacity="0.4"/>
      <path id="Traced_layer-2" data-name="Traced layer" d="M1.871.078A2.317,2.317,0,0,0,.728.73,2.33,2.33,0,0,0,.06,1.942C.019,2.137,0,3.434,0,6V9.761H8.242V8.674A5.171,5.171,0,0,1,8.561,6.4a4.2,4.2,0,0,1,2.163-2.166c.718-.3.964-.327,3.643-.327H16.81V3.067a8.088,8.088,0,0,0-.061-1.125A2.466,2.466,0,0,0,14.869.061C14.435-.03,2.24-.015,1.871.078Zm2.577,4.37a.747.747,0,0,1,.323.323c.1.2.109.318.109,1.465S4.871,7.506,4.771,7.7a.861.861,0,0,1-.708.432.915.915,0,0,1-.707-.445c-.093-.181-.1-.329-.1-1.465,0-1.431.024-1.525.409-1.758A.735.735,0,0,1,4.448,4.448ZM0,18.462c0,5.068.017,7.155.061,7.361a2.469,2.469,0,0,0,1.88,1.88c.2.042,1.361.061,3.7.061H9.054l-.188-.295a4.791,4.791,0,0,1-.507-1.142c-.077-.242-.088-1.062-.1-7.605L8.24,11.388H0Zm9.869.6c0,4.624.018,6.559.061,6.765a2.469,2.469,0,0,0,1.88,1.88c.4.086,13.6.087,14.012,0A2.489,2.489,0,0,0,27.7,25.823c.042-.2.06-2.229.06-6.765V12.581H9.869ZM4.448,13.124a.747.747,0,0,1,.323.323c.1.2.109.316.109,2.55s0,2.345-.109,2.55a.861.861,0,0,1-.708.432.915.915,0,0,1-.707-.445c-.1-.189-.1-.349-.1-2.549,0-2.642,0-2.591.409-2.842A.735.735,0,0,1,4.448,13.124Zm15.643,1.243a5.252,5.252,0,0,1,3.723,3.745,3.976,3.976,0,0,1,.125,1.247,3.976,3.976,0,0,1-.125,1.247,5.266,5.266,0,0,1-3.723,3.75,6.152,6.152,0,0,1-2.521,0,5.258,5.258,0,0,1-3.752-3.734,6.436,6.436,0,0,1,0-2.525,5.279,5.279,0,0,1,4.322-3.854A7.586,7.586,0,0,1,20.091,14.367Zm-2.033,1.552a3.654,3.654,0,0,0-2.379,1.868,3.472,3.472,0,0,0,1.565,4.71,3.41,3.41,0,0,0,3.145,0,3.632,3.632,0,0,0,1.871-2.406,3.453,3.453,0,0,0-.306-2.3,3.593,3.593,0,0,0-1.565-1.565A3.514,3.514,0,0,0,18.057,15.919Z" transform="translate(22.76 22.76)" fill="#2c2b46"/>
    </g>
    <rect id="Rectangle_4326" data-name="Rectangle 4326" width="27.818" height="27.818" transform="translate(22.76 22.76)" fill="none"/>
  </g>
</svg>
