<svg xmlns="http://www.w3.org/2000/svg" width="32.88" height="32.88" viewBox="0 0 32.88 32.88">
  <g id="Group_34481" data-name="Group 34481" transform="translate(-17.763 -23.035)">
    <rect id="Rectangle_4326" data-name="Rectangle 4326" width="32.88" height="32.88" transform="translate(17.763 23.035)" fill="none"/>
    <g id="Group_34480" data-name="Group 34480">
      <path id="Traced_layer" data-name="Traced layer" d="M1.3.084A2.3,2.3,0,0,0,.153,1.154C.007,1.477,0,1.556,0,2.873s.007,1.4.153,1.719a2.189,2.189,0,0,0,1.19,1.076,30.441,30.441,0,0,0,4.569.081l4.23-.018.329-.174a2.159,2.159,0,0,0,.95-1.062,12.083,12.083,0,0,0,0-3.245,2.159,2.159,0,0,0-.95-1.062L10.142.016,5.874,0A33.136,33.136,0,0,0,1.3.084Zm26.64.448A2.309,2.309,0,0,0,26.793,1.6l-.153.338v8.541l.153.338a2.216,2.216,0,0,0,.5.658c.523.478.753.527,2.378.5,1.3-.02,1.338-.024,1.661-.194a2.5,2.5,0,0,0,.589-.469c.477-.542.462-.38.462-5.1s.015-4.563-.462-5.1a2.5,2.5,0,0,0-.589-.469c-.325-.171-.346-.174-1.709-.187A6.583,6.583,0,0,0,27.944.532Zm-5.124.909a8.985,8.985,0,0,0-7.738,6.786c-.248,1.02-.294,2.092-.273,6.334l.019,3.885,4.8.016,4.8.017v-7.45h.383l-.047-.4c-.061-.523-.061-8.307,0-8.83l.047-.4-.882.01C23.442,1.412,22.944,1.428,22.821,1.441ZM2.559,16.262c-.146.053-.565.226-.931.383l-.665.287-.019,2.2c-.026,3.065.1,4.179.639,5.761a11.786,11.786,0,0,0,5.991,6.778,9.879,9.879,0,0,0,2.211.812,11.734,11.734,0,0,0,14.64-11.238v-.843H14.808l-.024.658A1.9,1.9,0,0,1,14.2,22.6a1.932,1.932,0,0,1-1.486.6A2,2,0,0,1,10.8,22.023l-.21-.426-.032-2.341-.032-2.341-.818-.345c-1.186-.5-1.274-.5-2.229-.053a3.245,3.245,0,0,1-2.2.466,6.017,6.017,0,0,1-1.171-.434C3.328,16.172,2.982,16.109,2.559,16.262Z" transform="translate(18.01 23.047)" fill="#2c2b46"/>
      <path id="Traced_layer-2" data-name="Traced layer" d="M0,3.6c0,2,.015,3.635.034,3.635a1.92,1.92,0,0,0,.273-.1A5.069,5.069,0,0,1,1.99,6.682a2.055,2.055,0,0,1,1.045.132,9.619,9.619,0,0,1,1.027.434,2.6,2.6,0,0,0,.753.271,3.127,3.127,0,0,0,1-.359,7.838,7.838,0,0,1,1.059-.43A3.93,3.93,0,0,1,9.2,7.072c.207.092.388.167.4.167s.024-1.629.024-3.62V0L9.31.058C8.91.131.265.1.112.024.006-.028,0,.164,0,3.6Z" transform="translate(18.941 30.626)" fill="#2c2b46" opacity="0.4"/>
    </g>
  </g>
</svg>
