<svg xmlns="http://www.w3.org/2000/svg" width="32.88" height="32.88" viewBox="0 0 32.88 32.88">
  <g id="Group_34251" data-name="Group 34251" transform="translate(-20.231 -21.622)">
    <path id="Traced_layer" data-name="Traced layer" d="M2.31.045a2.951,2.951,0,0,0-2.144,1.9,7.992,7.992,0,0,0-.16,2.443C-.01,5.691.006,6.649.05,6.98A2.789,2.789,0,0,0,.838,8.65a3.008,3.008,0,0,0,2.375.877h.618L3.85,11.69c.019,2.1.024,2.172.164,2.458a1.908,1.908,0,0,0,3.325.235c.285-.424.344-.874.344-2.657,0-1.494,0-1.546.145-1.757a.93.93,0,0,1,1.568,0c.125.187.145.3.145.805a2.511,2.511,0,0,0,.568,1.979,1.9,1.9,0,0,0,3.159-.671,3.953,3.953,0,0,0,.119-1.435V9.527H17.86c4.9,0,4.885,0,5.554-.383A3.368,3.368,0,0,0,24.5,8.052,3.644,3.644,0,0,0,24.859,6.3V5.664l.6.032c.66.034.914.135,1.153.455.126.169.136.273.153,1.6.018,1.373.013,1.431-.128,1.709a1.108,1.108,0,0,1-.339.4c-.106.06-2.627.8-5.6,1.65s-5.562,1.617-5.747,1.71a3.224,3.224,0,0,0-.666.5,3.1,3.1,0,0,0-.9,2.524v.721H15.3l.021-.765c.023-.819.074-.962.442-1.233.086-.063,2.593-.809,5.572-1.656s5.57-1.616,5.759-1.707a3.031,3.031,0,0,0,1.546-2.137,21.217,21.217,0,0,0,.006-3.156,2.958,2.958,0,0,0-1.274-2.035,3.063,3.063,0,0,0-1.813-.449h-.7V3.2a5.651,5.651,0,0,0-.1-1.036A2.964,2.964,0,0,0,22.882.118C22.611.021,21.7.011,12.586,0,7.087,0,2.463.015,2.31.045Z" transform="translate(22.346 21.686)" fill="#2c2b46"/>
    <path id="Traced_layer-2" data-name="Traced layer" d="M.342.09C.1.2,0,.455,0,.953c.006.8.028.837.984,1.794l.873.874L1.3,6.344A16.7,16.7,0,0,0,.748,9.772,2.985,2.985,0,0,0,.922,10.99a4.047,4.047,0,0,0,1.37,1.977,3.714,3.714,0,0,0,2.512.843,3.714,3.714,0,0,0,2.512-.843A4.055,4.055,0,0,0,8.694,10.99a3.158,3.158,0,0,0,.167-1.218,16.718,16.718,0,0,0-.554-3.426L7.753,3.624l.9-.9.9-.9v-.59c0-.648-.09-.955-.328-1.122C9.085.008,8.647,0,4.806,0A34.608,34.608,0,0,0,.342.09Z" transform="translate(31.89 40.637)" fill="#2c2b46" opacity="0.4"/>
    <rect id="Rectangle_4325" data-name="Rectangle 4325" width="32.88" height="32.88" transform="translate(20.231 21.622)" fill="none"/>
  </g>
</svg>
