<svg xmlns="http://www.w3.org/2000/svg" width="32.88" height="32.88" viewBox="0 0 32.88 32.88">
  <g id="Group_34483" data-name="Group 34483" transform="translate(-20.231 -21.903)">
    <rect id="Rectangle_4326" data-name="Rectangle 4326" width="32.88" height="32.88" transform="translate(20.231 21.903)" fill="none"/>
    <path id="Traced_layer" data-name="Traced layer" d="M4.429.066a1.1,1.1,0,0,0-.541.575,24.441,24.441,0,0,0-.068,2.71V5.881l-1.6.019C.459,5.921.461,5.92.132,6.361,0,6.532,0,6.616,0,8.777s0,2.244.132,2.416c.28.375.437.44,1.118.464l.632.022.028,2.964a16.958,16.958,0,0,0,.167,3.59A8.5,8.5,0,0,0,4.46,22.585,8.358,8.358,0,0,0,7.842,24.7a8.912,8.912,0,0,0,1.679.391c.1,0,.135.079.2.5A9.37,9.37,0,0,0,11.357,29.4a8.737,8.737,0,0,0,6.412,3.439,1.619,1.619,0,0,0,.9-.073.971.971,0,0,0,.155-1.651,1.7,1.7,0,0,0-.884-.192,6.764,6.764,0,0,1-5.684-3.746,8.542,8.542,0,0,1-.669-2.023A1.924,1.924,0,0,1,12.155,25a8.41,8.41,0,0,0,4.417-2.306,8.54,8.54,0,0,0,2.56-4.927,28.681,28.681,0,0,0,.093-3.35v-2.74l.658-.022c.556-.018.689-.044.859-.165.4-.284.409-.357.409-2.715s-.011-2.43-.409-2.715c-.193-.138-.263-.144-1.822-.162L17.3,5.881V3.309c0-2.843,0-2.865-.409-3.155a.83.83,0,0,0-.533-.143.91.91,0,0,0-.819.442c-.128.171-.133.266-.15,2.806L15.37,5.887H5.745V3.312c0-2.836,0-2.869-.4-3.15A1.042,1.042,0,0,0,4.429.066Zm6.555,11.7a1.031,1.031,0,0,1,.509,1.157,3.537,3.537,0,0,1-.625.769l-.58.592L11.7,15c1.464.737,1.644.869,1.717,1.263.1.511.026.621-1.15,1.811A15.725,15.725,0,0,1,11,19.282a1,1,0,0,1-1.379-.787c-.048-.355.088-.59.706-1.225a3.765,3.765,0,0,0,.488-.554c-.015-.013-.667-.346-1.45-.739-1.377-.691-1.427-.723-1.557-.991-.287-.594-.155-.838,1.172-2.15a12.271,12.271,0,0,1,1.2-1.1A1.069,1.069,0,0,1,10.985,11.771Z" transform="translate(26.095 21.916)" fill="#2c2b46"/>
  </g>
</svg>
