<svg width="24" height="24" viewBox="0 0 24 24" fill="none" xmlns="http://www.w3.org/2000/svg">
<path d="M17.76 12.7996C17.76 12.7996 18.7256 17.3276 17.3938 19.5583C15.3962 22.8545 8.27119 23.4537 6.34013 17.2943C6.14036 16.6284 9.13684 11.368 9.13684 11.368L17.76 12.7996Z" fill="#FFDD67"/>
<path d="M13.0324 11.4345C13.3654 12.1004 13.0324 12.9328 12.3 13.2324C11.5675 13.5654 10.7018 13.2657 10.3689 12.5665L5.80759 3.94335C5.47464 3.27746 5.80759 2.44511 6.54006 2.14546C7.27253 1.81252 8.13818 2.11217 8.47112 2.81134L13.0324 11.4345Z" fill="#FFDD67"/>
<path d="M12.7659 12.6997C12.0335 13.0327 11.1678 12.733 10.8349 12.0339L6.27356 3.41066C6.10709 3.04442 6.10709 2.64489 6.27356 2.27866C5.74085 2.64489 5.50779 3.34407 5.80744 3.94337L10.3687 12.5666C10.7017 13.2325 11.5673 13.5654 12.2998 13.2325C12.6328 13.0993 12.8991 12.8329 13.0323 12.5333C12.9657 12.5999 12.8658 12.6664 12.7659 12.6997Z" fill="#EBA352"/>
<path d="M11.068 10.6688C11.1013 11.4678 11.6008 11.8341 13.5651 11.3346L13.8315 12.3335L8.50439 12.4001L11.3011 8.03851L11.068 10.6688Z" fill="#EBA352"/>
<path d="M9.43641 14.4643C9.23665 15.2301 8.371 15.6962 7.57194 15.4964C6.73958 15.2967 6.24017 14.4976 6.43994 13.7318L9.40312 4.00992C9.60289 3.24415 10.2688 2.77804 11.0678 2.9778C11.9002 3.17757 12.3996 3.97663 12.1998 4.74239L9.43641 14.4643Z" fill="#FFDD67"/>
<path d="M8.3045 15.3633C7.47215 15.1635 6.97273 14.3644 7.1725 13.5987L9.93592 3.91006C10.0358 3.47723 10.3354 3.14429 10.735 2.97782C10.0025 2.94453 9.33662 3.37735 9.17015 4.07653L6.40673 13.7984C6.20697 14.5642 6.70638 15.3633 7.53874 15.563C7.90497 15.6629 8.3045 15.5963 8.63744 15.4632C8.53756 15.3966 8.43768 15.3966 8.3045 15.3633Z" fill="#EBA352"/>
<path d="M18.326 11.8674C18.3593 11.1016 17.8266 10.469 17.0941 10.4024H17.0608C16.3284 10.3358 15.7291 10.9018 15.6625 11.6676L15.5293 13.7651C15.496 14.5309 16.0287 15.1635 16.7612 15.2301H16.7945C17.527 15.2967 18.1263 14.7307 18.1928 13.9649L18.326 11.8674Z" fill="#FFDD67"/>
<path d="M17.194 14.7307C16.4615 14.6641 15.9288 14.0315 15.9621 13.2658L16.0953 11.1682C16.0953 10.9685 16.1619 10.7687 16.2618 10.6022C15.9288 10.8353 15.6958 11.2015 15.6958 11.6343L15.5626 13.7319C15.5293 14.4976 16.0287 15.1302 16.7612 15.1968C17.2939 15.2301 17.76 14.9638 17.9931 14.4976C17.7933 14.6974 17.4937 14.764 17.194 14.7307Z" fill="#EBA352"/>
<path d="M15.9289 10.3025C15.9955 9.37031 15.3629 8.60455 14.4972 8.53796H14.4639C13.5983 8.47137 12.8658 9.17055 12.7992 10.1028L12.6327 12.6664C12.5661 13.5987 13.1987 14.3644 14.0644 14.431H14.0977C14.9633 14.4976 15.6958 13.7984 15.7624 12.8662L15.9289 10.3025Z" fill="#FFDD67"/>
<path d="M14.564 13.865C13.6983 13.7985 13.0657 13.0327 13.1323 12.1337L13.3321 9.57009C13.3654 9.33703 13.432 9.10397 13.5318 8.87091C13.1323 9.13726 12.866 9.60338 12.8327 10.1361L12.533 12.733C12.4664 13.6653 13.1989 14.3977 14.0646 14.431H14.0978C14.7304 14.4643 15.2964 14.1314 15.5628 13.5654C15.2299 13.7652 14.8969 13.865 14.564 13.865Z" fill="#EBA352"/>
<path d="M10.0359 11.7342C11.2012 11.0683 11.4343 12.1337 13.432 12.167C14.2976 12.2003 14.6971 13.9316 13.3654 14.5642C11.5342 15.4298 11.3677 14.198 10.9349 14.6974C10.4688 15.1968 10.0026 15.2967 9.60312 15.896C9.33676 16.3288 7.03946 15.6629 6.8064 14.764C6.34028 13.0659 8.17147 12.7996 10.0359 11.7342Z" fill="#EBA352"/>
<path d="M9.90262 12.0338C11.1345 11.3346 11.3676 12.4334 13.4318 12.4999C14.3307 12.5332 14.7303 14.3311 13.3652 14.997C11.4674 15.896 11.301 14.6308 10.8349 15.1302C10.3354 15.6629 9.86932 15.7628 9.46979 16.3954C9.17015 16.8615 9.96921 18.5595 9.96921 18.5595C9.96921 18.5595 7.63861 20.1576 7.1392 19.2587C6.24025 17.5607 6.50661 16.2622 6.5399 15.2634C6.60649 12.8995 7.97155 13.1325 9.90262 12.0338Z" fill="#FFDD67"/>
<path d="M7.53877 13.1326C6.24029 13.6986 6.30688 16.9614 7.27241 18.5262C9.6696 22.4217 14.3641 22.3218 16.8611 20.2243C14.5305 22.6214 9.50312 22.8878 6.90618 18.8592C5.84076 17.2611 5.50782 13.5654 7.53877 13.1326Z" fill="#EBA352"/>
<path d="M9.73611 16.3954C9.63622 16.5286 9.66952 16.795 9.70281 17.0946C9.56963 16.6618 9.46975 16.1957 9.60293 15.9959C10.0358 15.3633 10.2688 15.2634 10.7682 14.6974C11.2343 14.198 11.4008 15.4965 13.2986 14.5642C13.9978 14.2313 14.2308 13.5987 14.1642 13.0327C14.4306 13.632 14.2974 14.5642 13.3985 14.9971C11.5007 15.896 11.3342 14.6308 10.8681 15.1303C10.3687 15.663 10.1356 15.7628 9.73611 16.3954Z" fill="#EBA352"/>
<path d="M14.2643 19.1922C14.2643 17.028 12.5996 15.2635 10.4688 15.097C10.7351 15.0304 11.0015 14.9971 11.2678 14.9971C13.099 14.9971 14.5639 16.462 14.5639 18.2599C14.5639 18.7926 14.4308 19.2588 14.231 19.7249C14.231 19.5251 14.2643 19.3586 14.2643 19.1922Z" fill="#EBA352"/>
<path d="M14.8968 15.1302C15.263 15.0303 15.6292 15.0636 15.9289 15.1968C15.7957 15.1968 15.6625 15.2301 15.5294 15.2634C14.4972 15.5297 13.8647 16.5952 14.0644 17.6273C13.9312 17.4608 13.8314 17.2943 13.7981 17.0613C13.565 16.2289 14.0644 15.3633 14.8968 15.1302Z" fill="#EBA352"/>
</svg>
