<svg width="65" height="64" viewBox="0 0 65 64" fill="none" xmlns="http://www.w3.org/2000/svg"><g clipPath="url(#clip0_302_3493)"><circle cx="32.5" cy="32" r="32" fill="white"/><circle cx="32.5" cy="32" r="31" stroke="#2794DA" stroke-opacity="0.2" stroke-width="2"/><path d="M26.2 31.9999C26.2 30.0116 24.5882 28.3999 22.6 28.3999C20.6118 28.3999 19 30.0116 19 31.9999C19 33.9881 20.6118 35.5999 22.6 35.5999C24.5882 35.5999 26.2 33.9881 26.2 31.9999Z" stroke="#2794DA" stroke-width="1.92857" stroke-linecap="round" stroke-linejoin="round"/><path d="M45.9998 23.6C45.9998 21.6117 44.388 20 42.3998 20C40.4116 20 38.7998 21.6117 38.7998 23.6C38.7998 25.5882 40.4116 27.2 42.3998 27.2C44.388 27.2 45.9998 25.5882 45.9998 23.6Z" stroke="#2794DA" stroke-width="1.92857" stroke-linecap="round" stroke-linejoin="round"/><path d="M45.9998 40.4C45.9998 38.4118 44.388 36.8 42.3998 36.8C40.4116 36.8 38.7998 38.4118 38.7998 40.4C38.7998 42.3882 40.4116 44 42.3998 44C44.388 44 45.9998 42.3882 45.9998 40.4Z" stroke="#2794DA" stroke-width="1.92857" stroke-linecap="round" stroke-linejoin="round"/><path d="M26.2002 31.9999L28.3002 31.9999C29.4141 31.9999 30.4824 32.4424 31.27 33.2301C32.0577 34.0177 32.5002 35.086 32.5002 36.1999C32.5002 37.3138 32.9427 38.3821 33.7303 39.1698C34.518 39.9574 35.5863 40.3999 36.7002 40.3999L38.8002 40.3999" stroke="#2794DA" stroke-width="1.92857" stroke-linecap="round" stroke-linejoin="round"/><path d="M26.2002 32L28.3002 32C29.4141 32 30.4824 31.5575 31.27 30.7698C32.0577 29.9822 32.5002 28.9139 32.5002 27.8C32.5002 26.6861 32.9427 25.6178 33.7303 24.8302C34.518 24.0425 35.5863 23.6 36.7002 23.6L38.8002 23.6" stroke="#2794DA" stroke-width="1.92857" stroke-linecap="round" stroke-linejoin="round"/></g><defs><clipPath id="clip0_302_3493"><rect width="64" height="64" fill="white" transform="translate(0.5)"/></clipPath></defs></svg>