<?xml version="1.0" encoding="UTF-8"?>
<!DOCTYPE svg PUBLIC "-//W3C//DTD SVG 1.1//EN" "http://www.w3.org/Graphics/SVG/1.1/DTD/svg11.dtd">
<!-- Creator: CorelDRAW 2021 (64-Bit) -->
<svg xmlns="http://www.w3.org/2000/svg" xml:space="preserve" width="1.70666in" height="1.70666in" version="1.1" style="shape-rendering:geometricPrecision; text-rendering:geometricPrecision; image-rendering:optimizeQuality; fill-rule:evenodd; clip-rule:evenodd"
viewBox="0 0 1706.66 1706.66"
 xmlns:xlink="http://www.w3.org/1999/xlink"
 xmlns:xodm="http://www.corel.com/coreldraw/odm/2003">
 <defs>
  <style type="text/css">
   <![CDATA[
    .fil0 {fill:none}
    .fil2 {fill:white}
    .fil1 {fill:#2196F3;fill-rule:nonzero}
   ]]>
  </style>
 </defs>
 <g id="Layer_x0020_1">
  <metadata id="CorelCorpID_0Corel-Layer"/>
  <rect class="fil0" y="0" width="1706.65" height="1706.65"/>
  <g id="_2144614355168">
   <rect class="fil0" x="0.01" y="0.01" width="1706.65" height="1706.65"/>
   <path class="fil1" d="M1241.06 85.16l3.33 2.02c63.31,38.7 134.79,92.3 208.77,166.28 73.98,74.02 127.61,145.46 166.31,208.8l2.02 3.3c18.74,30.66 37.2,60.84 48.43,94.07 12.54,37.08 15.32,74.84 9.75,121.58 -12.01,100.95 -65.18,154.05 -137.97,226.78 -49.77,47.6 -112.01,107.46 -148.36,135.89 -37.91,29.69 -75.18,51.33 -119.54,61.51 -9.17,2.11 -18.46,3.79 -27.82,5.04 -45.09,5.99 -87.59,-1.19 -133.48,-15.68 -35.65,-11.22 -76.24,-27.85 -124,-48.18l-213.54 213.57c-11.37,11.4 -26.81,17.79 -42.92,17.79l-141.55 0 0 141.55c0,33.51 -27.15,60.65 -60.65,60.65l-141.61 0 0 141.61c0,33.51 -27.15,60.69 -60.65,60.69l-242.68 0c-33.51,0 -60.65,-27.18 -60.65,-60.69l0 -242.65c0,-16.08 6.39,-31.52 17.76,-42.89l618.06 -618.09c-20.33,-47.75 -36.96,-88.35 -48.18,-123.97 -14.49,-45.92 -21.7,-88.41 -15.69,-133.5 1.26,-9.35 2.94,-18.62 5.05,-27.79 10.18,-44.36 31.82,-81.63 61.48,-119.54 28.46,-36.38 88.29,-98.62 135.89,-148.36 72.72,-72.79 125.83,-125.98 226.81,-137.97 46.74,-5.56 84.47,-2.78 121.58,9.75 33.2,11.22 63.41,29.69 94.04,48.43l0.01 0z"/>
   <path class="fil2" d="M1300.67 406c23.69,23.69 23.69,62.09 0,85.78l-80.89 80.89c-23.69,23.69 -62.09,23.69 -85.78,0 -23.69,-23.69 -23.69,-62.12 0,-85.78l80.89 -80.89c23.69,-23.69 62.09,-23.69 85.78,0z"/>
  </g>
 </g>
</svg>
