<?xml version="1.0" encoding="UTF-8"?>
<!DOCTYPE svg PUBLIC "-//W3C//DTD SVG 1.1//EN" "http://www.w3.org/Graphics/SVG/1.1/DTD/svg11.dtd">
<!-- Creator: CorelDRAW 2021 (64-Bit) -->
<svg xmlns="http://www.w3.org/2000/svg" xml:space="preserve" width="1.70666in" height="1.70666in" version="1.1" style="shape-rendering:geometricPrecision; text-rendering:geometricPrecision; image-rendering:optimizeQuality; fill-rule:evenodd; clip-rule:evenodd"
viewBox="0 0 1706.66 1706.66"
 xmlns:xlink="http://www.w3.org/1999/xlink"
 xmlns:xodm="http://www.corel.com/coreldraw/odm/2003">
 <defs>
  <style type="text/css">
   <![CDATA[
    .fil0 {fill:none}
    .fil2 {fill:#0D47A1}
    .fil1 {fill:#2196F3}
   ]]>
  </style>
 </defs>
 <g id="Layer_x0020_1">
  <metadata id="CorelCorpID_0Corel-Layer"/>
  <rect class="fil0" y="0" width="1706.65" height="1706.65"/>
  <g id="_2143664880336">
   <rect class="fil0" x="0.01" y="0.01" width="1706.65" height="1706.65"/>
   <g id="_2690379285248">
    <path class="fil1" d="M351.85 35.98c104.72,-17.2 205.52,34.09 276.77,137.82 52.89,77.06 61.35,190.15 51.17,304.09 -10.54,118.22 -42.94,255.17 -89.97,394.68 -20.47,60.7 -43.93,122.51 -69.93,184.09 14.58,-16.78 29.94,-38.26 49.68,-65.89 4.93,-6.94 10.15,-14.21 15.7,-21.94 27.8,-38.63 61.38,-83.6 102.69,-126.03 27.07,-27.83 60.06,-48.02 98.52,-53.43 38.69,-5.44 73.42,5.41 101.28,22.19 8.83,5.3 17.23,11.37 25.21,18.02 5.22,-6.96 10.6,-13.79 16.19,-20.39 39.3,-46.5 93.04,-89.72 160.12,-102.49 77,-14.63 133.08,29.3 167.59,63.75 17,16.94 33.24,36.15 47.39,52.89 0.79,0.93 1.55,1.86 2.34,2.79 15.56,18.38 29.24,34.37 43.36,48.35 28.51,28.2 49.46,38.6 69.84,39.17 21.37,0.59 62.2,-9.22 130.32,-69.02 30.96,-27.18 78.1,-24.13 105.28,6.81 27.18,30.96 24.11,78.1 -6.85,105.28 -81.09,71.22 -157.5,108.13 -232.89,106.04 -76.41,-2.11 -131.76,-43.79 -170.61,-82.22 -19.54,-19.31 -37.3,-40.26 -52.36,-58.08l-0.51 -0.59c-15.7,-18.55 -28.31,-33.44 -40.72,-45.82 -25.4,-25.37 -33.21,-23.09 -34.23,-22.81 -0.03,0 -0.06,0.03 -0.08,0.03 -20.56,3.92 -46.52,19.65 -74.02,52.19 -13.93,16.49 -26.81,35.64 -38.15,56.11 21.57,50.22 35.86,106.66 36.57,155.33 0.39,25.15 -2.68,56.56 -17.65,84.5 -17.65,32.93 -51.12,58.11 -95.98,58.11 -38.26,0 -71.28,-17.59 -92.48,-47.26 -18.53,-25.91 -24.67,-56.05 -26.42,-80.64 -3.52,-49.88 8.91,-108.56 28.87,-162.55 0.2,-0.51 0.39,-1.02 0.56,-1.55 -10.26,-14.13 -20.02,-23.54 -27.72,-28.2 -1.86,-1.13 -3.16,-1.69 -3.95,-1.97 -1.72,0.79 -5.75,3.13 -11.9,9.47 -33.3,34.2 -61.63,71.76 -88.56,109.15 -4.34,6.06 -8.77,12.26 -13.22,18.52 -21.46,30.11 -43.98,61.72 -65.92,86 -25.04,27.72 -65.87,65.41 -123.24,66.06 -20.56,0.22 -39.42,-4.26 -56.7,-11.98 -81.77,163.81 -179.55,317.54 -284.38,434.55 -27.49,30.7 -74.63,33.3 -105.34,5.81 -30.67,-27.49 -33.27,-74.66 -5.78,-105.34 102.94,-114.9 201.23,-273.3 282.04,-442.72 -270.25,-351.48 -302.22,-671.5 -211.58,-873.81 46.44,-103.65 128.63,-180.51 229.63,-197.09l0.03 0.02zm51.15 912.48c-200.56,-292.67 -201.17,-528.16 -144.61,-654.39 32.14,-71.76 79.37,-104.58 117.66,-110.87 34.51,-5.7 82.81,6.96 129.56,75.06 21.77,31.69 35.16,99.05 25.57,206.33 -9.19,103 -38.15,228.02 -82.76,360.31 -13.81,40.94 -29.01,82.28 -45.42,123.55l0 0.01zm404.83 -11.47c0,0 -0.08,0.03 -0.25,0.06 0.17,-0.03 0.25,-0.06 0.25,-0.06zm-1.61 0.17c-0.22,0 -0.31,-0.03 -0.31,-0.06 -0.03,0 0.09,0 0.31,0.06z"/>
    <path class="fil2" d="M554.94 1524.72c0,-41.22 33.39,-74.6 74.58,-74.6l746.02 0c41.19,0 74.61,33.38 74.61,74.6 0,41.2 -33.41,74.58 -74.61,74.58l-746.02 0c-41.19,0 -74.58,-33.38 -74.58,-74.58z"/>
   </g>
  </g>
 </g>
</svg>
