<?xml version="1.0" encoding="UTF-8"?>
<!DOCTYPE svg PUBLIC "-//W3C//DTD SVG 1.1//EN" "http://www.w3.org/Graphics/SVG/1.1/DTD/svg11.dtd">
<!-- Creator: CorelDRAW 2021 (64-Bit) -->
<svg xmlns="http://www.w3.org/2000/svg" xml:space="preserve" width="1.70666in" height="1.70666in" version="1.1" style="shape-rendering:geometricPrecision; text-rendering:geometricPrecision; image-rendering:optimizeQuality; fill-rule:evenodd; clip-rule:evenodd"
viewBox="0 0 1706.66 1706.66"
 xmlns:xlink="http://www.w3.org/1999/xlink"
 xmlns:xodm="http://www.corel.com/coreldraw/odm/2003">
 <defs>
  <style type="text/css">
   <![CDATA[
    .fil0 {fill:none}
    .fil2 {fill:#2196F3}
    .fil1 {fill:#8BC34A}
   ]]>
  </style>
 </defs>
 <g id="Layer_x0020_1">
  <metadata id="CorelCorpID_0Corel-Layer"/>
  <rect class="fil0" y="0" width="1706.65" height="1706.65"/>
  <g id="_1315054853920">
   <rect class="fil0" x="0.01" y="0.01" width="1706.65" height="1706.65"/>
   <path class="fil1" d="M853.35 340.13c-55.81,0 -106.63,22 -168.22,48.61l-69.06 29.75c-60.16,25.9 -112.74,48.55 -149.69,70.81 -34.5,20.71 -86.78,59.15 -86.78,127.16l0 473.77c0,68.01 52.28,106.44 86.78,127.16 36.94,22.23 89.52,44.91 149.69,70.81l69.03 29.75c61.62,26.62 112.44,48.61 168.24,48.61 55.8,0 106.63,-21.99 168.22,-48.61l69.06 -29.75c60.16,-25.91 112.74,-48.58 149.69,-70.81 34.47,-20.71 86.78,-59.15 86.78,-127.16l0 -473.77c0,-68.01 -52.31,-106.45 -86.78,-127.16 -36.94,-22.26 -89.53,-44.91 -149.69,-70.81l-69.06 -29.75c-61.59,-26.62 -112.41,-48.61 -168.22,-48.61zm-78.96 539.32l0 304.81 -236.85 -108.83 0 -295.46 236.85 99.48 0 -0.01zm157.93 304.81l0 -304.81 236.85 -99.48 0 295.46 -236.85 108.83 0 0.01z"/>
   <path class="fil2" d="M706.8 101.46c1.02,43.6 -33.51,79.74 -77.11,80.75 -212.72,4.86 -303.35,26.77 -362.04,85.44 -58.67,58.7 -80.57,149.33 -85.44,362.04 -1.02,43.6 -37.15,78.13 -80.75,77.11 -43.6,-0.98 -78.13,-37.12 -77.14,-80.72 4.74,-206.9 22.92,-361.33 131.69,-470.07 108.74,-108.78 263.17,-126.95 470.07,-131.69 43.6,-0.99 79.74,33.54 80.72,77.14zm293.11 0c0.98,-43.6 37.15,-78.13 80.72,-77.14 206.89,4.74 361.33,22.92 470.1,131.69 108.74,108.74 126.92,263.17 131.63,470.07 1.02,43.6 -33.51,79.74 -77.11,80.72 -43.6,1.02 -79.74,-33.51 -80.75,-77.11 -4.87,-212.72 -26.77,-303.35 -85.44,-362.04 -58.7,-58.67 -149.33,-80.57 -362.04,-85.44 -43.6,-1.02 -78.13,-37.15 -77.11,-80.75zm605.34 898.45c43.6,0.98 78.13,37.12 77.11,80.72 -4.71,206.89 -22.89,361.33 -131.63,470.1 -108.78,108.74 -263.21,126.92 -470.1,131.63 -43.57,1.02 -79.74,-33.51 -80.72,-77.11 -1.02,-43.6 33.51,-79.74 77.11,-80.75 212.71,-4.87 303.34,-26.77 362.04,-85.44 58.67,-58.7 80.57,-149.33 85.44,-362.04 1.02,-43.6 37.15,-78.13 80.75,-77.11zm-1503.8 0c43.6,-1.02 79.74,33.51 80.75,77.11 4.86,212.71 26.77,303.34 85.44,362.04 58.7,58.67 149.33,80.57 362.04,85.44 43.6,1.02 78.13,37.15 77.11,80.75 -0.98,43.6 -37.12,78.13 -80.72,77.11 -206.9,-4.71 -361.33,-22.89 -470.07,-131.63 -108.78,-108.78 -126.95,-263.21 -131.69,-470.1 -0.99,-43.57 33.54,-79.74 77.14,-80.72z"/>
  </g>
 </g>
</svg>
