<?xml version="1.0" encoding="UTF-8"?>
<!DOCTYPE svg PUBLIC "-//W3C//DTD SVG 1.1//EN" "http://www.w3.org/Graphics/SVG/1.1/DTD/svg11.dtd">
<!-- Creator: CorelDRAW 2021 (64-Bit) -->
<svg xmlns="http://www.w3.org/2000/svg" xml:space="preserve" width="1.70666in" height="1.70666in" version="1.1" style="shape-rendering:geometricPrecision; text-rendering:geometricPrecision; image-rendering:optimizeQuality; fill-rule:evenodd; clip-rule:evenodd"
viewBox="0 0 1706.66 1706.66"
 xmlns:xlink="http://www.w3.org/1999/xlink"
 xmlns:xodm="http://www.corel.com/coreldraw/odm/2003">
 <defs>
  <style type="text/css">
   <![CDATA[
    .fil0 {fill:none}
    .fil3 {fill:#2196F3}
    .fil2 {fill:#FF6F00;fill-rule:nonzero}
    .fil1 {fill:#FFC107;fill-rule:nonzero}
   ]]>
  </style>
 </defs>
 <g id="Layer_x0020_1">
  <metadata id="CorelCorpID_0Corel-Layer"/>
  <rect class="fil0" y="0" width="1706.65" height="1706.65"/>
  <g id="_1315046830400">
   <rect class="fil0" x="0.01" y="0.01" width="1706.65" height="1706.65"/>
   <g id="_2131355816128">
    <path class="fil1" d="M1065.59 68.12c-148.33,-3.73 -295.22,-3.73 -443.57,0l-4.39 0.11c-115.83,2.9 -209.02,5.26 -283.71,18.26 -78.2,13.61 -141.75,39.73 -195.43,93.61 -53.45,53.68 -79.43,116.32 -92.81,193.22 -12.72,73.26 -14.64,164.17 -17.05,276.79l-0.09 4.48c-1.61,75.67 -1.61,150.91 0,226.57l0.09 4.48c2.41,112.62 4.33,203.53 17.05,276.76 13.38,76.94 39.36,139.57 92.81,193.26 53.68,53.88 117.24,80 195.43,93.61 74.69,13 167.88,15.36 283.68,18.26l4.42 0.12c43.61,1.09 87.1,1.87 130.53,2.32 25.35,0.26 38.04,0.4 44.72,-5.94 6.69,-6.35 7.38,-22.02 8.78,-53.43 1.75,-38.98 15.44,-77.02 39.85,-108.37 7.63,-9.82 11.44,-14.72 12.66,-18.89 1.24,-4.16 0.72,-9.7 -0.29,-20.81 -1.18,-12.83 -1.78,-25.83 -1.78,-38.96 0,-13.09 0.6,-26.06 1.78,-38.89 1,-11.11 1.49,-16.68 0.29,-20.84 -1.23,-4.16 -5.05,-9.04 -12.66,-18.86 -48.17,-61.83 -54.66,-149.73 -9.88,-219.37 46.22,-71.94 132.85,-102.2 211.11,-80.18 12.08,3.42 18.11,5.11 22.5,4.65 4.37,-0.49 9.33,-3.1 19.26,-8.38 3.13,-1.64 6.29,-3.27 9.47,-4.85 9.24,-4.62 13.87,-6.95 16.65,-9.91 2.78,-2.98 5.02,-8.3 9.53,-18.94 28.79,-68.21 96.31,-116.06 175,-116.06 78.69,0 146.2,47.85 175,116.06 4.5,10.65 6.74,15.96 9.53,18.94 2.79,2.96 7.41,5.28 16.68,9.91 3.16,1.58 6.31,3.21 9.47,4.85 9.9,5.28 14.87,7.89 19.26,8.38 4.37,0.46 10.39,-1.23 22.48,-4.65 15.7,-4.42 31.75,-6.72 47.71,-7 31.61,-0.6 47.43,-0.89 53.94,-7.52 6.52,-6.6 6.57,-19.35 6.66,-44.84 0.15,-43.78 -0.26,-87.56 -1.17,-131.48l-0.12 -4.45c-2.38,-112.65 -4.33,-203.56 -17.05,-276.82 -13.35,-76.91 -39.33,-139.54 -92.78,-193.22 -53.71,-53.88 -117.27,-80 -195.43,-93.61 -74.7,-13 -167.91,-15.36 -283.71,-18.26l-4.42 -0.11 -0.01 -0.01z"/>
    <path class="fil2" d="M398.69 433.73c21.35,-36.08 67.92,-48.05 104.03,-26.72l223.45 132.14c63.81,37.72 94.1,47.19 117.67,47.19 23.57,0 53.81,-9.47 117.64,-47.19l223.45 -132.14c36.11,-21.33 82.7,-9.36 104.06,26.72 21.33,36.11 9.36,82.7 -26.75,104.04l-223.45 132.13c-66.48,39.3 -127.37,68.32 -194.94,68.32 -67.58,0 -128.46,-29.02 -194.98,-68.32l-223.45 -132.13c-36.11,-21.33 -48.08,-67.92 -26.72,-104.04l-0.01 0z"/>
    <path class="fil3" d="M1299.56 805.86c41.94,0 75.93,34.02 75.93,75.96l0 30.29c56.24,12.92 107.07,39.9 148.21,77.11l38.58 -24.8c35.28,-22.68 82.28,-12.46 104.98,22.82 22.68,35.28 12.46,82.28 -22.82,104.95l-35.25 22.68c12.57,33.93 19.49,70.56 19.49,108.74 0,38.21 -6.92,74.84 -19.52,108.77l35.25 22.68c35.28,22.68 45.5,69.67 22.8,104.95 -22.68,35.28 -69.67,45.5 -104.95,22.82l-38.55 -24.8c-41.14,37.2 -91.98,64.19 -148.21,77.11l0 30.28c0,41.94 -33.99,75.96 -75.93,75.96 -41.97,0 -75.96,-34.02 -75.96,-75.96l0 -30.28c-56.24,-12.92 -107.07,-39.91 -148.18,-77.11l-38.58 24.8c-35.28,22.68 -82.27,12.46 -104.95,-22.82 -22.68,-35.28 -12.48,-82.28 22.82,-104.95l35.22 -22.68c-12.6,-33.93 -19.52,-70.56 -19.52,-108.77 0,-38.18 6.92,-74.81 19.52,-108.74l-35.28 -22.68c-35.28,-22.68 -45.5,-69.67 -22.8,-104.95 22.68,-35.28 69.67,-45.5 104.95,-22.82l38.58 24.8c41.13,-37.2 91.97,-64.19 148.21,-77.11l0 -30.29c0,-41.94 33.99,-75.96 75.96,-75.96l0 0zm0 249.57c-62.67,0 -116.87,30.69 -148.27,75.99 -18.4,26.61 -28.96,58.22 -28.96,92.17 0,33.99 10.56,65.6 29,92.21 31.37,45.3 85.57,75.98 148.24,75.98 62.64,0 116.83,-30.69 148.21,-75.98 18.46,-26.61 28.99,-58.22 28.99,-92.21 0,-33.96 -10.54,-65.56 -28.96,-92.17 -31.41,-45.3 -85.6,-75.99 -148.24,-75.99l-0 0z"/>
   </g>
  </g>
 </g>
</svg>
