<?xml version="1.0" encoding="UTF-8"?>
<!DOCTYPE svg PUBLIC "-//W3C//DTD SVG 1.1//EN" "http://www.w3.org/Graphics/SVG/1.1/DTD/svg11.dtd">
<!-- Creator: CorelDRAW 2021 (64-Bit) -->
<svg xmlns="http://www.w3.org/2000/svg" xml:space="preserve" width="1.70666in" height="1.70666in" version="1.1" style="shape-rendering:geometricPrecision; text-rendering:geometricPrecision; image-rendering:optimizeQuality; fill-rule:evenodd; clip-rule:evenodd"
viewBox="0 0 1706.66 1706.66"
 xmlns:xlink="http://www.w3.org/1999/xlink"
 xmlns:xodm="http://www.corel.com/coreldraw/odm/2003">
 <defs>
  <style type="text/css">
   <![CDATA[
    .fil0 {fill:none}
    .fil2 {fill:#2196F3}
    .fil3 {fill:#FFC107}
    .fil1 {fill:#FFC107;fill-rule:nonzero}
   ]]>
  </style>
 </defs>
 <g id="Layer_x0020_1">
  <metadata id="CorelCorpID_0Corel-Layer"/>
  <rect class="fil0" y="0" width="1706.65" height="1706.65"/>
  <g id="_1730496671840">
   <rect class="fil0" x="0.01" y="0.01" width="1706.65" height="1706.65"/>
   <g id="_2493297933408">
    <path class="fil1" d="M473.5 93.68c0,-41.98 -34.02,-75.97 -75.97,-75.97 -41.95,0 -75.97,33.99 -75.97,75.97l0 34.08c28.89,-9.16 59.69,-15.7 92.34,-20.44 18.83,-2.73 38.67,-4.94 59.61,-6.69l0 -6.95 -0.01 0z"/>
    <path class="fil1" d="M1385.11 127.76c-28.89,-9.16 -59.67,-15.7 -92.34,-20.44 -18.83,-2.73 -38.67,-4.94 -59.61,-6.69l0 -6.95c0,-41.98 34.02,-75.97 75.97,-75.97 41.95,0 75.97,33.99 75.97,75.97l0 34.08 0.01 0z"/>
    <path class="fil2" d="M931.48 93.68l-156.31 0c-148.01,0 -267.4,0 -361.28,13.64 -98,14.24 -179.19,44.67 -242.91,113.56 -62.94,68.05 -90.04,153.32 -102.85,256.34 -12.46,100.29 -12.46,228.29 -12.46,389.33l0 49.56c0,161.02 0,289.04 12.46,389.33 12.81,103.02 39.91,188.3 102.85,256.31 63.71,68.91 144.91,99.34 242.91,113.58 93.89,13.64 213.27,13.64 361.28,13.64l156.31 0c148.01,0 267.4,0 361.28,-13.64 98,-14.24 179.19,-44.67 242.91,-113.58 62.94,-68.02 90.04,-153.3 102.85,-256.31 12.46,-100.29 12.46,-228.31 12.46,-389.33l0 -49.56c0,-161.05 0,-289.04 -12.46,-389.33 -12.81,-103.02 -39.91,-188.3 -102.85,-256.34 -63.71,-68.88 -144.91,-99.31 -242.91,-113.56 -93.89,-13.64 -213.27,-13.64 -361.28,-13.64zm-648.06 531.74c-34.85,0 -52.28,0 -63.37,10.97 -11.08,10.94 -11.31,28.14 -11.77,62.54 -0.66,51.17 -0.69,108.39 -0.69,172.87l0 39.02c0,167.51 0.14,286.06 11.31,375.87 10.97,88.2 31.44,137.13 63.63,171.9 31.38,33.97 74.33,54.93 153.21,66.39 81.71,11.89 190.02,12.09 345.41,12.09l144.35 0c155.39,0 263.69,-0.2 345.41,-12.09 78.87,-11.46 121.8,-32.42 153.21,-66.39 32.19,-34.77 52.66,-83.69 63.63,-171.9 11.17,-89.81 11.31,-208.36 11.31,-375.87l0 -39.02c0,-64.48 -0.03,-121.7 -0.69,-172.87 -0.46,-34.4 -0.69,-51.59 -11.77,-62.54 -11.08,-10.97 -28.51,-10.97 -63.34,-10.97l-1139.83 0 -0.01 0z"/>
    <path class="fil3" d="M454.5 929.3c0,-52.46 42.52,-94.94 94.98,-94.94l0.66 0c52.46,0 94.98,42.5 94.98,94.94 0,52.46 -42.52,94.95 -94.98,94.95l-0.66 0c-52.46,0 -94.98,-42.49 -94.98,-94.95zm303.54 0c0,-52.46 42.52,-94.94 94.94,-94.94l0.69 0c52.43,0 94.95,42.5 94.95,94.94 0,52.46 -42.52,94.95 -94.95,94.95l-0.69 0c-52.43,0 -94.94,-42.49 -94.94,-94.95zm303.52 0c0,-52.46 42.52,-94.94 94.98,-94.94l0.66 0c52.46,0 94.98,42.5 94.98,94.94 0,52.46 -42.52,94.95 -94.98,94.95l-0.66 0c-52.46,0 -94.98,-42.49 -94.98,-94.95zm-607.06 303.86c0,-52.46 42.52,-94.95 94.98,-94.95l0.66 0c52.46,0 94.98,42.49 94.98,94.95 0,52.46 -42.52,94.95 -94.98,94.95l-0.66 0c-52.46,0 -94.98,-42.5 -94.98,-94.95zm303.54 0c0,-52.46 42.52,-94.95 94.94,-94.95l0.69 0c52.43,0 94.95,42.49 94.95,94.95 0,52.46 -42.52,94.95 -94.95,94.95l-0.69 0c-52.43,0 -94.94,-42.5 -94.94,-94.95z"/>
   </g>
  </g>
 </g>
</svg>
