<?xml version="1.0" encoding="UTF-8"?>
<!DOCTYPE svg PUBLIC "-//W3C//DTD SVG 1.1//EN" "http://www.w3.org/Graphics/SVG/1.1/DTD/svg11.dtd">
<!-- Creator: CorelDRAW 2021 (64-Bit) -->
<svg xmlns="http://www.w3.org/2000/svg" xml:space="preserve" width="1.70666in" height="1.70666in" version="1.1" style="shape-rendering:geometricPrecision; text-rendering:geometricPrecision; image-rendering:optimizeQuality; fill-rule:evenodd; clip-rule:evenodd"
viewBox="0 0 1706.66 1706.66"
 xmlns:xlink="http://www.w3.org/1999/xlink"
 xmlns:xodm="http://www.corel.com/coreldraw/odm/2003">
 <defs>
  <style type="text/css">
   <![CDATA[
    .fil0 {fill:none}
    .fil1 {fill:#2196F3}
    .fil2 {fill:#8BC34A}
   ]]>
  </style>
 </defs>
 <g id="Layer_x0020_1">
  <metadata id="CorelCorpID_0Corel-Layer"/>
  <rect class="fil0" y="0" width="1706.65" height="1706.65"/>
  <g id="_1314845713744">
   <rect class="fil0" x="0.01" y="0.01" width="1706.65" height="1706.65"/>
   <g id="_2659159134912">
    <path class="fil1" d="M500.82 1675.8c75.88,7.94 171.09,7.94 290.15,7.94l67.61 0c146.21,0 263.17,0 354.93,-11.68 94.59,-12 173.8,-37.55 237.07,-97.31 63.88,-60.35 91.79,-136.95 104.81,-228.43 12.46,-87.59 12.46,-198.79 12.46,-336.19l0 -475.07c0,-61.72 0,-111.76 -2.69,-152.57 -2.78,-42.07 -8.61,-79.59 -22.77,-115.44 -40.85,-103.47 -126.44,-183.35 -232.81,-220.8 -66.33,-23.39 -180.05,-23.36 -300.16,-23.33 -219.35,-0.03 -349.65,-0.03 -456.41,37.61 -171.49,60.41 -308.51,188.83 -373.67,353.85 -21.69,55.01 -31.33,114.07 -35.97,184.9 -4.58,69.57 -4.58,155.52 -4.58,265.09l0 199.55c0,111.88 0,202.44 8.5,274.85 8.81,75.18 27.59,139.9 71.62,195.46 22.8,28.79 49.72,54.16 79.88,75.5 57.52,40.67 124.05,57.9 202.03,66.07l-0 -0zm846.64 -210.97c-30.36,28.67 -73.31,47.36 -152.83,57.46 -81.22,10.31 -188.61,10.45 -341.3,10.45l-58.13 0c-124.26,0 -211.64,-0.09 -278.79,-7.12 -65.95,-6.89 -103.35,-19.77 -131,-39.33 -18.63,-13.2 -35.04,-28.73 -48.79,-46.04 -19.74,-24.93 -32.81,-58.36 -39.94,-119.11 -7.33,-62.57 -7.48,-144.23 -7.48,-261.91l0 -224.05c0,-20.61 0.03,-69.95 21.69,-106.42 13.37,-22.48 30.45,-41.25 48.03,-50.83 28.32,-15.39 60.78,-24.14 95.3,-24.14l80.35 2.8c29.37,0.61 63.61,-0.32 96.69,-9.17 64.43,-17.28 114.74,-67.59 131.99,-132.02 8.88,-33.05 9.81,-67.33 9.2,-96.7l-2.83 -80.35c0,-36.14 9.61,-67.59 26.42,-96.81 9.78,-17.05 26.83,-32.64 50.36,-46.33 35.7,-20.79 78.44,-20.96 104.57,-21.08 26.1,-0.12 53.66,-0.2 76.7,-0.2 141.69,0 193.22,1.08 232.1,14.77 67.41,23.74 118.83,73.31 142.77,133.98 6.01,15.18 10.25,35.15 12.52,69.75 2.31,35.3 2.33,80.31 2.33,145.22l0 466.66c0,144.63 -0.17,245.01 -10.92,320.65 -10.39,72.99 -29.28,111.79 -59.04,139.87l0.03 0z"/>
    <path class="fil2" d="M1239.56 1239.56c0,42.66 -34.57,77.25 -77.25,77.25l-540.72 0c-42.65,0 -77.22,-34.59 -77.22,-77.25 0,-42.65 34.57,-77.25 77.22,-77.25l540.72 0c42.69,0 77.25,34.59 77.25,77.25z"/>
    <path class="fil2" d="M1239.56 930.59c0,42.65 -34.57,77.25 -77.25,77.25l-231.72 0c-42.65,0 -77.25,-34.59 -77.25,-77.25 0,-42.66 34.59,-77.25 77.25,-77.25l231.72 0c42.69,0 77.25,34.59 77.25,77.25z"/>
   </g>
  </g>
 </g>
</svg>
