<?xml version="1.0" encoding="UTF-8"?>
<!DOCTYPE svg PUBLIC "-//W3C//DTD SVG 1.1//EN" "http://www.w3.org/Graphics/SVG/1.1/DTD/svg11.dtd">
<!-- Creator: CorelDRAW 2021 (64-Bit) -->
<svg xmlns="http://www.w3.org/2000/svg" xml:space="preserve" width="1.70666in" height="1.70666in" version="1.1" style="shape-rendering:geometricPrecision; text-rendering:geometricPrecision; image-rendering:optimizeQuality; fill-rule:evenodd; clip-rule:evenodd"
viewBox="0 0 1706.66 1706.66"
 xmlns:xlink="http://www.w3.org/1999/xlink"
 xmlns:xodm="http://www.corel.com/coreldraw/odm/2003">
 <defs>
  <style type="text/css">
   <![CDATA[
    .fil0 {fill:none}
    .fil2 {fill:#03A9F4;fill-rule:nonzero}
    .fil1 {fill:#FF9800;fill-rule:nonzero}
   ]]>
  </style>
 </defs>
 <g id="Layer_x0020_1">
  <metadata id="CorelCorpID_0Corel-Layer"/>
  <rect class="fil0" y="0" width="1706.65" height="1706.65"/>
  <g id="_1314856798960">
   <rect class="fil0" x="0.01" y="0.01" width="1706.65" height="1706.65"/>
   <path class="fil1" d="M718.78 1181.04c0,-257.66 217.61,-462.26 480.56,-462.26 262.95,0 480.59,204.59 480.59,462.26 0,123.43 -50.36,235.25 -131.56,317.73 -3.34,3.37 -5.14,6.45 -5.93,8.4 -0.2,0.52 -0.29,0.84 -0.35,1.07 5.29,27.17 17.03,52.31 33.94,73.12 12.84,15.78 16.39,37.17 9.39,56.26 -7.04,19.09 -23.6,33.07 -43.59,36.82 -74.02,13.74 -150.63,1.33 -216.25,-33.57 -8.11,-4.3 -13.48,-7.15 -17.44,-9.13 -3.72,0.61 -8.78,1.54 -16.33,2.96 -30.49,5.72 -61.44,8.6 -92.5,8.57 -262.92,-0.03 -480.54,-204.63 -480.54,-462.26l0.01 0.03z"/>
   <path class="fil2" d="M776.43 26.74c-411.57,0 -749.7,319.88 -749.7,719.71 0,191.78 78.15,365.65 204.74,494.2 17.73,18.02 22.52,35.48 20.34,47.19 -9.68,50.71 -31.53,97.8 -63.3,136.85 -12.82,15.78 -16.39,37.17 -9.39,56.26 7.03,19.09 23.59,33.1 43.59,36.82 112.82,20.98 229.73,2.06 329.94,-51.24 12.82,-6.8 22,-11.68 29.12,-15.26 4.62,-2.3 6.91,-3.46 8.75,-4.01 1.83,-0.58 1.89,-0.58 1.97,-0.58 1.48,-0.2 3.17,-0.23 5.09,0.06 7.59,1.05 17.85,2.96 34.32,6.05 18.48,3.49 32.11,-16.42 24.15,-33.45 -33.71,-72.16 -52.63,-152.66 -52.63,-238.31 0,-326.31 274.31,-577.59 595.91,-577.59 86.46,0 169.49,18.17 244.7,51.06 38.33,16.77 57.51,25.14 68.41,16.33 10.9,-8.83 7.15,-27.2 -0.35,-63.94 -67.86,-332.17 -373.3,-580.16 -735.67,-580.16l0.02 0.02z"/>
  </g>
 </g>
</svg>
