<?xml version="1.0" encoding="UTF-8"?>
<!DOCTYPE svg PUBLIC "-//W3C//DTD SVG 1.1//EN" "http://www.w3.org/Graphics/SVG/1.1/DTD/svg11.dtd">
<!-- Creator: CorelDRAW 2021 (64-Bit) -->
<svg xmlns="http://www.w3.org/2000/svg" xml:space="preserve" width="1.70666in" height="1.70666in" version="1.1" style="shape-rendering:geometricPrecision; text-rendering:geometricPrecision; image-rendering:optimizeQuality; fill-rule:evenodd; clip-rule:evenodd"
viewBox="0 0 1706.66 1706.66"
 xmlns:xlink="http://www.w3.org/1999/xlink"
 xmlns:xodm="http://www.corel.com/coreldraw/odm/2003">
 <defs>
  <style type="text/css">
   <![CDATA[
    .fil0 {fill:none}
    .fil3 {fill:white}
    .fil2 {fill:#0D47A1;fill-rule:nonzero}
    .fil1 {fill:#2196F3;fill-rule:nonzero}
   ]]>
  </style>
 </defs>
 <g id="Layer_x0020_1">
  <metadata id="CorelCorpID_0Corel-Layer"/>
  <rect class="fil0" y="0" width="1706.65" height="1706.65"/>
  <g id="_2143646751456">
   <rect class="fil0" x="0.01" y="0.01" width="1706.65" height="1706.65"/>
   <path class="fil1" d="M987.85 103.82c0,-36.23 0,-54.36 -11.24,-65.61 -11.28,-11.27 -29.37,-11.27 -65.63,-11.27l-215.61 0c-105.12,0 -189.87,0 -256.52,8.98 -69.18,9.3 -127.43,29.2 -173.72,75.46 -46.28,46.28 -66.19,104.54 -75.48,173.74 -8.95,66.62 -8.95,151.37 -8.95,256.49l0 623.44c0,105.12 0,189.87 8.95,256.49 9.3,69.21 29.2,127.46 75.48,173.74 46.28,46.26 104.54,66.16 173.72,75.46 66.65,8.98 151.4,8.98 256.52,8.98l315.94 0c105.12,0 189.87,0 256.52,-8.98 69.18,-9.3 127.43,-29.2 173.72,-75.46 46.28,-46.28 66.19,-104.54 75.48,-173.74 8.95,-66.62 8.95,-151.37 8.95,-256.49l0 -523.13c0,-36.23 0,-54.33 -11.24,-65.6 -11.27,-11.24 -29.4,-11.24 -65.63,-11.24l-159.07 0c-55.23,0 -102.42,0 -140.1,-5.09 -40.18,-5.4 -78.13,-17.49 -108.81,-48.17 -30.68,-30.71 -42.77,-68.63 -48.2,-108.84 -5.06,-37.65 -5.06,-84.84 -5.06,-140.07l0 -159.1 -0.02 0z"/>
   <path class="fil2" d="M1515.45 449.77c0.2,0 0.37,-0.23 0.29,-0.43 -10.95,-26.41 -31.81,-46.37 -51.69,-66.16l-294.29 -294.32c-19.81,-19.87 -39.78,-40.73 -66.16,-51.66 -0.2,-0.09 -0.44,0.06 -0.44,0.26l0 221.6c0,60.17 0.12,99.48 4.04,128.57 3.69,27.43 9.76,36.96 15.46,42.65 5.67,5.69 15.22,11.76 42.62,15.46 29.08,3.89 68.43,4.04 128.59,4.04l221.57 0 0.01 -0.01z"/>
   <path class="fil3" d="M1137.54 799.01c-24.81,-3.34 -55.32,-3.31 -88.59,-3.31l-391.24 0c-33.27,0 -63.78,-0.03 -88.59,3.31 -27.34,3.69 -56.22,12.32 -79.96,36.08 -23.76,23.74 -32.42,52.61 -36.08,79.96 -3.34,24.81 -3.34,55.32 -3.34,88.59l0 160.64c0,33.27 0,63.77 3.34,88.59 3.66,27.34 12.32,56.22 36.08,79.96 23.74,23.77 52.62,32.4 79.96,36.09 24.81,3.34 55.32,3.34 88.59,3.31l391.24 0c33.27,0.03 63.78,0.03 88.59,-3.31 27.34,-3.69 56.22,-12.32 79.96,-36.09 23.76,-23.74 32.42,-52.62 36.08,-79.96 3.34,-24.81 3.34,-55.32 3.34,-88.59l0 -160.64c0,-33.27 0,-63.78 -3.34,-88.59 -3.66,-27.34 -12.32,-56.22 -36.08,-79.96 -23.74,-23.76 -52.62,-32.39 -79.96,-36.08zm-341.85 227.29l-230.63 0 0 -19.2c0,-37.89 0.11,-60.49 2.3,-76.67 0.98,-9.97 11.82,-15.57 17.14,-17.14 16.18,-2.15 38.79,-2.3 76.65,-2.3l134.55 0 0 115.31 -0.01 0zm-230.63 134.52l0 -19.21 230.63 0 0 115.32 -134.55 0c-37.86,0 -60.46,-0.15 -76.65,-2.3 -11.8,-1.1 -16.33,-11.88 -17.14,-17.14 -2.18,-16.19 -2.3,-38.79 -2.3,-76.67l0.01 0zm345.92 -19.21l0 115.32 134.55 0c37.86,0 60.46,-0.15 76.65,-2.3 11.39,-4.01 16.16,-13.1 17.14,-17.14 2.18,-16.19 2.3,-38.79 2.3,-76.67l0 -19.21 -230.63 0 -0.01 0zm230.63 -115.31l-230.63 0 0 -115.31 134.55 0c37.86,0 60.46,0.14 76.65,2.3 5.32,1.69 16.19,7.44 17.14,17.14 2.18,16.18 2.3,38.79 2.3,76.67l0 19.2 -0.01 0z"/>
  </g>
 </g>
</svg>
