<?xml version="1.0" encoding="UTF-8"?>
<!DOCTYPE svg PUBLIC "-//W3C//DTD SVG 1.1//EN" "http://www.w3.org/Graphics/SVG/1.1/DTD/svg11.dtd">
<!-- Creator: CorelDRAW 2021 (64-Bit) -->
<svg xmlns="http://www.w3.org/2000/svg" xml:space="preserve" width="1.70666in" height="1.70666in" version="1.1" style="shape-rendering:geometricPrecision; text-rendering:geometricPrecision; image-rendering:optimizeQuality; fill-rule:evenodd; clip-rule:evenodd"
viewBox="0 0 1706.66 1706.66"
 xmlns:xlink="http://www.w3.org/1999/xlink"
 xmlns:xodm="http://www.corel.com/coreldraw/odm/2003">
 <defs>
  <style type="text/css">
   <![CDATA[
    .fil0 {fill:none}
    .fil1 {fill:#8BC34A}
    .fil3 {fill:white}
    .fil2 {fill:#2196F3;fill-rule:nonzero}
   ]]>
  </style>
 </defs>
 <g id="Layer_x0020_1">
  <metadata id="CorelCorpID_0Corel-Layer"/>
  <rect class="fil0" y="0" width="1706.65" height="1706.65"/>
  <g id="_1730488448256">
   <rect class="fil0" x="0.01" y="0.01" width="1706.65" height="1706.65"/>
   <g id="_2533969876576">
    <path class="fil1" d="M1242.43 16.77c-247.12,0 -447.44,200.35 -447.44,447.48 0,247.12 200.33,447.44 447.44,447.44 247.12,0 447.48,-200.33 447.48,-447.44 0,-247.12 -200.35,-447.48 -447.48,-447.48zm175.12 385.77c30.39,-10.77 46.3,-44.12 35.53,-74.5 -10.74,-30.38 -44.09,-46.3 -74.5,-35.53 -37.5,13.3 -72.35,38.18 -101.83,64.03 -30.06,26.39 -57.94,56.8 -81.41,84.91 -11.38,13.65 -21.88,26.94 -31.3,39.3 -6.85,-6.44 -13.73,-11.85 -20.56,-16.41l-0.41 -0.27c-12.32,-8.23 -28.88,-19.26 -56.27,-19.26 -32.23,0 -58.38,26.12 -58.38,58.35 0,29.18 21.38,53.32 49.32,57.68 0.3,0.18 0.62,0.38 1,0.62 4.33,2.88 17.68,13.65 33.68,45.65 9.39,18.8 28.21,31.09 49.21,32.18 21,1.06 40.97,-9.26 52.26,-27 12.65,-17.97 50,-70.8 71.06,-96.03 21.18,-25.38 44.8,-50.91 68.77,-71.94 24.62,-21.59 46.41,-35.59 63.82,-41.76l0.01 -0.02z"/>
    <path class="fil2" d="M898.65 16.86c-134.03,103.15 -220.41,265.18 -220.41,447.39 0,311.59 252.59,564.19 564.19,564.19 106.82,0 206.68,-29.68 291.83,-81.24l0 66.41c0,142.8 0,256.27 -12.65,345.15 -13.09,91.89 -40.68,165.98 -102.18,224.04 -61,57.62 -138.09,83.09 -233.71,95.24 -93.44,11.88 -213,11.88 -364.83,11.88l-90.77 0c-151.82,0 -271.39,0 -364.8,-11.88 -95.65,-12.15 -172.71,-37.62 -233.74,-95.24 -61.47,-58.06 -89.09,-132.15 -102.18,-224.04 -12.65,-88.88 -12.65,-202.35 -12.65,-345.15l0 -320.54c0,-142.8 0,-256.27 12.65,-345.15 13.09,-91.89 40.71,-165.98 102.18,-224.04 61.03,-57.65 138.09,-83.12 233.74,-95.24 93.41,-11.88 212.98,-11.88 364.8,-11.88l90.77 0c26.94,0 52.81,0 77.76,0.09l0 0.01z"/>
    <path class="fil3" d="M308.59 931.15c0,-42.97 34.85,-77.82 77.83,-77.82l241.89 0c42.97,0 77.82,34.85 77.82,77.82 0,42.97 -34.85,77.83 -77.82,77.83l-241.89 0c-42.97,0 -77.83,-34.85 -77.83,-77.83z"/>
    <path class="fil3" d="M308.59 1242.43c0,-42.97 34.85,-77.83 77.83,-77.83l622.57 0c42.97,0 77.82,34.85 77.82,77.83 0,42.97 -34.85,77.82 -77.82,77.82l-622.57 0c-42.97,0 -77.83,-34.85 -77.83,-77.82z"/>
   </g>
  </g>
 </g>
</svg>
