<?xml version="1.0" encoding="UTF-8"?>
<!DOCTYPE svg PUBLIC "-//W3C//DTD SVG 1.1//EN" "http://www.w3.org/Graphics/SVG/1.1/DTD/svg11.dtd">
<!-- Creator: CorelDRAW 2021 (64-Bit) -->
<svg xmlns="http://www.w3.org/2000/svg" xml:space="preserve" width="1.70666in" height="1.70666in" version="1.1" style="shape-rendering:geometricPrecision; text-rendering:geometricPrecision; image-rendering:optimizeQuality; fill-rule:evenodd; clip-rule:evenodd"
viewBox="0 0 1706.66 1706.66"
 xmlns:xlink="http://www.w3.org/1999/xlink"
 xmlns:xodm="http://www.corel.com/coreldraw/odm/2003">
 <defs>
  <style type="text/css">
   <![CDATA[
    .fil0 {fill:none}
    .fil2 {fill:white}
    .fil1 {fill:#FF9800;fill-rule:nonzero}
   ]]>
  </style>
 </defs>
 <g id="Layer_x0020_1">
  <metadata id="CorelCorpID_0Corel-Layer"/>
  <rect class="fil0" y="0" width="1706.65" height="1706.65"/>
  <path class="fil1" d="M857.95 23.78c177.31,0 316.55,0 425.29,14.62 111.4,14.98 199.8,46.31 269.27,115.74 69.43,69.47 100.76,157.87 115.74,269.27 14.62,108.74 14.62,247.98 14.62,425.29l0 0 0 9.24 0 0c0,177.31 0,316.55 -14.62,425.29 -14.98,111.4 -46.31,199.8 -115.74,269.27 -69.47,69.43 -157.87,100.76 -269.27,115.74 -108.74,14.62 -247.98,14.62 -425.29,14.62l0 0 -9.24 0 0 0c-177.31,0 -316.55,0 -425.29,-14.62 -111.4,-14.98 -199.8,-46.31 -269.27,-115.74 -69.43,-69.47 -100.76,-157.87 -115.74,-269.27 -14.62,-108.74 -14.62,-247.98 -14.62,-425.29l0 -9.24c0,-177.31 0,-316.55 14.62,-425.29 14.98,-111.4 46.31,-199.8 115.74,-269.27 69.47,-69.43 157.87,-100.76 269.27,-115.74 108.74,-14.62 247.98,-14.62 425.29,-14.62l9.24 0z"/>
  <path class="fil2" d="M1092.71 809.8l0 -77.14c0,-151.56 0,-227.36 -38.48,-280.46 -63.71,-88.04 -179.98,-85.8 -281.47,-83.87l0 0c-14.56,0.28 -28.78,0.55 -42.55,0.55 -13.73,0 -27.99,-0.28 -42.55,-0.55l0 0c-101.46,-1.93 -217.72,-4.16 -281.47,83.87 -38.45,53.1 -38.45,128.9 -38.45,280.46l0 202.06c0,190.54 0,285.81 58.98,345 59,59.19 153.92,59.19 343.78,59.19l300.22 0c210.32,0 294.41,-147.89 261.16,-358.61 -19.79,-125.38 -128.01,-170.5 -239.17,-170.5zm-461.94 -118.34c0,-33.53 27.16,-60.69 60.69,-60.69l80.93 0c33.52,0 60.72,27.16 60.72,60.69 0,33.52 -27.19,60.72 -60.72,60.72l-80.93 0c-33.53,0 -60.69,-27.19 -60.69,-60.72zm60.69 343.96c-33.53,0 -60.69,27.19 -60.69,60.72 0,33.5 27.16,60.69 60.69,60.69l323.74 0c33.53,0 60.69,-27.19 60.69,-60.69 0,-33.52 -27.16,-60.72 -60.69,-60.72l-323.74 0z"/>
 </g>
</svg>
