<?xml version="1.0" encoding="UTF-8"?>
<!DOCTYPE svg PUBLIC "-//W3C//DTD SVG 1.1//EN" "http://www.w3.org/Graphics/SVG/1.1/DTD/svg11.dtd">
<!-- Creator: CorelDRAW 2021 (64-Bit) -->
<svg xmlns="http://www.w3.org/2000/svg" xml:space="preserve" width="1.70666in" height="1.70666in" version="1.1" style="shape-rendering:geometricPrecision; text-rendering:geometricPrecision; image-rendering:optimizeQuality; fill-rule:evenodd; clip-rule:evenodd"
viewBox="0 0 1706.66 1706.66"
 xmlns:xlink="http://www.w3.org/1999/xlink"
 xmlns:xodm="http://www.corel.com/coreldraw/odm/2003">
 <defs>
  <style type="text/css">
   <![CDATA[
    .fil0 {fill:none}
    .fil1 {fill:#2196F3}
    .fil2 {fill:#FF9800}
   ]]>
  </style>
 </defs>
 <g id="Layer_x0020_1">
  <metadata id="CorelCorpID_0Corel-Layer"/>
  <rect class="fil0" y="0" width="1706.65" height="1706.65"/>
  <g id="_2143256037248">
   <rect class="fil0" x="0.01" y="0.01" width="1706.65" height="1706.65"/>
   <path class="fil1" d="M88.95 251.14c0,-44.46 36.01,-80.47 80.44,-80.47l281.63 0c44.43,0 80.46,36.01 80.46,80.47l0 280.35c0,44.43 -36.04,80.47 -80.46,80.47 -44.43,0 -80.46,-36.04 -80.46,-80.47l0 -103.94c-100.2,113.52 -160.93,262.56 -160.93,425.78 0,355.5 288.2,643.7 643.7,643.7 49.26,0 97.16,-5.54 143.11,-15.93 43.33,-9.85 86.46,17.3 96.28,60.64 9.82,43.33 -17.33,86.46 -60.67,96.28 -57.57,13.05 -117.39,19.95 -178.72,19.95 -444.39,0 -804.59,-360.24 -804.59,-804.63 0,-199.09 72.35,-381.31 192.07,-521.74l-71.4 0c-44.43,0 -80.44,-36 -80.44,-80.43l-0.01 -0.02z"/>
   <path class="fil2" d="M853.35 209.63c-49.3,0 -97.19,5.54 -143.14,15.96 -43.33,9.82 -86.43,-17.33 -96.25,-60.67 -9.85,-43.33 17.3,-86.43 60.64,-96.28 57.57,-13.04 117.41,-19.92 178.74,-19.92 444.36,0 804.6,360.21 804.6,804.59 0,199.7 -72.8,382.41 -193.17,523l72.46 0c44.43,0 80.47,36 80.47,80.46 0,44.43 -36.04,80.46 -80.47,80.46l-283.48 0c-44.43,0 -80.46,-36.04 -80.46,-80.46l0 -281.63c0,-44.43 36.04,-80.44 80.46,-80.44 44.43,0 80.46,36.01 80.46,80.44l0 106.07c101.33,-113.8 162.79,-263.69 162.79,-427.91 0,-355.5 -288.17,-643.7 -643.67,-643.7l0.01 0.02z"/>
  </g>
 </g>
</svg>
