<?xml version="1.0" encoding="UTF-8"?>
<!DOCTYPE svg PUBLIC "-//W3C//DTD SVG 1.1//EN" "http://www.w3.org/Graphics/SVG/1.1/DTD/svg11.dtd">
<!-- Creator: CorelDRAW 2021 (64-Bit) -->
<svg xmlns="http://www.w3.org/2000/svg" xml:space="preserve" width="1.70666in" height="1.70666in" version="1.1" style="shape-rendering:geometricPrecision; text-rendering:geometricPrecision; image-rendering:optimizeQuality; fill-rule:evenodd; clip-rule:evenodd"
viewBox="0 0 1706.66 1706.66"
 xmlns:xlink="http://www.w3.org/1999/xlink"
 xmlns:xodm="http://www.corel.com/coreldraw/odm/2003">
 <defs>
  <style type="text/css">
   <![CDATA[
    .fil0 {fill:none}
    .fil1 {fill:#2196F3}
    .fil2 {fill:#8BC34A}
   ]]>
  </style>
 </defs>
 <g id="Layer_x0020_1">
  <metadata id="CorelCorpID_0Corel-Layer"/>
  <rect class="fil0" y="0" width="1706.65" height="1706.65"/>
  <g id="_1314845398256">
   <rect class="fil0" x="0.01" y="0.01" width="1706.65" height="1706.65"/>
   <path class="fil1" d="M13.02 1584.63c0,-57.83 46.9,-104.73 104.73,-104.73l1466.13 0c57.83,0 104.73,46.9 104.73,104.73 0,57.83 -46.9,104.73 -104.73,104.73l-1466.13 0c-57.83,0 -104.73,-46.9 -104.73,-104.73z"/>
   <path class="fil2" d="M956.13 118.52c0,-57.83 -46.86,-104.73 -104.69,-104.73 -57.87,0 -104.72,46.9 -104.72,104.73l0 680.7 -62.26 0c-18.37,0 -40.96,-0.04 -59.45,2.3l-0.36 0.04c-13.22,1.66 -73.54,9.18 -102.28,68.39 -28.81,59.37 2.81,111.73 9.66,123.06l0.24 0.43c9.66,16.03 23.71,33.92 35.26,48.65l2.5 3.17c30.87,39.38 70.85,90.08 110.7,131.01 19.87,20.42 42.63,41.52 66.81,58.14 21.49,14.8 58.14,36.06 103.26,36.06 45.12,0 81.77,-21.25 103.26,-36.06 24.19,-16.63 46.94,-37.72 66.81,-58.14 39.86,-40.93 79.83,-91.63 110.7,-131.01l2.5 -3.17c11.56,-14.72 25.61,-32.61 35.26,-48.65l0.24 -0.43c6.85,-11.32 38.47,-63.69 9.66,-123.06 -28.74,-59.2 -89.06,-66.72 -102.28,-68.39l-0.36 -0.04c-18.48,-2.34 -41.08,-2.3 -59.45,-2.3l-61.03 0 0 -680.7 0.02 0z"/>
  </g>
 </g>
</svg>
