<?xml version="1.0" encoding="UTF-8"?>
<!DOCTYPE svg PUBLIC "-//W3C//DTD SVG 1.1//EN" "http://www.w3.org/Graphics/SVG/1.1/DTD/svg11.dtd">
<!-- Creator: CorelDRAW 2021 (64-Bit) -->
<svg xmlns="http://www.w3.org/2000/svg" xml:space="preserve" width="1.70666in" height="1.70666in" version="1.1" style="shape-rendering:geometricPrecision; text-rendering:geometricPrecision; image-rendering:optimizeQuality; fill-rule:evenodd; clip-rule:evenodd"
viewBox="0 0 1706.66 1706.66"
 xmlns:xlink="http://www.w3.org/1999/xlink"
 xmlns:xodm="http://www.corel.com/coreldraw/odm/2003">
 <defs>
  <style type="text/css">
   <![CDATA[
    .fil0 {fill:none}
    .fil2 {fill:#2196F3;fill-rule:nonzero}
    .fil1 {fill:#8BC34A;fill-rule:nonzero}
   ]]>
  </style>
 </defs>
 <g id="Layer_x0020_1">
  <metadata id="CorelCorpID_0Corel-Layer"/>
  <rect class="fil0" y="0" width="1706.65" height="1706.65"/>
  <g id="_1314963822048">
   <rect class="fil0" x="0.01" y="0.01" width="1706.65" height="1706.65"/>
   <path class="fil1" d="M175.32 724.66c26.18,-32.19 71.96,-88.56 152.97,-82 27.49,2.24 53.7,14.22 81.56,27 20.96,9.49 52.94,24 69.31,38.26 47.84,41.59 47.78,96.51 47.75,128.24l0 341.59c0.03,31.76 0.09,86.67 -47.75,128.27 -16.37,14.22 -36.89,23.51 -57.82,33.03 -27.89,12.74 -65.57,29.98 -93.06,32.19 -80.26,6.5 -125.22,-48.24 -151.64,-80.41 -6.68,-8.13 -17.09,-20.32 -25.98,-30.62l0 0c-16.28,-18.87 -34.74,-40.26 -49.98,-60.2 -25.17,-32.94 -50.39,-72.39 -62.9,-118.23 -13.41,-49.11 -13.41,-100.55 0,-149.63 9.08,-33.26 25.54,-62.64 47.22,-93.46 21.04,-29.84 55.3,-71.49 90.3,-114.02l0.02 -0.02z"/>
   <path class="fil1" d="M1531.34 724.66c-26.15,-32.19 -71.96,-88.56 -152.97,-82 -27.46,2.24 -53.7,14.22 -81.56,27 -20.96,9.49 -52.94,24 -69.29,38.26 -47.87,41.59 -47.81,96.51 -47.78,128.24l0 341.59c-0.03,31.76 -0.09,86.67 47.78,128.27 16.34,14.22 36.86,23.51 57.79,33.03 27.89,12.74 65.6,29.98 93.06,32.19 80.26,6.5 125.22,-48.24 151.64,-80.41 6.67,-8.13 17.09,-20.32 25.98,-30.62 16.28,-18.87 34.75,-40.26 49.98,-60.2 25.17,-32.94 50.39,-72.39 62.9,-118.23 13.41,-49.11 13.41,-100.55 0,-149.63 -9.09,-33.26 -25.52,-62.64 -47.22,-93.46 -21.05,-29.84 -55.3,-71.49 -90.3,-114.02l-0.02 -0.02z"/>
   <path class="fil2" d="M330.67 612.88c0,-233.49 224.32,-438.85 522.66,-438.85 298.34,0 522.66,205.36 522.66,438.85l0 29.98c0.78,-0.06 1.59,-0.15 2.38,-0.2 75.15,-6.06 120,41.98 146.96,74.66l0 -104.44c0,-332.04 -310.53,-585.15 -672,-585.15 -361.46,0 -672,253.11 -672,585.15l0 104.44c26.96,-32.68 71.81,-80.72 146.96,-74.66 0.78,0.06 1.57,0.15 2.38,0.2l0 -29.98 -0.01 0z"/>
   <path class="fil2" d="M1370.33 1370.2c2.76,0.46 5.46,0.81 8.04,1.02 75.67,6.12 119.97,-42.18 146.91,-74.69 -1.1,86.93 -21.89,159.35 -63.05,217.24 -42.44,59.62 -101.8,97.12 -166.64,120.75 -121.94,44.44 -278.92,44.41 -418.16,44.41l-8.74 0c-40.29,0 -72.94,-31.76 -72.94,-70.91 0,-39.16 32.66,-70.88 72.94,-70.88 150.48,0 281.3,-0.99 375.67,-35.35 44.59,-16.26 76.43,-38.55 97.85,-68.65 11.55,-16.26 21.45,-36.69 28.13,-62.93l-0 -0.01z"/>
  </g>
 </g>
</svg>
