<?xml version="1.0" encoding="UTF-8"?>
<!DOCTYPE svg PUBLIC "-//W3C//DTD SVG 1.1//EN" "http://www.w3.org/Graphics/SVG/1.1/DTD/svg11.dtd">
<!-- Creator: CorelDRAW 2021 (64-Bit) -->
<svg xmlns="http://www.w3.org/2000/svg" xml:space="preserve" width="1.70666in" height="1.70666in" version="1.1" style="shape-rendering:geometricPrecision; text-rendering:geometricPrecision; image-rendering:optimizeQuality; fill-rule:evenodd; clip-rule:evenodd"
viewBox="0 0 1706.66 1706.66"
 xmlns:xlink="http://www.w3.org/1999/xlink"
 xmlns:xodm="http://www.corel.com/coreldraw/odm/2003">
 <defs>
  <style type="text/css">
   <![CDATA[
    .fil0 {fill:none}
    .fil3 {fill:#0D47A1}
    .fil2 {fill:white}
    .fil1 {fill:#2196F3;fill-rule:nonzero}
   ]]>
  </style>
 </defs>
 <g id="Layer_x0020_1">
  <metadata id="CorelCorpID_0Corel-Layer"/>
  <rect class="fil0" y="0" width="1706.65" height="1706.65"/>
  <g id="_2143642097312">
   <rect class="fil0" x="0.01" y="0.01" width="1706.65" height="1706.65"/>
   <path class="fil1" d="M1676.27 678.12c7.1,7.04 7.17,18.34 7.32,40.91 0.24,40.79 0.24,83.97 0.24,129.69l0 9.25c0,177.52 0,316.92 -14.64,425.78 -15,111.53 -46.36,200.03 -115.88,269.57 -69.55,69.52 -158.05,100.87 -269.57,115.88 -108.87,14.64 -248.26,14.64 -425.78,14.64l-9.25 0c-45.72,0 -88.9,0 -129.69,-0.24 -22.57,-0.15 -33.87,-0.22 -40.91,-7.32 -7.07,-7.11 -7.07,-18.47 -7.07,-41.13l0 -915.51c0,-22.91 0,-34.36 7.1,-41.5 7.14,-7.1 18.59,-7.1 41.5,-7.1l915.51 0c22.66,0 34.02,0 41.13,7.07l-0.01 0.01z"/>
   <path class="fil1" d="M500.89 671.04c22.91,0 34.36,0 41.49,7.1 7.11,7.14 7.11,18.59 7.11,41.5l0 909.26c0,24.07 0,36.1 -7.75,43.3 -7.75,7.23 -19.54,6.37 -43.12,4.63 -26.73,-1.93 -51.94,-4.44 -75.7,-7.63 -111.53,-15 -200.03,-46.36 -269.57,-115.88 -69.52,-69.55 -100.87,-158.05 -115.88,-269.57 -14.64,-108.87 -14.64,-248.26 -14.64,-425.78l0 -9.25c0,-45.72 0,-88.9 0.24,-129.69 0.15,-22.57 0.22,-33.87 7.32,-40.91 7.11,-7.07 18.47,-7.07 41.13,-7.07l429.37 0 0 -0.01z"/>
   <path class="fil2" d="M873.57 934.37c0,-33.56 27.22,-60.79 60.79,-60.79l324.09 0c33.56,0 60.79,27.22 60.79,60.79 0,33.56 -27.22,60.76 -60.79,60.76l-324.09 0c-33.56,0 -60.79,-27.19 -60.79,-60.76z"/>
   <path class="fil2" d="M873.57 1258.44c0,-33.56 27.22,-60.76 60.79,-60.76l162.06 0c33.53,0 60.76,27.19 60.76,60.76 0,33.56 -27.22,60.79 -60.76,60.79l-162.06 0c-33.56,0 -60.79,-27.22 -60.79,-60.79z"/>
   <path class="fil3" d="M848.77 22.84l9.25 0 0 0c177.49,0 316.92,0 425.78,14.64 111.53,15 200.03,46.36 269.55,115.88 69.54,69.55 100.9,158.05 115.91,269.57 3.18,23.76 5.69,48.97 7.62,75.7 1.72,23.58 2.6,35.37 -4.62,43.12 -7.2,7.75 -19.23,7.75 -43.3,7.75l-1551.11 0c-24.07,0 -36.11,0 -43.3,-7.75 -7.22,-7.75 -6.37,-19.54 -4.65,-43.12 1.96,-26.73 4.47,-51.94 7.66,-75.7 15,-111.53 46.36,-200.03 115.88,-269.57 69.54,-69.52 158.04,-100.87 269.57,-115.88 108.87,-14.64 248.26,-14.64 425.78,-14.64l0 0 -0.02 0zm-481.58 263.33c0,-44.74 36.1,-81.03 80.66,-81.03l0.73 0c44.53,0 80.66,36.29 80.66,81.03 0,44.74 -36.13,81.03 -80.66,81.03l-0.73 0c-44.56,0 -80.66,-36.29 -80.66,-81.03zm404.74 -81.03c-44.52,0 -80.66,36.29 -80.66,81.03 0,44.74 36.14,81.03 80.66,81.03l0.74 0c44.56,0 80.66,-36.29 80.66,-81.03 0,-44.74 -36.11,-81.03 -80.66,-81.03l-0.74 0z"/>
  </g>
 </g>
</svg>
