<?xml version="1.0" encoding="UTF-8"?>
<!DOCTYPE svg PUBLIC "-//W3C//DTD SVG 1.1//EN" "http://www.w3.org/Graphics/SVG/1.1/DTD/svg11.dtd">
<!-- Creator: CorelDRAW 2021 (64-Bit) -->
<svg xmlns="http://www.w3.org/2000/svg" xml:space="preserve" width="1.70666in" height="1.70666in" version="1.1" style="shape-rendering:geometricPrecision; text-rendering:geometricPrecision; image-rendering:optimizeQuality; fill-rule:evenodd; clip-rule:evenodd"
viewBox="0 0 1706.66 1706.66"
 xmlns:xlink="http://www.w3.org/1999/xlink"
 xmlns:xodm="http://www.corel.com/coreldraw/odm/2003">
 <defs>
  <style type="text/css">
   <![CDATA[
    .fil0 {fill:none}
    .fil2 {fill:#0D47A1;fill-rule:nonzero}
    .fil1 {fill:#2196F3;fill-rule:nonzero}
   ]]>
  </style>
 </defs>
 <g id="Layer_x0020_1">
  <metadata id="CorelCorpID_0Corel-Layer"/>
  <rect class="fil0" y="0" width="1706.65" height="1706.65"/>
  <g id="_2122091589872">
   <rect class="fil0" x="0.01" y="0.01" width="1706.65" height="1706.65"/>
   <g id="_2658236348224">
    <path class="fil1" d="M1627.28 86.46c173.41,171.84 -104.06,1569.27 -388.76,1593.91 -238.85,20.65 -313.27,-450.39 -363.56,-599.71 -49.63,-147.37 -104.9,-200.41 -251.06,-248.76 -371.24,-122.8 -556.85,-184.22 -593.63,-281.47 -97.32,-257.48 1375.5,-683.47 1597.01,-463.98l-0 0.01z"/>
    <path class="fil2" d="M30.28 550.44c36.78,97.25 222.38,158.67 593.63,281.47 75.94,25.13 127.35,51.51 166.18,91.76l837.2 -837.2c-221.51,-219.5 -1694.33,206.49 -1597.01,463.98l0 -0.01z"/>
   </g>
  </g>
 </g>
</svg>
