<?xml version="1.0" encoding="UTF-8"?>
<svg xmlns="http://www.w3.org/2000/svg" width="40" height="33" viewBox="0 0 40 33" fill="none">
  <g clipPath="url(#clip0_1008_35043)">
    <path d="M39.9997 2.65965V30.2939C39.9235 30.3169 39.9214 30.3879 39.9016 30.4474C39.3388 32.1065 38.2665 32.874 36.506 32.874C34.5796 32.874 32.6532 32.874 30.7267 32.874C21.602 32.874 12.4772 32.876 3.35143 32.8729C1.41664 32.8729 0.00495967 31.4999 0.00391553 29.6068C-0.00130518 20.8277 -0.00130518 12.0496 0.00391553 3.27152C0.00495967 1.40564 1.39993 0.00544795 3.26999 0.00440381C14.4256 -0.000816895 25.5812 -0.000816895 36.7368 0.00440381C38.2947 0.00440381 39.5059 0.959793 39.911 2.46231C39.9298 2.53227 39.9026 2.6252 39.9997 2.6607V2.65965ZM20.0055 11.6601C14.3034 11.6601 8.60242 11.6633 2.90036 11.6528C2.57772 11.6528 2.4921 11.7301 2.49315 12.058C2.50359 17.8498 2.50046 23.6406 2.5015 29.4325C2.5015 30.1373 2.7333 30.3691 3.4381 30.3691C14.4768 30.3691 25.5154 30.3691 36.5541 30.3691C37.2777 30.3691 37.5001 30.1404 37.5001 29.4022C37.5001 23.6364 37.4959 17.8717 37.5105 12.106C37.5105 11.7082 37.3883 11.6518 37.0323 11.6518C31.3563 11.6633 25.6814 11.6601 20.0055 11.6601ZM19.9773 9.15526C25.6647 9.15526 31.3532 9.15108 37.0406 9.16465C37.4249 9.16465 37.5136 9.05711 37.5095 8.68539C37.4896 6.92497 37.5022 5.16455 37.5001 3.40308C37.5001 2.75467 37.2526 2.50721 36.599 2.50721C25.5363 2.50617 14.4726 2.50721 3.4099 2.50721C2.73957 2.50721 2.5015 2.75258 2.5015 3.43545C2.50046 5.18334 2.51612 6.93124 2.49002 8.67808C2.48375 9.08947 2.61218 9.16465 2.99225 9.16465C8.65358 9.15317 14.316 9.1563 19.9773 9.1563V9.15526Z" fill="#44BA93"></path>
    <path d="M20.0055 11.6597C25.6814 11.6597 31.3564 11.6629 37.0323 11.6514C37.3884 11.6514 37.5116 11.7078 37.5105 12.1056C37.4959 17.8713 37.5001 23.636 37.5001 29.4018C37.5001 30.14 37.2777 30.3686 36.5541 30.3686C25.5154 30.3686 14.4768 30.3686 3.43811 30.3686C2.73332 30.3686 2.50152 30.1368 2.50152 29.432C2.50152 23.6402 2.50465 17.8494 2.49316 12.0575C2.49316 11.7297 2.57774 11.6514 2.90038 11.6524C8.60243 11.6629 14.3034 11.6597 20.0055 11.6597Z" fill="#FEFEFE"></path>
    <path d="M19.9777 9.15495C14.3164 9.15495 8.65402 9.15077 2.99268 9.1633C2.61262 9.1633 2.48419 9.08917 2.49045 8.67673C2.51655 6.92988 2.50089 5.18199 2.50194 3.4341C2.50194 2.75123 2.74 2.5069 3.41034 2.50586C14.473 2.50586 25.5367 2.50586 36.5994 2.50586C37.253 2.50586 37.4995 2.75332 37.5005 3.40173C37.5026 5.16215 37.4901 6.92362 37.5099 8.68404C37.5141 9.05576 37.4253 9.16435 37.0411 9.1633C31.3536 9.15077 25.6652 9.15391 19.9777 9.15391V9.15495ZM28.0865 4.57535C25.9513 4.57535 23.816 4.57535 21.6807 4.57639C21.4865 4.57639 21.2881 4.57848 21.097 4.61189C20.3964 4.73614 19.9516 5.45765 20.1385 6.14469C20.3087 6.77013 20.7807 7.08964 21.5774 7.08964C25.9126 7.09277 30.2479 7.09173 34.5832 7.08964C34.7513 7.08964 34.9225 7.07815 35.0885 7.04787C35.6691 6.94137 36.0961 6.41512 36.093 5.8231C36.0899 5.23107 35.6555 4.70482 35.075 4.6098C34.8839 4.57848 34.6865 4.57639 34.4913 4.57639C32.356 4.5743 30.2208 4.57535 28.0855 4.57535H28.0865ZM12.8765 4.5837C12.1602 4.59101 11.6225 5.14545 11.6371 5.86277C11.6507 6.54877 12.2104 7.08442 12.9047 7.07815C13.6147 7.07084 14.1608 6.50805 14.1462 5.79699C14.1316 5.11204 13.5709 4.57639 12.8765 4.58474V4.5837ZM5.16032 4.58892C4.46075 4.5931 3.9157 5.1277 3.90944 5.81787C3.90317 6.51432 4.47432 7.08337 5.17598 7.07815C5.88809 7.07293 6.43104 6.51745 6.41955 5.8043C6.40911 5.11308 5.86303 4.58579 5.16136 4.58996L5.16032 4.58892ZM9.03304 4.58892C8.3366 4.58683 7.78633 5.11934 7.77172 5.80848C7.7571 6.50283 8.32407 7.07607 9.02886 7.0792C9.71069 7.08129 10.2787 6.53207 10.2944 5.85338C10.31 5.16529 9.73783 4.59101 9.03304 4.58892Z" fill="#C3E8DC"></path>
    <path d="M28.0864 4.57546C30.2217 4.57546 32.357 4.57546 34.4922 4.5765C34.6864 4.5765 34.8848 4.57859 35.0759 4.60991C35.6564 4.70493 36.0908 5.23118 36.0939 5.8232C36.0971 6.41628 35.6711 6.94252 35.0895 7.04798C34.9245 7.07826 34.7533 7.08975 34.5841 7.08975C30.2488 7.09184 25.9136 7.09288 21.5783 7.08975C20.7826 7.08975 20.3107 6.77024 20.1395 6.1448C19.9526 5.45776 20.3974 4.73625 21.098 4.612C21.2891 4.57859 21.4864 4.5765 21.6817 4.5765C23.8169 4.57441 25.9522 4.57546 28.0875 4.57546H28.0864Z" fill="#44BA93"></path>
    <path d="M12.8764 4.58356C13.5707 4.57625 14.1314 5.1119 14.146 5.79581C14.1607 6.50583 13.6146 7.06966 12.9046 7.07697C12.2102 7.08428 11.6505 6.54759 11.637 5.86159C11.6234 5.14531 12.1601 4.59087 12.8764 4.58252V4.58356Z" fill="#44BA93"></path>
    <path d="M5.16018 4.58893C5.86184 4.58476 6.40793 5.11205 6.41837 5.80327C6.42985 6.51642 5.8869 7.0719 5.1748 7.07712C4.47418 7.08234 3.90199 6.51329 3.90825 5.81684C3.91452 5.12771 4.45956 4.59207 5.15913 4.58789L5.16018 4.58893Z" fill="#44BA93"></path>
    <path d="M9.03308 4.58887C9.73788 4.59096 10.3101 5.16524 10.2944 5.85333C10.2787 6.53098 9.71073 7.08124 9.02891 7.07915C8.32516 7.07706 7.75714 6.50278 7.77176 5.80843C7.78638 5.1193 8.33768 4.58679 9.03308 4.58887Z" fill="#44BA93"></path>
    <path d="M24.4527 21.6362L24.4527 21.6362C24.0761 23.8127 22.2577 25.7443 19.5904 25.7443L19.5894 25.7443C18.5601 25.7443 17.7162 25.2815 17.0065 24.6505L17.0065 24.6504C16.4945 24.1956 16.0798 23.6803 15.728 23.2181L17.0929 23.2181C17.2525 23.2181 17.4055 23.1547 17.5183 23.0419C17.6312 22.9291 17.6945 22.776 17.6945 22.6165C17.6945 22.4569 17.6312 22.3039 17.5183 22.1911C17.4055 22.0783 17.2525 22.0149 17.0929 22.0149L14.3833 22.0149C14.2237 22.0149 14.0707 22.0783 13.9578 22.1911C13.845 22.3039 13.7816 22.4569 13.7816 22.6165L13.7816 25.3262C13.7816 25.4857 13.845 25.6387 13.9578 25.7516C14.0707 25.8644 14.2237 25.9278 14.3833 25.9278C14.5428 25.9278 14.6958 25.8644 14.8087 25.7516C14.9215 25.6387 14.9849 25.4857 14.9849 25.3262L14.9849 24.2866C15.3136 24.7003 15.7133 25.1623 16.1822 25.5792L16.1822 25.5792C17.0278 26.3309 18.1529 26.9854 19.5904 26.9854C22.9388 26.9854 25.21 24.5396 25.676 21.8481C25.6899 21.7678 25.6878 21.6856 25.67 21.606C25.6521 21.5265 25.6187 21.4513 25.5718 21.3846C25.5248 21.318 25.4652 21.2613 25.3963 21.2177C25.3275 21.1741 25.2507 21.1445 25.1704 21.1306C25.09 21.1166 25.0078 21.1187 24.9282 21.1365C24.8487 21.1544 24.7735 21.1878 24.7068 21.2347C24.6402 21.2817 24.5835 21.3413 24.5399 21.4102L24.6666 21.4904L24.5399 21.4102C24.4963 21.479 24.4667 21.5558 24.4527 21.6362ZM23.3652 16.1764L23.3652 16.1763C22.5187 15.4247 21.3945 14.7701 19.9571 14.7701C16.6452 14.7701 14.3871 17.1634 13.8874 19.8201C13.8711 19.9004 13.8708 19.9832 13.8867 20.0636C13.9026 20.1444 13.9344 20.2213 13.9804 20.2897C14.0263 20.3581 14.0854 20.4167 14.1542 20.462C14.2231 20.5073 14.3002 20.5385 14.3812 20.5536C14.4622 20.5688 14.5454 20.5677 14.6259 20.5504C14.7065 20.5331 14.7828 20.4999 14.8504 20.4528C14.918 20.4057 14.9755 20.3456 15.0197 20.276C15.0635 20.2068 15.0933 20.1296 15.1072 20.0489C15.5115 17.9009 17.3182 16.0113 19.9571 16.0113C20.9873 16.0113 21.8312 16.474 22.5399 17.105L22.5402 17.1053C23.053 17.5594 23.4671 18.0753 23.8202 18.5374L22.4545 18.5374C22.2949 18.5374 22.1419 18.6008 22.0291 18.7137C21.9163 18.8265 21.8529 18.9795 21.8529 19.1391C21.8529 19.2986 21.9163 19.4516 22.0291 19.5645C22.1419 19.6773 22.2949 19.7407 22.4545 19.7407L25.1642 19.7407C25.3237 19.7407 25.4767 19.6773 25.5896 19.5645C25.7024 19.4516 25.7658 19.2986 25.7658 19.1391L25.7658 16.4294C25.7658 16.2698 25.7024 16.1168 25.5896 16.004C25.4767 15.8912 25.3237 15.8278 25.1642 15.8278C25.0046 15.8278 24.8516 15.8912 24.7388 16.004C24.6259 16.1168 24.5625 16.2698 24.5625 16.4294L24.5625 17.4689C24.2339 17.0552 23.8341 16.5932 23.3652 16.1764Z" fill="#44BA93" stroke="#44BA93" stroke-width="0.3"></path>
  </g>
  <defs>
    <clipPath id="clip0_1008_35043">
      <rect width="40" height="32.8748" fill="white"></rect>
    </clipPath>
  </defs>
</svg>
