<svg xmlns:xlink="http://www.w3.org/1999/xlink"  width="38" height="35" viewBox="0 0 38 35" fill="none" xmlns="http://www.w3.org/2000/svg">
<rect width="25.0717" height="19.1225" rx="3.04233" transform="matrix(-1 0 0 1 37.0713 0)" fill="#4353FF"/>
<g clipPath="url(#clip0_1050_721)">
<path d="M27.9339 6.018C28.4051 5.92678 28.8386 6.17556 29.0002 6.70855V7.21742C28.9813 7.32748 28.9549 7.43679 28.9451 7.54686C28.8605 8.47488 28.7797 9.40365 28.6959 10.3317C28.5154 12.3287 28.3326 14.3257 28.1536 16.3227C27.9746 18.3107 27.8002 20.2986 27.622 22.2866C27.44 24.3213 27.2557 26.356 27.0722 28.3899C27.0118 29.0647 26.9581 29.7409 26.8902 30.4149C26.8388 30.9252 26.5133 31.2788 26.0549 31.2909C25.8457 31.2961 25.626 31.2343 25.4258 31.1627C23.4396 30.4525 21.4564 29.7364 19.4755 29.0126C19.2913 28.9456 19.1735 28.9667 19.0307 29.1001C18.5617 29.5373 18.0799 29.9595 17.6019 30.387C16.6375 31.2456 15.6746 32.1065 14.7109 32.9667C14.1996 33.4228 13.6687 33.8638 13.1756 34.3403C12.764 34.7376 12.3079 35.1854 11.6697 34.9215C11.2717 34.7564 11.1682 34.2114 11.0988 33.8382C10.9047 32.7918 10.7068 31.7469 10.5044 30.7028C10.1759 29.0036 9.85343 27.3029 9.53171 25.6021C9.49319 25.3971 9.41087 25.3028 9.22056 25.2297C6.41798 24.1524 3.61994 23.0623 0.815846 21.9896C0.429935 21.8418 0.135404 21.6398 0.000976562 21.241V20.8452C0.127096 20.5519 0.32194 20.3333 0.614961 20.181C7.82267 16.4297 15.0266 12.6717 22.2328 8.91891C24.0234 7.98637 25.82 7.06438 27.6121 6.1341C27.7194 6.07831 27.8281 6.04062 27.9346 6.02027L27.9339 6.018ZM22.2041 14.1086C22.1913 14.1018 22.1792 14.095 22.1663 14.0875C22.1512 14.0988 22.1339 14.1078 22.121 14.1206C18.5444 17.6902 14.9662 21.2598 11.3963 24.8369C11.3178 24.9161 11.2808 25.091 11.3019 25.2063C11.53 26.4555 11.7724 27.7024 12.0126 28.9493C12.1304 29.56 12.2505 30.1706 12.3841 30.8544C12.4506 30.7066 12.4876 30.6335 12.5178 30.5573C13.0487 29.22 13.5728 27.8796 14.1136 26.546C14.2435 26.2263 14.4058 25.9135 14.5954 25.6255C17.0808 21.8607 19.5737 18.1003 22.0644 14.3385C22.1142 14.2639 22.1573 14.1847 22.2033 14.1078L22.2041 14.1086Z" fill="#CBD6FD"/>
<path d="M22.2042 14.1087C22.1581 14.1856 22.1143 14.2648 22.0652 14.3394C19.5745 18.1012 17.0816 21.8616 14.5962 25.6264C14.4059 25.9144 14.2443 26.2272 14.1144 26.5469C13.5729 27.8805 13.0495 29.2209 12.5186 30.5583C12.4884 30.6344 12.4522 30.7075 12.385 30.8553C12.2513 30.1708 12.1312 29.5609 12.0134 28.9502C11.7732 27.7033 11.5301 26.4564 11.3027 25.2073C11.2816 25.0912 11.3186 24.9163 11.3971 24.8379C14.967 21.2607 18.5444 17.6919 22.1219 14.1215C22.1347 14.1087 22.1521 14.0989 22.1672 14.0884C22.18 14.0952 22.1921 14.1019 22.2049 14.1095L22.2042 14.1087Z" fill="white"/>
</g>
<defs>
<clipPath id="clip0_1050_721">
<rect width="29" height="29" fill="white" transform="translate(0 6)"/>
</clipPath>
</defs>
</svg>
