<svg xmlns:xlink="http://www.w3.org/1999/xlink"  width="35" height="36" viewBox="0 0 35 36" fill="none" xmlns="http://www.w3.org/2000/svg">
<path d="M34.5371 3.04233C34.5371 1.36209 33.175 0 31.4948 0H11.042C9.3618 0 7.9997 1.3621 7.9997 3.04233V17.1981C7.9997 18.8783 9.3618 20.2404 11.042 20.2404H31.4948C33.175 20.2404 34.5371 18.8783 34.5371 17.1981V3.04233Z" fill="#4353FF"/>
<path d="M13.3422 6.8052C12.4374 6.51258 11.4581 6.55182 10.5797 6.91589C9.70127 7.27996 8.98128 7.94504 8.54883 8.79187L7.47416 10.8932C7.34645 11.1434 7.143 11.3468 6.89283 11.4745L4.79016 12.5492C3.94333 12.9817 3.27825 13.7016 2.91419 14.58C2.55012 15.4584 2.51088 16.4378 2.8035 17.3425L3.5315 19.5892C3.61792 19.8562 3.61792 20.1436 3.5315 20.4105L2.80483 22.6572C2.51221 23.5619 2.55145 24.5413 2.91552 25.4197C3.27959 26.2981 3.94467 27.0181 4.7915 27.4505L6.89283 28.5252C7.143 28.6529 7.34645 28.8564 7.47416 29.1065L8.54883 31.2092C8.98128 32.056 9.70127 32.7211 10.5797 33.0852C11.4581 33.4492 12.4374 33.4885 13.3422 33.1959L15.5888 32.4679C15.8558 32.3814 16.1432 32.3814 16.4102 32.4679L18.6568 33.1945C19.5614 33.4873 20.5406 33.4482 21.419 33.0844C22.2974 32.7206 23.0175 32.0558 23.4502 31.2092L24.5248 29.1065C24.6525 28.8564 24.856 28.6529 25.1062 28.5252L27.2088 27.4519C28.056 27.0194 28.7212 26.2992 29.0853 25.4205C29.4494 24.5418 29.4885 23.5621 29.1955 22.6572L28.4675 20.4105C28.3811 20.1436 28.3811 19.8562 28.4675 19.5892L29.1942 17.3425C29.4869 16.438 29.4478 15.4587 29.084 14.5803C28.7202 13.702 28.0554 12.9819 27.2088 12.5492L25.1062 11.4745C24.856 11.3468 24.6525 11.1434 24.5248 10.8932L23.4515 8.79053C23.019 7.94341 22.2988 7.27812 21.4201 6.91404C20.5414 6.54995 19.5617 6.51089 18.6568 6.80387L16.4102 7.53187C16.1432 7.61829 15.8558 7.61829 15.5888 7.53187L13.3422 6.8052Z" fill="white"/>
<path d="M13.3431 6.8052C12.4384 6.51258 11.4591 6.55182 10.5806 6.91589C9.70224 7.27996 8.98226 7.94504 8.54981 8.79187L7.47514 10.8932C7.34743 11.1434 7.14398 11.3468 6.89381 11.4745L4.79114 12.5492C3.94431 12.9817 3.27923 13.7016 2.91516 14.58C2.55109 15.4584 2.51185 16.4378 2.80447 17.3425L3.53247 19.5892C3.6189 19.8562 3.6189 20.1436 3.53247 20.4105L2.80581 22.6572C2.51319 23.5619 2.55243 24.5413 2.9165 25.4197C3.28056 26.2981 3.94564 27.0181 4.79247 27.4505L6.89381 28.5252C7.14398 28.6529 7.34743 28.8564 7.47514 29.1065L8.54981 31.2092C8.98226 32.056 9.70224 32.7211 10.5806 33.0852C11.4591 33.4492 12.4384 33.4885 13.3431 33.1959L15.5898 32.4679C15.8568 32.3814 16.1442 32.3814 16.4111 32.4679L18.6578 33.1945C19.5624 33.4873 20.5416 33.4482 21.42 33.0844C22.2984 32.7206 23.0185 32.0558 23.4511 31.2092L24.5258 29.1065C24.6535 28.8564 24.857 28.6529 25.1071 28.5252L27.2098 27.4519C28.0569 27.0194 28.7222 26.2992 29.0863 25.4205C29.4504 24.5418 29.4895 23.5621 29.1965 22.6572L28.4685 20.4105C28.382 20.1436 28.382 19.8562 28.4685 19.5892L29.1951 17.3425C29.4879 16.438 29.4488 15.4587 29.085 14.5803C28.7212 13.702 28.0564 12.9819 27.2098 12.5492L25.1071 11.4745C24.857 11.3468 24.6535 11.1434 24.5258 10.8932L23.4525 8.79053C23.02 7.94341 22.2998 7.27812 21.4211 6.91404C20.5424 6.54995 19.5627 6.51089 18.6578 6.80387L16.4111 7.53187C16.1442 7.61829 15.8568 7.61829 15.5898 7.53187L13.3431 6.8052ZM9.01381 19.6759L10.8991 17.7905L14.6698 21.5625L22.2125 14.0199L24.0991 15.9052L14.6698 25.3319L9.01381 19.6759Z" fill="#CBD6FD"/>
</svg>
