<svg xmlns:xlink="http://www.w3.org/1999/xlink"  width="49" height="35" viewBox="0 0 49 35" fill="none" xmlns="http://www.w3.org/2000/svg">
<path d="M48.7208 3.04239C48.7208 1.36216 47.3587 6.10352e-05 45.6785 6.10352e-05H17.5226C15.8423 6.10352e-05 14.4802 1.36216 14.4802 3.04239V23.0734C14.4802 24.7536 15.8423 26.1157 17.5226 26.1157H45.6785C47.3587 26.1157 48.7208 24.7536 48.7208 23.0734V3.04239Z" fill="#4353FF"/>
<path d="M30.666 8.22141H3.88742C2.04137 8.22141 0.5401 9.72268 0.5401 11.5687V31.6526C0.5401 33.4987 2.04137 35 3.88742 35H30.666C32.512 35 34.0133 33.4987 34.0133 31.6526V11.5687C34.0133 9.72268 32.512 8.22141 30.666 8.22141Z" fill="white"/>
<path d="M30.666 8.22141H3.88742C2.04137 8.22141 0.5401 9.72268 0.5401 11.5687V31.6526C0.5401 33.4987 2.04137 35 3.88742 35H30.666C32.512 35 34.0133 33.4987 34.0133 31.6526V11.5687C34.0133 9.72268 32.512 8.22141 30.666 8.22141ZM8.07157 13.2424C8.73739 13.2424 9.37594 13.5069 9.84675 13.9777C10.3176 14.4485 10.5821 15.0871 10.5821 15.7529C10.5821 16.4187 10.3176 17.0573 9.84675 17.5281C9.37594 17.9989 8.73739 18.2634 8.07157 18.2634C7.40575 18.2634 6.76719 17.9989 6.29638 17.5281C5.82558 17.0573 5.56108 16.4187 5.56108 15.7529C5.56108 15.0871 5.82558 14.4485 6.29638 13.9777C6.76719 13.5069 7.40575 13.2424 8.07157 13.2424ZM17.2767 29.979H5.56108L12.2557 21.6107L14.7662 24.958L19.7872 18.2634L28.9923 29.979H17.2767Z" fill="#CBD6FD"/>
</svg>
