<svg xmlns:xlink="http://www.w3.org/1999/xlink"  width="37" height="27" viewBox="0 0 37 27" fill="none" xmlns="http://www.w3.org/2000/svg">
<path d="M36.1211 3.556C36.1211 1.87576 34.759 0.513672 33.0788 0.513672H14.0917C12.4115 0.513672 11.0494 1.87577 11.0494 3.556V16.5938C11.0494 18.274 12.4115 19.6361 14.0917 19.6361H33.0788C34.759 19.6361 36.1211 18.274 36.1211 16.5938V3.556Z" fill="#4353FF"/>
<path d="M0.853516 10.5365C0.853516 8.85623 2.21561 7.49414 3.89585 7.49414H22.8829C24.5631 7.49414 25.9252 8.85624 25.9252 10.5365V23.5743C25.9252 25.2545 24.5631 26.6166 22.8829 26.6166H3.89585C2.21562 26.6166 0.853516 25.2545 0.853516 23.5743V10.5365Z" fill="#CBD6FD"/>
<path style="mix-blend-mode:overlay" fill-rule="evenodd" clip-rule="evenodd" d="M6.39659 11.4945C6.87825 11.0129 7.65918 11.0129 8.14084 11.4945L13.2302 16.5839C13.7119 17.0656 13.7119 17.8465 13.2302 18.3282C13.1417 18.4167 13.0431 18.4889 12.938 18.5449L6.97397 22.4289C6.40317 22.8006 5.63909 22.6393 5.26737 22.0685C4.89564 21.4977 5.05703 20.7336 5.62783 20.3619L10.4072 17.2494L6.39659 13.2388C5.91493 12.7571 5.91493 11.9762 6.39659 11.4945ZM16.4112 16.49C15.7447 16.49 15.2044 17.0303 15.2044 17.6968C15.2044 18.3632 15.7447 18.9035 16.4112 18.9035H20.2729C20.9394 18.9035 21.4797 18.3632 21.4797 17.6968C21.4797 17.0303 20.9394 16.49 20.2729 16.49H16.4112Z" fill="white"/>
</svg>
