<svg xmlns:xlink="http://www.w3.org/1999/xlink"  width="28" height="34" viewBox="0 0 28 34" fill="none" xmlns="http://www.w3.org/2000/svg">
<rect width="22" height="29" rx="3.04233" transform="matrix(-1 0 0 1 28 0)" fill="#4353FF"/>
<path d="M2.75 34C1.99375 34 1.34613 33.7256 0.807127 33.1768C0.268127 32.628 -0.000914332 31.9691 2.33447e-06 31.2V8.8C2.33447e-06 8.03 0.269502 7.3706 0.808502 6.8218C1.3475 6.273 1.99467 5.99907 2.75 6H19.25C20.0062 6 20.6539 6.2744 21.1929 6.8232C21.7319 7.372 22.0009 8.03094 22 8.8V31.2C22 31.97 21.7305 32.6294 21.1915 33.1782C20.6525 33.727 20.0053 34.0009 19.25 34H2.75Z" fill="#CBD6FD"/>
<path d="M10 9V17.3159C10 17.5874 10.1111 17.7856 10.3332 17.9105C10.5553 18.0354 10.7943 18.0296 11.05 17.8929L12.765 16.9086C12.9983 16.7728 13.2377 16.7049 13.4832 16.7049C13.7287 16.7049 13.9676 16.7728 14.2 16.9086L15.915 17.8929C16.1717 18.0287 16.4167 18.0345 16.65 17.9105C16.8833 17.7865 17 17.5883 17 17.3159V9H10Z" fill="white"/>
</svg>
