<svg xmlns:xlink="http://www.w3.org/1999/xlink"  width="34" height="34" viewBox="0 0 34 34" fill="none" xmlns="http://www.w3.org/2000/svg">
<path d="M21.2967 33.9893C20.5469 33.8475 19.7814 33.7598 19.0508 33.5503C15.8633 32.6374 13.4626 30.7118 11.8361 27.8227C11.7855 27.7329 11.7484 27.636 11.6914 27.5148C16.0229 27.3673 19.745 25.8322 22.7914 22.7856C25.8378 19.7391 27.371 16.0161 27.5207 11.6782C28.3867 12.1001 29.1501 12.6132 29.8465 13.2218C32.2186 15.2949 33.5978 17.8919 33.9363 21.0318C33.9463 21.1244 33.9777 21.215 33.9991 21.3062V23.0878C33.9777 23.179 33.9463 23.2695 33.9371 23.3622C33.7824 24.9771 33.3098 26.4936 32.5151 27.9054C32.3932 28.122 32.3804 28.308 32.4452 28.5375C32.8266 29.8894 33.5429 32.5005 33.8152 33.5111C33.8644 33.6935 33.6969 33.8603 33.5144 33.8111C32.5279 33.5446 30.0075 32.8547 28.6454 32.4649C28.3375 32.3773 28.1052 32.4286 27.8151 32.5533C26.8934 32.9495 25.9604 33.3294 25.006 33.6322C24.3788 33.8311 23.7038 33.8781 23.0516 33.9978C22.4614 33.9943 21.8855 33.9907 21.2953 33.9871L21.2967 33.9893Z" fill="#4353FF"/>
<path d="M12.9746 0H14.8991C14.9896 0.020667 15.0794 0.0470351 15.1714 0.0620009C15.8613 0.175313 16.5627 0.238739 17.2398 0.404787C25.8295 2.51353 30.295 11.9213 26.5159 19.9215C23.0946 27.1628 14.1101 30.0277 7.15126 26.0903C6.93386 25.9677 6.74569 25.957 6.51689 26.0211C4.50758 26.5834 2.49542 27.1386 0.484686 27.6951L0.481122 27.6959C0.292237 27.7479 0.119746 27.5719 0.171778 27.3837C0.734157 25.3534 1.28014 23.3743 1.83682 21.3981C1.91308 21.1288 1.88742 20.9171 1.74629 20.667C1.09411 19.5146 0.615123 18.2895 0.350684 16.9904C0.21597 16.3283 0.125448 15.657 0.0178193 14.9892C0.0121171 14.3172 0.00641496 13.6573 0 12.9853C0.0712773 12.5014 0.136852 12.0161 0.215258 11.5336C1.08912 6.13096 5.45058 1.5265 10.8092 0.363453C11.5234 0.208095 12.2526 0.119726 12.9746 0ZM15.006 17.155C15.006 16.6989 14.9846 16.2606 15.016 15.8259C15.0288 15.6477 15.1129 15.4347 15.2377 15.3121C15.7972 14.764 16.4016 14.2616 16.9569 13.7093C18.6739 12.0011 18.6162 9.19323 16.8464 7.56054C15.0466 5.90006 12.2661 6.0597 10.683 7.924C10.0166 8.70863 9.67233 9.61655 9.6702 10.6727H11.7793C11.7971 10.5622 11.8156 10.4596 11.8306 10.3563C11.9732 9.3714 12.8378 8.5946 13.8356 8.5547C14.7202 8.51906 15.5342 9.02148 15.8899 9.82108C16.2462 10.6228 16.0894 11.5671 15.4479 12.1885C14.7573 12.8577 14.0538 13.5148 13.321 14.1369C12.9689 14.4355 12.8335 14.7512 12.8591 15.2052C12.8955 15.8508 12.8684 16.5001 12.8684 17.1543L15.006 17.155ZM14.9846 19.34H12.8891V21.4238H14.9846V19.34Z" fill="#CBD6FD"/>
</svg>
