<svg xmlns:xlink="http://www.w3.org/1999/xlink"  width="40" height="35" viewBox="0 0 40 35" fill="none" xmlns="http://www.w3.org/2000/svg">
<path d="M39.3538 3.04239C39.3538 1.36216 37.9917 6.10352e-05 36.3115 6.10352e-05H9.39281C7.71258 6.10352e-05 6.35048 1.36216 6.35048 3.04239V22.1298C6.35048 23.81 7.71258 25.1721 9.39281 25.1721H36.3115C37.9917 25.1721 39.3538 23.81 39.3538 22.1298V3.04239Z" fill="#4353FF"/>
<path d="M3.91862 35C3.06116 35 2.32687 34.6982 1.71574 34.0946C1.10461 33.491 0.799561 32.7663 0.800601 31.9205V10.3638C0.800601 9.51696 1.10617 8.79173 1.7173 8.18814C2.32843 7.58456 3.0622 7.28328 3.91862 7.2843H28.8627C29.7202 7.2843 30.4545 7.5861 31.0656 8.18968C31.6768 8.79327 31.9818 9.51798 31.9808 10.3638V31.9205C31.9808 32.7674 31.6752 33.4926 31.0641 34.0962C30.4529 34.6998 29.7192 35.001 28.8627 35H3.91862Z" fill="#CBD6FD"/>
<path d="M5.77521 28.1066C5.77521 29.0682 6.55473 29.8477 7.51632 29.8477H25.1762C26.1378 29.8477 26.9173 29.0682 26.9173 28.1066V28.1066C26.9173 27.145 26.1378 26.3655 25.1762 26.3655H7.51632C6.55473 26.3655 5.77521 27.145 5.77521 28.1066V28.1066ZM5.77521 21.8833C5.77521 22.4356 6.22292 22.8833 6.77521 22.8833H11.8226C12.3749 22.8833 12.8226 22.4356 12.8226 21.8833V13.4366C12.8226 12.8843 12.3749 12.4366 11.8226 12.4366H6.77521C6.22292 12.4366 5.77521 12.8843 5.77521 13.4366V21.8833ZM16.3463 21.1422C16.3463 22.1038 17.1258 22.8833 18.0874 22.8833H25.1762C26.1378 22.8833 26.9173 22.1038 26.9173 21.1422V21.1422C26.9173 20.1806 26.1378 19.401 25.1762 19.401H18.0874C17.1258 19.401 16.3463 20.1806 16.3463 21.1422V21.1422ZM16.3463 14.1777C16.3463 15.1393 17.1258 15.9188 18.0874 15.9188H25.1762C26.1378 15.9188 26.9173 15.1393 26.9173 14.1777V14.1777C26.9173 13.2161 26.1378 12.4366 25.1762 12.4366H18.0874C17.1258 12.4366 16.3463 13.2161 16.3463 14.1777V14.1777Z" fill="white"/>
</svg>
