<svg xmlns:xlink="http://www.w3.org/1999/xlink"  width="36" height="35" viewBox="0 0 36 35" fill="none" xmlns="http://www.w3.org/2000/svg">
<path d="M33.3353 3.04233C33.3353 1.3621 31.9732 0 30.293 0H13.1772C11.497 0 10.1349 1.3621 10.1349 3.04233V18.8228C10.1349 20.503 11.4969 21.8651 13.1772 21.8651H30.293C31.9732 21.8651 33.3353 20.503 33.3353 18.8228V3.04233Z" fill="#4353FF"/>
<path d="M23.8603 9.98555H18.1231C17.842 9.17319 17.3186 8.46933 16.6252 7.97135C15.9318 7.47337 15.1026 7.20588 14.2525 7.20588C13.4024 7.20588 12.5732 7.47337 11.8798 7.97135C11.1864 8.46933 10.663 9.17319 10.3819 9.98555H4.64466C3.91728 9.98775 3.22032 10.2813 2.70598 10.802C2.19164 11.3228 1.90173 12.0285 1.89956 12.7649V32.2206C1.90173 32.9571 2.19164 33.6627 2.70598 34.1835C3.22032 34.7043 3.91728 34.9978 4.64466 35H23.8603C24.5877 34.9978 25.2847 34.7043 25.799 34.1835C26.3134 33.6627 26.6033 32.9571 26.6054 32.2206V12.7649C26.6033 12.0285 26.3134 11.3228 25.799 10.802C25.2847 10.2813 24.5877 9.98775 23.8603 9.98555Z" fill="white"/>
<path d="M23.8603 9.98555H18.1231C17.842 9.17319 17.3186 8.46933 16.6252 7.97135C15.9318 7.47337 15.1026 7.20588 14.2525 7.20588C13.4024 7.20588 12.5732 7.47337 11.8798 7.97135C11.1864 8.46933 10.663 9.17319 10.3819 9.98555H4.64466C3.91728 9.98775 3.22032 10.2813 2.70598 10.802C2.19164 11.3228 1.90173 12.0285 1.89956 12.7649V32.2206C1.90173 32.9571 2.19164 33.6627 2.70598 34.1835C3.22032 34.7043 3.91728 34.9978 4.64466 35H23.8603C24.5877 34.9978 25.2847 34.7043 25.799 34.1835C26.3134 33.6627 26.6033 32.9571 26.6054 32.2206V12.7649C26.6033 12.0285 26.3134 11.3228 25.799 10.802C25.2847 10.2813 24.5877 9.98775 23.8603 9.98555ZM14.2525 9.98555C14.524 9.98555 14.7893 10.0671 15.015 10.2198C15.2408 10.3725 15.4167 10.5895 15.5206 10.8434C15.6245 11.0974 15.6516 11.3768 15.5987 11.6464C15.5457 11.9159 15.415 12.1635 15.223 12.3579C15.0311 12.5523 14.7865 12.6846 14.5203 12.7382C14.254 12.7918 13.978 12.7643 13.7272 12.6591C13.4764 12.554 13.2621 12.3758 13.1113 12.1473C12.9605 11.9188 12.88 11.6501 12.88 11.3752C12.881 11.007 13.026 10.6542 13.2832 10.3938C13.5403 10.1334 13.8888 9.98665 14.2525 9.98555ZM11.5074 16.934L15.3368 20.8168L18.7956 17.3148L16.9976 15.5443H22.4878V21.1031L20.7364 19.2812L15.3396 24.7496L11.5074 20.8668L7.95799 24.4578L6.01721 22.4928L11.5074 16.934ZM23.8603 30.8309H4.64466V28.0515H23.8603V30.8309Z" fill="#CBD6FD"/>
</svg>
