<svg xmlns:xlink="http://www.w3.org/1999/xlink"  width="34" height="34" viewBox="0 0 34 34" fill="none" xmlns="http://www.w3.org/2000/svg">
<g clipPath="url(#clip0_1050_677)">
<path d="M21.2967 33.9893C20.5469 33.8475 19.7814 33.7598 19.0508 33.5503C15.8633 32.6374 13.4626 30.7118 11.8361 27.8227C11.7855 27.7329 11.7484 27.636 11.6914 27.5148C16.0229 27.3673 19.745 25.8322 22.7914 22.7856C25.8378 19.7391 27.371 16.0161 27.5207 11.6782C28.3867 12.1001 29.1501 12.6132 29.8465 13.2218C32.2186 15.2949 33.5978 17.8919 33.9363 21.0318C33.9463 21.1244 33.9777 21.215 33.9991 21.3062V23.0878C33.9777 23.179 33.9463 23.2695 33.9371 23.3622C33.7824 24.9771 33.3098 26.4936 32.5151 27.9054C32.3932 28.122 32.3804 28.308 32.4452 28.5375C32.8266 29.8894 33.5429 32.5005 33.8152 33.5111C33.8644 33.6935 33.6969 33.8603 33.5144 33.8111C32.5279 33.5446 30.0075 32.8547 28.6454 32.4649C28.3375 32.3773 28.1052 32.4286 27.8151 32.5533C26.8934 32.9495 25.9604 33.3294 25.006 33.6322C24.3788 33.8311 23.7038 33.8781 23.0516 33.9978C22.4614 33.9943 21.8855 33.9907 21.2953 33.9871L21.2967 33.9893Z" fill="#4353FF"/>
<path d="M12.9746 0H14.8991C14.9896 0.020667 15.0794 0.0470351 15.1714 0.0620009C15.8613 0.175313 16.5627 0.238739 17.2398 0.404787C25.8295 2.51353 30.295 11.9213 26.5159 19.9215C23.0946 27.1628 14.1101 30.0277 7.15126 26.0903C6.93386 25.9677 6.74569 25.957 6.51689 26.0211C4.50758 26.5834 2.49542 27.1386 0.484686 27.6951L0.481122 27.6959C0.292237 27.7479 0.119746 27.5719 0.171778 27.3837C0.734157 25.3534 1.28014 23.3743 1.83682 21.3981C1.91308 21.1288 1.88742 20.9171 1.74629 20.667C1.09411 19.5146 0.615123 18.2895 0.350684 16.9904C0.21597 16.3283 0.125448 15.657 0.0178193 14.9892C0.0121171 14.3172 0.00641496 13.6573 0 12.9853C0.0712773 12.5014 0.136852 12.0161 0.215258 11.5336C1.08912 6.13096 5.45058 1.5265 10.8092 0.363453C11.5234 0.208095 12.2526 0.119726 12.9746 0Z" fill="#CBD6FD"/>
<path d="M15.5815 9.79128C16.3646 9.79128 17 9.22897 17 8.39564C17 7.56231 16.363 7 15.5815 7C14.7985 7 14.1661 7.56231 14.1661 8.39564C14.1661 9.22897 14.7985 9.79128 15.5815 9.79128ZM15.8571 18.5561C15.8571 18.3894 15.9128 17.9564 15.8812 17.7103L14.6434 19.1838C14.3874 19.4626 14.0667 19.6558 13.9161 19.6044C13.8478 19.5784 13.7907 19.528 13.7551 19.4623C13.7195 19.3966 13.7077 19.32 13.7219 19.2461L15.7848 12.5047C15.9535 11.6495 15.4897 10.8692 14.5064 10.7695C13.4689 10.7695 11.942 11.8583 11.0129 13.2399C11.0129 13.405 10.9828 13.8162 11.0145 14.0623L12.2507 12.5872C12.5067 12.3115 12.8048 12.1168 12.9554 12.1698C13.0296 12.1973 13.0904 12.2539 13.1248 12.3272C13.1591 12.4006 13.1643 12.485 13.1391 12.5623L11.0943 19.271C10.8579 20.0561 11.3051 20.8255 12.3892 21C13.9854 21 14.928 19.9377 15.8586 18.5561H15.8571Z" fill="white"/>
</g>
<defs>
<clipPath id="clip0_1050_677">
<rect width="34" height="34" fill="white"/>
</clipPath>
</defs>
</svg>
