<svg xmlns:xlink="http://www.w3.org/1999/xlink"  width="34" height="35" viewBox="0 0 34 35" fill="none" xmlns="http://www.w3.org/2000/svg">
<g clipPath="url(#clip0_1050_686)">
<path d="M21.2967 34.8833C20.5469 34.7415 19.7814 34.6538 19.0508 34.4443C15.8633 33.5314 13.4626 31.6058 11.8361 28.7167C11.7855 28.6269 11.7484 28.53 11.6914 28.4089C16.0229 28.2613 19.745 26.7263 22.7914 23.6797C25.8378 20.6331 27.371 16.9102 27.5207 12.5723C28.3867 12.9942 29.1501 13.5073 29.8465 14.1159C32.2186 16.189 33.5978 18.7859 33.9363 21.9258C33.9463 22.0185 33.9777 22.109 33.9991 22.2002V23.9819C33.9777 24.0731 33.9463 24.1636 33.9371 24.2562C33.7824 25.8711 33.3098 27.3876 32.5151 28.7994C32.3932 29.016 32.3804 29.202 32.4452 29.4315C32.8266 30.7834 33.5429 33.3946 33.8152 34.4051C33.8644 34.5876 33.6969 34.7543 33.5144 34.7052C32.5279 34.4386 30.0075 33.7488 28.6454 33.359C28.3375 33.2713 28.1052 33.3226 27.8151 33.4473C26.8934 33.8436 25.9604 34.2234 25.006 34.5263C24.3788 34.7251 23.7038 34.7721 23.0516 34.8919C22.4614 34.8883 21.8855 34.8847 21.2953 34.8812L21.2967 34.8833Z" fill="#4353FF"/>
<path d="M12.9746 0.894043H14.8991C14.9896 0.91471 15.0794 0.941078 15.1714 0.956044C15.8613 1.06936 16.5627 1.13278 17.2398 1.29883C25.8295 3.40757 30.295 12.8153 26.5159 20.8156C23.0946 28.0568 14.1101 30.9217 7.15126 26.9843C6.93386 26.8617 6.74569 26.851 6.51689 26.9152C4.50758 27.4775 2.49542 28.0326 0.484686 28.5892L0.481122 28.5899C0.292237 28.6419 0.119746 28.4659 0.171778 28.2778C0.734157 26.2474 1.28014 24.2684 1.83682 22.2922C1.91308 22.0228 1.88742 21.8111 1.74629 21.561C1.09411 20.4086 0.615123 19.1836 0.350684 17.8844C0.21597 17.2224 0.125448 16.551 0.0178193 15.8833C0.0121171 15.2113 0.00641496 14.5513 0 13.8793C0.0712773 13.3954 0.136852 12.9101 0.215258 12.4276C1.08912 7.025 5.45058 2.42055 10.8092 1.2575C11.5234 1.10214 12.2526 1.01377 12.9746 0.894043ZM15.006 18.049C15.006 17.5929 14.9846 17.1547 15.016 16.7199C15.0288 16.5418 15.1129 16.3287 15.2377 16.2061C15.7972 15.6581 16.4016 15.1557 16.9569 14.6034C18.6739 12.8951 18.6162 10.0873 16.8464 8.45459C15.0466 6.7941 12.2661 6.95374 10.683 8.81804C10.0166 9.60267 9.67233 10.5106 9.6702 11.5667H11.7793C11.7971 11.4563 11.8156 11.3537 11.8306 11.2503C11.9732 10.2654 12.8378 9.48865 13.8356 9.44874C14.7202 9.41311 15.5342 9.91553 15.8899 10.7151C16.2462 11.5169 16.0894 12.4611 15.4479 13.0826C14.7573 13.7517 14.0538 14.4088 13.321 15.031C12.9689 15.3296 12.8335 15.6453 12.8591 16.0992C12.8955 16.7449 12.8684 17.3941 12.8684 18.0483L15.006 18.049ZM14.9846 20.234H12.8891V22.3178H14.9846V20.234Z" fill="#CBD6FD"/>
</g>
<defs>
<clipPath id="clip0_1050_686">
<rect width="34" height="34" fill="white" transform="translate(0 0.894043)"/>
</clipPath>
</defs>
</svg>
