<svg width="490" height="337" viewBox="0 0 490 337" fill="none" xmlns="http://www.w3.org/2000/svg">
<rect x="2" width="488" height="337" rx="20" fill="#B4E5FF"/>
<mask id="mask0" mask-type="alpha" maskUnits="userSpaceOnUse" x="2" y="0" width="488" height="337">
<rect x="2" width="488" height="337" rx="20" fill="#B4E5FF"/>
</mask>
<g mask="url(#mask0)">
<g filter="url(#filter0_d)">
<path d="M336.652 76H156.063C146.276 76 138.342 83.9343 138.342 93.7217V348.278C138.342 358.066 146.276 366 156.063 366H336.652C346.44 366 354.374 358.066 354.374 348.278V93.7217C354.374 83.9343 346.44 76 336.652 76Z" fill="white"/>
</g>
<path d="M206.923 119.645C207.065 120.949 208.345 123.129 211.686 123.129C214.625 123.129 216.047 121.186 216.047 119.432C216.047 117.725 214.909 116.398 212.729 115.924L210.975 115.569C210.264 115.427 209.814 114.976 209.814 114.36C209.814 113.649 210.501 113.033 211.473 113.033C213.013 113.033 213.511 114.099 213.606 114.763L215.929 114.099C215.739 112.962 214.696 110.876 211.473 110.876C209.079 110.876 207.231 112.583 207.231 114.597C207.231 116.185 208.297 117.512 210.335 117.962L212.042 118.342C212.966 118.531 213.393 119.005 213.393 119.621C213.393 120.332 212.8 120.949 211.663 120.949C210.193 120.949 209.411 120.024 209.316 118.982L206.923 119.645Z" fill="#2D3C4A"/>
<path d="M220.432 122.774V111.232H217.707V122.774H220.432ZM217.28 107.179C217.28 108.174 218.086 108.956 219.058 108.956C220.053 108.956 220.859 108.174 220.859 107.179C220.859 106.184 220.053 105.378 219.058 105.378C218.086 105.378 217.28 106.184 217.28 107.179Z" fill="#2D3C4A"/>
<path d="M222.083 123.413C222.391 125.736 224.524 127.632 227.581 127.632C231.918 127.632 233.506 124.764 233.506 121.683V111.232H230.852V112.701C230.354 111.753 229.24 111.018 227.439 111.018C224.263 111.018 222.107 113.554 222.107 116.635C222.107 119.882 224.358 122.252 227.439 122.252C229.122 122.252 230.283 121.47 230.781 120.569V121.778C230.781 124.124 229.691 125.238 227.51 125.238C225.922 125.238 224.808 124.172 224.619 122.75L222.083 123.413ZM227.889 119.906C226.088 119.906 224.88 118.65 224.88 116.635C224.88 114.668 226.136 113.388 227.889 113.388C229.596 113.388 230.852 114.668 230.852 116.635C230.852 118.626 229.643 119.906 227.889 119.906Z" fill="#2D3C4A"/>
<path d="M238.551 116.114C238.551 114.597 239.381 113.388 240.945 113.388C242.675 113.388 243.315 114.526 243.315 115.948V122.774H246.064V115.474C246.064 112.938 244.713 110.9 241.893 110.9C240.613 110.9 239.239 111.445 238.48 112.772V111.232H235.802V122.774H238.551V116.114Z" fill="#2D3C4A"/>
<path d="M247.633 119.645C247.633 121.47 249.127 123.129 251.544 123.129C253.416 123.129 254.554 122.181 255.099 121.304C255.099 122.228 255.194 122.702 255.217 122.774H257.777C257.753 122.655 257.635 121.968 257.635 120.925V115.19C257.635 112.891 256.284 110.876 252.729 110.876C249.885 110.876 248.084 112.654 247.87 114.644L250.383 115.213C250.501 114.052 251.307 113.128 252.753 113.128C254.269 113.128 254.933 113.91 254.933 114.881C254.933 115.284 254.743 115.616 254.08 115.711L251.117 116.161C249.15 116.446 247.633 117.583 247.633 119.645ZM252.065 120.972C250.975 120.972 250.383 120.261 250.383 119.479C250.383 118.531 251.07 118.057 251.923 117.915L254.933 117.465V117.986C254.933 120.238 253.606 120.972 252.065 120.972Z" fill="#2D3C4A"/>
<path d="M263.329 107.7H260.841V109.43C260.841 110.45 260.296 111.232 259.063 111.232H258.471V113.673H260.604V119.479C260.604 121.636 261.931 122.916 264.064 122.916C265.059 122.916 265.581 122.726 265.747 122.655V120.38C265.628 120.404 265.178 120.475 264.799 120.475C263.78 120.475 263.329 120.048 263.329 119.029V113.673H265.723V111.232H263.329V107.7Z" fill="#2D3C4A"/>
<path d="M275.017 121.494C275.017 121.968 275.065 122.513 275.112 122.774H277.743C277.695 122.347 277.624 121.612 277.624 120.664V111.232H274.875V118.057C274.875 119.574 274.046 120.641 272.458 120.641C270.799 120.641 270.135 119.432 270.135 118.01V111.232H267.386V118.508C267.386 121.067 268.997 123.105 271.747 123.105C273.098 123.105 274.448 122.537 275.017 121.494Z" fill="#2D3C4A"/>
<path d="M286.871 111.161C286.752 111.137 286.468 111.089 286.136 111.089C284.619 111.089 283.339 111.824 282.794 113.08V111.232H280.116V122.774H282.865V117.275C282.865 115.118 283.837 113.886 285.97 113.886C286.254 113.886 286.563 113.91 286.871 113.957V111.161Z" fill="#2D3C4A"/>
<path d="M289.903 115.735C289.998 114.502 290.993 113.175 292.723 113.175C294.619 113.175 295.52 114.384 295.567 115.735H289.903ZM295.876 118.745C295.496 119.882 294.643 120.759 292.984 120.759C291.278 120.759 289.903 119.503 289.832 117.749H298.269C298.293 117.702 298.34 117.323 298.34 116.872C298.34 113.222 296.255 110.876 292.7 110.876C289.785 110.876 287.083 113.294 287.083 116.943C287.083 120.854 289.856 123.129 292.984 123.129C295.757 123.129 297.582 121.494 298.198 119.479L295.876 118.745Z" fill="#2D3C4A"/>
<path d="M302.65 122.774V105.615H299.901V122.774H302.65Z" fill="#2D3C4A"/>
<path d="M308.637 127.442L315.984 111.232H313.069L309.965 118.531L306.647 111.232H303.542L308.471 121.399L305.699 127.442H308.637Z" fill="#2D3C4A"/>
<path d="M201.983 114.835C201.589 113.624 200.469 112.81 199.2 112.81V108.981C199.2 108.29 198.635 107.726 197.945 107.726H181.652C180.962 107.726 180.4 108.29 180.4 108.981V119.105C179.395 118.881 177.876 118.341 177.303 117.021L176.971 117.062C177.147 118.517 178.567 120.125 180.403 120.351V125.273C180.403 125.964 180.968 126.528 181.655 126.528H197.948C198.638 126.528 199.203 125.964 199.203 125.273V118.664C199.511 118.664 199.814 118.617 200.108 118.52C201.639 118.02 202.479 116.366 201.983 114.835Z" fill="#00A3FA"/>
<path d="M199.717 117.33C198.838 117.615 197.895 117.133 197.607 116.254C197.322 115.375 197.804 114.432 198.679 114.144C199.558 113.859 200.502 114.341 200.79 115.22C201.075 116.098 200.596 117.042 199.717 117.33Z" fill="white"/>
<path d="M195.376 116.219C193.998 117.1 192.629 117.732 191.386 117.732C190.166 117.732 188.121 117.391 188.121 115.111H186.625C186.625 117.033 185.914 117.732 185.435 117.732C184.7 117.732 184.244 117.118 184.244 114.062H182.748C182.748 116.186 181.952 117.967 180.874 117.997C179.21 118.038 178.264 117.544 177.832 116.956L177.156 117.039C177.735 118.355 179.431 119.228 180.882 119.228C181.858 119.228 182.687 118.714 183.277 117.826C183.66 118.64 184.312 119.228 185.432 119.228C186.237 119.228 187.042 118.77 187.562 117.785C188.379 118.708 189.699 119.228 191.386 119.228C192.873 119.228 194.401 118.576 195.9 117.656L195.376 116.219Z" fill="white"/>
<rect x="170.21" y="151.486" width="100.717" height="11.0761" rx="5.53804" fill="#BEC9DA"/>
<rect x="170.21" y="176.948" width="159.003" height="8.88174" rx="4.44087" fill="#E4ECF4"/>
<rect x="170.21" y="199.152" width="128.717" height="8.88174" rx="4.44087" fill="#E4ECF4"/>
<rect x="170.21" y="221.356" width="150.422" height="8.88174" rx="4.44087" fill="#E4ECF4"/>
<rect x="170.21" y="243.561" width="97.9256" height="8.88174" rx="4.44087" fill="#E4ECF4"/>
<path d="M271.382 297.488C268.142 297.713 264.914 297.937 261.706 297.903C261.922 295.655 261.552 293.817 260.393 292.743C259.184 291.621 257.201 291.407 254.405 292.275L254.405 292.275C253.396 292.591 252.405 292.958 251.421 293.323C251.059 293.458 250.698 293.592 250.337 293.723C248.991 294.211 247.642 294.66 246.238 294.943L246.234 294.944C244.924 295.233 243.383 295.553 242.091 295.278L242.091 295.278L242.08 295.276C241.952 295.255 241.834 295.223 241.725 295.186C242.336 294.564 242.742 293.832 242.828 292.99C242.925 292.038 242.61 290.982 241.795 289.831C241.512 289.412 241.048 289.175 240.581 289.161C240.109 289.146 239.631 289.362 239.345 289.844L239.345 289.845C238.499 291.289 238.047 292.709 238.058 293.928C237.222 294.336 236.177 294.677 235.181 295.002L235.122 295.022C234.075 295.363 233.065 295.695 232.481 296.073C230.804 297.149 229.615 298.648 228.561 300.239C228.181 300.812 227.821 301.393 227.463 301.971C226.864 302.939 226.269 303.9 225.593 304.804C225.026 304.24 224.481 303.637 223.934 303.022C223.831 302.907 223.728 302.791 223.625 302.674C223.124 302.108 222.618 301.538 222.095 300.99C220.836 299.669 219.462 298.461 217.758 297.727L217.757 297.727C217.484 297.61 217.241 297.524 216.982 297.446C217.227 296.56 217.473 295.665 217.718 294.77L217.718 294.769C217.973 293.837 218.228 292.906 218.483 291.986C219.126 291.715 219.806 291.447 220.442 291.222C225.055 289.602 229.815 288.362 234.582 287.217C244.207 284.927 253.93 283.209 263.703 281.873L263.704 281.872C264.03 281.826 264.264 281.644 264.4 281.403C264.532 281.168 264.569 280.885 264.534 280.623C264.499 280.36 264.388 280.096 264.2 279.902C264.008 279.702 263.737 279.58 263.411 279.611L263.41 279.611C253.44 280.566 243.454 281.617 233.706 283.961C228.786 285.123 224.093 286.555 219.495 288.258C220.618 284.148 221.831 279.999 223.134 275.94L223.135 275.938C223.202 275.723 223.172 275.52 223.064 275.359C222.961 275.204 222.8 275.107 222.635 275.063C222.309 274.976 221.876 275.081 221.701 275.497L221.7 275.5C219.879 279.964 218.392 284.568 217.051 289.169C213.179 290.688 209.401 292.35 205.622 294.246C205.309 294.402 205.114 294.633 205.037 294.903C204.961 295.168 205.008 295.442 205.124 295.676C205.351 296.133 205.884 296.505 206.484 296.389C209.621 295.906 212.556 294.55 215.474 293.201C215.625 293.131 215.776 293.062 215.927 292.992C215.753 293.62 215.579 294.242 215.405 294.865C215.203 295.589 215 296.314 214.798 297.048C212.076 297.211 209.583 298.997 207.728 300.93L207.728 300.93L207.725 300.933C204.785 304.113 202.312 308.573 200.925 313.259C199.538 317.941 199.228 322.873 200.643 326.99C200.819 327.564 201.409 327.985 202.072 327.807C205.562 326.874 207.914 323.936 209.609 320.563C211.063 317.67 212.054 314.415 212.867 311.747C213.002 311.301 213.133 310.873 213.26 310.464L213.26 310.464C214.299 307.095 215.244 303.726 216.188 300.36C216.837 300.562 217.462 300.947 218.099 301.494C219.205 302.478 220.162 303.612 221.133 304.763C221.186 304.825 221.238 304.887 221.291 304.95C222.314 306.16 223.361 307.381 224.606 308.421L224.607 308.422C225.243 308.948 226.252 309.091 226.89 308.402C227.867 307.361 228.658 306.238 229.395 305.093C229.696 304.627 229.985 304.162 230.274 303.697C230.7 303.01 231.125 302.325 231.584 301.641C233.265 299.183 235.06 298.487 237.443 297.563C237.86 297.401 238.295 297.233 238.75 297.047C238.829 297.02 238.918 296.982 238.996 296.949L239.001 296.947C239.035 296.933 239.067 296.919 239.097 296.907C240.084 297.858 241.67 298.348 243.932 298.254L243.935 298.254C246.518 298.109 249.046 297.433 251.465 296.57L251.465 296.57C251.935 296.4 252.4 296.22 252.864 296.041C253.991 295.606 255.108 295.174 256.256 294.906C257.081 294.719 257.633 294.741 257.995 294.884C258.341 295.02 258.542 295.278 258.644 295.653C258.75 296.04 258.747 296.542 258.672 297.129C258.598 297.713 258.456 298.36 258.299 299.029L258.299 299.028L258.298 299.033C258.189 299.546 258.296 300.031 258.574 300.398C258.851 300.764 259.287 300.996 259.806 301.024C267.198 301.479 274.673 300.959 282.095 300.442C284.799 300.253 287.495 300.065 290.178 299.925L290.18 299.925C290.702 299.895 291.034 299.524 291.105 299.125C291.14 298.927 291.112 298.714 291.004 298.531C290.893 298.346 290.709 298.206 290.462 298.145C285.708 296.967 280.852 296.945 275.993 297.196C274.454 297.275 272.917 297.382 271.382 297.488ZM211.962 306.895C211.737 307.644 211.504 308.485 211.256 309.385C210.593 311.781 209.815 314.598 208.742 317.231C207.304 320.76 205.367 323.877 202.552 325.175C201.733 321.804 202.083 318.02 203.145 314.395C204.233 310.678 206.063 307.145 208.118 304.421C209.622 302.434 211.699 300.581 213.889 300.167C213.247 302.442 212.604 304.712 211.962 306.895Z" fill="#BAC9DB" stroke="#BAC9DB" stroke-width="0.450234" stroke-linecap="round" stroke-linejoin="round"/>
<rect x="185.539" y="335.367" width="119.762" height="2.7014" rx="1.3507" fill="#ECF0F5"/>
<g filter="url(#filter1_d)">
<path fill-rule="evenodd" clip-rule="evenodd" d="M137.408 239.016C138.808 235.909 139.91 232.453 140.474 228.659C142.694 213.726 139.609 204.717 137.788 202.08C135.328 195.339 122.241 181.347 89.5793 179.303C56.9174 177.259 39.684 194.498 35.1501 203.372C28.6954 212.908 20.4411 235.897 39.0614 251.562C57.6817 267.228 80.483 270.517 89.5561 270.203C96.0172 269.782 109.738 267.422 118.363 261.344L143.358 254.921C149.339 253.385 150.164 245.23 144.614 242.526L137.408 239.016Z" fill="white"/>
</g>
<g filter="url(#filter2_d)">
<path fill-rule="evenodd" clip-rule="evenodd" d="M352.236 150.312C350.54 146.872 349.191 142.972 348.545 138.629C346.325 123.696 349.41 114.687 351.231 112.05C353.691 105.309 366.778 91.3172 399.44 89.2732C432.102 87.2293 449.335 104.468 453.869 113.342C460.324 122.878 468.578 145.867 449.958 161.532C431.337 177.198 408.536 180.487 399.463 180.173C393.523 179.786 381.449 177.761 372.838 172.714L351.085 178.903C345.625 180.456 340.861 174.882 343.246 169.731L352.236 150.312Z" fill="white"/>
</g>
</g>
<path d="M378.442 119.148H430.169" stroke="#00A3FA" stroke-width="4" stroke-linecap="round" stroke-linejoin="round"/>
<path d="M404.305 119.148V150.184" stroke="#00A3FA" stroke-width="4" stroke-linecap="round" stroke-linejoin="round"/>
<path d="M373.269 139.839L383.615 119.148L393.96 139.839" stroke="#00A3FA" stroke-width="4" stroke-linecap="round" stroke-linejoin="round"/>
<path d="M414.651 139.839L424.996 119.148L435.342 139.839" stroke="#00A3FA" stroke-width="4" stroke-linecap="round" stroke-linejoin="round"/>
<path d="M393.96 139.839C393.96 142.583 392.87 145.214 390.93 147.154C388.99 149.094 386.359 150.184 383.615 150.184C380.871 150.184 378.24 149.094 376.3 147.154C374.359 145.214 373.269 142.583 373.269 139.839H393.96Z" stroke="#00A3FA" stroke-width="4" stroke-linecap="round" stroke-linejoin="round"/>
<path d="M435.342 139.839C435.342 142.583 434.252 145.214 432.312 147.154C430.371 149.094 427.74 150.184 424.996 150.184C422.252 150.184 419.621 149.094 417.681 147.154C415.741 145.214 414.651 142.583 414.651 139.839H435.342Z" stroke="#00A3FA" stroke-width="4" stroke-linecap="round" stroke-linejoin="round"/>
<g filter="url(#filter3_d)">
<path fill-rule="evenodd" clip-rule="evenodd" d="M140.148 89.2054C141.844 85.7656 143.194 81.8654 143.84 77.5224C146.06 62.5898 142.974 53.5811 141.154 50.9433C138.693 44.2028 125.607 30.2108 92.945 28.1669C60.2831 26.1229 43.0497 43.3613 38.5158 52.236C32.0611 61.7721 23.8068 84.7607 42.4271 100.426C61.0474 116.091 83.8487 119.38 92.9218 119.067C98.8613 118.68 110.936 116.654 119.546 111.608L141.3 117.796C146.76 119.35 151.524 113.776 149.139 108.624L140.148 89.2054Z" fill="white"/>
</g>
<path d="M90.9663 60.6071V74.7067L100.366 84.1064" stroke="#00A3FA" stroke-width="1.17497" stroke-linecap="round"/>
<path d="M114.152 73.5433C114.152 86.6647 103.506 97.3103 90.3847 97.3103C77.2633 97.3103 66.6177 86.6647 66.6177 73.5433C66.6177 60.4219 77.2633 49.7762 90.3847 49.7762C103.506 49.7762 114.152 60.4219 114.152 73.5433Z" stroke="#00A3FA" stroke-width="1.32039"/>
<path d="M109.478 223.696C109.478 236.816 98.8336 247.461 85.7134 247.461C72.5931 247.461 61.9484 236.816 61.9484 223.696C61.9484 210.576 72.5931 199.931 85.7134 199.931C98.8336 199.931 109.478 210.576 109.478 223.696Z" stroke="#00A3FA" stroke-width="1.29246"/>
<path d="M98.9162 215.774L80.4323 234.258L72.5106 226.337" stroke="#00A3FA" stroke-width="1.29246" stroke-linecap="round"/>
<defs>
<filter id="filter0_d" x="115.962" y="61.0802" width="260.792" height="334.76" filterUnits="userSpaceOnUse" color-interpolation-filters="sRGB">
<feFlood flood-opacity="0" result="BackgroundImageFix"/>
<feColorMatrix in="SourceAlpha" type="matrix" values="0 0 0 0 0 0 0 0 0 0 0 0 0 0 0 0 0 0 127 0"/>
<feOffset dy="7.45992"/>
<feGaussianBlur stdDeviation="11.1899"/>
<feColorMatrix type="matrix" values="0 0 0 0 0.0825 0 0 0 0 0.272586 0 0 0 0 0.45 0 0 0 0.14 0"/>
<feBlend mode="normal" in2="BackgroundImageFix" result="effect1_dropShadow"/>
<feBlend mode="normal" in="SourceGraphic" in2="effect1_dropShadow" result="shape"/>
</filter>
<filter id="filter1_d" x="-3.36572" y="152.136" width="182.711" height="153.087" filterUnits="userSpaceOnUse" color-interpolation-filters="sRGB">
<feFlood flood-opacity="0" result="BackgroundImageFix"/>
<feColorMatrix in="SourceAlpha" type="matrix" values="0 0 0 0 0 0 0 0 0 0 0 0 0 0 0 0 0 0 127 0"/>
<feOffset dy="4"/>
<feGaussianBlur stdDeviation="15.5"/>
<feColorMatrix type="matrix" values="0 0 0 0 0.0982986 0 0 0 0 0.368575 0 0 0 0 0.620833 0 0 0 0.27 0"/>
<feBlend mode="normal" in2="BackgroundImageFix" result="effect1_dropShadow"/>
<feBlend mode="normal" in="SourceGraphic" in2="effect1_dropShadow" result="shape"/>
</filter>
<filter id="filter2_d" x="311.615" y="62.1064" width="180.769" height="153.087" filterUnits="userSpaceOnUse" color-interpolation-filters="sRGB">
<feFlood flood-opacity="0" result="BackgroundImageFix"/>
<feColorMatrix in="SourceAlpha" type="matrix" values="0 0 0 0 0 0 0 0 0 0 0 0 0 0 0 0 0 0 127 0"/>
<feOffset dy="4"/>
<feGaussianBlur stdDeviation="15.5"/>
<feColorMatrix type="matrix" values="0 0 0 0 0.0982986 0 0 0 0 0.368575 0 0 0 0 0.620833 0 0 0 0.27 0"/>
<feBlend mode="normal" in2="BackgroundImageFix" result="effect1_dropShadow"/>
<feBlend mode="normal" in="SourceGraphic" in2="effect1_dropShadow" result="shape"/>
</filter>
<filter id="filter3_d" x="0" y="1" width="180.769" height="153.087" filterUnits="userSpaceOnUse" color-interpolation-filters="sRGB">
<feFlood flood-opacity="0" result="BackgroundImageFix"/>
<feColorMatrix in="SourceAlpha" type="matrix" values="0 0 0 0 0 0 0 0 0 0 0 0 0 0 0 0 0 0 127 0"/>
<feOffset dy="4"/>
<feGaussianBlur stdDeviation="15.5"/>
<feColorMatrix type="matrix" values="0 0 0 0 0.0982986 0 0 0 0 0.368575 0 0 0 0 0.620833 0 0 0 0.27 0"/>
<feBlend mode="normal" in2="BackgroundImageFix" result="effect1_dropShadow"/>
<feBlend mode="normal" in="SourceGraphic" in2="effect1_dropShadow" result="shape"/>
</filter>
</defs>
</svg>
