<?xml version="1.0" encoding="UTF-8"?>
<svg xmlns="http://www.w3.org/2000/svg" width="50" height="38" viewBox="0 0 50 38" fill="none">
  <g clipPath="url(#clip0_1080_23284)">
    <path d="M24.9554 37.9987C20.6665 37.9987 16.3777 37.9987 12.0889 37.9987C10.1636 37.9987 9.08461 36.9374 9.08033 35.0432C9.08033 34.6408 9.07604 34.237 9.08033 33.8346C9.0946 32.7662 9.67976 32.0764 10.7488 31.939C11.0742 31.897 11.1527 31.8044 11.1412 31.4974C11.1156 30.8328 11.1198 30.1654 11.1412 29.5009C11.1498 29.226 11.057 29.163 10.7859 29.1349C5.31388 28.5587 1.09642 24.6371 0.158738 19.27C-0.9074 13.1669 3.52128 6.97958 9.70688 5.91402C11.1955 5.65744 12.6769 5.61818 14.1598 5.91682C14.4867 5.98272 14.6579 5.88317 14.8535 5.62099C17.9891 1.43584 22.2265 -0.52003 27.4487 0.119309C32.9464 0.792297 36.6372 3.90627 38.5197 9.03921C38.7181 9.579 38.8437 9.80193 39.5345 9.75145C44.1872 9.41356 48.5274 12.55 49.6792 16.9973C51.2891 23.2168 46.6463 29.1181 40.0611 29.2246C39.6786 29.2303 39.1548 29.0508 38.9493 29.3116C38.7566 29.5555 38.8879 30.0463 38.8779 30.429C38.8751 30.5692 38.8779 30.7094 38.8779 30.8496C38.8779 31.1651 38.788 31.5198 38.9079 31.7848C39.0307 32.0554 39.446 31.9222 39.72 32.0246C40.4122 32.2839 40.9032 32.9233 40.926 33.6692C40.9417 34.1767 40.9346 34.6857 40.9303 35.1932C40.9189 36.8687 39.7885 37.9959 38.0887 37.9987C33.7114 38.0057 29.3327 38.0015 24.9554 38.0015V37.9987ZM24.9768 16.0691C28.6062 16.0691 32.2371 16.0677 35.8665 16.0691C37.8803 16.0691 38.8908 17.0632 38.8922 19.0317C38.8922 21.3437 38.8922 23.6557 38.8922 25.9677C38.8922 26.75 39.2914 27.1332 40.0897 27.1174C44.3927 27.0304 47.8052 23.7412 47.8638 19.6233C47.9351 14.6559 43.4022 10.9825 38.4598 12.0032C37.5021 12.2008 37.0482 11.9134 36.8541 10.9839C35.8665 6.26173 32.0001 2.65844 27.1461 2.18034C22.4706 1.71906 18.7926 3.50668 16.2136 7.4016C15.6513 8.24985 15.3972 8.38024 14.4153 8.12086C13.0523 7.76193 11.675 7.70865 10.292 7.9442C5.488 8.7644 2.06694 12.9005 2.16399 17.7516C2.25533 22.398 5.91474 26.3813 10.6731 27.0318C11.0542 27.0837 11.1455 26.9926 11.1441 26.6154C11.127 24.0581 11.1341 21.5021 11.137 18.9447C11.137 18.7008 11.1341 18.4512 11.1798 18.2129C11.4352 16.8599 12.4757 16.0733 14.0342 16.0705C17.6822 16.0649 21.3302 16.0691 24.9768 16.0691ZM25.0595 18.1764C21.4116 18.1764 17.7636 18.1764 14.117 18.1764C13.3706 18.1764 13.2778 18.2676 13.2778 18.9854C13.2778 23.1187 13.2849 27.2519 13.2664 31.3852C13.265 31.8241 13.3834 31.939 13.8259 31.9348C15.9253 31.9124 18.0247 31.9292 20.1242 31.9222C20.7322 31.9208 21.2003 32.0933 21.4116 32.7158C21.51 33.0088 21.7313 33.1546 22.0624 33.1532C24.0191 33.1476 25.9773 33.1476 27.934 33.1532C28.2308 33.1532 28.4863 33.0621 28.5762 32.7845C28.8174 32.04 29.3769 31.897 30.0791 31.9026C32.1257 31.9194 34.1724 31.8942 36.2176 31.9194C36.6729 31.925 36.7656 31.7932 36.7642 31.3656C36.7471 27.2505 36.7542 23.1341 36.7542 19.0191C36.7542 18.2577 36.6743 18.1792 35.8965 18.1778C32.2842 18.1778 28.6719 18.1778 25.061 18.1778L25.0595 18.1764ZM25.0139 35.89C29.14 35.89 33.2675 35.89 37.3936 35.89C38.8151 35.89 38.8009 35.89 38.8109 34.5048C38.8137 34.1248 38.7324 33.9959 38.3156 33.9987C35.808 34.0197 33.3003 34.0127 30.7927 34.0043C30.5073 34.0043 30.3032 34.0646 30.1076 34.2959C29.5667 34.9366 28.8488 35.2465 27.9996 35.2465C26.0072 35.2479 24.0148 35.2479 22.0238 35.2465C21.196 35.2465 20.4867 34.9521 19.9544 34.3295C19.7317 34.0702 19.5005 34.0015 19.1765 34.0029C16.8459 34.0141 14.5166 34.0085 12.186 34.0085C11.5428 34.0085 11.2221 34.3328 11.224 34.9815C11.2269 35.7638 11.3539 35.89 12.1546 35.89C16.4405 35.89 20.7279 35.89 25.0139 35.89Z" fill="#44BA93"></path>
    <path d="M24.9749 16.0689C21.3269 16.0689 17.6789 16.0647 14.0323 16.0703C12.4738 16.0731 11.4334 16.8583 11.1779 18.2126C11.1337 18.451 11.1351 18.7006 11.1351 18.9445C11.1322 21.5019 11.1251 24.0592 11.1422 26.6152C11.1451 26.9923 11.0523 27.0835 10.6712 27.0316C5.91429 26.3796 2.25488 22.3964 2.16211 17.7514C2.06649 12.9016 5.48755 8.76417 10.2887 7.94396C11.6717 7.70842 13.0504 7.7617 14.412 8.12062C15.3953 8.38 15.6494 8.24961 16.2103 7.40137C18.7893 3.50785 22.4673 1.72023 27.1428 2.1801C31.9968 2.6582 35.8632 6.26149 36.8508 10.9836C37.0449 11.9118 37.4988 12.2006 38.4565 12.0029C43.3975 10.9822 47.9318 14.6556 47.8605 19.6231C47.8019 23.741 44.3894 27.0316 40.0864 27.1171C39.2881 27.133 38.8889 26.7498 38.8889 25.9674C38.8889 23.6554 38.8889 21.3434 38.8889 19.0314C38.8889 17.063 37.8784 16.0703 35.8632 16.0689C32.2338 16.0661 28.6029 16.0689 24.9735 16.0689H24.9749Z" fill="#C3E8DC"></path>
    <path d="M25.0235 19.3751C25.6101 19.3751 26.1967 19.3667 26.7833 19.3779C27.3885 19.3877 27.8794 19.877 27.8694 20.4407C27.8594 20.9903 27.387 21.4698 26.809 21.4754C25.6187 21.4866 24.427 21.4852 23.2367 21.4754C22.6315 21.4712 22.1405 20.9762 22.1505 20.4126C22.1605 19.8462 22.6486 19.3849 23.2652 19.3765C23.8518 19.3695 24.4384 19.3751 25.025 19.3751H25.0235Z" fill="#44BA93"></path>
  </g>
  <defs>
    <clipPath id="clip0_1080_23284">
      <rect width="50" height="38" fill="white"></rect>
    </clipPath>
  </defs>
</svg>
