<svg width="152" height="46" viewBox="0 0 152 46" fill="none" xmlns="http://www.w3.org/2000/svg"><rect x="0.95752" y="0.5" width="150" height="45" rx="22.5" fill="white"/><path d="M40.4575 23C40.4575 21.2656 39.3324 19.7657 37.7388 19.1563C38.4419 17.6563 38.1606 15.7813 36.9419 14.5156C35.6763 13.2969 33.8013 13.0157 32.3012 13.7188C31.6918 12.1251 30.1919 11 28.4575 11C26.6763 11 25.1762 12.1251 24.5669 13.7188C23.0669 13.0157 21.1919 13.2969 19.9732 14.5156C18.7075 15.7813 18.4263 17.6563 19.1294 19.1563C17.5356 19.7657 16.4575 21.2656 16.4575 23C16.4575 24.7813 17.5356 26.2813 19.1294 26.8906C18.4263 28.3906 18.7075 30.2656 19.9732 31.4844C21.1919 32.75 23.0669 33.0313 24.5669 32.3281C25.1762 33.9219 26.6763 35 28.4575 35C30.1919 35 31.6918 33.9219 32.3012 32.3281C33.8482 33.0313 35.6763 32.75 36.9419 31.4844C38.1606 30.2656 38.4419 28.3906 37.7388 26.8906C39.3324 26.2813 40.4575 24.7813 40.4575 23ZM29.5825 27.4531V28.25C29.5825 28.6719 29.2075 29.0001 28.8325 29.0001H28.0824C27.6606 29.0001 27.3325 28.6719 27.3325 28.25V27.4531C26.77 27.3594 26.2543 27.2188 25.8325 26.8906C25.5513 26.7031 25.5044 26.2813 25.7388 26.047L26.5825 25.2032C26.7231 25.0625 27.0043 25.0156 27.2387 25.1095C27.3794 25.2032 27.52 25.2501 27.7075 25.2501H29.2544C29.4888 25.2501 29.6294 25.0625 29.6294 24.8281C29.6294 24.6407 29.5356 24.5 29.3481 24.4532L27.0043 23.7969C25.9731 23.4688 25.1293 22.625 24.9887 21.5469C24.8013 20.0469 25.8794 18.7813 27.3325 18.5938V17.7501C27.3325 17.375 27.6606 17.0001 28.0824 17.0001H28.8325C29.2075 17.0001 29.5825 17.375 29.5825 17.7501V18.5938C30.0982 18.6876 30.6137 18.8282 31.0357 19.1563C31.3638 19.3437 31.3638 19.7657 31.1294 20L30.2856 20.8438C30.145 20.9844 29.8637 21.0313 29.6294 20.9375C29.4888 20.8438 29.3481 20.7969 29.1607 20.7969H27.6138C27.4263 20.7969 27.2387 20.9844 27.2387 21.2187C27.2387 21.4063 27.3325 21.5469 27.52 21.5938L29.8637 22.25C30.8949 22.5782 31.7387 23.4219 31.8793 24.5C32.0669 26.0001 30.9888 27.2657 29.5825 27.4531Z" fill="#29B077"/><path d="M50.1735 19V11.234H51.8895V19H50.1735ZM48.6775 12.697V11.234H51.7795V12.697H48.6775ZM52.8457 16.305L55.3977 11.234H57.2787L54.6717 16.305H52.8457ZM52.8457 17.273V16.305L53.4177 15.81H59.0717V17.273H52.8457ZM56.5087 19V14.193H58.2027V19H56.5087ZM59.9119 16.932V15.458H63.8059V16.932H59.9119ZM67.5063 19.11C67.0003 19.11 66.5493 18.989 66.1533 18.747C65.7646 18.505 65.4566 18.175 65.2293 17.757C65.0093 17.339 64.8993 16.8623 64.8993 16.327C64.8993 15.7917 65.0093 15.315 65.2293 14.897C65.4566 14.479 65.7646 14.149 66.1533 13.907C66.5493 13.665 67.0003 13.544 67.5063 13.544C67.8729 13.544 68.2029 13.6137 68.4963 13.753C68.7969 13.8923 69.0426 14.0867 69.2333 14.336C69.4313 14.578 69.5413 14.8567 69.5633 15.172V17.427C69.5413 17.7423 69.4349 18.0283 69.2443 18.285C69.0536 18.5343 68.8079 18.736 68.5073 18.89C68.2066 19.0367 67.8729 19.11 67.5063 19.11ZM67.8033 17.592C68.0453 17.592 68.2543 17.5407 68.4303 17.438C68.6063 17.328 68.7456 17.1777 68.8483 16.987C68.9509 16.7963 69.0023 16.5763 69.0023 16.327C69.0023 16.0777 68.9509 15.8613 68.8483 15.678C68.7529 15.4873 68.6136 15.337 68.4303 15.227C68.2543 15.117 68.0489 15.062 67.8143 15.062C67.5796 15.062 67.3706 15.117 67.1873 15.227C67.0113 15.337 66.8683 15.4873 66.7583 15.678C66.6556 15.8687 66.6043 16.085 66.6043 16.327C66.6043 16.569 66.6556 16.7853 66.7583 16.976C66.8609 17.1667 67.0039 17.317 67.1873 17.427C67.3706 17.537 67.5759 17.592 67.8033 17.592ZM70.5863 19H68.9363V17.559L69.1893 16.261L68.9033 14.963V11.014H70.5863V19ZM74.0042 19.11C73.5129 19.11 73.0729 18.989 72.6842 18.747C72.3029 18.505 71.9986 18.175 71.7712 17.757C71.5512 17.339 71.4412 16.8623 71.4412 16.327C71.4412 15.7917 71.5512 15.315 71.7712 14.897C71.9986 14.479 72.3029 14.149 72.6842 13.907C73.0729 13.665 73.5129 13.544 74.0042 13.544C74.3636 13.544 74.6862 13.6137 74.9722 13.753C75.2656 13.8923 75.5039 14.0867 75.6872 14.336C75.8706 14.578 75.9732 14.8567 75.9952 15.172V17.482C75.9732 17.7973 75.8706 18.0797 75.6872 18.329C75.5112 18.571 75.2766 18.7617 74.9832 18.901C74.6899 19.0403 74.3636 19.11 74.0042 19.11ZM74.3452 17.592C74.7046 17.592 74.9942 17.4747 75.2142 17.24C75.4342 16.998 75.5442 16.6937 75.5442 16.327C75.5442 16.0777 75.4929 15.8577 75.3902 15.667C75.2949 15.4763 75.1556 15.3297 74.9722 15.227C74.7962 15.117 74.5909 15.062 74.3562 15.062C74.1216 15.062 73.9126 15.117 73.7292 15.227C73.5532 15.3297 73.4102 15.4763 73.3002 15.667C73.1976 15.8577 73.1462 16.0777 73.1462 16.327C73.1462 16.569 73.1976 16.7853 73.3002 16.976C73.4029 17.1667 73.5459 17.317 73.7292 17.427C73.9126 17.537 74.1179 17.592 74.3452 17.592ZM75.4782 19V17.559L75.7312 16.261L75.4782 14.963V13.654H77.1282V19H75.4782ZM79.9632 19.022L77.7632 13.654H79.5782L80.9752 17.911H80.3042L81.7342 13.654H83.5492L81.2612 19.022H79.9632ZM78.5882 21.255L80.1942 17.79L81.2612 19.022L80.3152 21.255H78.5882ZM86.7853 19V11.366H87.5113L90.7453 16.679H90.2503L93.4843 11.366H94.2103V19H93.1763V13.181L93.4183 13.247L90.8663 17.438H90.1403L87.5883 13.247L87.8193 13.181V19H86.7853ZM98.2238 19.11C97.7105 19.11 97.2485 18.989 96.8378 18.747C96.4272 18.505 96.1008 18.1787 95.8588 17.768C95.6168 17.35 95.4958 16.8843 95.4958 16.371C95.4958 15.865 95.6168 15.4103 95.8588 15.007C96.1008 14.5963 96.4272 14.27 96.8378 14.028C97.2485 13.786 97.7105 13.665 98.2238 13.665C98.7298 13.665 99.1882 13.786 99.5988 14.028C100.017 14.2627 100.347 14.5853 100.589 14.996C100.831 15.4067 100.952 15.865 100.952 16.371C100.952 16.8843 100.831 17.35 100.589 17.768C100.347 18.1787 100.017 18.505 99.5988 18.747C99.1882 18.989 98.7298 19.11 98.2238 19.11ZM98.2238 18.153C98.5538 18.153 98.8472 18.076 99.1038 17.922C99.3605 17.768 99.5622 17.559 99.7088 17.295C99.8555 17.0237 99.9288 16.7157 99.9288 16.371C99.9288 16.0337 99.8518 15.733 99.6978 15.469C99.5512 15.205 99.3495 14.9997 99.0928 14.853C98.8435 14.699 98.5538 14.622 98.2238 14.622C97.8938 14.622 97.6005 14.699 97.3438 14.853C97.0872 14.9997 96.8855 15.205 96.7388 15.469C96.5922 15.733 96.5188 16.0337 96.5188 16.371C96.5188 16.7157 96.5922 17.0237 96.7388 17.295C96.8855 17.559 97.0872 17.768 97.3438 17.922C97.6005 18.076 97.8938 18.153 98.2238 18.153ZM105.763 19V15.953C105.763 15.557 105.639 15.2307 105.389 14.974C105.14 14.7173 104.817 14.589 104.421 14.589C104.157 14.589 103.923 14.6477 103.717 14.765C103.512 14.8823 103.351 15.0437 103.233 15.249C103.116 15.4543 103.057 15.689 103.057 15.953L102.65 15.722C102.65 15.326 102.738 14.974 102.914 14.666C103.09 14.358 103.336 14.116 103.651 13.94C103.967 13.7567 104.322 13.665 104.718 13.665C105.114 13.665 105.463 13.764 105.763 13.962C106.071 14.16 106.313 14.4203 106.489 14.743C106.665 15.0583 106.753 15.3957 106.753 15.755V19H105.763ZM102.067 19V13.775H103.057V19H102.067ZM110.514 19.11C109.993 19.11 109.524 18.9927 109.106 18.758C108.688 18.516 108.358 18.1897 108.116 17.779C107.874 17.3683 107.753 16.9027 107.753 16.382C107.753 15.8687 107.87 15.4067 108.105 14.996C108.347 14.5853 108.669 14.2627 109.073 14.028C109.483 13.786 109.942 13.665 110.448 13.665C110.932 13.665 111.357 13.775 111.724 13.995C112.098 14.215 112.387 14.5193 112.593 14.908C112.805 15.2967 112.912 15.7367 112.912 16.228C112.912 16.3013 112.908 16.382 112.901 16.47C112.893 16.5507 112.879 16.646 112.857 16.756H108.446V15.931H112.329L111.966 16.25C111.966 15.898 111.903 15.601 111.779 15.359C111.654 15.1097 111.478 14.919 111.251 14.787C111.023 14.6477 110.748 14.578 110.426 14.578C110.088 14.578 109.791 14.6513 109.535 14.798C109.278 14.9447 109.08 15.15 108.941 15.414C108.801 15.678 108.732 15.9897 108.732 16.349C108.732 16.7157 108.805 17.0383 108.952 17.317C109.098 17.5883 109.307 17.801 109.579 17.955C109.85 18.1017 110.162 18.175 110.514 18.175C110.807 18.175 111.075 18.1237 111.317 18.021C111.566 17.9183 111.779 17.7643 111.955 17.559L112.593 18.208C112.343 18.5013 112.035 18.725 111.669 18.879C111.309 19.033 110.924 19.11 110.514 19.11ZM115.621 19.044L113.355 13.775H114.455L116.138 17.9H115.786L117.557 13.775H118.657L116.215 19.044H115.621ZM114.125 21.189L115.665 18.032L116.215 19.044L115.225 21.189H114.125Z" fill="black"/><path d="M50.1625 35V33.9H52.3735C52.7622 33.9 53.0629 33.779 53.2755 33.537C53.4882 33.295 53.5945 33.0163 53.5945 32.701C53.5945 32.4883 53.5469 32.2903 53.4515 32.107C53.3562 31.9237 53.2169 31.777 53.0335 31.667C52.8502 31.557 52.6302 31.502 52.3735 31.502H50.1625V30.402H52.1865C52.5165 30.402 52.7805 30.3177 52.9785 30.149C53.1765 29.9803 53.2755 29.731 53.2755 29.401C53.2755 29.071 53.1765 28.8217 52.9785 28.653C52.7805 28.4843 52.5165 28.4 52.1865 28.4H50.1625V27.3H52.2195C52.7402 27.3 53.1729 27.3953 53.5175 27.586C53.8622 27.7767 54.1189 28.0223 54.2875 28.323C54.4562 28.6237 54.5405 28.9463 54.5405 29.291C54.5405 29.6943 54.4269 30.05 54.1995 30.358C53.9795 30.666 53.6532 30.9153 53.2205 31.106L53.3195 30.71C53.8035 30.908 54.1812 31.1867 54.4525 31.546C54.7239 31.9053 54.8595 32.327 54.8595 32.811C54.8595 33.207 54.7605 33.57 54.5625 33.9C54.3719 34.23 54.0859 34.4977 53.7045 34.703C53.3305 34.901 52.8685 35 52.3185 35H50.1625ZM49.2935 35V27.3H50.5585V35H49.2935ZM58.1823 35.11C57.7056 35.11 57.273 34.989 56.8843 34.747C56.503 34.505 56.1986 34.1787 55.9713 33.768C55.7513 33.35 55.6413 32.8843 55.6413 32.371C55.6413 31.8503 55.7513 31.3847 55.9713 30.974C56.1986 30.556 56.503 30.226 56.8843 29.984C57.273 29.7347 57.7056 29.61 58.1823 29.61C58.5856 29.61 58.9413 29.698 59.2493 29.874C59.5646 30.0427 59.814 30.2773 59.9973 30.578C60.1806 30.8787 60.2723 31.2197 60.2723 31.601V33.119C60.2723 33.5003 60.1806 33.8413 59.9973 34.142C59.8213 34.4427 59.5756 34.681 59.2603 34.857C58.945 35.0257 58.5856 35.11 58.1823 35.11ZM58.3803 33.966C58.8276 33.966 59.187 33.8157 59.4583 33.515C59.737 33.2143 59.8763 32.8293 59.8763 32.36C59.8763 32.0447 59.814 31.766 59.6893 31.524C59.5646 31.282 59.3886 31.095 59.1613 30.963C58.9413 30.8237 58.681 30.754 58.3803 30.754C58.087 30.754 57.8266 30.8237 57.5993 30.963C57.3793 31.095 57.2033 31.282 57.0713 31.524C56.9466 31.766 56.8843 32.0447 56.8843 32.36C56.8843 32.6753 56.9466 32.954 57.0713 33.196C57.2033 33.438 57.3793 33.6287 57.5993 33.768C57.8266 33.9 58.087 33.966 58.3803 33.966ZM59.7993 35V33.581L60.0083 32.294L59.7993 31.018V29.72H61.0093V35H59.7993ZM64.7832 35.11C64.2625 35.11 63.7895 34.989 63.3642 34.747C62.9462 34.505 62.6162 34.175 62.3742 33.757C62.1322 33.339 62.0112 32.8733 62.0112 32.36C62.0112 31.8393 62.1322 31.3737 62.3742 30.963C62.6162 30.545 62.9462 30.215 63.3642 29.973C63.7895 29.731 64.2625 29.61 64.7832 29.61C65.1938 29.61 65.5752 29.6907 65.9272 29.852C66.2865 30.006 66.5908 30.2297 66.8402 30.523L66.0482 31.326C65.8942 31.1427 65.7072 31.007 65.4872 30.919C65.2745 30.8237 65.0398 30.776 64.7832 30.776C64.4825 30.776 64.2148 30.8457 63.9802 30.985C63.7528 31.117 63.5732 31.3003 63.4412 31.535C63.3165 31.7697 63.2542 32.0447 63.2542 32.36C63.2542 32.668 63.3165 32.943 63.4412 33.185C63.5732 33.4197 63.7528 33.6067 63.9802 33.746C64.2148 33.878 64.4825 33.944 64.7832 33.944C65.0398 33.944 65.2745 33.9 65.4872 33.812C65.7072 33.7167 65.8942 33.5773 66.0482 33.394L66.8402 34.197C66.5908 34.4903 66.2865 34.7177 65.9272 34.879C65.5752 35.033 65.1938 35.11 64.7832 35.11ZM71.0675 35L68.8345 32.305L71.0565 29.72H72.4975L69.9455 32.624L70.0005 31.931L72.6075 35H71.0675ZM67.7125 35V27.08H68.9225V35H67.7125ZM79.1738 35.11C78.6458 35.11 78.1471 35.0073 77.6778 34.802C77.2085 34.5967 76.7978 34.3143 76.4458 33.955C76.0938 33.5883 75.8151 33.1667 75.6098 32.69C75.4118 32.206 75.3128 31.689 75.3128 31.139C75.3128 30.589 75.4118 30.0757 75.6098 29.599C75.8151 29.1223 76.0938 28.7043 76.4458 28.345C76.8051 27.9783 77.2231 27.696 77.6998 27.498C78.1838 27.2927 78.7045 27.19 79.2618 27.19C79.8705 27.19 80.4351 27.3073 80.9558 27.542C81.4765 27.7767 81.9128 28.1103 82.2648 28.543L81.4068 29.401C81.1795 29.0783 80.8751 28.8327 80.4938 28.664C80.1125 28.488 79.7018 28.4 79.2618 28.4C78.7338 28.4 78.2681 28.5173 77.8648 28.752C77.4688 28.9793 77.1608 29.2983 76.9408 29.709C76.7208 30.1197 76.6108 30.5963 76.6108 31.139C76.6108 31.6817 76.7208 32.162 76.9408 32.58C77.1681 32.9907 77.4725 33.3133 77.8538 33.548C78.2351 33.7827 78.6678 33.9 79.1518 33.9C79.6651 33.9 80.1051 33.8083 80.4718 33.625C80.8458 33.4343 81.1318 33.1557 81.3298 32.789C81.5278 32.415 81.6268 31.9567 81.6268 31.414L82.4188 31.986H79.1298V30.831H82.9358V31.007C82.9358 31.9237 82.7708 32.6863 82.4408 33.295C82.1182 33.9037 81.6745 34.3583 81.1098 34.659C80.5452 34.9597 79.8998 35.11 79.1738 35.11ZM86.1969 35.11C85.7496 35.11 85.3499 35.011 84.9979 34.813C84.6532 34.615 84.3819 34.3437 84.1839 33.999C83.9932 33.647 83.8979 33.2437 83.8979 32.789V29.72H85.1079V32.734C85.1079 32.9907 85.1482 33.2107 85.2289 33.394C85.3169 33.57 85.4416 33.7057 85.6029 33.801C85.7716 33.8963 85.9696 33.944 86.1969 33.944C86.5489 33.944 86.8166 33.8413 86.9999 33.636C87.1906 33.4233 87.2859 33.1227 87.2859 32.734V29.72H88.4959V32.789C88.4959 33.251 88.3969 33.658 88.1989 34.01C88.0082 34.3547 87.7406 34.626 87.3959 34.824C87.0512 35.0147 86.6516 35.11 86.1969 35.11ZM91.9235 35.11C91.4468 35.11 91.0142 34.989 90.6255 34.747C90.2442 34.505 89.9398 34.1787 89.7125 33.768C89.4925 33.35 89.3825 32.8843 89.3825 32.371C89.3825 31.8503 89.4925 31.3847 89.7125 30.974C89.9398 30.556 90.2442 30.226 90.6255 29.984C91.0142 29.7347 91.4468 29.61 91.9235 29.61C92.3268 29.61 92.6825 29.698 92.9905 29.874C93.3058 30.0427 93.5552 30.2773 93.7385 30.578C93.9218 30.8787 94.0135 31.2197 94.0135 31.601V33.119C94.0135 33.5003 93.9218 33.8413 93.7385 34.142C93.5625 34.4427 93.3168 34.681 93.0015 34.857C92.6862 35.0257 92.3268 35.11 91.9235 35.11ZM92.1215 33.966C92.5688 33.966 92.9282 33.8157 93.1995 33.515C93.4782 33.2143 93.6175 32.8293 93.6175 32.36C93.6175 32.0447 93.5552 31.766 93.4305 31.524C93.3058 31.282 93.1298 31.095 92.9025 30.963C92.6825 30.8237 92.4222 30.754 92.1215 30.754C91.8282 30.754 91.5678 30.8237 91.3405 30.963C91.1205 31.095 90.9445 31.282 90.8125 31.524C90.6878 31.766 90.6255 32.0447 90.6255 32.36C90.6255 32.6753 90.6878 32.954 90.8125 33.196C90.9445 33.438 91.1205 33.6287 91.3405 33.768C91.5678 33.9 91.8282 33.966 92.1215 33.966ZM93.5405 35V33.581L93.7495 32.294L93.5405 31.018V29.72H94.7505V35H93.5405ZM96.0934 35V29.72H97.3034V35H96.0934ZM97.3034 32.063L96.8854 31.854C96.8854 31.1867 97.032 30.6477 97.3254 30.237C97.626 29.819 98.077 29.61 98.6784 29.61C98.9424 29.61 99.1807 29.6577 99.3934 29.753C99.606 29.8483 99.804 30.0023 99.9874 30.215L99.1954 31.029C99.1 30.9263 98.9937 30.853 98.8764 30.809C98.759 30.765 98.6234 30.743 98.4694 30.743C98.132 30.743 97.8534 30.8493 97.6334 31.062C97.4134 31.2747 97.3034 31.6083 97.3034 32.063ZM102.74 35.11C102.293 35.11 101.893 35.011 101.541 34.813C101.196 34.615 100.925 34.3437 100.727 33.999C100.536 33.647 100.441 33.2437 100.441 32.789V29.72H101.651V32.734C101.651 32.9907 101.691 33.2107 101.772 33.394C101.86 33.57 101.985 33.7057 102.146 33.801C102.315 33.8963 102.513 33.944 102.74 33.944C103.092 33.944 103.36 33.8413 103.543 33.636C103.734 33.4233 103.829 33.1227 103.829 32.734V29.72H105.039V32.789C105.039 33.251 104.94 33.658 104.742 34.01C104.551 34.3547 104.284 34.626 103.939 34.824C103.594 35.0147 103.195 35.11 102.74 35.11ZM109.874 35V31.953C109.874 31.601 109.761 31.3113 109.533 31.084C109.313 30.8567 109.027 30.743 108.675 30.743C108.441 30.743 108.232 30.7943 108.048 30.897C107.865 30.9997 107.722 31.1427 107.619 31.326C107.517 31.5093 107.465 31.7183 107.465 31.953L106.992 31.689C106.992 31.2857 107.08 30.93 107.256 30.622C107.432 30.3067 107.674 30.061 107.982 29.885C108.298 29.7017 108.65 29.61 109.038 29.61C109.434 29.61 109.786 29.7127 110.094 29.918C110.402 30.116 110.644 30.3763 110.82 30.699C110.996 31.0143 111.084 31.3443 111.084 31.689V35H109.874ZM106.255 35V29.72H107.465V35H106.255ZM113.053 35V27.52H114.263V35H113.053ZM111.788 30.82V29.72H115.528V30.82H111.788ZM118.709 35.11C118.181 35.11 117.705 34.9927 117.279 34.758C116.861 34.516 116.528 34.186 116.278 33.768C116.036 33.35 115.915 32.8807 115.915 32.36C115.915 31.8393 116.036 31.3737 116.278 30.963C116.52 30.545 116.847 30.215 117.257 29.973C117.675 29.731 118.137 29.61 118.643 29.61C119.135 29.61 119.567 29.7237 119.941 29.951C120.323 30.1783 120.62 30.49 120.832 30.886C121.052 31.282 121.162 31.733 121.162 32.239C121.162 32.327 121.155 32.4187 121.14 32.514C121.133 32.602 121.118 32.701 121.096 32.811H116.762V31.821H120.469L120.018 32.217C120.004 31.8943 119.941 31.623 119.831 31.403C119.721 31.183 119.564 31.0143 119.358 30.897C119.16 30.7797 118.915 30.721 118.621 30.721C118.313 30.721 118.046 30.787 117.818 30.919C117.591 31.051 117.415 31.238 117.29 31.48C117.166 31.7147 117.103 31.997 117.103 32.327C117.103 32.657 117.169 32.9467 117.301 33.196C117.433 33.4453 117.62 33.6397 117.862 33.779C118.104 33.911 118.383 33.977 118.698 33.977C118.97 33.977 119.219 33.9293 119.446 33.834C119.681 33.7387 119.879 33.5993 120.04 33.416L120.81 34.197C120.554 34.4977 120.242 34.725 119.875 34.879C119.509 35.033 119.12 35.11 118.709 35.11ZM124.585 35.11C124.057 35.11 123.581 34.9927 123.155 34.758C122.737 34.516 122.404 34.186 122.154 33.768C121.912 33.35 121.791 32.8807 121.791 32.36C121.791 31.8393 121.912 31.3737 122.154 30.963C122.396 30.545 122.723 30.215 123.133 29.973C123.551 29.731 124.013 29.61 124.519 29.61C125.011 29.61 125.443 29.7237 125.817 29.951C126.199 30.1783 126.496 30.49 126.708 30.886C126.928 31.282 127.038 31.733 127.038 32.239C127.038 32.327 127.031 32.4187 127.016 32.514C127.009 32.602 126.994 32.701 126.972 32.811H122.638V31.821H126.345L125.894 32.217C125.88 31.8943 125.817 31.623 125.707 31.403C125.597 31.183 125.44 31.0143 125.234 30.897C125.036 30.7797 124.791 30.721 124.497 30.721C124.189 30.721 123.922 30.787 123.694 30.919C123.467 31.051 123.291 31.238 123.166 31.48C123.042 31.7147 122.979 31.997 122.979 32.327C122.979 32.657 123.045 32.9467 123.177 33.196C123.309 33.4453 123.496 33.6397 123.738 33.779C123.98 33.911 124.259 33.977 124.574 33.977C124.846 33.977 125.095 33.9293 125.322 33.834C125.557 33.7387 125.755 33.5993 125.916 33.416L126.686 34.197C126.43 34.4977 126.118 34.725 125.751 34.879C125.385 35.033 124.996 35.11 124.585 35.11Z" fill="#4B5563"/><rect x="0.95752" y="0.5" width="150" height="45" rx="22.5" stroke="#E5E7EB"/></svg>