<svg width="557" height="398" viewBox="0 0 557 398" fill="none" xmlns="http://www.w3.org/2000/svg">
<g clipPath="url(#clip0)">
<rect width="556" height="397" transform="translate(0.787109 0.199219)" fill="white"/>
<path d="M0.791718 0.199219H556.9V397.199H0.791718V0.199219Z" fill="#B4E5FF"/>
<path fill-rule="evenodd" clip-rule="evenodd" d="M410.195 90.567C410.707 89.991 411.589 89.9391 412.165 90.4511L415.977 93.8396L419.789 90.4511C420.365 89.9391 421.247 89.991 421.759 90.567C422.271 91.1429 422.219 92.0248 421.643 92.5367L416.904 96.7492C416.375 97.2191 415.579 97.2191 415.05 96.7492L410.311 92.5367C409.735 92.0248 409.683 91.1429 410.195 90.567Z" fill="#EAEEF4"/>
<g filter="url(#filter0_d)">
<path d="M94.8015 42.9732C94.8015 35.1069 101.178 28.73 109.045 28.73H448.983C456.849 28.73 463.226 35.1069 463.226 42.9732V354.425C463.226 362.291 456.849 368.668 448.983 368.668H109.045C101.178 368.668 94.8015 362.291 94.8015 354.425V42.9732Z" fill="white"/>
</g>
<path d="M123.582 183.241C123.582 180.968 125.151 179.838 126.733 179.838C128.328 179.838 129.897 180.968 129.897 183.241C129.897 185.514 128.328 186.644 126.733 186.644C125.151 186.644 123.582 185.514 123.582 183.241ZM121.947 183.241C121.947 186.339 124.26 188.16 126.733 188.16C129.206 188.16 131.532 186.339 131.532 183.241C131.532 180.157 129.206 178.336 126.733 178.336C124.26 178.336 121.947 180.157 121.947 183.241Z" fill="#2D3C4A"/>
<path d="M136.872 181.447C136.805 181.433 136.646 181.407 136.46 181.407C135.609 181.407 134.891 181.819 134.585 182.523V181.486H133.083V187.961H134.625V184.876C134.625 183.667 135.17 182.975 136.367 182.975C136.526 182.975 136.699 182.989 136.872 183.015V181.447Z" fill="#2D3C4A"/>
<path d="M145.645 187.243C145.645 187.509 145.671 187.814 145.698 187.961H147.174C147.147 187.721 147.107 187.309 147.107 186.777V181.486H145.565V185.315C145.565 186.166 145.1 186.764 144.209 186.764C143.278 186.764 142.906 186.086 142.906 185.288V181.486H141.364V185.568C141.364 187.003 142.268 188.147 143.81 188.147C144.568 188.147 145.326 187.828 145.645 187.243Z" fill="#2D3C4A"/>
<path d="M150.632 190.486V187.229C150.964 187.721 151.669 188.12 152.599 188.12C154.46 188.12 155.644 186.658 155.644 184.717C155.644 182.803 154.567 181.34 152.652 181.34C151.655 181.34 150.911 181.806 150.592 182.364V181.486H149.103V190.486H150.632ZM154.101 184.717C154.101 185.953 153.384 186.751 152.36 186.751C151.35 186.751 150.619 185.953 150.619 184.717C150.619 183.507 151.35 182.71 152.36 182.71C153.397 182.71 154.101 183.507 154.101 184.717Z" fill="#2D3C4A"/>
<path d="M158.668 187.961V178.336H157.126V187.961H158.668Z" fill="#2D3C4A"/>
<path d="M163.502 186.777C162.558 186.777 161.694 186.06 161.694 184.717C161.694 183.374 162.558 182.683 163.502 182.683C164.459 182.683 165.31 183.374 165.31 184.717C165.31 186.073 164.459 186.777 163.502 186.777ZM163.502 181.287C161.574 181.287 160.152 182.736 160.152 184.717C160.152 186.711 161.574 188.16 163.502 188.16C165.443 188.16 166.865 186.711 166.865 184.717C166.865 182.736 165.443 181.287 163.502 181.287Z" fill="#2D3C4A"/>
<path d="M167.957 186.206C167.957 187.229 168.794 188.16 170.15 188.16C171.2 188.16 171.838 187.628 172.144 187.136C172.144 187.655 172.197 187.921 172.211 187.961H173.646C173.633 187.894 173.567 187.509 173.567 186.924V183.707C173.567 182.417 172.809 181.287 170.815 181.287C169.22 181.287 168.209 182.284 168.09 183.401L169.499 183.72C169.565 183.068 170.017 182.55 170.828 182.55C171.679 182.55 172.051 182.989 172.051 183.534C172.051 183.76 171.945 183.946 171.573 183.999L169.911 184.252C168.808 184.411 167.957 185.049 167.957 186.206ZM170.443 186.95C169.831 186.95 169.499 186.551 169.499 186.113C169.499 185.581 169.884 185.315 170.363 185.235L172.051 184.983V185.275C172.051 186.538 171.307 186.95 170.443 186.95Z" fill="#2D3C4A"/>
<path d="M176.455 184.704C176.455 183.467 177.199 182.683 178.209 182.683C179.22 182.683 179.911 183.454 179.911 184.69C179.911 185.927 179.207 186.764 178.196 186.764C177.146 186.764 176.455 185.94 176.455 184.704ZM181.4 178.336H179.898V182.244C179.698 181.832 179.127 181.314 177.997 181.314C176.176 181.314 174.913 182.842 174.913 184.704C174.913 186.658 176.162 188.12 178.023 188.12C178.941 188.12 179.619 187.668 179.924 187.123C179.924 187.389 179.964 187.814 179.991 187.961H181.466C181.453 187.854 181.4 187.362 181.4 186.777V178.336Z" fill="#2D3C4A"/>
<path d="M189.331 178.269C188.002 178.269 187.071 179.147 187.071 180.596V181.486H185.941V182.829H187.071V187.961H188.627V182.829H191.418V187.961H192.934V181.486H188.627V180.636C188.627 179.838 189.185 179.652 189.584 179.652C189.876 179.652 190.049 179.692 190.142 179.718V178.402C190.036 178.349 189.717 178.269 189.331 178.269ZM191.179 179.2C191.179 179.745 191.618 180.197 192.176 180.197C192.734 180.197 193.186 179.745 193.186 179.2C193.186 178.642 192.734 178.19 192.176 178.19C191.618 178.19 191.179 178.642 191.179 179.2Z" fill="#2D3C4A"/>
<path d="M196.485 187.961V178.336H194.943V187.961H196.485Z" fill="#2D3C4A"/>
<path d="M199.551 184.012C199.604 183.321 200.162 182.577 201.133 182.577C202.196 182.577 202.701 183.255 202.728 184.012H199.551ZM202.901 185.701C202.688 186.339 202.21 186.831 201.279 186.831C200.322 186.831 199.551 186.126 199.511 185.142H204.243C204.257 185.116 204.283 184.903 204.283 184.65C204.283 182.603 203.114 181.287 201.119 181.287C199.484 181.287 197.969 182.643 197.969 184.69C197.969 186.884 199.524 188.16 201.279 188.16C202.834 188.16 203.858 187.243 204.204 186.113L202.901 185.701Z" fill="#2D3C4A"/>
<path d="M121.389 206.296C121.389 204.722 122.664 203.447 124.238 203.447H433.79C435.364 203.447 436.639 204.722 436.639 206.296V334.485C436.639 336.058 435.364 337.333 433.79 337.333H124.238C122.664 337.333 121.389 336.058 121.389 334.485V206.296Z" fill="#F3F9FB"/>
<path fill-rule="evenodd" clip-rule="evenodd" d="M124.238 203.922C123.915 203.922 123.608 203.986 123.329 204.102C123.087 204.202 122.809 204.087 122.709 203.845C122.608 203.603 122.723 203.325 122.965 203.225C123.358 203.062 123.788 202.972 124.238 202.972H128.107C128.369 202.972 128.582 203.185 128.582 203.447C128.582 203.709 128.369 203.922 128.107 203.922H124.238ZM135.371 203.447C135.371 203.185 135.584 202.972 135.846 202.972H143.585C143.847 202.972 144.059 203.185 144.059 203.447C144.059 203.709 143.847 203.922 143.585 203.922H135.846C135.584 203.922 135.371 203.709 135.371 203.447ZM150.849 203.447C150.849 203.185 151.061 202.972 151.323 202.972H159.062C159.324 202.972 159.537 203.185 159.537 203.447C159.537 203.709 159.324 203.922 159.062 203.922H151.323C151.061 203.922 150.849 203.709 150.849 203.447ZM166.326 203.447C166.326 203.185 166.539 202.972 166.801 202.972H174.54C174.802 202.972 175.015 203.185 175.015 203.447C175.015 203.709 174.802 203.922 174.54 203.922H166.801C166.539 203.922 166.326 203.709 166.326 203.447ZM181.804 203.447C181.804 203.185 182.016 202.972 182.279 202.972H190.017C190.28 202.972 190.492 203.185 190.492 203.447C190.492 203.709 190.28 203.922 190.017 203.922H182.279C182.016 203.922 181.804 203.709 181.804 203.447ZM197.282 203.447C197.282 203.185 197.494 202.972 197.756 202.972H205.495C205.757 202.972 205.97 203.185 205.97 203.447C205.97 203.709 205.757 203.922 205.495 203.922H197.756C197.494 203.922 197.282 203.709 197.282 203.447ZM212.759 203.447C212.759 203.185 212.972 202.972 213.234 202.972H220.973C221.235 202.972 221.448 203.185 221.448 203.447C221.448 203.709 221.235 203.922 220.973 203.922H213.234C212.972 203.922 212.759 203.709 212.759 203.447ZM228.237 203.447C228.237 203.185 228.449 202.972 228.712 202.972H236.45C236.713 202.972 236.925 203.185 236.925 203.447C236.925 203.709 236.713 203.922 236.45 203.922H228.712C228.449 203.922 228.237 203.709 228.237 203.447ZM243.714 203.447C243.714 203.185 243.927 202.972 244.189 202.972H251.928C252.19 202.972 252.403 203.185 252.403 203.447C252.403 203.709 252.19 203.922 251.928 203.922H244.189C243.927 203.922 243.714 203.709 243.714 203.447ZM259.192 203.447C259.192 203.185 259.405 202.972 259.667 202.972H267.406C267.668 202.972 267.88 203.185 267.88 203.447C267.88 203.709 267.668 203.922 267.406 203.922H259.667C259.405 203.922 259.192 203.709 259.192 203.447ZM274.67 203.447C274.67 203.185 274.882 202.972 275.145 202.972H282.883C283.146 202.972 283.358 203.185 283.358 203.447C283.358 203.709 283.146 203.922 282.883 203.922H275.145C274.882 203.922 274.67 203.709 274.67 203.447ZM290.147 203.447C290.147 203.185 290.36 202.972 290.622 202.972H298.361C298.623 202.972 298.836 203.185 298.836 203.447C298.836 203.709 298.623 203.922 298.361 203.922H290.622C290.36 203.922 290.147 203.709 290.147 203.447ZM305.625 203.447C305.625 203.185 305.838 202.972 306.1 202.972H313.839C314.101 202.972 314.313 203.185 314.313 203.447C314.313 203.709 314.101 203.922 313.839 203.922H306.1C305.838 203.922 305.625 203.709 305.625 203.447ZM321.103 203.447C321.103 203.185 321.315 202.972 321.577 202.972H329.316C329.578 202.972 329.791 203.185 329.791 203.447C329.791 203.709 329.578 203.922 329.316 203.922H321.577C321.315 203.922 321.103 203.709 321.103 203.447ZM336.58 203.447C336.58 203.185 336.793 202.972 337.055 202.972H344.794C345.056 202.972 345.269 203.185 345.269 203.447C345.269 203.709 345.056 203.922 344.794 203.922H337.055C336.793 203.922 336.58 203.709 336.58 203.447ZM352.058 203.447C352.058 203.185 352.27 202.972 352.533 202.972H360.271C360.534 202.972 360.746 203.185 360.746 203.447C360.746 203.709 360.534 203.922 360.271 203.922H352.533C352.27 203.922 352.058 203.709 352.058 203.447ZM367.536 203.447C367.536 203.185 367.748 202.972 368.01 202.972H375.749C376.011 202.972 376.224 203.185 376.224 203.447C376.224 203.709 376.011 203.922 375.749 203.922H368.01C367.748 203.922 367.536 203.709 367.536 203.447ZM383.013 203.447C383.013 203.185 383.226 202.972 383.488 202.972H391.227C391.489 202.972 391.702 203.185 391.702 203.447C391.702 203.709 391.489 203.922 391.227 203.922H383.488C383.226 203.922 383.013 203.709 383.013 203.447ZM398.491 203.447C398.491 203.185 398.703 202.972 398.966 202.972H406.704C406.967 202.972 407.179 203.185 407.179 203.447C407.179 203.709 406.967 203.922 406.704 203.922H398.966C398.703 203.922 398.491 203.709 398.491 203.447ZM413.968 203.447C413.968 203.185 414.181 202.972 414.443 202.972H422.182C422.444 202.972 422.657 203.185 422.657 203.447C422.657 203.709 422.444 203.922 422.182 203.922H414.443C414.181 203.922 413.968 203.709 413.968 203.447ZM429.446 203.447C429.446 203.185 429.659 202.972 429.921 202.972H433.79C434.24 202.972 434.67 203.062 435.063 203.225C435.305 203.325 435.42 203.603 435.319 203.845C435.219 204.087 434.941 204.202 434.699 204.102C434.42 203.986 434.113 203.922 433.79 203.922H429.921C429.659 203.922 429.446 203.709 429.446 203.447ZM436.241 204.767C436.483 204.666 436.761 204.781 436.861 205.023C437.024 205.416 437.114 205.846 437.114 206.296V210.302C437.114 210.564 436.901 210.776 436.639 210.776C436.377 210.776 436.164 210.564 436.164 210.302V206.296C436.164 205.973 436.1 205.666 435.984 205.387C435.884 205.145 435.999 204.867 436.241 204.767ZM121.787 204.767C122.029 204.867 122.144 205.145 122.044 205.387C121.928 205.666 121.864 205.973 121.864 206.296V210.302C121.864 210.564 121.651 210.776 121.389 210.776C121.127 210.776 120.914 210.564 120.914 210.302V206.296C120.914 205.846 121.004 205.416 121.166 205.023C121.267 204.781 121.545 204.666 121.787 204.767ZM121.389 217.839C121.651 217.839 121.864 218.051 121.864 218.313V226.325C121.864 226.587 121.651 226.8 121.389 226.8C121.127 226.8 120.914 226.587 120.914 226.325V218.313C120.914 218.051 121.127 217.839 121.389 217.839ZM436.639 217.839C436.901 217.839 437.114 218.051 437.114 218.313V226.325C437.114 226.587 436.901 226.8 436.639 226.8C436.377 226.8 436.164 226.587 436.164 226.325V218.313C436.164 218.051 436.377 217.839 436.639 217.839ZM436.639 233.862C436.901 233.862 437.114 234.075 437.114 234.337V242.349C437.114 242.611 436.901 242.824 436.639 242.824C436.377 242.824 436.164 242.611 436.164 242.349V234.337C436.164 234.075 436.377 233.862 436.639 233.862ZM121.389 233.862C121.651 233.862 121.864 234.075 121.864 234.337V242.349C121.864 242.611 121.651 242.824 121.389 242.824C121.127 242.824 120.914 242.611 120.914 242.349V234.337C120.914 234.075 121.127 233.862 121.389 233.862ZM436.639 249.886C436.901 249.886 437.114 250.098 437.114 250.361V258.372C437.114 258.635 436.901 258.847 436.639 258.847C436.377 258.847 436.164 258.635 436.164 258.372V250.361C436.164 250.098 436.377 249.886 436.639 249.886ZM121.389 249.886C121.651 249.886 121.864 250.098 121.864 250.361V258.372C121.864 258.635 121.651 258.847 121.389 258.847C121.127 258.847 120.914 258.635 120.914 258.372V250.361C120.914 250.098 121.127 249.886 121.389 249.886ZM436.639 265.909C436.901 265.909 437.114 266.122 437.114 266.384V274.396C437.114 274.658 436.901 274.871 436.639 274.871C436.377 274.871 436.164 274.658 436.164 274.396V266.384C436.164 266.122 436.377 265.909 436.639 265.909ZM121.389 265.909C121.651 265.909 121.864 266.122 121.864 266.384V274.396C121.864 274.658 121.651 274.871 121.389 274.871C121.127 274.871 120.914 274.658 120.914 274.396V266.384C120.914 266.122 121.127 265.909 121.389 265.909ZM436.639 281.933C436.901 281.933 437.114 282.146 437.114 282.408V290.42C437.114 290.682 436.901 290.894 436.639 290.894C436.377 290.894 436.164 290.682 436.164 290.42V282.408C436.164 282.146 436.377 281.933 436.639 281.933ZM121.389 281.933C121.651 281.933 121.864 282.146 121.864 282.408V290.42C121.864 290.682 121.651 290.894 121.389 290.894C121.127 290.894 120.914 290.682 120.914 290.42V282.408C120.914 282.146 121.127 281.933 121.389 281.933ZM436.639 297.957C436.901 297.957 437.114 298.169 437.114 298.431V306.443C437.114 306.706 436.901 306.918 436.639 306.918C436.377 306.918 436.164 306.706 436.164 306.443V298.431C436.164 298.169 436.377 297.957 436.639 297.957ZM121.389 297.957C121.651 297.957 121.864 298.169 121.864 298.431V306.443C121.864 306.706 121.651 306.918 121.389 306.918C121.127 306.918 120.914 306.706 120.914 306.443V298.431C120.914 298.169 121.127 297.957 121.389 297.957ZM121.389 313.98C121.651 313.98 121.864 314.193 121.864 314.455V322.467C121.864 322.729 121.651 322.942 121.389 322.942C121.127 322.942 120.914 322.729 120.914 322.467V314.455C120.914 314.193 121.127 313.98 121.389 313.98ZM436.639 313.98C436.901 313.98 437.114 314.193 437.114 314.455V322.467C437.114 322.729 436.901 322.942 436.639 322.942C436.377 322.942 436.164 322.729 436.164 322.467V314.455C436.164 314.193 436.377 313.98 436.639 313.98ZM121.389 330.004C121.651 330.004 121.864 330.217 121.864 330.479V334.485C121.864 334.807 121.928 335.114 122.044 335.393C122.144 335.635 122.029 335.913 121.787 336.014C121.545 336.114 121.267 335.999 121.166 335.757C121.004 335.364 120.914 334.934 120.914 334.485V330.479C120.914 330.217 121.127 330.004 121.389 330.004ZM436.639 330.004C436.901 330.004 437.114 330.217 437.114 330.479V334.485C437.114 334.934 437.024 335.364 436.861 335.757C436.761 335.999 436.483 336.114 436.241 336.014C435.999 335.913 435.884 335.635 435.984 335.393C436.1 335.114 436.164 334.807 436.164 334.485V330.479C436.164 330.217 436.377 330.004 436.639 330.004ZM122.709 336.935C122.809 336.693 123.087 336.578 123.329 336.679C123.608 336.794 123.915 336.859 124.238 336.859H128.107C128.369 336.859 128.582 337.071 128.582 337.333C128.582 337.596 128.369 337.808 128.107 337.808H124.238C123.788 337.808 123.358 337.718 122.965 337.556C122.723 337.455 122.608 337.177 122.709 336.935ZM435.319 336.935C435.42 337.177 435.305 337.455 435.063 337.556C434.67 337.718 434.24 337.808 433.79 337.808H429.921C429.659 337.808 429.446 337.596 429.446 337.333C429.446 337.071 429.659 336.859 429.921 336.859H433.79C434.113 336.859 434.42 336.794 434.699 336.679C434.941 336.578 435.219 336.693 435.319 336.935ZM135.371 337.333C135.371 337.071 135.584 336.859 135.846 336.859H143.585C143.847 336.859 144.059 337.071 144.059 337.333C144.059 337.596 143.847 337.808 143.585 337.808H135.846C135.584 337.808 135.371 337.596 135.371 337.333ZM150.849 337.333C150.849 337.071 151.061 336.859 151.323 336.859H159.062C159.324 336.859 159.537 337.071 159.537 337.333C159.537 337.596 159.324 337.808 159.062 337.808H151.323C151.061 337.808 150.849 337.596 150.849 337.333ZM166.326 337.333C166.326 337.071 166.539 336.859 166.801 336.859H174.54C174.802 336.859 175.015 337.071 175.015 337.333C175.015 337.596 174.802 337.808 174.54 337.808H166.801C166.539 337.808 166.326 337.596 166.326 337.333ZM181.804 337.333C181.804 337.071 182.017 336.859 182.279 336.859H190.018C190.28 336.859 190.492 337.071 190.492 337.333C190.492 337.596 190.28 337.808 190.018 337.808H182.279C182.017 337.808 181.804 337.596 181.804 337.333ZM197.282 337.333C197.282 337.071 197.494 336.859 197.756 336.859H205.495C205.757 336.859 205.97 337.071 205.97 337.333C205.97 337.596 205.757 337.808 205.495 337.808H197.756C197.494 337.808 197.282 337.596 197.282 337.333ZM212.759 337.333C212.759 337.071 212.972 336.859 213.234 336.859H220.973C221.235 336.859 221.448 337.071 221.448 337.333C221.448 337.596 221.235 337.808 220.973 337.808H213.234C212.972 337.808 212.759 337.596 212.759 337.333ZM228.237 337.333C228.237 337.071 228.449 336.859 228.712 336.859H236.45C236.713 336.859 236.925 337.071 236.925 337.333C236.925 337.596 236.713 337.808 236.45 337.808H228.712C228.449 337.808 228.237 337.596 228.237 337.333ZM243.714 337.333C243.714 337.071 243.927 336.859 244.189 336.859H251.928C252.19 336.859 252.403 337.071 252.403 337.333C252.403 337.596 252.19 337.808 251.928 337.808H244.189C243.927 337.808 243.714 337.596 243.714 337.333ZM259.192 337.333C259.192 337.071 259.405 336.859 259.667 336.859H267.406C267.668 336.859 267.88 337.071 267.88 337.333C267.88 337.596 267.668 337.808 267.406 337.808H259.667C259.405 337.808 259.192 337.596 259.192 337.333ZM274.67 337.333C274.67 337.071 274.882 336.859 275.145 336.859H282.883C283.146 336.859 283.358 337.071 283.358 337.333C283.358 337.596 283.146 337.808 282.883 337.808H275.145C274.882 337.808 274.67 337.596 274.67 337.333ZM290.147 337.333C290.147 337.071 290.36 336.859 290.622 336.859H298.361C298.623 336.859 298.836 337.071 298.836 337.333C298.836 337.596 298.623 337.808 298.361 337.808H290.622C290.36 337.808 290.147 337.596 290.147 337.333ZM305.625 337.333C305.625 337.071 305.838 336.859 306.1 336.859H313.839C314.101 336.859 314.313 337.071 314.313 337.333C314.313 337.596 314.101 337.808 313.839 337.808H306.1C305.838 337.808 305.625 337.596 305.625 337.333ZM321.103 337.333C321.103 337.071 321.315 336.859 321.577 336.859H329.316C329.578 336.859 329.791 337.071 329.791 337.333C329.791 337.596 329.578 337.808 329.316 337.808H321.577C321.315 337.808 321.103 337.596 321.103 337.333ZM336.58 337.333C336.58 337.071 336.793 336.859 337.055 336.859H344.794C345.056 336.859 345.269 337.071 345.269 337.333C345.269 337.596 345.056 337.808 344.794 337.808H337.055C336.793 337.808 336.58 337.596 336.58 337.333ZM352.058 337.333C352.058 337.071 352.27 336.859 352.533 336.859H360.272C360.534 336.859 360.746 337.071 360.746 337.333C360.746 337.596 360.534 337.808 360.272 337.808H352.533C352.27 337.808 352.058 337.596 352.058 337.333ZM367.536 337.333C367.536 337.071 367.748 336.859 368.01 336.859H375.749C376.011 336.859 376.224 337.071 376.224 337.333C376.224 337.596 376.011 337.808 375.749 337.808H368.01C367.748 337.808 367.536 337.596 367.536 337.333ZM383.013 337.333C383.013 337.071 383.226 336.859 383.488 336.859H391.227C391.489 336.859 391.702 337.071 391.702 337.333C391.702 337.596 391.489 337.808 391.227 337.808H383.488C383.226 337.808 383.013 337.596 383.013 337.333ZM398.491 337.333C398.491 337.071 398.703 336.859 398.966 336.859H406.704C406.967 336.859 407.179 337.071 407.179 337.333C407.179 337.596 406.967 337.808 406.704 337.808H398.966C398.703 337.808 398.491 337.596 398.491 337.333ZM413.968 337.333C413.968 337.071 414.181 336.859 414.443 336.859H422.182C422.444 336.859 422.657 337.071 422.657 337.333C422.657 337.596 422.444 337.808 422.182 337.808H414.443C414.181 337.808 413.968 337.596 413.968 337.333Z" fill="#71C9F9"/>
<path d="M226.789 243.328C226.789 240.181 229.34 237.631 232.486 237.631H324.592C327.739 237.631 330.29 240.181 330.29 243.328V243.328C330.29 246.475 327.739 249.025 324.592 249.025H232.486C229.34 249.025 226.789 246.475 226.789 243.328V243.328Z" fill="#A4DFFF"/>
<path d="M126.706 70.4159C129.112 70.4159 130.548 68.8871 130.974 67.2919L129.511 66.8133C129.192 67.8768 128.288 68.8871 126.706 68.8871C125.098 68.8871 123.582 67.7173 123.582 65.5105C123.582 63.224 125.138 62.0941 126.693 62.0941C128.275 62.0941 129.152 63.0113 129.432 64.1546L130.934 63.6494C130.508 62.001 129.086 60.5919 126.693 60.5919C124.247 60.5919 121.947 62.4397 121.947 65.5105C121.947 68.5814 124.167 70.4159 126.706 70.4159Z" fill="#2D3C4A"/>
<path d="M133.872 66.4145C133.899 65.5903 134.364 64.9522 135.215 64.9522C136.185 64.9522 136.544 65.5903 136.544 66.3879V70.2165H138.086V66.122C138.086 64.6996 137.315 63.5564 135.72 63.5564C135.042 63.5564 134.311 63.7956 133.872 64.3673V60.5919H132.33V70.2165H133.872V66.4145Z" fill="#2D3C4A"/>
<path d="M142.809 69.0334C141.865 69.0334 141.001 68.3155 141.001 66.9728C141.001 65.6302 141.865 64.9389 142.809 64.9389C143.766 64.9389 144.616 65.6302 144.616 66.9728C144.616 68.3288 143.766 69.0334 142.809 69.0334ZM142.809 63.5431C140.881 63.5431 139.459 64.9921 139.459 66.9728C139.459 68.9669 140.881 70.4159 142.809 70.4159C144.749 70.4159 146.172 68.9669 146.172 66.9728C146.172 64.9921 144.749 63.5431 142.809 63.5431Z" fill="#2D3C4A"/>
<path d="M150.507 69.0334C149.563 69.0334 148.699 68.3155 148.699 66.9728C148.699 65.6302 149.563 64.9389 150.507 64.9389C151.464 64.9389 152.315 65.6302 152.315 66.9728C152.315 68.3288 151.464 69.0334 150.507 69.0334ZM150.507 63.5431C148.579 63.5431 147.157 64.9921 147.157 66.9728C147.157 68.9669 148.579 70.4159 150.507 70.4159C152.448 70.4159 153.87 68.9669 153.87 66.9728C153.87 64.9921 152.448 63.5431 150.507 63.5431Z" fill="#2D3C4A"/>
<path d="M154.789 68.4617C154.869 69.1929 155.586 70.4159 157.461 70.4159C159.109 70.4159 159.907 69.3258 159.907 68.3421C159.907 67.3849 159.269 66.6405 158.046 66.3746L157.062 66.1752C156.663 66.0955 156.411 65.8429 156.411 65.4972C156.411 65.0984 156.796 64.7528 157.341 64.7528C158.205 64.7528 158.484 65.351 158.538 65.7232L159.84 65.351C159.734 64.7129 159.149 63.5431 157.341 63.5431C155.999 63.5431 154.962 64.5002 154.962 65.6302C154.962 66.5209 155.56 67.2653 156.703 67.5179L157.66 67.7306C158.179 67.8369 158.418 68.1028 158.418 68.4484C158.418 68.8472 158.086 69.1929 157.448 69.1929C156.623 69.1929 156.185 68.6744 156.131 68.0895L154.789 68.4617Z" fill="#2D3C4A"/>
<path d="M162.474 66.2683C162.527 65.577 163.085 64.8326 164.056 64.8326C165.119 64.8326 165.625 65.5105 165.651 66.2683H162.474ZM165.824 67.9566C165.611 68.5947 165.133 69.0865 164.202 69.0865C163.245 69.0865 162.474 68.382 162.434 67.3982H167.167C167.18 67.3716 167.206 67.159 167.206 66.9064C167.206 64.8591 166.037 63.5431 164.043 63.5431C162.407 63.5431 160.892 64.899 160.892 66.9463C160.892 69.1397 162.447 70.4159 164.202 70.4159C165.757 70.4159 166.781 69.4986 167.127 68.3687L165.824 67.9566Z" fill="#2D3C4A"/>
<path d="M173.932 61.7617H172.536V62.7322C172.536 63.3038 172.23 63.7425 171.539 63.7425H171.207V65.1117H172.403V68.3687C172.403 69.5784 173.147 70.2963 174.344 70.2963C174.902 70.2963 175.195 70.1899 175.288 70.15V68.8738C175.221 68.8871 174.969 68.927 174.756 68.927C174.184 68.927 173.932 68.6877 173.932 68.1161V65.1117H175.274V63.7425H173.932V61.7617Z" fill="#2D3C4A"/>
<path d="M177.871 66.2683C177.924 65.577 178.482 64.8326 179.453 64.8326C180.516 64.8326 181.021 65.5105 181.048 66.2683H177.871ZM181.221 67.9566C181.008 68.5947 180.529 69.0865 179.599 69.0865C178.642 69.0865 177.871 68.382 177.831 67.3982H182.563C182.577 67.3716 182.603 67.159 182.603 66.9064C182.603 64.8591 181.433 63.5431 179.439 63.5431C177.804 63.5431 176.289 64.899 176.289 66.9463C176.289 69.1397 177.844 70.4159 179.599 70.4159C181.154 70.4159 182.178 69.4986 182.523 68.3687L181.221 67.9566Z" fill="#2D3C4A"/>
<path d="M185.606 70.2165V66.3746C185.606 65.5504 186.124 64.9389 186.948 64.9389C187.826 64.9389 188.198 65.5238 188.198 66.2683V70.2165H189.713V66.3746C189.713 65.577 190.245 64.9389 191.056 64.9389C191.92 64.9389 192.306 65.5105 192.306 66.2683V70.2165H193.795V66.0157C193.795 64.3008 192.678 63.5564 191.508 63.5564C190.671 63.5564 189.913 63.8488 189.408 64.6996C189.062 63.9419 188.318 63.5564 187.467 63.5564C186.736 63.5564 185.925 63.902 185.552 64.5667V63.7425H184.077V70.2165H185.606Z" fill="#2D3C4A"/>
<path d="M197.212 72.7423V69.4853C197.544 69.9772 198.249 70.376 199.179 70.376C201.04 70.376 202.223 68.9137 202.223 66.9728C202.223 65.0585 201.147 63.5962 199.232 63.5962C198.235 63.5962 197.491 64.0615 197.172 64.6199V63.7425H195.683V72.7423H197.212ZM200.681 66.9728C200.681 68.2092 199.963 69.0068 198.94 69.0068C197.93 69.0068 197.198 68.2092 197.198 66.9728C197.198 65.7631 197.93 64.9655 198.94 64.9655C199.977 64.9655 200.681 65.7631 200.681 66.9728Z" fill="#2D3C4A"/>
<path d="M205.248 70.2165V60.5919H203.706V70.2165H205.248Z" fill="#2D3C4A"/>
<path d="M206.812 68.4617C206.812 69.4853 207.65 70.4159 209.006 70.4159C210.056 70.4159 210.694 69.8842 211 69.3923C211 69.9107 211.053 70.1766 211.066 70.2165H212.502C212.489 70.15 212.422 69.7645 212.422 69.1796V65.9625C212.422 64.673 211.664 63.5431 209.67 63.5431C208.075 63.5431 207.065 64.5401 206.945 65.6568L208.354 65.9758C208.421 65.3244 208.873 64.806 209.684 64.806C210.534 64.806 210.907 65.2447 210.907 65.7897C210.907 66.0157 210.8 66.2018 210.428 66.255L208.766 66.5076C207.663 66.6671 206.812 67.3052 206.812 68.4617ZM209.298 69.2062C208.687 69.2062 208.354 68.8074 208.354 68.3687C208.354 67.8369 208.74 67.5711 209.218 67.4913L210.907 67.2387V67.5312C210.907 68.7941 210.162 69.2062 209.298 69.2062Z" fill="#2D3C4A"/>
<path d="M216.214 61.7617H214.819V62.7322C214.819 63.3038 214.513 63.7425 213.822 63.7425H213.489V65.1117H214.686V68.3687C214.686 69.5784 215.43 70.2963 216.627 70.2963C217.185 70.2963 217.477 70.1899 217.57 70.15V68.8738C217.504 68.8871 217.251 68.927 217.039 68.927C216.467 68.927 216.214 68.6877 216.214 68.1161V65.1117H217.557V63.7425H216.214V61.7617Z" fill="#2D3C4A"/>
<path d="M220.153 66.2683C220.207 65.577 220.765 64.8326 221.735 64.8326C222.799 64.8326 223.304 65.5105 223.331 66.2683H220.153ZM223.503 67.9566C223.291 68.5947 222.812 69.0865 221.882 69.0865C220.924 69.0865 220.153 68.382 220.114 67.3982H224.846C224.859 67.3716 224.886 67.159 224.886 66.9064C224.886 64.8591 223.716 63.5431 221.722 63.5431C220.087 63.5431 218.571 64.899 218.571 66.9463C218.571 69.1397 220.127 70.4159 221.882 70.4159C223.437 70.4159 224.461 69.4986 224.806 68.3687L223.503 67.9566Z" fill="#2D3C4A"/>
<g filter="url(#filter1_d)">
<path d="M121.389 86.6525C121.389 85.0792 122.664 83.8038 124.238 83.8038H433.79C435.364 83.8038 436.639 85.0792 436.639 86.6525V120.836C436.639 122.41 435.364 123.685 433.79 123.685H124.238C122.664 123.685 121.389 122.41 121.389 120.836V86.6525Z" fill="white"/>
</g>
<g filter="url(#filter2_d)">
<path fill-rule="evenodd" clip-rule="evenodd" d="M433.79 84.7534H124.238C123.189 84.7534 122.338 85.6037 122.338 86.6525V120.836C122.338 121.885 123.189 122.735 124.238 122.735H433.79C434.839 122.735 435.689 121.885 435.689 120.836V86.6525C435.689 85.6036 434.839 84.7534 433.79 84.7534ZM124.238 83.8038C122.664 83.8038 121.389 85.0792 121.389 86.6525V120.836C121.389 122.41 122.664 123.685 124.238 123.685H433.79C435.364 123.685 436.639 122.41 436.639 120.836V86.6525C436.639 85.0792 435.364 83.8038 433.79 83.8038H124.238Z" fill="#DEE5EE"/>
</g>
<path fill-rule="evenodd" clip-rule="evenodd" d="M436.639 154.07H121.389V153.121H436.639V154.07Z" fill="#DFE7F0"/>
<path d="M135.632 103.744C135.632 100.073 138.608 97.0975 142.279 97.0975H298.954C302.625 97.0975 305.601 100.073 305.601 103.744V103.744C305.601 107.415 302.625 110.391 298.954 110.391H142.279C138.608 110.391 135.632 107.415 135.632 103.744V103.744Z" fill="#EAEEF4"/>
<path d="M202.636 283.209C202.636 272.196 211.564 263.269 222.577 263.269H334.501C345.514 263.269 354.442 272.196 354.442 283.209V283.209C354.442 294.222 345.514 303.15 334.501 303.15H222.577C211.564 303.15 202.636 294.222 202.636 283.209V283.209Z" fill="#00A3FA"/>
<path fill-rule="evenodd" clip-rule="evenodd" d="M334.501 264.408H222.577C212.193 264.408 203.776 272.826 203.776 283.209C203.776 293.593 212.193 302.01 222.577 302.01H334.501C344.885 302.01 353.302 293.593 353.302 283.209C353.302 272.826 344.885 264.408 334.501 264.408ZM222.577 263.269C211.564 263.269 202.636 272.196 202.636 283.209C202.636 294.222 211.564 303.15 222.577 303.15H334.501C345.514 303.15 354.442 294.222 354.442 283.209C354.442 272.196 345.514 263.269 334.501 263.269H222.577Z" fill="#00A3FA"/>
<path d="M238.846 276.992V287.764H242.614C244.589 287.764 245.941 286.533 245.941 284.832C245.941 283.632 245.227 282.538 243.996 282.234C244.938 281.884 245.607 281.064 245.607 279.909C245.607 278.208 244.406 276.992 242.355 276.992H238.846ZM240.335 281.702V278.299H242.128C243.358 278.299 244.103 278.967 244.103 279.985C244.103 280.988 243.389 281.702 242.188 281.702H240.335ZM240.335 286.457V282.978H242.462C243.768 282.978 244.422 283.708 244.422 284.741C244.422 285.789 243.601 286.457 242.401 286.457H240.335Z" fill="white"/>
<path d="M251.816 280.38C251.74 280.365 251.542 280.335 251.345 280.335C250.6 280.335 249.689 280.608 249.157 281.732V280.456H247.759V287.764H249.187V284.103C249.187 282.492 249.993 281.854 251.193 281.854C251.39 281.854 251.603 281.869 251.816 281.9V280.38Z" fill="white"/>
<path d="M256.393 286.716C255.178 286.716 254.114 285.804 254.114 284.103C254.114 282.416 255.178 281.505 256.393 281.505C257.609 281.505 258.672 282.416 258.672 284.103C258.672 285.804 257.609 286.716 256.393 286.716ZM256.393 280.228C254.206 280.228 252.656 281.884 252.656 284.103C252.656 286.336 254.206 287.992 256.393 287.992C258.581 287.992 260.131 286.336 260.131 284.103C260.131 281.884 258.581 280.228 256.393 280.228Z" fill="white"/>
<path d="M265.927 280.456L264.028 285.956L262.387 280.456H260.822L263.223 287.764H264.727L266.626 282.203L268.57 287.764H270.044L272.414 280.456H270.91L269.3 285.956L267.401 280.456H265.927Z" fill="white"/>
<path d="M273.173 285.865C273.295 286.7 274.146 287.992 276.151 287.992C277.959 287.992 278.825 286.761 278.825 285.728C278.825 284.649 278.126 283.844 276.804 283.556L275.619 283.297C275.057 283.176 274.784 282.857 274.784 282.416C274.784 281.915 275.27 281.444 275.999 281.444C277.154 281.444 277.458 282.279 277.518 282.659L278.779 282.188C278.628 281.535 278.005 280.228 275.999 280.228C274.571 280.228 273.401 281.292 273.401 282.538C273.401 283.571 274.085 284.346 275.224 284.589L276.47 284.862C277.078 284.999 277.412 285.348 277.412 285.804C277.412 286.321 276.972 286.776 276.166 286.776C275.133 286.776 274.556 286.169 274.465 285.409L273.173 285.865Z" fill="white"/>
<path d="M281.579 283.358C281.64 282.416 282.369 281.489 283.569 281.489C284.861 281.489 285.544 282.31 285.575 283.358H281.579ZM285.787 285.257C285.514 286.078 284.921 286.731 283.736 286.731C282.506 286.731 281.564 285.819 281.533 284.513H287.033C287.048 284.422 287.064 284.239 287.064 284.057C287.064 281.778 285.803 280.228 283.554 280.228C281.716 280.228 280.06 281.793 280.06 284.087C280.06 286.564 281.776 287.992 283.736 287.992C285.438 287.992 286.608 286.974 287.018 285.683L285.787 285.257Z" fill="white"/>
<path d="M295.526 276.719C294.204 276.719 293.125 277.6 293.125 279.226V280.456H291.773V281.748H293.125V287.764H294.599V281.748H298.017V287.764H299.43V280.456H294.599V279.286C294.599 278.284 295.252 278.056 295.754 278.056C296.118 278.056 296.301 278.117 296.377 278.147V276.871C296.316 276.825 296.012 276.719 295.526 276.719ZM297.698 277.661C297.698 278.223 298.154 278.679 298.716 278.679C299.294 278.679 299.749 278.223 299.749 277.661C299.749 277.083 299.294 276.628 298.716 276.628C298.154 276.628 297.698 277.083 297.698 277.661Z" fill="white"/>
<path d="M303.282 287.764V276.764H301.854V287.764H303.282Z" fill="white"/>
<path d="M306.638 283.358C306.699 282.416 307.428 281.489 308.628 281.489C309.92 281.489 310.603 282.31 310.634 283.358H306.638ZM310.847 285.257C310.573 286.078 309.981 286.731 308.795 286.731C307.565 286.731 306.623 285.819 306.593 284.513H312.092C312.108 284.422 312.123 284.239 312.123 284.057C312.123 281.778 310.862 280.228 308.613 280.228C306.775 280.228 305.119 281.793 305.119 284.087C305.119 286.564 306.836 287.992 308.795 287.992C310.497 287.992 311.667 286.974 312.077 285.683L310.847 285.257Z" fill="white"/>
<path d="M313.262 285.865C313.384 286.7 314.234 287.992 316.24 287.992C318.048 287.992 318.914 286.761 318.914 285.728C318.914 284.649 318.215 283.844 316.893 283.556L315.708 283.297C315.146 283.176 314.872 282.857 314.872 282.416C314.872 281.915 315.359 281.444 316.088 281.444C317.243 281.444 317.546 282.279 317.607 282.659L318.868 282.188C318.716 281.535 318.093 280.228 316.088 280.228C314.66 280.228 313.49 281.292 313.49 282.538C313.49 283.571 314.174 284.346 315.313 284.589L316.559 284.862C317.167 284.999 317.501 285.348 317.501 285.804C317.501 286.321 317.06 286.776 316.255 286.776C315.222 286.776 314.645 286.169 314.553 285.409L313.262 285.865Z" fill="white"/>
<g filter="url(#filter3_d)">
<path d="M61.4373 78.8522C61.4373 70.2066 68.4459 63.198 77.0915 63.198H480.483C489.128 63.198 496.137 70.2066 496.137 78.8522V318.278C496.137 326.924 489.128 333.932 480.483 333.932H77.0915C68.4459 333.932 61.4373 326.924 61.4373 318.278V78.8522Z" fill="white"/>
</g>
<path d="M61.4373 78.8522C61.4373 70.2066 68.4459 63.198 77.0915 63.198H480.482C489.127 63.198 496.136 70.2066 496.136 78.8522V89.4437H61.4373V78.8522Z" fill="#526172"/>
<path d="M85.441 76.3246C85.441 79.0204 83.2557 81.2057 80.5599 81.2057C77.8642 81.2057 75.6788 79.0204 75.6788 76.3246C75.6788 73.6289 77.8642 71.4435 80.5599 71.4435C83.2557 71.4435 85.441 73.6289 85.441 76.3246Z" fill="#F3FBFF"/>
<path d="M102.517 76.3245C102.517 79.0203 100.332 81.2056 97.6364 81.2056C94.9406 81.2056 92.7553 79.0203 92.7553 76.3245C92.7553 73.6288 94.9406 71.4435 97.6364 71.4435C100.332 71.4435 102.517 73.6288 102.517 76.3245Z" fill="#F3FBFF"/>
<path d="M119.657 76.3245C119.657 79.0203 117.471 81.2056 114.776 81.2056C112.08 81.2056 109.895 79.0203 109.895 76.3245C109.895 73.6288 112.08 71.4435 114.776 71.4435C117.471 71.4435 119.657 73.6288 119.657 76.3245Z" fill="#F3FBFF"/>
<path d="M169.755 146.472C169.755 140.709 174.427 136.036 180.191 136.036H211.748C217.512 136.036 222.184 140.709 222.184 146.472V178.03C222.184 183.794 217.512 188.466 211.748 188.466H180.191C174.427 188.466 169.755 183.794 169.755 178.03V146.472Z" fill="#00A3FA"/>
<path fill-rule="evenodd" clip-rule="evenodd" d="M185.734 149.094C185.455 149.094 185.188 149.205 184.991 149.402C184.794 149.599 184.683 149.866 184.683 150.144V174.362C184.683 174.64 184.794 174.907 184.991 175.104C185.188 175.301 185.455 175.412 185.734 175.412H206.225C206.504 175.412 206.771 175.301 206.968 175.104C207.165 174.907 207.275 174.64 207.275 174.362V157.436C207.275 157.436 207.275 157.436 207.275 157.436C207.275 157.157 207.165 156.89 206.968 156.694L199.676 149.401C199.676 149.401 199.676 149.401 199.676 149.401C199.479 149.205 199.212 149.094 198.934 149.094C198.934 149.094 198.934 149.094 198.934 149.094H185.734ZM183.842 148.253C184.344 147.751 185.024 147.469 185.734 147.469H198.934C199.643 147.469 200.323 147.751 200.825 148.252L208.117 155.545C208.619 156.046 208.9 156.726 208.901 157.435V174.362C208.901 175.071 208.619 175.752 208.117 176.253C207.615 176.755 206.935 177.037 206.225 177.037H185.734C185.024 177.037 184.344 176.755 183.842 176.253C183.34 175.752 183.058 175.071 183.058 174.362V150.144C183.058 149.435 183.34 148.754 183.842 148.253Z" fill="white"/>
<path fill-rule="evenodd" clip-rule="evenodd" d="M198.729 147.469C199.178 147.469 199.541 147.832 199.541 148.281V155.733C199.541 156.011 199.652 156.278 199.849 156.475C200.046 156.672 200.313 156.783 200.592 156.783H208.043C208.492 156.783 208.856 157.147 208.856 157.595C208.856 158.044 208.492 158.408 208.043 158.408H200.592C199.882 158.408 199.202 158.126 198.7 157.624C198.198 157.123 197.916 156.442 197.916 155.733V148.281C197.916 147.832 198.28 147.469 198.729 147.469Z" fill="white"/>
<path fill-rule="evenodd" clip-rule="evenodd" d="M189.286 165.258C189.286 164.809 189.65 164.445 190.098 164.445H201.003C201.452 164.445 201.816 164.809 201.816 165.258C201.816 165.707 201.452 166.07 201.003 166.07H190.098C189.65 166.07 189.286 165.707 189.286 165.258ZM189.286 169.471C189.286 169.023 189.65 168.659 190.098 168.659H197.158C197.607 168.659 197.971 169.023 197.971 169.471C197.971 169.92 197.607 170.284 197.158 170.284H190.098C189.65 170.284 189.286 169.92 189.286 169.471Z" fill="white"/>
<path d="M178.547 203.806C180.624 203.806 181.688 202.429 181.97 201.291L180.624 200.884C180.425 201.573 179.81 202.398 178.547 202.398C177.357 202.398 176.251 201.531 176.251 199.955C176.251 198.275 177.42 197.482 178.526 197.482C179.81 197.482 180.384 198.265 180.561 198.974L181.918 198.547C181.626 197.346 180.571 196.094 178.526 196.094C176.543 196.094 174.759 197.597 174.759 199.955C174.759 202.314 176.481 203.806 178.547 203.806Z" fill="#0B2034"/>
<path d="M185.195 202.544C184.517 202.544 183.891 202.043 183.891 201.083C183.891 200.112 184.517 199.622 185.195 199.622C185.874 199.622 186.5 200.112 186.5 201.083C186.5 202.053 185.874 202.544 185.195 202.544ZM185.195 198.359C183.661 198.359 182.503 199.496 182.503 201.083C182.503 202.658 183.661 203.806 185.195 203.806C186.73 203.806 187.888 202.658 187.888 201.083C187.888 199.496 186.73 198.359 185.195 198.359Z" fill="#0B2034"/>
<path d="M190.372 200.696C190.372 200.102 190.726 199.632 191.332 199.632C192 199.632 192.281 200.081 192.281 200.655V203.65H193.669V200.415C193.669 199.288 193.085 198.38 191.812 198.38C191.259 198.38 190.643 198.62 190.33 199.152V198.515H188.984V203.65H190.372V200.696Z" fill="#0B2034"/>
<path d="M196.79 196.981H195.537V197.701C195.537 198.16 195.287 198.515 194.744 198.515H194.483V199.747H195.412V202.137C195.412 203.128 196.038 203.723 197.04 203.723C197.447 203.723 197.698 203.65 197.823 203.598V202.45C197.75 202.471 197.562 202.491 197.395 202.491C196.998 202.491 196.79 202.345 196.79 201.897V199.747H197.823V198.515H196.79V196.981Z" fill="#0B2034"/>
<path d="M202.061 198.494C201.957 198.484 201.853 198.474 201.738 198.474C201.3 198.474 200.59 198.599 200.277 199.277V198.515H198.931V203.65H200.319V201.302C200.319 200.196 200.934 199.851 201.644 199.851C201.769 199.851 201.905 199.862 202.061 199.893V198.494Z" fill="#0B2034"/>
<path d="M202.755 202.251C202.755 203.055 203.423 203.796 204.519 203.796C205.281 203.796 205.771 203.441 206.032 203.034C206.032 203.232 206.053 203.514 206.084 203.65H207.358C207.326 203.472 207.295 203.107 207.295 202.836V200.31C207.295 199.277 206.69 198.359 205.062 198.359C203.684 198.359 202.943 199.246 202.86 200.049L204.091 200.31C204.133 199.862 204.467 199.475 205.072 199.475C205.656 199.475 205.938 199.778 205.938 200.143C205.938 200.321 205.844 200.467 205.552 200.509L204.289 200.696C203.434 200.822 202.755 201.333 202.755 202.251ZM204.811 202.763C204.362 202.763 204.143 202.471 204.143 202.168C204.143 201.771 204.425 201.573 204.78 201.521L205.938 201.343V201.573C205.938 202.481 205.396 202.763 204.811 202.763Z" fill="#0B2034"/>
<path d="M210.98 199.642C211.669 199.642 211.992 200.081 212.118 200.509L213.36 200.091C213.14 199.225 212.347 198.359 210.949 198.359C209.456 198.359 208.288 199.496 208.288 201.083C208.288 202.658 209.477 203.806 210.991 203.806C212.358 203.806 213.161 202.93 213.391 202.074L212.17 201.667C212.055 202.064 211.7 202.533 210.991 202.533C210.281 202.533 209.676 202.011 209.676 201.083C209.676 200.154 210.27 199.642 210.98 199.642Z" fill="#0B2034"/>
<path d="M216.123 196.981H214.871V197.701C214.871 198.16 214.62 198.515 214.078 198.515H213.817V199.747H214.745V202.137C214.745 203.128 215.372 203.723 216.374 203.723C216.781 203.723 217.031 203.65 217.156 203.598V202.45C217.083 202.471 216.895 202.491 216.728 202.491C216.332 202.491 216.123 202.345 216.123 201.897V199.747H217.156V198.515H216.123V196.981Z" fill="#0B2034"/>
<path d="M257.418 232.288C257.418 226.524 262.091 221.852 267.855 221.852H299.412C305.176 221.852 309.848 226.524 309.848 232.288V263.845C309.848 269.609 305.176 274.282 299.412 274.282H267.855C262.091 274.282 257.418 269.609 257.418 263.845V232.288Z" fill="#E8F7FF"/>
<path d="M344.158 232.288C344.158 226.524 348.83 221.852 354.594 221.852H386.152C391.915 221.852 396.588 226.524 396.588 232.288V263.845C396.588 269.609 391.915 274.282 386.152 274.282H354.594C348.83 274.282 344.158 269.609 344.158 263.845V232.288Z" fill="#E8F7FF"/>
<path fill-rule="evenodd" clip-rule="evenodd" d="M273.401 234.91C273.122 234.91 272.855 235.02 272.658 235.217C272.461 235.414 272.351 235.682 272.351 235.96V260.177C272.351 260.456 272.461 260.723 272.658 260.92C272.855 261.117 273.122 261.228 273.401 261.228H293.892C294.171 261.228 294.438 261.117 294.635 260.92C294.832 260.723 294.943 260.456 294.943 260.177V243.252C294.943 243.252 294.943 243.252 294.943 243.252C294.943 242.973 294.832 242.706 294.635 242.509L287.343 235.217C287.343 235.217 287.343 235.217 287.343 235.217C287.146 235.021 286.879 234.91 286.601 234.91C286.601 234.91 286.601 234.91 286.601 234.91H273.401ZM271.509 234.068C272.011 233.567 272.691 233.285 273.401 233.285H286.601C287.31 233.285 287.99 233.567 288.492 234.068L295.785 241.36C296.286 241.862 296.568 242.542 296.568 243.251V260.177C296.568 260.887 296.286 261.567 295.784 262.069C295.282 262.571 294.602 262.853 293.892 262.853H273.401C272.691 262.853 272.011 262.571 271.509 262.069C271.007 261.567 270.725 260.887 270.725 260.177V235.96C270.725 235.251 271.007 234.57 271.509 234.068Z" fill="#00A3FA"/>
<path fill-rule="evenodd" clip-rule="evenodd" d="M286.458 233.284C286.906 233.284 287.27 233.648 287.27 234.096V241.548C287.27 241.827 287.381 242.094 287.578 242.291C287.775 242.488 288.042 242.598 288.32 242.598H295.772C296.221 242.598 296.584 242.962 296.584 243.411C296.584 243.86 296.221 244.223 295.772 244.223H288.32C287.611 244.223 286.93 243.941 286.429 243.44C285.927 242.938 285.645 242.258 285.645 241.548V234.096C285.645 233.648 286.009 233.284 286.458 233.284Z" fill="#00A3FA"/>
<path fill-rule="evenodd" clip-rule="evenodd" d="M276.953 251.081C276.953 250.632 277.317 250.268 277.765 250.268H288.67C289.119 250.268 289.483 250.632 289.483 251.081C289.483 251.53 289.119 251.893 288.67 251.893H277.765C277.317 251.893 276.953 251.53 276.953 251.081ZM276.953 255.294C276.953 254.846 277.317 254.482 277.765 254.482H284.826C285.274 254.482 285.638 254.846 285.638 255.294C285.638 255.743 285.274 256.107 284.826 256.107H277.765C277.317 256.107 276.953 255.743 276.953 255.294Z" fill="#00A3FA"/>
<path fill-rule="evenodd" clip-rule="evenodd" d="M360.079 234.91C359.8 234.91 359.533 235.02 359.336 235.217C359.139 235.414 359.028 235.682 359.028 235.96V260.177C359.028 260.456 359.139 260.723 359.336 260.92C359.533 261.117 359.8 261.228 360.079 261.228H380.57C380.849 261.228 381.116 261.117 381.313 260.92C381.51 260.723 381.62 260.456 381.62 260.177V243.252C381.62 243.252 381.62 243.252 381.62 243.252C381.62 242.973 381.51 242.706 381.313 242.509L374.021 235.217C374.021 235.217 374.021 235.217 374.021 235.217C373.824 235.021 373.557 234.91 373.279 234.91C373.279 234.91 373.279 234.91 373.279 234.91H360.079ZM358.187 234.068C358.689 233.567 359.369 233.285 360.079 233.285H373.279C373.988 233.285 374.668 233.567 375.17 234.068L382.462 241.36C382.964 241.862 383.245 242.542 383.246 243.251V260.177C383.246 260.887 382.964 261.567 382.462 262.069C381.96 262.571 381.28 262.853 380.57 262.853H360.079C359.369 262.853 358.689 262.571 358.187 262.069C357.685 261.567 357.403 260.887 357.403 260.177V235.96C357.403 235.251 357.685 234.57 358.187 234.068Z" fill="#00A3FA"/>
<path fill-rule="evenodd" clip-rule="evenodd" d="M373.137 233.284C373.585 233.284 373.949 233.648 373.949 234.096V241.548C373.949 241.827 374.06 242.094 374.257 242.291C374.454 242.488 374.721 242.598 374.999 242.598H382.451C382.9 242.598 383.263 242.962 383.263 243.411C383.263 243.86 382.9 244.223 382.451 244.223H374.999C374.29 244.223 373.609 243.941 373.108 243.44C372.606 242.938 372.324 242.258 372.324 241.548V234.096C372.324 233.648 372.688 233.284 373.137 233.284Z" fill="#00A3FA"/>
<path fill-rule="evenodd" clip-rule="evenodd" d="M363.693 251.081C363.693 250.632 364.056 250.268 364.505 250.268H375.41C375.859 250.268 376.222 250.632 376.222 251.081C376.222 251.53 375.859 251.893 375.41 251.893H364.505C364.056 251.893 363.693 251.53 363.693 251.081ZM363.693 255.294C363.693 254.846 364.056 254.482 364.505 254.482H371.565C372.014 254.482 372.378 254.846 372.378 255.294C372.378 255.743 372.014 256.107 371.565 256.107H364.505C364.056 256.107 363.693 255.743 363.693 255.294Z" fill="#00A3FA"/>
<path d="M266.211 289.622C268.287 289.622 269.352 288.244 269.634 287.107L268.287 286.7C268.089 287.389 267.473 288.213 266.211 288.213C265.021 288.213 263.915 287.347 263.915 285.771C263.915 284.091 265.084 283.298 266.19 283.298C267.473 283.298 268.047 284.08 268.225 284.79L269.582 284.362C269.289 283.162 268.235 281.91 266.19 281.91C264.207 281.91 262.422 283.412 262.422 285.771C262.422 288.13 264.144 289.622 266.211 289.622Z" fill="#0B2034"/>
<path d="M272.859 288.359C272.181 288.359 271.555 287.858 271.555 286.898C271.555 285.927 272.181 285.437 272.859 285.437C273.538 285.437 274.164 285.927 274.164 286.898C274.164 287.869 273.538 288.359 272.859 288.359ZM272.859 284.174C271.325 284.174 270.167 285.312 270.167 286.898C270.167 288.474 271.325 289.622 272.859 289.622C274.393 289.622 275.552 288.474 275.552 286.898C275.552 285.312 274.393 284.174 272.859 284.174Z" fill="#0B2034"/>
<path d="M278.035 286.512C278.035 285.917 278.39 285.447 278.996 285.447C279.663 285.447 279.945 285.896 279.945 286.47V289.465H281.333V286.23C281.333 285.103 280.749 284.195 279.476 284.195C278.922 284.195 278.307 284.435 277.994 284.967V284.331H276.647V289.465H278.035V286.512Z" fill="#0B2034"/>
<path d="M284.453 282.797H283.201V283.517C283.201 283.976 282.951 284.331 282.408 284.331H282.147V285.562H283.076V287.952C283.076 288.944 283.702 289.538 284.704 289.538C285.111 289.538 285.361 289.465 285.487 289.413V288.265C285.414 288.286 285.226 288.307 285.059 288.307C284.662 288.307 284.453 288.161 284.453 287.712V285.562H285.487V284.331H284.453V282.797Z" fill="#0B2034"/>
<path d="M289.725 284.31C289.621 284.299 289.516 284.289 289.402 284.289C288.963 284.289 288.254 284.414 287.941 285.093V284.331H286.594V289.465H287.982V287.117C287.982 286.011 288.598 285.667 289.308 285.667C289.433 285.667 289.569 285.677 289.725 285.708V284.31Z" fill="#0B2034"/>
<path d="M290.419 288.067C290.419 288.87 291.087 289.611 292.183 289.611C292.945 289.611 293.435 289.257 293.696 288.85C293.696 289.048 293.717 289.33 293.748 289.465H295.021C294.99 289.288 294.959 288.923 294.959 288.651V286.126C294.959 285.093 294.353 284.174 292.725 284.174C291.348 284.174 290.607 285.061 290.523 285.865L291.755 286.126C291.797 285.677 292.131 285.291 292.736 285.291C293.32 285.291 293.602 285.594 293.602 285.959C293.602 286.136 293.508 286.282 293.216 286.324L291.953 286.512C291.097 286.637 290.419 287.149 290.419 288.067ZM292.475 288.578C292.026 288.578 291.807 288.286 291.807 287.983C291.807 287.587 292.089 287.389 292.444 287.336L293.602 287.159V287.389C293.602 288.297 293.059 288.578 292.475 288.578Z" fill="#0B2034"/>
<path d="M298.644 285.458C299.333 285.458 299.656 285.896 299.781 286.324L301.023 285.907C300.804 285.04 300.011 284.174 298.613 284.174C297.12 284.174 295.951 285.312 295.951 286.898C295.951 288.474 297.141 289.622 298.654 289.622C300.021 289.622 300.825 288.745 301.055 287.889L299.834 287.482C299.719 287.879 299.364 288.349 298.654 288.349C297.945 288.349 297.339 287.827 297.339 286.898C297.339 285.969 297.934 285.458 298.644 285.458Z" fill="#0B2034"/>
<path d="M303.787 282.797H302.535V283.517C302.535 283.976 302.284 284.331 301.741 284.331H301.48V285.562H302.409V287.952C302.409 288.944 303.035 289.538 304.037 289.538C304.444 289.538 304.695 289.465 304.82 289.413V288.265C304.747 288.286 304.559 288.307 304.392 288.307C303.996 288.307 303.787 288.161 303.787 287.712V285.562H304.82V284.331H303.787V282.797Z" fill="#0B2034"/>
<path d="M349.103 289.465H350.668L347.851 282.066H346.181L343.342 289.465H344.866L345.482 287.775H348.487L349.103 289.465ZM346.984 283.663L348.007 286.46H345.962L346.984 283.663Z" fill="#0B2034"/>
<path d="M351.043 289.747C351.189 290.728 352.129 291.605 353.537 291.605C355.468 291.605 356.23 290.321 356.23 288.912V284.331H354.894V284.936C354.717 284.592 354.247 284.237 353.433 284.237C352.024 284.237 351.043 285.385 351.043 286.742C351.043 288.182 352.066 289.236 353.433 289.236C354.174 289.236 354.654 288.912 354.863 288.578V288.954C354.863 289.945 354.372 290.384 353.496 290.384C352.838 290.384 352.389 289.977 352.295 289.413L351.043 289.747ZM353.673 288.046C352.953 288.046 352.442 287.545 352.442 286.742C352.442 285.948 352.984 285.447 353.673 285.447C354.341 285.447 354.884 285.948 354.884 286.742C354.884 287.535 354.383 288.046 353.673 288.046Z" fill="#0B2034"/>
<path d="M360.766 284.31C360.662 284.299 360.558 284.289 360.443 284.289C360.004 284.289 359.295 284.414 358.982 285.093V284.331H357.635V289.465H359.023V287.117C359.023 286.011 359.639 285.667 360.349 285.667C360.474 285.667 360.61 285.677 360.766 285.708V284.31Z" fill="#0B2034"/>
<path d="M362.704 286.314C362.735 285.844 363.132 285.301 363.852 285.301C364.645 285.301 364.979 285.802 365 286.314H362.704ZM365.136 287.649C364.969 288.109 364.614 288.432 363.967 288.432C363.278 288.432 362.704 287.942 362.673 287.263H366.346C366.346 287.242 366.367 287.034 366.367 286.835C366.367 285.187 365.417 284.174 363.831 284.174C362.516 284.174 361.306 285.239 361.306 286.877C361.306 288.61 362.547 289.622 363.956 289.622C365.219 289.622 366.033 288.881 366.294 287.994L365.136 287.649Z" fill="#0B2034"/>
<path d="M368.472 286.314C368.504 285.844 368.9 285.301 369.62 285.301C370.414 285.301 370.748 285.802 370.768 286.314H368.472ZM370.904 287.649C370.737 288.109 370.382 288.432 369.735 288.432C369.046 288.432 368.472 287.942 368.441 287.263H372.115C372.115 287.242 372.136 287.034 372.136 286.835C372.136 285.187 371.186 284.174 369.6 284.174C368.285 284.174 367.074 285.239 367.074 286.877C367.074 288.61 368.316 289.622 369.725 289.622C370.988 289.622 371.802 288.881 372.062 287.994L370.904 287.649Z" fill="#0B2034"/>
<path d="M374.617 289.465V286.46C374.617 285.896 374.971 285.447 375.577 285.447C376.203 285.447 376.485 285.865 376.485 286.418V289.465H377.862V286.46C377.862 285.907 378.217 285.447 378.812 285.447C379.448 285.447 379.72 285.865 379.72 286.418V289.465H381.066V286.136C381.066 284.759 380.158 284.185 379.208 284.185C378.53 284.185 377.987 284.414 377.58 285.04C377.32 284.487 376.756 284.185 376.057 284.185C375.493 284.185 374.836 284.456 374.554 284.957V284.331H373.229V289.465H374.617Z" fill="#0B2034"/>
<path d="M383.485 286.314C383.516 285.844 383.912 285.301 384.633 285.301C385.426 285.301 385.76 285.802 385.781 286.314H383.485ZM385.916 287.649C385.749 288.109 385.394 288.432 384.747 288.432C384.059 288.432 383.485 287.942 383.453 287.263H387.127C387.127 287.242 387.148 287.034 387.148 286.835C387.148 285.187 386.198 284.174 384.612 284.174C383.297 284.174 382.086 285.239 382.086 286.877C382.086 288.61 383.328 289.622 384.737 289.622C386 289.622 386.814 288.881 387.075 287.994L385.916 287.649Z" fill="#0B2034"/>
<path d="M389.629 286.512C389.629 285.917 389.984 285.447 390.589 285.447C391.257 285.447 391.539 285.896 391.539 286.47V289.465H392.927V286.23C392.927 285.103 392.342 284.195 391.069 284.195C390.516 284.195 389.9 284.435 389.587 284.967V284.331H388.241V289.465H389.629V286.512Z" fill="#0B2034"/>
<path d="M396.047 282.797H394.794V283.517C394.794 283.976 394.544 284.331 394.001 284.331H393.74V285.562H394.669V287.952C394.669 288.944 395.295 289.538 396.297 289.538C396.704 289.538 396.955 289.465 397.08 289.413V288.265C397.007 288.286 396.819 288.307 396.652 288.307C396.256 288.307 396.047 288.161 396.047 287.712V285.562H397.08V284.331H396.047V282.797Z" fill="#0B2034"/>
<path d="M431.086 146.472C431.086 140.708 435.758 136.036 441.522 136.036H473.324C479.088 136.036 483.76 140.708 483.76 146.472V178.274C483.76 184.038 479.088 188.711 473.324 188.711H441.522C435.758 188.711 431.086 184.038 431.086 178.274V146.472Z" fill="#E8F7FF"/>
<path fill-rule="evenodd" clip-rule="evenodd" d="M447.137 149.149C446.856 149.149 446.587 149.261 446.389 149.459C446.191 149.657 446.079 149.926 446.079 150.207V174.537C446.079 174.817 446.191 175.086 446.389 175.285C446.587 175.483 446.856 175.594 447.137 175.594H467.724C468.004 175.594 468.273 175.483 468.472 175.285C468.67 175.086 468.781 174.817 468.781 174.537V157.532C468.781 157.532 468.781 157.532 468.781 157.532C468.781 157.252 468.67 156.983 468.472 156.785M468.472 156.785L461.146 149.459C461.146 149.459 461.146 149.459 461.146 149.459C460.948 149.261 460.679 149.149 460.399 149.149C460.399 149.149 460.399 149.149 460.399 149.149H447.137M445.238 148.308C445.741 147.804 446.425 147.521 447.137 147.521H460.399C461.11 147.521 461.793 147.804 462.297 148.307L469.623 155.634C470.126 156.137 470.409 156.82 470.409 157.532V174.537C470.409 175.249 470.127 175.932 469.623 176.436C469.119 176.939 468.436 177.222 467.724 177.222H447.137C446.425 177.222 445.741 176.939 445.238 176.436C444.734 175.932 444.451 175.249 444.451 174.537V150.207C444.451 149.494 444.734 148.811 445.238 148.308Z" fill="#00A3FA"/>
<path fill-rule="evenodd" clip-rule="evenodd" d="M460.247 147.521C460.696 147.521 461.061 147.885 461.061 148.335V155.821C461.061 156.102 461.172 156.371 461.371 156.569C461.569 156.767 461.838 156.879 462.118 156.879H469.605C470.054 156.879 470.419 157.243 470.419 157.693C470.419 158.142 470.054 158.507 469.605 158.507H462.118C461.406 158.507 460.723 158.224 460.219 157.72C459.716 157.217 459.433 156.533 459.433 155.821V148.335C459.433 147.885 459.797 147.521 460.247 147.521Z" fill="#00A3FA"/>
<path fill-rule="evenodd" clip-rule="evenodd" d="M450.74 165.396C450.74 164.947 451.105 164.582 451.554 164.582H462.51C462.96 164.582 463.324 164.947 463.324 165.396C463.324 165.846 462.96 166.21 462.51 166.21H451.554C451.105 166.21 450.74 165.846 450.74 165.396ZM450.74 169.629C450.74 169.18 451.105 168.815 451.554 168.815H458.648C459.097 168.815 459.462 169.18 459.462 169.629C459.462 170.079 459.097 170.443 458.648 170.443H451.554C451.105 170.443 450.74 170.079 450.74 169.629Z" fill="#00A3FA"/>
<path d="M442.185 202.411V195.011H440.724V202.411H442.185Z" fill="#0B2034"/>
<path d="M445.157 199.457C445.157 198.862 445.512 198.393 446.117 198.393C446.785 198.393 447.067 198.841 447.067 199.415V202.411H448.455V199.175C448.455 198.048 447.87 197.14 446.597 197.14C446.044 197.14 445.428 197.38 445.115 197.913V197.276H443.769V202.411H445.157V199.457Z" fill="#0B2034"/>
<path d="M454.614 197.276H453.153L451.932 200.72L450.659 197.276H449.135L451.233 202.411H452.621L454.614 197.276Z" fill="#0B2034"/>
<path d="M457.612 201.304C456.934 201.304 456.307 200.803 456.307 199.843C456.307 198.873 456.934 198.382 457.612 198.382C458.29 198.382 458.916 198.873 458.916 199.843C458.916 200.814 458.29 201.304 457.612 201.304ZM457.612 197.119C456.078 197.119 454.919 198.257 454.919 199.843C454.919 201.419 456.078 202.567 457.612 202.567C459.146 202.567 460.304 201.419 460.304 199.843C460.304 198.257 459.146 197.119 457.612 197.119Z" fill="#0B2034"/>
<path d="M462.788 202.411V197.276H461.4V202.411H462.788ZM461.233 195.596C461.233 196.055 461.619 196.441 462.089 196.441C462.569 196.441 462.945 196.055 462.945 195.596C462.945 195.116 462.569 194.729 462.089 194.729C461.619 194.729 461.233 195.116 461.233 195.596Z" fill="#0B2034"/>
<path d="M466.581 198.403C467.269 198.403 467.593 198.841 467.718 199.269L468.96 198.852C468.741 197.986 467.948 197.119 466.549 197.119C465.057 197.119 463.888 198.257 463.888 199.843C463.888 201.419 465.078 202.567 466.591 202.567C467.958 202.567 468.762 201.69 468.991 200.835L467.77 200.428C467.655 200.824 467.301 201.294 466.591 201.294C465.881 201.294 465.276 200.772 465.276 199.843C465.276 198.914 465.871 198.403 466.581 198.403Z" fill="#0B2034"/>
<path d="M470.973 199.259C471.005 198.789 471.401 198.246 472.121 198.246C472.914 198.246 473.248 198.747 473.269 199.259H470.973ZM473.405 200.595C473.238 201.054 472.883 201.377 472.236 201.377C471.547 201.377 470.973 200.887 470.942 200.208H474.616C474.616 200.188 474.636 199.979 474.636 199.781C474.636 198.132 473.687 197.119 472.1 197.119C470.785 197.119 469.575 198.184 469.575 199.822C469.575 201.555 470.817 202.567 472.226 202.567C473.488 202.567 474.302 201.826 474.563 200.939L473.405 200.595Z" fill="#0B2034"/>
<path d="M344.097 148.56C344.097 141.643 349.704 136.036 356.62 136.036H384.021C390.938 136.036 396.545 141.643 396.545 148.56V175.961C396.545 182.878 390.938 188.485 384.021 188.485H356.62C349.704 188.485 344.097 182.878 344.097 175.961V148.56Z" fill="#E8F7FF"/>
<path fill-rule="evenodd" clip-rule="evenodd" d="M360.079 149.096C359.801 149.096 359.534 149.206 359.337 149.403C359.14 149.6 359.03 149.867 359.03 150.145V174.371C359.03 174.649 359.14 174.916 359.337 175.113C359.534 175.31 359.801 175.42 360.079 175.42H380.578C380.856 175.42 381.123 175.31 381.32 175.113C381.517 174.916 381.627 174.649 381.627 174.371V157.439C381.627 157.439 381.627 157.439 381.627 157.439C381.627 157.161 381.517 156.894 381.32 156.697L374.025 149.403C373.829 149.206 373.562 149.096 373.284 149.096C373.284 149.096 373.284 149.096 373.284 149.096H360.079ZM358.186 148.252C358.688 147.75 359.369 147.467 360.079 147.467H373.284C373.993 147.468 374.674 147.749 375.176 148.251L382.471 155.546C382.973 156.048 383.255 156.729 383.255 157.439V174.371C383.255 175.081 382.973 175.762 382.471 176.264C381.969 176.766 381.288 177.048 380.578 177.048H360.079C359.369 177.048 358.688 176.766 358.186 176.264C357.684 175.762 357.401 175.081 357.401 174.371V150.145C357.401 149.435 357.684 148.754 358.186 148.252Z" fill="#00A3FA"/>
<path fill-rule="evenodd" clip-rule="evenodd" d="M373.136 147.468C373.586 147.468 373.95 147.832 373.95 148.282V155.736C373.95 156.014 374.061 156.281 374.258 156.478C374.455 156.675 374.722 156.785 375 156.785H382.454C382.904 156.785 383.268 157.15 383.268 157.599C383.268 158.049 382.904 158.413 382.454 158.413H375C374.29 158.413 373.609 158.131 373.107 157.629C372.605 157.127 372.322 156.446 372.322 155.736V148.282C372.322 147.832 372.687 147.468 373.136 147.468Z" fill="#00A3FA"/>
<path fill-rule="evenodd" clip-rule="evenodd" d="M363.691 165.266C363.691 164.816 364.055 164.452 364.505 164.452H375.414C375.863 164.452 376.228 164.816 376.228 165.266C376.228 165.715 375.863 166.08 375.414 166.08H364.505C364.055 166.08 363.691 165.715 363.691 165.266ZM363.691 169.481C363.691 169.031 364.055 168.667 364.505 168.667H371.568C372.017 168.667 372.382 169.031 372.382 169.481C372.382 169.93 372.017 170.295 371.568 170.295H364.505C364.055 170.295 363.691 169.93 363.691 169.481Z" fill="#00A3FA"/>
<path d="M366.107 203.33V195.931H364.667V200.825L361.588 195.931H359.793V203.33H361.233V198.081L364.594 203.33H366.107Z" fill="#0B2034"/>
<path d="M369.234 201.994V197.267H370.392C371.603 197.267 372.605 198.029 372.605 199.636C372.605 201.243 371.592 201.994 370.382 201.994H369.234ZM370.434 203.33C372.542 203.33 374.097 201.973 374.097 199.636C374.097 197.298 372.552 195.931 370.444 195.931H367.793V203.33H370.434Z" fill="#0B2034"/>
<path d="M380.009 203.33H381.574L378.756 195.931H377.086L374.248 203.33H375.771L376.387 201.64H379.393L380.009 203.33ZM377.89 197.528L378.913 200.325H376.867L377.89 197.528Z" fill="#0B2034"/>
<path d="M257.112 146.472C257.112 140.709 261.785 136.036 267.548 136.036H298.598C304.361 136.036 309.034 140.709 309.034 146.472V177.522C309.034 183.285 304.361 187.958 298.598 187.958H267.548C261.785 187.958 257.112 183.285 257.112 177.522V146.472Z" fill="#E8F7FF"/>
<path d="M254.733 198.829V196.711H255.871C256.591 196.711 257.029 197.118 257.029 197.775C257.029 198.412 256.591 198.829 255.871 198.829H254.733ZM256.048 200.071C257.509 200.071 258.48 199.111 258.48 197.765C258.48 196.429 257.509 195.458 256.048 195.458H253.282V202.858H254.723V200.071H256.048Z" fill="#0B2034"/>
<path d="M262.516 197.702C262.411 197.692 262.307 197.681 262.192 197.681C261.754 197.681 261.044 197.807 260.731 198.485V197.723H259.385V202.858H260.773V200.51C260.773 199.403 261.388 199.059 262.098 199.059C262.223 199.059 262.359 199.069 262.516 199.101V197.702Z" fill="#0B2034"/>
<path d="M264.453 199.706C264.485 199.236 264.881 198.694 265.601 198.694C266.394 198.694 266.728 199.195 266.749 199.706H264.453ZM266.885 201.042C266.718 201.501 266.363 201.825 265.716 201.825C265.027 201.825 264.453 201.334 264.422 200.656H268.096C268.096 200.635 268.116 200.426 268.116 200.228C268.116 198.579 267.167 197.567 265.58 197.567C264.265 197.567 263.055 198.631 263.055 200.27C263.055 202.002 264.297 203.014 265.706 203.014C266.968 203.014 267.782 202.273 268.043 201.386L266.885 201.042Z" fill="#0B2034"/>
<path d="M268.771 201.428C268.834 202.012 269.366 203.014 270.911 203.014C272.257 203.014 272.904 202.158 272.904 201.324C272.904 200.572 272.392 199.956 271.38 199.748L270.65 199.591C270.368 199.539 270.18 199.382 270.18 199.132C270.18 198.84 270.472 198.621 270.837 198.621C271.422 198.621 271.641 199.007 271.683 199.309L272.841 199.048C272.779 198.495 272.288 197.567 270.827 197.567C269.721 197.567 268.907 198.328 268.907 199.247C268.907 199.967 269.356 200.562 270.347 200.781L271.025 200.937C271.422 201.021 271.578 201.209 271.578 201.438C271.578 201.71 271.359 201.95 270.9 201.95C270.295 201.95 269.992 201.574 269.961 201.167L268.771 201.428Z" fill="#0B2034"/>
<path d="M275.012 199.706C275.043 199.236 275.44 198.694 276.16 198.694C276.953 198.694 277.287 199.195 277.308 199.706H275.012ZM277.443 201.042C277.276 201.501 276.922 201.825 276.275 201.825C275.586 201.825 275.012 201.334 274.98 200.656H278.654C278.654 200.635 278.675 200.426 278.675 200.228C278.675 198.579 277.725 197.567 276.139 197.567C274.824 197.567 273.613 198.631 273.613 200.27C273.613 202.002 274.855 203.014 276.264 203.014C277.527 203.014 278.341 202.273 278.602 201.386L277.443 201.042Z" fill="#0B2034"/>
<path d="M281.156 199.904C281.156 199.309 281.511 198.84 282.116 198.84C282.784 198.84 283.066 199.289 283.066 199.863V202.858H284.454V199.622C284.454 198.495 283.869 197.587 282.596 197.587C282.043 197.587 281.427 197.827 281.114 198.36V197.723H279.768V202.858H281.156V199.904Z" fill="#0B2034"/>
<path d="M287.574 196.189H286.322V196.909C286.322 197.368 286.071 197.723 285.528 197.723H285.268V198.955H286.196V201.344C286.196 202.336 286.823 202.931 287.824 202.931C288.231 202.931 288.482 202.858 288.607 202.805V201.658C288.534 201.678 288.346 201.699 288.179 201.699C287.783 201.699 287.574 201.553 287.574 201.104V198.955H288.607V197.723H287.574V196.189Z" fill="#0B2034"/>
<path d="M289.504 201.459C289.504 202.263 290.172 203.004 291.267 203.004C292.029 203.004 292.52 202.649 292.781 202.242C292.781 202.44 292.801 202.722 292.833 202.858H294.106C294.075 202.68 294.043 202.315 294.043 202.044V199.518C294.043 198.485 293.438 197.567 291.81 197.567C290.432 197.567 289.692 198.454 289.608 199.257L290.839 199.518C290.881 199.069 291.215 198.683 291.82 198.683C292.405 198.683 292.687 198.986 292.687 199.351C292.687 199.529 292.593 199.675 292.301 199.716L291.038 199.904C290.182 200.029 289.504 200.541 289.504 201.459ZM291.56 201.971C291.111 201.971 290.892 201.678 290.892 201.376C290.892 200.979 291.173 200.781 291.528 200.729L292.687 200.551V200.781C292.687 201.689 292.144 201.971 291.56 201.971Z" fill="#0B2034"/>
<path d="M297.123 196.189H295.871V196.909C295.871 197.368 295.621 197.723 295.078 197.723H294.817V198.955H295.746V201.344C295.746 202.336 296.372 202.931 297.374 202.931C297.781 202.931 298.031 202.858 298.157 202.805V201.658C298.084 201.678 297.896 201.699 297.729 201.699C297.332 201.699 297.123 201.553 297.123 201.104V198.955H298.157V197.723H297.123V196.189Z" fill="#0B2034"/>
<path d="M300.724 202.858V197.723H299.336V202.858H300.724ZM299.169 196.043C299.169 196.502 299.555 196.888 300.024 196.888C300.505 196.888 300.88 196.502 300.88 196.043C300.88 195.563 300.505 195.177 300.024 195.177C299.555 195.177 299.169 195.563 299.169 196.043Z" fill="#0B2034"/>
<path d="M304.516 201.751C303.838 201.751 303.212 201.251 303.212 200.29C303.212 199.32 303.838 198.829 304.516 198.829C305.194 198.829 305.821 199.32 305.821 200.29C305.821 201.261 305.194 201.751 304.516 201.751ZM304.516 197.567C302.982 197.567 301.824 198.704 301.824 200.29C301.824 201.866 302.982 203.014 304.516 203.014C306.05 203.014 307.209 201.866 307.209 200.29C307.209 198.704 306.05 197.567 304.516 197.567Z" fill="#0B2034"/>
<path d="M309.692 199.904C309.692 199.309 310.047 198.84 310.652 198.84C311.32 198.84 311.602 199.289 311.602 199.863V202.858H312.99V199.622C312.99 198.495 312.406 197.587 311.132 197.587C310.579 197.587 309.964 197.827 309.65 198.36V197.723H308.304V202.858H309.692V199.904Z" fill="#0B2034"/>
<path fill-rule="evenodd" clip-rule="evenodd" d="M272.888 148.972C272.614 148.972 272.352 149.081 272.159 149.274C271.966 149.468 271.857 149.73 271.857 150.003V173.986C271.857 174.259 271.966 174.521 272.159 174.714C272.352 174.908 272.614 175.016 272.888 175.016H293.181C293.454 175.016 293.716 174.908 293.91 174.714C294.103 174.521 294.211 174.259 294.211 173.986V157.224C294.211 157.224 294.211 157.224 294.211 157.224C294.211 156.951 294.103 156.689 293.91 156.495L286.688 149.274C286.495 149.081 286.233 148.972 285.96 148.972C285.96 148.972 285.96 148.972 285.96 148.972H272.888ZM271.008 148.123C271.506 147.624 272.183 147.344 272.888 147.344H285.96C286.665 147.344 287.341 147.624 287.839 148.122L295.061 155.344C295.559 155.843 295.839 156.519 295.84 157.223V173.986C295.84 174.691 295.559 175.367 295.061 175.866C294.562 176.364 293.886 176.644 293.181 176.644H272.888C272.183 176.644 271.506 176.364 271.008 175.866C270.509 175.367 270.229 174.691 270.229 173.986V150.003C270.229 149.298 270.509 148.622 271.008 148.123Z" fill="#00A3FA"/>
<path fill-rule="evenodd" clip-rule="evenodd" d="M285.838 147.344C286.288 147.344 286.652 147.708 286.652 148.158V155.537C286.652 155.811 286.761 156.073 286.954 156.266C287.147 156.459 287.41 156.568 287.683 156.568H295.062C295.512 156.568 295.876 156.932 295.876 157.382C295.876 157.832 295.512 158.196 295.062 158.196H287.683C286.978 158.196 286.302 157.916 285.803 157.417C285.304 156.919 285.024 156.242 285.024 155.537V148.158C285.024 147.708 285.389 147.344 285.838 147.344Z" fill="#00A3FA"/>
<path d="M279.622 160.748C279.872 160.606 280.154 160.533 280.441 160.537C280.728 160.54 281.009 160.62 281.255 160.767L286.95 164.183C287.189 164.327 287.388 164.532 287.526 164.775C287.664 165.018 287.736 165.293 287.736 165.573C287.736 165.853 287.664 166.128 287.526 166.371C287.388 166.614 287.19 166.818 286.95 166.962L281.253 170.38C281.007 170.528 280.726 170.608 280.439 170.611C280.153 170.614 279.87 170.542 279.62 170.4C279.371 170.259 279.163 170.054 279.019 169.806C278.875 169.558 278.799 169.276 278.799 168.99L278.801 162.158C278.801 161.872 278.877 161.59 279.021 161.342C279.165 161.094 279.373 160.889 279.622 160.748Z" fill="#00A3FA"/>
<path d="M169.755 232.295C169.755 226.532 174.427 221.859 180.191 221.859H211.749C217.512 221.859 222.185 226.532 222.185 232.295V263.853C222.185 269.617 217.512 274.289 211.749 274.289H180.191C174.427 274.289 169.755 269.617 169.755 263.853V232.295Z" fill="#E8F7FF"/>
<path fill-rule="evenodd" clip-rule="evenodd" d="M185.734 234.91C185.455 234.91 185.188 235.021 184.991 235.218C184.794 235.415 184.684 235.682 184.684 235.96V260.177C184.684 260.456 184.794 260.723 184.991 260.92C185.188 261.117 185.455 261.228 185.734 261.228H206.226C206.504 261.228 206.771 261.117 206.968 260.92C207.165 260.723 207.276 260.456 207.276 260.177V243.252C207.276 243.252 207.276 243.252 207.276 243.252C207.276 242.973 207.165 242.706 206.968 242.509L199.676 235.217C199.676 235.217 199.676 235.217 199.676 235.217C199.479 235.021 199.212 234.91 198.934 234.91C198.934 234.91 198.934 234.91 198.934 234.91H185.734ZM183.842 234.068C184.344 233.567 185.024 233.285 185.734 233.285H198.934C199.643 233.285 200.324 233.567 200.825 234.068L208.118 241.361C208.619 241.862 208.901 242.542 208.901 243.251V260.177C208.901 260.887 208.619 261.568 208.117 262.069C207.616 262.571 206.935 262.853 206.226 262.853H185.734C185.024 262.853 184.344 262.571 183.842 262.069C183.34 261.568 183.059 260.887 183.059 260.177V235.96C183.059 235.251 183.34 234.57 183.842 234.068Z" fill="#00A3FA"/>
<path fill-rule="evenodd" clip-rule="evenodd" d="M198.729 233.284C199.178 233.284 199.542 233.648 199.542 234.097V241.548C199.542 241.827 199.652 242.094 199.849 242.291C200.046 242.488 200.313 242.598 200.592 242.598H208.043C208.492 242.598 208.856 242.962 208.856 243.411C208.856 243.86 208.492 244.223 208.043 244.223H200.592C199.882 244.223 199.202 243.942 198.7 243.44C198.198 242.938 197.917 242.258 197.917 241.548V234.097C197.917 233.648 198.28 233.284 198.729 233.284Z" fill="#00A3FA"/>
<path d="M185.784 288.137V283.41H186.943C188.153 283.41 189.155 284.171 189.155 285.779C189.155 287.386 188.143 288.137 186.932 288.137H185.784ZM186.984 289.473C189.093 289.473 190.648 288.116 190.648 285.779C190.648 283.441 189.103 282.074 186.995 282.074H184.344V289.473H186.984Z" fill="#0B2034"/>
<path d="M192.835 286.321C192.866 285.852 193.262 285.309 193.983 285.309C194.776 285.309 195.11 285.81 195.131 286.321H192.835ZM195.266 287.657C195.099 288.116 194.744 288.44 194.097 288.44C193.409 288.44 192.835 287.949 192.803 287.271H196.477C196.477 287.25 196.498 287.041 196.498 286.843C196.498 285.194 195.548 284.182 193.962 284.182C192.647 284.182 191.436 285.246 191.436 286.885C191.436 288.617 192.678 289.629 194.087 289.629C195.35 289.629 196.164 288.889 196.425 288.001L195.266 287.657Z" fill="#0B2034"/>
<path d="M199.897 285.465C200.586 285.465 200.909 285.904 201.035 286.332L202.277 285.914C202.057 285.048 201.264 284.182 199.866 284.182C198.373 284.182 197.205 285.319 197.205 286.906C197.205 288.482 198.394 289.629 199.908 289.629C201.275 289.629 202.078 288.753 202.308 287.897L201.087 287.49C200.972 287.887 200.617 288.356 199.908 288.356C199.198 288.356 198.593 287.834 198.593 286.906C198.593 285.977 199.187 285.465 199.897 285.465Z" fill="#0B2034"/>
<path d="M208.307 284.338H206.491L204.717 286.248V281.917H203.329V289.473H204.717V288.116L205.291 287.511L206.647 289.473H208.348L206.251 286.499L208.307 284.338Z" fill="#0B2034"/>
<path d="M192.327 247.179C192.576 247.038 192.859 246.965 193.146 246.968C193.433 246.972 193.713 247.051 193.959 247.199L199.654 250.615C199.894 250.759 200.093 250.963 200.23 251.207C200.368 251.45 200.441 251.725 200.441 252.005C200.441 252.284 200.368 252.559 200.23 252.803C200.093 253.046 199.895 253.25 199.655 253.394L193.958 256.812C193.712 256.959 193.431 257.039 193.144 257.043C192.857 257.046 192.575 256.973 192.325 256.832C192.075 256.691 191.868 256.485 191.724 256.238C191.579 255.99 191.503 255.708 191.503 255.421L191.505 248.59C191.505 248.303 191.581 248.021 191.725 247.774C191.87 247.526 192.077 247.321 192.327 247.179Z" fill="#00A3FA"/>
<path opacity="0.5" d="M61.4374 89.445H156.668V334.2H77.0916C68.446 334.2 61.4374 327.192 61.4374 318.546V89.445Z" fill="#DFE7F0"/>
<path opacity="0.5" d="M223.328 112.741C223.328 106.931 228.037 102.221 233.847 102.221H344.756C350.565 102.221 355.275 106.931 355.275 112.741V112.741C355.275 118.55 350.565 123.26 344.756 123.26H233.847C228.037 123.26 223.328 118.55 223.328 112.741V112.741Z" fill="#DFE7F0"/>
<path fill-rule="evenodd" clip-rule="evenodd" d="M237.149 109.301C235.493 109.301 234.159 110.634 234.159 112.268C234.159 113.902 235.493 115.235 237.149 115.235C238.805 115.235 240.14 113.902 240.14 112.268C240.14 110.634 238.805 109.301 237.149 109.301ZM232.594 112.268C232.594 109.76 234.638 107.735 237.149 107.735C239.661 107.735 241.705 109.76 241.705 112.268C241.705 114.776 239.661 116.8 237.149 116.8C234.638 116.8 232.594 114.776 232.594 112.268Z" fill="#919FAF"/>
<path d="M239.85 114.922L241.898 116.958Z" fill="#DFE7F0"/>
<path fill-rule="evenodd" clip-rule="evenodd" d="M239.295 114.37C239.599 114.064 240.095 114.062 240.401 114.367L242.45 116.403C242.756 116.707 242.758 117.203 242.453 117.509C242.148 117.816 241.653 117.818 241.346 117.513L239.298 115.477C238.991 115.172 238.99 114.677 239.295 114.37Z" fill="#919FAF"/>
<path d="M87.6828 122.889C87.6828 125.523 85.5474 127.659 82.9132 127.659C80.2791 127.659 78.1437 125.523 78.1437 122.889C78.1437 120.255 80.2791 118.119 82.9132 118.119C85.5474 118.119 87.6828 120.255 87.6828 122.889Z" fill="#919FAF"/>
<path d="M87.7457 104.926C87.7457 107.56 85.6103 109.696 82.9762 109.696C80.342 109.696 78.2066 107.56 78.2066 104.926C78.2066 102.292 80.342 100.157 82.9762 100.157C85.6103 100.157 87.7457 102.292 87.7457 104.926Z" fill="#919FAF"/>
<path d="M87.6828 140.836C87.6828 143.471 85.5474 145.606 82.9132 145.606C80.2791 145.606 78.1437 143.471 78.1437 140.836C78.1437 138.202 80.2791 136.067 82.9132 136.067C85.5474 136.067 87.6828 138.202 87.6828 140.836Z" fill="#919FAF"/>
<path d="M87.6828 158.823C87.6828 161.457 85.5474 163.592 82.9132 163.592C80.2791 163.592 78.1437 161.457 78.1437 158.823C78.1437 156.189 80.2791 154.053 82.9132 154.053C85.5474 154.053 87.6828 156.189 87.6828 158.823Z" fill="#919FAF"/>
<path d="M87.6828 177.102C87.6828 179.736 85.5474 181.871 82.9132 181.871C80.2791 181.871 78.1437 179.736 78.1437 177.102C78.1437 174.468 80.2791 172.332 82.9132 172.332C85.5474 172.332 87.6828 174.468 87.6828 177.102Z" fill="#919FAF"/>
<path d="M87.6828 194.964C87.6828 197.598 85.5474 199.734 82.9132 199.734C80.2791 199.734 78.1437 197.598 78.1437 194.964C78.1437 192.33 80.2791 190.195 82.9132 190.195C85.5474 190.195 87.6828 192.33 87.6828 194.964Z" fill="#919FAF"/>
<path d="M94.2348 122.893C94.2348 121.372 95.468 120.139 96.9892 120.139H128.451C129.973 120.139 131.206 121.372 131.206 122.893V122.893C131.206 124.414 129.973 125.647 128.451 125.647H96.9892C95.468 125.647 94.2348 124.414 94.2348 122.893V122.893Z" fill="#919FAF"/>
<path d="M94.2348 104.922C94.2348 103.401 95.468 102.168 96.9892 102.168H128.451C129.973 102.168 131.206 103.401 131.206 104.922V104.922C131.206 106.444 129.973 107.677 128.451 107.677H96.9892C95.468 107.677 94.2348 106.444 94.2348 104.922V104.922Z" fill="#919FAF"/>
<path d="M94.2348 140.84C94.2348 139.319 95.468 138.086 96.9892 138.086H117.948C119.469 138.086 120.702 139.319 120.702 140.84V140.84C120.702 142.362 119.469 143.595 117.948 143.595H96.9892C95.468 143.595 94.2348 142.362 94.2348 140.84V140.84Z" fill="#919FAF"/>
<path d="M94.2348 158.819C94.2348 157.298 95.468 156.064 96.9892 156.064H137.228C138.749 156.064 139.983 157.298 139.983 158.819V158.819C139.983 160.34 138.749 161.573 137.228 161.573H96.9892C95.468 161.573 94.2348 160.34 94.2348 158.819V158.819Z" fill="#919FAF"/>
<path d="M94.2348 176.905C94.2348 175.384 95.468 174.151 96.9892 174.151H114.783C116.304 174.151 117.537 175.384 117.537 176.905V176.905C117.537 178.426 116.304 179.66 114.783 179.66H96.9892C95.468 179.66 94.2348 178.426 94.2348 176.905V176.905Z" fill="#919FAF"/>
<path d="M94.2348 194.968C94.2348 193.447 95.468 192.214 96.9892 192.214H129.89C131.411 192.214 132.644 193.447 132.644 194.968V194.968C132.644 196.49 131.411 197.723 129.89 197.723H96.9892C95.468 197.723 94.2348 196.49 94.2348 194.968V194.968Z" fill="#919FAF"/>
<path opacity="0.5" d="M169.755 112.741C169.755 106.931 174.465 102.221 180.274 102.221H202.474C208.283 102.221 212.993 106.931 212.993 112.741V112.741C212.993 118.55 208.283 123.26 202.474 123.26H180.274C174.465 123.26 169.755 118.55 169.755 112.741V112.741Z" fill="#DFE7F0"/>
<path fill-rule="evenodd" clip-rule="evenodd" d="M195.826 111.285L196.702 110.39L200.147 113.764L203.591 110.39L204.467 111.285L200.147 115.517L195.826 111.285Z" fill="#919FAF"/>
<path d="M183.642 116.762C185.862 116.762 187.663 114.961 187.663 112.74C187.663 110.519 185.862 108.718 183.642 108.718C181.421 108.718 179.62 110.519 179.62 112.74C179.62 114.961 181.421 116.762 183.642 116.762ZM183.642 110.327C184.974 110.327 186.055 111.407 186.055 112.74C186.055 114.073 184.974 115.153 183.642 115.153C182.309 115.153 181.229 114.073 181.229 112.74C181.229 111.407 182.309 110.327 183.642 110.327Z" fill="#919FAF"/>
<path d="M182.506 116.364H184.749L184.583 117.792C184.571 117.895 184.484 117.972 184.38 117.972H182.875C182.771 117.972 182.684 117.895 182.672 117.792L182.506 116.364ZM184.749 109.125H182.506L182.672 107.696C182.684 107.593 182.771 107.516 182.875 107.516H184.38C184.484 107.516 184.571 107.593 184.583 107.696L184.749 109.125ZM187.323 111.905L186.201 109.964L187.521 109.393C187.616 109.352 187.727 109.389 187.779 109.479L188.531 110.782C188.583 110.873 188.56 110.987 188.477 111.048L187.323 111.905ZM179.932 113.583L181.054 115.525L179.734 116.095C179.639 116.136 179.528 116.1 179.476 116.01L178.723 114.706C178.672 114.616 178.695 114.502 178.778 114.441L179.932 113.583ZM181.054 109.964L179.932 111.906L178.778 111.049C178.695 110.987 178.671 110.873 178.723 110.783L179.476 109.479C179.528 109.389 179.639 109.353 179.734 109.394L181.054 109.964ZM186.201 115.525L187.323 113.582L188.477 114.44C188.56 114.502 188.584 114.616 188.531 114.705L187.779 116.009C187.727 116.099 187.616 116.135 187.521 116.094L186.201 115.525Z" fill="#919FAF"/>
</g>
<defs>
<filter id="filter0_d" x="72.0124" y="11.6381" width="414.003" height="385.517" filterUnits="userSpaceOnUse" color-interpolation-filters="sRGB">
<feFlood flood-opacity="0" result="BackgroundImageFix"/>
<feColorMatrix in="SourceAlpha" type="matrix" values="0 0 0 0 0 0 0 0 0 0 0 0 0 0 0 0 0 0 127 0"/>
<feOffset dy="5.69729"/>
<feGaussianBlur stdDeviation="11.3946"/>
<feColorMatrix type="matrix" values="0 0 0 0 0 0 0 0 0 0.353448 0 0 0 0 0.683333 0 0 0 0.13 0"/>
<feBlend mode="normal" in2="BackgroundImageFix" result="effect1_dropShadow"/>
<feBlend mode="normal" in="SourceGraphic" in2="effect1_dropShadow" result="shape"/>
</filter>
<filter id="filter1_d" x="117.591" y="81.9048" width="322.846" height="47.4774" filterUnits="userSpaceOnUse" color-interpolation-filters="sRGB">
<feFlood flood-opacity="0" result="BackgroundImageFix"/>
<feColorMatrix in="SourceAlpha" type="matrix" values="0 0 0 0 0 0 0 0 0 0 0 0 0 0 0 0 0 0 127 0"/>
<feOffset dy="1.8991"/>
<feGaussianBlur stdDeviation="1.8991"/>
<feColorMatrix type="matrix" values="0 0 0 0 0.0538889 0 0 0 0 0.3104 0 0 0 0 0.808333 0 0 0 0.1 0"/>
<feBlend mode="normal" in2="BackgroundImageFix" result="effect1_dropShadow"/>
<feBlend mode="normal" in="SourceGraphic" in2="effect1_dropShadow" result="shape"/>
</filter>
<filter id="filter2_d" x="117.591" y="81.9048" width="322.846" height="47.4774" filterUnits="userSpaceOnUse" color-interpolation-filters="sRGB">
<feFlood flood-opacity="0" result="BackgroundImageFix"/>
<feColorMatrix in="SourceAlpha" type="matrix" values="0 0 0 0 0 0 0 0 0 0 0 0 0 0 0 0 0 0 127 0"/>
<feOffset dy="1.8991"/>
<feGaussianBlur stdDeviation="1.8991"/>
<feColorMatrix type="matrix" values="0 0 0 0 0.0538889 0 0 0 0 0.3104 0 0 0 0 0.808333 0 0 0 0.1 0"/>
<feBlend mode="normal" in2="BackgroundImageFix" result="effect1_dropShadow"/>
<feBlend mode="normal" in="SourceGraphic" in2="effect1_dropShadow" result="shape"/>
</filter>
<filter id="filter3_d" x="36.3905" y="38.1512" width="484.793" height="320.828" filterUnits="userSpaceOnUse" color-interpolation-filters="sRGB">
<feFlood flood-opacity="0" result="BackgroundImageFix"/>
<feColorMatrix in="SourceAlpha" type="matrix" values="0 0 0 0 0 0 0 0 0 0 0 0 0 0 0 0 0 0 127 0"/>
<feOffset/>
<feGaussianBlur stdDeviation="12.5234"/>
<feColorMatrix type="matrix" values="0 0 0 0 0 0 0 0 0 0.353448 0 0 0 0 0.683333 0 0 0 0.13 0"/>
<feBlend mode="normal" in2="BackgroundImageFix" result="effect1_dropShadow"/>
<feBlend mode="normal" in="SourceGraphic" in2="effect1_dropShadow" result="shape"/>
</filter>
<clipPath id="clip0">
<rect width="556" height="397" fill="white" transform="translate(0.787109 0.199219)"/>
</clipPath>
</defs>
</svg>
