<svg width="556" height="397" viewBox="0 0 556 397" fill="none" xmlns="http://www.w3.org/2000/svg">
<g clipPath="url(#clip0)">
<rect width="556" height="397" fill="white"/>
<rect x="-0.174805" y="0.263428" width="556" height="397" fill="#B4E5FF"/>
<mask id="mask0" mask-type="alpha" maskUnits="userSpaceOnUse" x="-1" y="0" width="557" height="398">
<rect x="-0.174835" y="0.263428" width="556" height="397" fill="#B4E5FF"/>
</mask>
<g mask="url(#mask0)">
<g filter="url(#filter0_d)">
<path d="M45.8252 124.263C45.8252 115.979 52.5409 109.263 60.8252 109.263H494.825C503.109 109.263 509.825 115.979 509.825 124.263V397.263H45.8252V124.263Z" fill="white"/>
</g>
<circle cx="69.8252" cy="157.263" r="5" fill="#5BC6FF"/>
<rect x="78.8252" y="154.263" width="52" height="6" rx="3" fill="#B4E5FF"/>
<circle cx="69.8252" cy="175.263" r="5" fill="#DAE2EF"/>
<rect x="78.8252" y="172.263" width="30" height="6" rx="3" fill="#EAEEF4"/>
<circle cx="69.8252" cy="195.263" r="5" fill="#DAE2EF"/>
<rect x="78.8252" y="192.263" width="52" height="6" rx="3" fill="#EAEEF4"/>
<circle cx="69.8252" cy="215.263" r="5" fill="#DAE2EF"/>
<rect x="78.8252" y="212.263" width="44" height="6" rx="3" fill="#EAEEF4"/>
<circle cx="168.825" cy="159.263" r="9" fill="#C3D0E4"/>
<rect x="185.825" y="153.263" width="62" height="12" rx="6" fill="#DAE3EF"/>
<rect x="260.825" y="153.263" width="203" height="12" rx="6" fill="#EAEEF4"/>
<circle cx="168.825" cy="295.263" r="9" fill="#C3D0E4"/>
<rect x="185.825" y="289.263" width="62" height="12" rx="6" fill="#DAE3EF"/>
<rect x="260.825" y="289.263" width="203" height="12" rx="6" fill="#EAEEF4"/>
<circle cx="168.825" cy="193.263" r="9" fill="#C3D0E4"/>
<rect x="185.825" y="187.263" width="85" height="12" rx="6" fill="#DAE3EF"/>
<rect x="280.825" y="187.263" width="165" height="12" rx="6" fill="#EAEEF4"/>
<circle cx="168.825" cy="329.263" r="9" fill="#C3D0E4"/>
<rect x="185.825" y="323.263" width="85" height="12" rx="6" fill="#DAE3EF"/>
<rect x="280.825" y="323.263" width="132" height="12" rx="6" fill="#EAEEF4"/>
<circle cx="168.825" cy="397.263" r="9" fill="#C3D0E4"/>
<rect x="185.825" y="391.263" width="85" height="12" rx="6" fill="#DAE3EF"/>
<rect x="280.825" y="391.263" width="168" height="12" rx="6" fill="#EAEEF4"/>
<circle cx="168.825" cy="227.263" r="9" fill="#C3D0E4"/>
<rect x="185.825" y="221.263" width="44" height="12" rx="6" fill="#DAE3EF"/>
<rect x="242.825" y="221.263" width="221" height="12" rx="6" fill="#EAEEF4"/>
<circle cx="168.825" cy="363.263" r="9" fill="#C3D0E4"/>
<rect x="185.825" y="357.263" width="44" height="12" rx="6" fill="#DAE3EF"/>
<rect x="242.825" y="357.263" width="221" height="12" rx="6" fill="#EAEEF4"/>
<circle cx="168.825" cy="261.263" r="9" fill="#C3D0E4"/>
<rect x="185.825" y="255.263" width="71" height="12" rx="6" fill="#DAE3EF"/>
<rect x="268.825" y="255.263" width="174" height="12" rx="6" fill="#EAEEF4"/>
<line x1="148.325" y1="299.763" x2="407.325" y2="299.763" stroke="#DFE7F0" stroke-linecap="round" stroke-linejoin="round"/>
<g filter="url(#filter1_d)">
<path d="M129.825 45.2634C129.825 41.3974 132.959 38.2634 136.825 38.2634H418.825C422.691 38.2634 425.825 41.3974 425.825 45.2634V397.263H129.825V45.2634Z" fill="white"/>
</g>
<rect x="148.825" y="324.263" width="203" height="14" rx="7" fill="#D6DFEC"/>
<rect x="148.825" y="352.263" width="257" height="10" rx="5" fill="#ECF0F5"/>
<rect x="148.825" y="372.263" width="137" height="10" rx="5" fill="#ECF0F5"/>
<rect x="148.825" y="392.263" width="226" height="10" rx="5" fill="#ECF0F5"/>
<line x1="148.325" y1="101.763" x2="407.325" y2="101.763" stroke="#DFE7F0" stroke-linecap="round" stroke-linejoin="round"/>
<path d="M165.819 203.263H167.723L165.483 199.175C166.869 198.839 167.723 197.761 167.723 196.347C167.723 194.667 166.533 193.337 164.615 193.337H160.807V203.263H162.501V199.343H163.733L165.819 203.263ZM162.501 197.859V194.821H164.307C165.343 194.821 166.015 195.423 166.015 196.347C166.015 197.257 165.343 197.859 164.307 197.859H162.501ZM172.14 202.017C171.146 202.017 170.236 201.261 170.236 199.847C170.236 198.433 171.146 197.705 172.14 197.705C173.148 197.705 174.044 198.433 174.044 199.847C174.044 201.275 173.148 202.017 172.14 202.017ZM172.14 196.235C170.11 196.235 168.612 197.761 168.612 199.847C168.612 201.947 170.11 203.473 172.14 203.473C174.184 203.473 175.682 201.947 175.682 199.847C175.682 197.761 174.184 196.235 172.14 196.235ZM176.761 203.641C176.943 205.013 178.203 206.133 180.009 206.133C182.571 206.133 183.509 204.439 183.509 202.619V196.445H181.941V197.313C181.647 196.753 180.989 196.319 179.925 196.319C178.049 196.319 176.775 197.817 176.775 199.637C176.775 201.555 178.105 202.955 179.925 202.955C180.919 202.955 181.605 202.493 181.899 201.961V202.675C181.899 204.061 181.255 204.719 179.967 204.719C179.029 204.719 178.371 204.089 178.259 203.249L176.761 203.641ZM180.191 201.569C179.127 201.569 178.413 200.827 178.413 199.637C178.413 198.475 179.155 197.719 180.191 197.719C181.199 197.719 181.941 198.475 181.941 199.637C181.941 200.813 181.227 201.569 180.191 201.569ZM186.629 199.105C186.685 198.377 187.273 197.593 188.295 197.593C189.415 197.593 189.947 198.307 189.975 199.105H186.629ZM190.157 200.883C189.933 201.555 189.429 202.073 188.449 202.073C187.441 202.073 186.629 201.331 186.587 200.295H191.571C191.585 200.267 191.613 200.043 191.613 199.777C191.613 197.621 190.381 196.235 188.281 196.235C186.559 196.235 184.963 197.663 184.963 199.819C184.963 202.129 186.601 203.473 188.449 203.473C190.087 203.473 191.165 202.507 191.529 201.317L190.157 200.883ZM197.155 196.403C197.085 196.389 196.917 196.361 196.721 196.361C195.825 196.361 195.069 196.795 194.747 197.537V196.445H193.165V203.263H194.789V200.015C194.789 198.741 195.363 198.013 196.623 198.013C196.791 198.013 196.973 198.027 197.155 198.055V196.403ZM213.016 203.263V193.337H210.734L207.556 200.911L204.336 193.337H202.096V203.263H203.734V195.983L206.8 203.263H208.256L211.35 195.955V203.263H213.016ZM216.869 203.263V196.445H215.259V203.263H216.869ZM215.007 194.051C215.007 194.639 215.483 195.101 216.057 195.101C216.645 195.101 217.121 194.639 217.121 194.051C217.121 193.463 216.645 192.987 216.057 192.987C215.483 192.987 215.007 193.463 215.007 194.051ZM220.588 203.263V193.127H218.964V203.263H220.588ZM224.307 203.263V193.127H222.683V203.263H224.307ZM227.536 199.105C227.592 198.377 228.18 197.593 229.202 197.593C230.322 197.593 230.854 198.307 230.882 199.105H227.536ZM231.064 200.883C230.84 201.555 230.336 202.073 229.356 202.073C228.348 202.073 227.536 201.331 227.494 200.295H232.478C232.492 200.267 232.52 200.043 232.52 199.777C232.52 197.621 231.288 196.235 229.188 196.235C227.466 196.235 225.87 197.663 225.87 199.819C225.87 202.129 227.508 203.473 229.356 203.473C230.994 203.473 232.072 202.507 232.436 201.317L231.064 200.883ZM238.061 196.403C237.991 196.389 237.823 196.361 237.627 196.361C236.731 196.361 235.975 196.795 235.653 197.537V196.445H234.071V203.263H235.695V200.015C235.695 198.741 236.269 198.013 237.529 198.013C237.697 198.013 237.879 198.027 238.061 198.055V196.403ZM242.484 198.783C242.484 201.919 243.73 204.047 245.298 205.615L246.25 204.761C244.794 203.165 243.856 201.289 243.856 198.783C243.856 196.291 244.794 194.415 246.25 192.819L245.298 191.951C243.73 193.519 242.484 195.647 242.484 198.783ZM394.356 198.783C394.356 195.647 393.124 193.519 391.542 191.951L390.59 192.819C392.06 194.415 392.984 196.291 392.984 198.783C392.984 201.289 392.06 203.165 390.59 204.761L391.542 205.615C393.124 204.047 394.356 201.919 394.356 198.783ZM187.194 219.259C187.222 218.391 187.712 217.719 188.608 217.719C189.63 217.719 190.008 218.391 190.008 219.231V223.263H191.632V218.951C191.632 217.453 190.82 216.249 189.14 216.249C188.426 216.249 187.656 216.501 187.194 217.103V213.127H185.57V223.263H187.194V219.259ZM193.19 221.415C193.19 222.493 194.072 223.473 195.5 223.473C196.606 223.473 197.278 222.913 197.6 222.395C197.6 222.941 197.656 223.221 197.67 223.263H199.182C199.168 223.193 199.098 222.787 199.098 222.171V218.783C199.098 217.425 198.3 216.235 196.2 216.235C194.52 216.235 193.456 217.285 193.33 218.461L194.814 218.797C194.884 218.111 195.36 217.565 196.214 217.565C197.11 217.565 197.502 218.027 197.502 218.601C197.502 218.839 197.39 219.035 196.998 219.091L195.248 219.357C194.086 219.525 193.19 220.197 193.19 221.415ZM195.808 222.199C195.164 222.199 194.814 221.779 194.814 221.317C194.814 220.757 195.22 220.477 195.724 220.393L197.502 220.127V220.435C197.502 221.765 196.718 222.199 195.808 222.199ZM200.459 221.415C200.543 222.185 201.299 223.473 203.273 223.473C205.009 223.473 205.849 222.325 205.849 221.289C205.849 220.281 205.177 219.497 203.889 219.217L202.853 219.007C202.433 218.923 202.167 218.657 202.167 218.293C202.167 217.873 202.573 217.509 203.147 217.509C204.057 217.509 204.351 218.139 204.407 218.531L205.779 218.139C205.667 217.467 205.051 216.235 203.147 216.235C201.733 216.235 200.641 217.243 200.641 218.433C200.641 219.371 201.271 220.155 202.475 220.421L203.483 220.645C204.029 220.757 204.281 221.037 204.281 221.401C204.281 221.821 203.931 222.185 203.259 222.185C202.391 222.185 201.929 221.639 201.873 221.023L200.459 221.415ZM214.922 216.403C214.852 216.389 214.684 216.361 214.488 216.361C213.592 216.361 212.836 216.795 212.514 217.537V216.445H210.932V223.263H212.556V220.015C212.556 218.741 213.13 218.013 214.39 218.013C214.558 218.013 214.74 218.027 214.922 218.055V216.403ZM217.343 219.105C217.399 218.377 217.987 217.593 219.009 217.593C220.129 217.593 220.661 218.307 220.689 219.105H217.343ZM220.871 220.883C220.647 221.555 220.143 222.073 219.163 222.073C218.155 222.073 217.343 221.331 217.301 220.295H222.285C222.299 220.267 222.327 220.043 222.327 219.777C222.327 217.621 221.095 216.235 218.995 216.235C217.273 216.235 215.677 217.663 215.677 219.819C215.677 222.129 217.315 223.473 219.163 223.473C220.801 223.473 221.879 222.507 222.243 221.317L220.871 220.883ZM230.221 225.923V216.445H228.667V217.355C228.429 216.865 227.771 216.277 226.581 216.277C224.593 216.277 223.347 217.873 223.347 219.833C223.347 221.863 224.677 223.431 226.623 223.431C227.575 223.431 228.289 223.053 228.625 222.451V225.923H230.221ZM224.985 219.833C224.985 218.531 225.727 217.719 226.805 217.719C227.869 217.719 228.639 218.531 228.639 219.833C228.639 221.135 227.869 222.003 226.805 222.003C225.741 222.003 224.985 221.135 224.985 219.833ZM236.657 222.507C236.657 222.787 236.685 223.109 236.713 223.263H238.267C238.239 223.011 238.197 222.577 238.197 222.017V216.445H236.573V220.477C236.573 221.373 236.083 222.003 235.145 222.003C234.165 222.003 233.773 221.289 233.773 220.449V216.445H232.149V220.743C232.149 222.255 233.101 223.459 234.725 223.459C235.523 223.459 236.321 223.123 236.657 222.507ZM241.392 219.105C241.448 218.377 242.036 217.593 243.058 217.593C244.178 217.593 244.71 218.307 244.738 219.105H241.392ZM244.92 220.883C244.696 221.555 244.192 222.073 243.212 222.073C242.204 222.073 241.392 221.331 241.35 220.295H246.334C246.348 220.267 246.376 220.043 246.376 219.777C246.376 217.621 245.144 216.235 243.044 216.235C241.322 216.235 239.726 217.663 239.726 219.819C239.726 222.129 241.364 223.473 243.212 223.473C244.85 223.473 245.928 222.507 246.292 221.317L244.92 220.883ZM247.326 221.415C247.41 222.185 248.166 223.473 250.14 223.473C251.876 223.473 252.716 222.325 252.716 221.289C252.716 220.281 252.044 219.497 250.756 219.217L249.72 219.007C249.3 218.923 249.034 218.657 249.034 218.293C249.034 217.873 249.44 217.509 250.014 217.509C250.924 217.509 251.218 218.139 251.274 218.531L252.646 218.139C252.534 217.467 251.918 216.235 250.014 216.235C248.6 216.235 247.508 217.243 247.508 218.433C247.508 219.371 248.138 220.155 249.342 220.421L250.35 220.645C250.896 220.757 251.148 221.037 251.148 221.401C251.148 221.821 250.798 222.185 250.126 222.185C249.258 222.185 248.796 221.639 248.74 221.023L247.326 221.415ZM256.384 214.359H254.914V215.381C254.914 215.983 254.592 216.445 253.864 216.445H253.514V217.887H254.774V221.317C254.774 222.591 255.558 223.347 256.818 223.347C257.406 223.347 257.714 223.235 257.812 223.193V221.849C257.742 221.863 257.476 221.905 257.252 221.905C256.65 221.905 256.384 221.653 256.384 221.051V217.887H257.798V216.445H256.384V214.359ZM260.533 219.105C260.589 218.377 261.177 217.593 262.199 217.593C263.319 217.593 263.851 218.307 263.879 219.105H260.533ZM264.061 220.883C263.837 221.555 263.333 222.073 262.353 222.073C261.345 222.073 260.533 221.331 260.491 220.295H265.475C265.489 220.267 265.517 220.043 265.517 219.777C265.517 217.621 264.285 216.235 262.185 216.235C260.463 216.235 258.867 217.663 258.867 219.819C258.867 222.129 260.505 223.473 262.353 223.473C263.991 223.473 265.069 222.507 265.433 221.317L264.061 220.883ZM268.161 219.833C268.161 218.531 268.945 217.705 270.009 217.705C271.073 217.705 271.801 218.517 271.801 219.819C271.801 221.121 271.059 222.003 269.995 222.003C268.889 222.003 268.161 221.135 268.161 219.833ZM273.369 213.127H271.787V217.243C271.577 216.809 270.975 216.263 269.785 216.263C267.867 216.263 266.537 217.873 266.537 219.833C266.537 221.891 267.853 223.431 269.813 223.431C270.779 223.431 271.493 222.955 271.815 222.381C271.815 222.661 271.857 223.109 271.885 223.263H273.439C273.425 223.151 273.369 222.633 273.369 222.017V213.127ZM281.035 226.021L285.375 216.445H283.653L281.819 220.757L279.859 216.445H278.025L280.937 222.451L279.299 226.021H281.035ZM289.246 222.017C288.252 222.017 287.342 221.261 287.342 219.847C287.342 218.433 288.252 217.705 289.246 217.705C290.254 217.705 291.15 218.433 291.15 219.847C291.15 221.275 290.254 222.017 289.246 222.017ZM289.246 216.235C287.216 216.235 285.718 217.761 285.718 219.847C285.718 221.947 287.216 223.473 289.246 223.473C291.29 223.473 292.788 221.947 292.788 219.847C292.788 217.761 291.29 216.235 289.246 216.235ZM298.755 222.507C298.755 222.787 298.783 223.109 298.811 223.263H300.365C300.337 223.011 300.295 222.577 300.295 222.017V216.445H298.671V220.477C298.671 221.373 298.181 222.003 297.243 222.003C296.263 222.003 295.871 221.289 295.871 220.449V216.445H294.247V220.743C294.247 222.255 295.199 223.459 296.823 223.459C297.621 223.459 298.419 223.123 298.755 222.507ZM306.387 216.403C306.317 216.389 306.149 216.361 305.953 216.361C305.057 216.361 304.301 216.795 303.979 217.537V216.445H302.397V223.263H304.021V220.015C304.021 218.741 304.595 218.013 305.855 218.013C306.023 218.013 306.205 218.027 306.387 218.055V216.403ZM310.586 221.415C310.67 222.185 311.426 223.473 313.4 223.473C315.136 223.473 315.976 222.325 315.976 221.289C315.976 220.281 315.304 219.497 314.016 219.217L312.98 219.007C312.56 218.923 312.294 218.657 312.294 218.293C312.294 217.873 312.7 217.509 313.274 217.509C314.184 217.509 314.478 218.139 314.534 218.531L315.906 218.139C315.794 217.467 315.178 216.235 313.274 216.235C311.86 216.235 310.768 217.243 310.768 218.433C310.768 219.371 311.398 220.155 312.602 220.421L313.61 220.645C314.156 220.757 314.408 221.037 314.408 221.401C314.408 221.821 314.058 222.185 313.386 222.185C312.518 222.185 312.056 221.639 312 221.023L310.586 221.415ZM319.196 223.263V216.445H317.586V223.263H319.196ZM317.334 214.051C317.334 214.639 317.81 215.101 318.384 215.101C318.972 215.101 319.448 214.639 319.448 214.051C319.448 213.463 318.972 212.987 318.384 212.987C317.81 212.987 317.334 213.463 317.334 214.051ZM320.801 223.641C320.983 225.013 322.243 226.133 324.049 226.133C326.611 226.133 327.549 224.439 327.549 222.619V216.445H325.981V217.313C325.687 216.753 325.029 216.319 323.965 216.319C322.089 216.319 320.815 217.817 320.815 219.637C320.815 221.555 322.145 222.955 323.965 222.955C324.959 222.955 325.645 222.493 325.939 221.961V222.675C325.939 224.061 325.295 224.719 324.007 224.719C323.069 224.719 322.411 224.089 322.299 223.249L320.801 223.641ZM324.231 221.569C323.167 221.569 322.453 220.827 322.453 219.637C322.453 218.475 323.195 217.719 324.231 217.719C325.239 217.719 325.981 218.475 325.981 219.637C325.981 220.813 325.267 221.569 324.231 221.569ZM331.159 219.329C331.159 218.433 331.649 217.719 332.573 217.719C333.595 217.719 333.973 218.391 333.973 219.231V223.263H335.597V218.951C335.597 217.453 334.799 216.249 333.133 216.249C332.377 216.249 331.565 216.571 331.117 217.355V216.445H329.535V223.263H331.159V219.329ZM337.154 221.415C337.154 222.493 338.036 223.473 339.464 223.473C340.57 223.473 341.242 222.913 341.564 222.395C341.564 222.941 341.62 223.221 341.634 223.263H343.146C343.132 223.193 343.062 222.787 343.062 222.171V218.783C343.062 217.425 342.264 216.235 340.164 216.235C338.484 216.235 337.42 217.285 337.294 218.461L338.778 218.797C338.848 218.111 339.324 217.565 340.178 217.565C341.074 217.565 341.466 218.027 341.466 218.601C341.466 218.839 341.354 219.035 340.962 219.091L339.212 219.357C338.05 219.525 337.154 220.197 337.154 221.415ZM339.772 222.199C339.128 222.199 338.778 221.779 338.778 221.317C338.778 220.757 339.184 220.477 339.688 220.393L341.466 220.127V220.435C341.466 221.765 340.682 222.199 339.772 222.199ZM347.056 214.359H345.586V215.381C345.586 215.983 345.264 216.445 344.536 216.445H344.186V217.887H345.446V221.317C345.446 222.591 346.23 223.347 347.49 223.347C348.078 223.347 348.386 223.235 348.484 223.193V221.849C348.414 221.863 348.148 221.905 347.924 221.905C347.322 221.905 347.056 221.653 347.056 221.051V217.887H348.47V216.445H347.056V214.359ZM354.591 222.507C354.591 222.787 354.619 223.109 354.647 223.263H356.201C356.173 223.011 356.131 222.577 356.131 222.017V216.445H354.507V220.477C354.507 221.373 354.017 222.003 353.079 222.003C352.099 222.003 351.707 221.289 351.707 220.449V216.445H350.083V220.743C350.083 222.255 351.035 223.459 352.659 223.459C353.457 223.459 354.255 223.123 354.591 222.507ZM362.223 216.403C362.153 216.389 361.985 216.361 361.789 216.361C360.893 216.361 360.137 216.795 359.815 217.537V216.445H358.233V223.263H359.857V220.015C359.857 218.741 360.431 218.013 361.691 218.013C361.859 218.013 362.041 218.027 362.223 218.055V216.403ZM364.644 219.105C364.7 218.377 365.288 217.593 366.31 217.593C367.43 217.593 367.962 218.307 367.99 219.105H364.644ZM368.172 220.883C367.948 221.555 367.444 222.073 366.464 222.073C365.456 222.073 364.644 221.331 364.602 220.295H369.586C369.6 220.267 369.628 220.043 369.628 219.777C369.628 217.621 368.396 216.235 366.296 216.235C364.574 216.235 362.978 217.663 362.978 219.819C362.978 222.129 364.616 223.473 366.464 223.473C368.102 223.473 369.18 222.507 369.544 221.317L368.172 220.883Z" fill="#2D3C4A"/>
<path d="M248.93 199.259C248.958 198.391 249.448 197.719 250.344 197.719C251.366 197.719 251.744 198.391 251.744 199.231V203.263H253.368V198.951C253.368 197.453 252.556 196.249 250.876 196.249C250.162 196.249 249.392 196.501 248.93 197.103V193.127H247.306V203.263H248.93V199.259ZM256.479 199.105C256.535 198.377 257.123 197.593 258.145 197.593C259.265 197.593 259.797 198.307 259.825 199.105H256.479ZM260.007 200.883C259.783 201.555 259.279 202.073 258.299 202.073C257.291 202.073 256.479 201.331 256.437 200.295H261.421C261.435 200.267 261.463 200.043 261.463 199.777C261.463 197.621 260.231 196.235 258.131 196.235C256.409 196.235 254.813 197.663 254.813 199.819C254.813 202.129 256.451 203.473 258.299 203.473C259.937 203.473 261.015 202.507 261.379 201.317L260.007 200.883ZM264.639 203.263V193.127H263.015V203.263H264.639ZM268.358 203.263V193.127H266.734V203.263H268.358ZM273.448 202.017C272.454 202.017 271.544 201.261 271.544 199.847C271.544 198.433 272.454 197.705 273.448 197.705C274.456 197.705 275.352 198.433 275.352 199.847C275.352 201.275 274.456 202.017 273.448 202.017ZM273.448 196.235C271.418 196.235 269.92 197.761 269.92 199.847C269.92 201.947 271.418 203.473 273.448 203.473C275.492 203.473 276.99 201.947 276.99 199.847C276.99 197.761 275.492 196.235 273.448 196.235ZM285.826 201.331C287.282 201.317 288.584 199.819 288.584 197.705C288.584 195.087 286.428 193.127 283.572 193.127C280.576 193.127 278.098 195.353 278.098 198.615C278.098 201.793 280.436 203.921 283.712 203.921C284.86 203.921 286.26 203.473 287.044 202.745L286.414 201.891C285.602 202.507 284.65 202.787 283.712 202.787C280.996 202.787 279.386 200.995 279.386 198.615C279.386 196.011 281.178 194.275 283.586 194.275C285.84 194.275 287.366 195.717 287.366 197.719C287.366 199.105 286.666 200.225 285.924 200.225C285.574 200.225 285.448 199.973 285.448 199.693C285.448 199.609 285.476 199.469 285.49 199.399L286.232 195.927H285L284.874 196.599C284.664 196.011 284.02 195.745 283.46 195.745C281.962 195.745 280.688 197.103 280.688 198.951C280.688 200.379 281.584 201.359 282.816 201.359C283.432 201.359 284.076 201.051 284.454 200.463C284.594 200.995 285.112 201.331 285.826 201.331ZM284.566 198.111C284.538 199.329 283.922 200.197 283.068 200.197C282.312 200.197 281.99 199.609 281.99 198.853C281.99 197.943 282.55 196.921 283.516 196.921C284.202 196.921 284.566 197.369 284.566 198.111ZM294.048 196.403C293.978 196.389 293.81 196.361 293.614 196.361C292.718 196.361 291.962 196.795 291.64 197.537V196.445H290.058V203.263H291.682V200.015C291.682 198.741 292.256 198.013 293.516 198.013C293.684 198.013 293.866 198.027 294.048 198.055V196.403ZM298.331 202.017C297.337 202.017 296.427 201.261 296.427 199.847C296.427 198.433 297.337 197.705 298.331 197.705C299.339 197.705 300.235 198.433 300.235 199.847C300.235 201.275 299.339 202.017 298.331 202.017ZM298.331 196.235C296.301 196.235 294.803 197.761 294.803 199.847C294.803 201.947 296.301 203.473 298.331 203.473C300.375 203.473 301.873 201.947 301.873 199.847C301.873 197.761 300.375 196.235 298.331 196.235ZM302.953 203.641C303.135 205.013 304.395 206.133 306.201 206.133C308.763 206.133 309.701 204.439 309.701 202.619V196.445H308.133V197.313C307.839 196.753 307.181 196.319 306.117 196.319C304.241 196.319 302.967 197.817 302.967 199.637C302.967 201.555 304.297 202.955 306.117 202.955C307.111 202.955 307.797 202.493 308.091 201.961V202.675C308.091 204.061 307.447 204.719 306.159 204.719C305.221 204.719 304.563 204.089 304.451 203.249L302.953 203.641ZM306.383 201.569C305.319 201.569 304.605 200.827 304.605 199.637C304.605 198.475 305.347 197.719 306.383 197.719C307.391 197.719 308.133 198.475 308.133 199.637C308.133 200.813 307.419 201.569 306.383 201.569ZM312.821 199.105C312.877 198.377 313.465 197.593 314.487 197.593C315.607 197.593 316.139 198.307 316.167 199.105H312.821ZM316.349 200.883C316.125 201.555 315.621 202.073 314.641 202.073C313.633 202.073 312.821 201.331 312.779 200.295H317.763C317.777 200.267 317.805 200.043 317.805 199.777C317.805 197.621 316.573 196.235 314.473 196.235C312.751 196.235 311.155 197.663 311.155 199.819C311.155 202.129 312.793 203.473 314.641 203.473C316.279 203.473 317.357 202.507 317.721 201.317L316.349 200.883ZM323.347 196.403C323.277 196.389 323.109 196.361 322.913 196.361C322.017 196.361 321.261 196.795 320.939 197.537V196.445H319.357V203.263H320.981V200.015C320.981 198.741 321.555 198.013 322.815 198.013C322.983 198.013 323.165 198.027 323.347 198.055V196.403ZM326.312 203.263V199.217C326.312 198.349 326.858 197.705 327.726 197.705C328.65 197.705 329.042 198.321 329.042 199.105V203.263H330.638V199.217C330.638 198.377 331.198 197.705 332.052 197.705C332.962 197.705 333.368 198.307 333.368 199.105V203.263H334.936V198.839C334.936 197.033 333.76 196.249 332.528 196.249C331.646 196.249 330.848 196.557 330.316 197.453C329.952 196.655 329.168 196.249 328.272 196.249C327.502 196.249 326.648 196.613 326.256 197.313V196.445H324.702V203.263H326.312ZM338.535 203.263V196.445H336.925V203.263H338.535ZM336.673 194.051C336.673 194.639 337.149 195.101 337.723 195.101C338.311 195.101 338.787 194.639 338.787 194.051C338.787 193.463 338.311 192.987 337.723 192.987C337.149 192.987 336.673 193.463 336.673 194.051ZM342.254 203.263V193.127H340.63V203.263H342.254ZM345.973 203.263V193.127H344.349V203.263H345.973ZM349.202 199.105C349.258 198.377 349.846 197.593 350.868 197.593C351.988 197.593 352.52 198.307 352.548 199.105H349.202ZM352.73 200.883C352.506 201.555 352.002 202.073 351.022 202.073C350.014 202.073 349.202 201.331 349.16 200.295H354.144C354.158 200.267 354.186 200.043 354.186 199.777C354.186 197.621 352.954 196.235 350.854 196.235C349.132 196.235 347.536 197.663 347.536 199.819C347.536 202.129 349.174 203.473 351.022 203.473C352.66 203.473 353.738 202.507 354.102 201.317L352.73 200.883ZM359.727 196.403C359.657 196.389 359.489 196.361 359.293 196.361C358.397 196.361 357.641 196.795 357.319 197.537V196.445H355.737V203.263H357.361V200.015C357.361 198.741 357.935 198.013 359.195 198.013C359.363 198.013 359.545 198.027 359.727 198.055V196.403ZM359.782 202.213C359.782 202.843 360.286 203.347 360.916 203.347C361.546 203.347 362.064 202.843 362.064 202.213C362.064 201.583 361.546 201.065 360.916 201.065C360.286 201.065 359.782 201.583 359.782 202.213ZM366.772 197.733C367.808 197.733 368.27 198.405 368.424 199.007L369.88 198.475C369.6 197.383 368.592 196.235 366.758 196.235C364.798 196.235 363.272 197.747 363.272 199.847C363.272 201.919 364.798 203.473 366.8 203.473C368.592 203.473 369.614 202.311 369.936 201.247L368.508 200.729C368.354 201.247 367.864 201.989 366.8 201.989C365.778 201.989 364.896 201.219 364.896 199.847C364.896 198.475 365.778 197.733 366.772 197.733ZM374.306 202.017C373.312 202.017 372.402 201.261 372.402 199.847C372.402 198.433 373.312 197.705 374.306 197.705C375.314 197.705 376.21 198.433 376.21 199.847C376.21 201.275 375.314 202.017 374.306 202.017ZM374.306 196.235C372.276 196.235 370.778 197.761 370.778 199.847C370.778 201.947 372.276 203.473 374.306 203.473C376.35 203.473 377.848 201.947 377.848 199.847C377.848 197.761 376.35 196.235 374.306 196.235ZM381.027 203.263V199.217C381.027 198.349 381.573 197.705 382.441 197.705C383.365 197.705 383.757 198.321 383.757 199.105V203.263H385.353V199.217C385.353 198.377 385.913 197.705 386.767 197.705C387.677 197.705 388.083 198.307 388.083 199.105V203.263H389.651V198.839C389.651 197.033 388.475 196.249 387.243 196.249C386.361 196.249 385.563 196.557 385.031 197.453C384.667 196.655 383.883 196.249 382.987 196.249C382.217 196.249 381.363 196.613 380.971 197.313V196.445H379.417V203.263H381.027Z" fill="#00A3FA"/>
<rect x="203" y="240" width="149" height="39" rx="19.5" fill="#0095E5"/>
<path d="M239.844 263.184H241.904L239.87 259.303C241.115 258.942 241.891 257.939 241.891 256.614C241.891 254.968 240.713 253.697 238.867 253.697H235.16V263.184H237.02V259.531H237.984L239.844 263.184ZM237.02 257.939V255.303H238.519C239.456 255.303 240.004 255.825 240.004 256.627C240.004 257.403 239.456 257.939 238.519 257.939H237.02ZM244.504 259.143C244.545 258.541 245.053 257.845 245.976 257.845C246.993 257.845 247.421 258.487 247.448 259.143H244.504ZM247.622 260.856C247.408 261.444 246.953 261.859 246.124 261.859C245.24 261.859 244.504 261.23 244.464 260.361H249.174C249.174 260.334 249.201 260.066 249.201 259.812C249.201 257.698 247.983 256.4 245.95 256.4C244.264 256.4 242.711 257.765 242.711 259.865C242.711 262.087 244.304 263.385 246.11 263.385C247.729 263.385 248.773 262.435 249.107 261.297L247.622 260.856ZM256.681 256.601H254.807L253.242 261.016L251.609 256.601H249.656L252.345 263.184H254.125L256.681 256.601ZM259.543 263.184V256.601H257.763V263.184H259.543ZM257.549 254.446C257.549 255.035 258.044 255.53 258.646 255.53C259.262 255.53 259.744 255.035 259.744 254.446C259.744 253.831 259.262 253.336 258.646 253.336C258.044 253.336 257.549 253.831 257.549 254.446ZM262.746 259.143C262.786 258.541 263.295 257.845 264.218 257.845C265.235 257.845 265.663 258.487 265.69 259.143H262.746ZM265.864 260.856C265.65 261.444 265.195 261.859 264.365 261.859C263.482 261.859 262.746 261.23 262.706 260.361H267.416C267.416 260.334 267.443 260.066 267.443 259.812C267.443 257.698 266.225 256.4 264.191 256.4C262.505 256.4 260.953 257.765 260.953 259.865C260.953 262.087 262.545 263.385 264.352 263.385C265.971 263.385 267.015 262.435 267.349 261.297L265.864 260.856ZM272.473 256.601L271.041 260.829L269.824 256.601H267.95L270.051 263.184H271.857L273.369 258.688L274.908 263.184H276.688L278.748 256.601H276.982L275.765 260.842L274.346 256.601H272.473ZM288.972 263.184H291.274L289.133 260.936L290.458 259.544V257.323L288.063 259.825L286.631 258.313L286.992 258.046C287.675 257.537 288.33 256.841 288.33 255.878C288.33 254.46 287.206 253.483 285.694 253.483C284.41 253.483 283.072 254.366 283.072 255.958C283.072 256.815 283.66 257.537 284.115 258.019L284.262 258.18L284.196 258.22C283.205 258.956 282.576 259.638 282.576 260.816C282.576 262.087 283.593 263.358 285.453 263.358C286.47 263.358 287.287 262.876 287.996 262.154L288.972 263.184ZM285.48 261.806C284.784 261.806 284.343 261.257 284.343 260.708C284.343 260.146 284.651 259.785 285.105 259.451L285.306 259.303L286.925 261.016C286.47 261.498 286.055 261.806 285.48 261.806ZM284.758 255.905C284.758 255.263 285.239 254.955 285.681 254.955C286.243 254.955 286.644 255.356 286.644 255.865C286.644 256.213 286.484 256.547 286.042 256.868L285.574 257.216L285.32 256.935C285.079 256.694 284.758 256.306 284.758 255.905ZM301.508 255.958C301.294 254.888 300.411 253.496 298.109 253.496C296.316 253.496 294.804 254.781 294.804 256.467C294.804 257.899 295.781 258.875 297.293 259.183L298.618 259.451C299.354 259.598 299.768 260.026 299.768 260.575C299.768 261.244 299.22 261.739 298.23 261.739C296.892 261.739 296.236 260.896 296.156 259.959L294.443 260.414C294.59 261.766 295.701 263.385 298.216 263.385C300.424 263.385 301.642 261.913 301.642 260.454C301.642 259.116 300.718 257.992 298.992 257.658L297.668 257.403C296.972 257.27 296.637 256.855 296.637 256.333C296.637 255.704 297.226 255.129 298.123 255.129C299.327 255.129 299.755 255.945 299.849 256.467L301.508 255.958ZM304.82 263.184V256.601H303.041V263.184H304.82ZM302.827 254.446C302.827 255.035 303.322 255.53 303.924 255.53C304.539 255.53 305.021 255.035 305.021 254.446C305.021 253.831 304.539 253.336 303.924 253.336C303.322 253.336 302.827 253.831 302.827 254.446ZM306.257 263.545C306.445 264.803 307.649 265.927 309.455 265.927C311.931 265.927 312.908 264.281 312.908 262.475V256.601H311.195V257.377C310.967 256.935 310.365 256.48 309.322 256.48C307.515 256.48 306.257 257.952 306.257 259.692C306.257 261.538 307.569 262.89 309.322 262.89C310.272 262.89 310.887 262.475 311.155 262.047V262.528C311.155 263.799 310.526 264.361 309.402 264.361C308.559 264.361 307.984 263.84 307.863 263.117L306.257 263.545ZM309.629 261.364C308.706 261.364 308.05 260.722 308.05 259.692C308.05 258.675 308.746 258.032 309.629 258.032C310.486 258.032 311.182 258.675 311.182 259.692C311.182 260.708 310.539 261.364 309.629 261.364ZM316.489 259.397C316.489 258.634 316.944 258.032 317.72 258.032C318.577 258.032 318.938 258.608 318.938 259.344V263.184H320.718V259.036C320.718 257.591 319.968 256.427 318.336 256.427C317.627 256.427 316.837 256.734 316.436 257.417V256.601H314.71V263.184H316.489V259.397Z" fill="white"/>
<path d="M277.825 181.263C293.289 181.263 305.825 168.727 305.825 153.263C305.825 137.799 293.289 125.263 277.825 125.263C262.361 125.263 249.825 137.799 249.825 153.263C249.825 168.727 262.361 181.263 277.825 181.263Z" fill="#CEEEFF"/>
<mask id="mask1" mask-type="alpha" maskUnits="userSpaceOnUse" x="249" y="125" width="57" height="57">
<path d="M277.825 181.263C293.289 181.263 305.825 168.727 305.825 153.263C305.825 137.799 293.289 125.263 277.825 125.263C262.361 125.263 249.825 137.799 249.825 153.263C249.825 168.727 262.361 181.263 277.825 181.263Z" fill="#5BC6FF"/>
</mask>
<g mask="url(#mask1)">
<path d="M270.313 165.68C265.462 168.66 255.856 173.13 253.187 179.694C250.517 186.257 251.093 192.82 251.093 192.82H301.133C301.133 192.82 301.125 182.612 298.091 177.6C294.57 171.8 283.501 166.31 283.501 166.31L270.313 165.68Z" fill="#335D85"/>
<path d="M288.858 181.982C288.646 175.72 287.067 170.275 286.233 167.8C284.61 166.869 283.501 166.319 283.501 166.319L270.313 165.68C269.142 166.399 267.697 167.206 266.144 168.102C265.816 171.268 264.637 183.312 264.796 188.164C264.867 190.212 264.921 191.729 264.965 192.829H288.699C288.858 190.78 289.036 187.17 288.858 181.982Z" fill="#3FB5F3"/>
<path d="M270.375 155.658L270.313 165.68C270.313 165.68 273.417 169.166 277.737 168.66C282.047 168.155 283.51 166.31 283.51 166.31L283.83 155.658H270.375V155.658Z" fill="#FBBDA6"/>
<path d="M285.133 149.396C285.133 149.396 287.227 148.864 287.342 151.64C287.457 154.416 284.903 154.044 284.903 154.044L285.133 149.396Z" fill="#F4B097"/>
<path d="M269.781 149.396C269.781 149.396 267.688 148.864 267.572 151.64C267.457 154.416 270.011 154.044 270.011 154.044L269.781 149.396Z" fill="#F4B097"/>
<path d="M285.151 152.554C285.151 158.319 281.311 162.842 277.63 162.736C273.94 162.629 269.807 158.008 269.807 152.244C269.807 146.479 270.18 141.707 277.63 141.858C286.393 142.035 285.151 146.789 285.151 152.554Z" fill="#FFD2C1"/>
<path d="M269.843 151.241C269.843 151.241 267.901 149.804 267.936 147.516C267.98 145.237 268.486 144.261 268.486 144.261C268.486 144.261 268.317 142.949 268.575 142.354C268.832 141.76 269.249 141.255 269.249 141.255C269.249 141.255 269.967 138.886 272.167 137.574C274.366 136.261 278.127 135.924 279.732 136.181C281.337 136.439 283.493 136.988 283.493 136.988C283.493 136.988 288.654 136.314 288.858 136.82C289.071 137.325 287.501 140.714 287.501 140.714C287.501 140.714 287.838 140.252 288.007 140.545C288.176 140.838 287.457 143.374 286.694 144.776C286.694 144.776 286.907 145.414 286.739 146.638C286.57 147.862 285.133 150.319 285.133 150.319C285.133 150.319 284.858 148.767 284.584 147.49C284.158 145.503 282.854 144.022 282.81 143.259C282.81 143.259 280.53 143.933 277.905 143.933C275.28 143.933 272.832 143.259 272.832 143.259C272.832 143.259 271.395 145.583 270.889 147.108C270.393 148.616 269.843 151.241 269.843 151.241Z" fill="#234C72"/>
</g>
<path d="M236.241 74.5889C236.392 75.9663 237.744 78.2703 241.275 78.2703C244.38 78.2703 245.883 76.2167 245.883 74.3635C245.883 72.5604 244.681 71.1579 242.377 70.6571L240.524 70.2814C239.772 70.1312 239.297 69.6553 239.297 69.0042C239.297 68.2529 240.023 67.6018 241.05 67.6018C242.677 67.6018 243.203 68.7287 243.304 69.4299L245.758 68.7287C245.557 67.5266 244.456 65.3228 241.05 65.3228C238.52 65.3228 236.567 67.1259 236.567 69.2546C236.567 70.9326 237.694 72.335 239.848 72.8108L241.651 73.2115C242.627 73.4119 243.078 73.9127 243.078 74.5639C243.078 75.3152 242.452 75.9663 241.25 75.9663C239.697 75.9663 238.871 74.9896 238.771 73.8877L236.241 74.5889Z" fill="#2D3C4A"/>
<path d="M250.517 77.8946V65.6985H247.637V77.8946H250.517ZM247.186 61.416C247.186 62.4679 248.038 63.2943 249.064 63.2943C250.116 63.2943 250.968 62.4679 250.968 61.416C250.968 60.3642 250.116 59.5127 249.064 59.5127C248.038 59.5127 247.186 60.3642 247.186 61.416Z" fill="#2D3C4A"/>
<path d="M252.261 78.5708C252.587 81.0251 254.841 83.0286 258.071 83.0286C262.654 83.0286 264.332 79.9983 264.332 76.7426V65.6985H261.527V67.2512C261.001 66.2494 259.824 65.4731 257.921 65.4731C254.565 65.4731 252.286 68.1527 252.286 71.4084C252.286 74.8393 254.665 77.3437 257.921 77.3437C259.699 77.3437 260.926 76.5173 261.452 75.5656V76.8428C261.452 79.3221 260.3 80.4992 257.996 80.4992C256.318 80.4992 255.141 79.3722 254.941 77.8696L252.261 78.5708ZM258.397 74.8644C256.493 74.8644 255.216 73.5371 255.216 71.4084C255.216 69.3298 256.544 67.9774 258.397 67.9774C260.2 67.9774 261.527 69.3298 261.527 71.4084C261.527 73.512 260.25 74.8644 258.397 74.8644Z" fill="#2D3C4A"/>
<path d="M269.663 70.8574C269.663 69.2546 270.54 67.9774 272.192 67.9774C274.021 67.9774 274.697 69.1795 274.697 70.6821V77.8946H277.602V70.1812C277.602 67.5016 276.174 65.3479 273.194 65.3479C271.842 65.3479 270.389 65.9239 269.588 67.3263V65.6985H266.758V77.8946H269.663V70.8574Z" fill="#2D3C4A"/>
<path d="M279.26 74.5889C279.26 76.5173 280.838 78.2703 283.392 78.2703C285.371 78.2703 286.573 77.2686 287.149 76.3419C287.149 77.3186 287.249 77.8195 287.274 77.8946H289.979C289.954 77.7694 289.828 77.0432 289.828 75.9413V69.8807C289.828 67.4515 288.401 65.3228 284.644 65.3228C281.639 65.3228 279.736 67.2011 279.511 69.3047L282.165 69.9058C282.29 68.6786 283.142 67.7019 284.67 67.7019C286.272 67.7019 286.974 68.5284 286.974 69.5552C286.974 69.9809 286.773 70.3315 286.072 70.4317L282.942 70.9075C280.863 71.208 279.26 72.4101 279.26 74.5889ZM283.943 75.9913C282.791 75.9913 282.165 75.24 282.165 74.4136C282.165 73.4119 282.891 72.911 283.793 72.7607L286.974 72.2849V72.8359C286.974 75.215 285.571 75.9913 283.943 75.9913Z" fill="#2D3C4A"/>
<path d="M295.846 61.967H293.216V63.7952C293.216 64.872 292.64 65.6985 291.338 65.6985H290.712V68.2779H292.966V74.4136C292.966 76.6926 294.368 78.0449 296.622 78.0449C297.674 78.0449 298.225 77.8446 298.4 77.7694V75.3653C298.275 75.3903 297.799 75.4654 297.398 75.4654C296.322 75.4654 295.846 75.0146 295.846 73.9378V68.2779H298.375V65.6985H295.846V61.967Z" fill="#2D3C4A"/>
<path d="M308.196 76.5423C308.196 77.0432 308.246 77.6192 308.297 77.8946H311.076C311.026 77.4439 310.951 76.6675 310.951 75.6658V65.6985H308.046V72.911C308.046 74.5138 307.17 75.6407 305.492 75.6407C303.739 75.6407 303.037 74.3635 303.037 72.8609V65.6985H300.132V73.3868C300.132 76.0915 301.835 78.2453 304.74 78.2453C306.168 78.2453 307.595 77.6442 308.196 76.5423Z" fill="#2D3C4A"/>
<path d="M320.722 65.6233C320.597 65.5983 320.296 65.5482 319.945 65.5482C318.343 65.5482 316.99 66.3246 316.414 67.6519V65.6985H313.584V77.8946H316.489V72.0846C316.489 69.8056 317.516 68.5033 319.77 68.5033C320.071 68.5033 320.396 68.5284 320.722 68.5785V65.6233Z" fill="#2D3C4A"/>
<path d="M323.926 70.4567C324.026 69.1545 325.078 67.752 326.906 67.752C328.91 67.752 329.861 69.0292 329.912 70.4567H323.926ZM330.237 73.6373C329.836 74.8393 328.935 75.7659 327.182 75.7659C325.379 75.7659 323.926 74.4386 323.851 72.5854H332.767C332.792 72.5353 332.842 72.1346 332.842 71.6588C332.842 67.8021 330.638 65.3228 326.881 65.3228C323.801 65.3228 320.946 67.8773 320.946 71.7339C320.946 75.8661 323.876 78.2703 327.182 78.2703C330.112 78.2703 332.04 76.5423 332.691 74.4136L330.237 73.6373Z" fill="#2D3C4A"/>
<path d="M337.396 77.8946V59.7632H334.491V77.8946H337.396Z" fill="#2D3C4A"/>
<path d="M343.722 82.8282L351.486 65.6985H348.406L345.125 73.4119L341.619 65.6985H338.338L343.547 76.4421L340.617 82.8282H343.722Z" fill="#2D3C4A"/>
<path d="M231.021 69.5058C230.605 68.2264 229.422 67.3662 228.081 67.3662V63.3199C228.081 62.5901 227.484 61.9939 226.755 61.9939H209.538C208.809 61.9939 208.216 62.5901 208.216 63.3199V74.0179C207.153 73.7819 205.548 73.2105 204.942 71.8162L204.592 71.8597C204.778 73.3968 206.278 75.0955 208.219 75.3346V80.5361C208.219 81.2659 208.815 81.8621 209.541 81.8621H226.758C227.487 81.8621 228.084 81.2659 228.084 80.5361V73.5521C228.41 73.5521 228.73 73.5024 229.04 73.3999C230.658 72.872 231.546 71.1237 231.021 69.5058Z" fill="#00A3FA"/>
<path d="M228.627 72.1422C227.699 72.4434 226.702 71.9342 226.397 71.0057C226.096 70.0771 226.605 69.0803 227.531 68.776C228.459 68.4748 229.456 68.9841 229.761 69.9126C230.062 70.8411 229.556 71.8379 228.627 72.1422Z" fill="white"/>
<path d="M224.041 70.9683C222.584 71.8999 221.137 72.5676 219.823 72.5676C218.535 72.5676 216.373 72.2073 216.373 69.7976H214.793C214.793 71.8285 214.041 72.5676 213.535 72.5676C212.759 72.5676 212.277 71.9185 212.277 68.6889H210.697C210.697 70.9341 209.855 72.816 208.716 72.847C206.958 72.8905 205.958 72.3688 205.501 71.7477L204.787 71.8347C205.399 73.2259 207.191 74.1482 208.725 74.1482C209.756 74.1482 210.632 73.6047 211.256 72.6669C211.659 73.5271 212.349 74.1482 213.532 74.1482C214.383 74.1482 215.234 73.6638 215.783 72.6235C216.647 73.5985 218.041 74.1482 219.823 74.1482C221.395 74.1482 223.01 73.4588 224.593 72.4868L224.041 70.9683Z" fill="white"/>
</g>
</g>
<defs>
<filter id="filter0_d" x="21.8252" y="91.2634" width="512" height="336" filterUnits="userSpaceOnUse" color-interpolation-filters="sRGB">
<feFlood flood-opacity="0" result="BackgroundImageFix"/>
<feColorMatrix in="SourceAlpha" type="matrix" values="0 0 0 0 0 0 0 0 0 0 0 0 0 0 0 0 0 0 127 0"/>
<feOffset dy="6"/>
<feGaussianBlur stdDeviation="12"/>
<feColorMatrix type="matrix" values="0 0 0 0 0 0 0 0 0 0.353448 0 0 0 0 0.683333 0 0 0 0.13 0"/>
<feBlend mode="normal" in2="BackgroundImageFix" result="effect1_dropShadow"/>
<feBlend mode="normal" in="SourceGraphic" in2="effect1_dropShadow" result="shape"/>
</filter>
<filter id="filter1_d" x="75.8252" y="-8.73657" width="404" height="467" filterUnits="userSpaceOnUse" color-interpolation-filters="sRGB">
<feFlood flood-opacity="0" result="BackgroundImageFix"/>
<feColorMatrix in="SourceAlpha" type="matrix" values="0 0 0 0 0 0 0 0 0 0 0 0 0 0 0 0 0 0 127 0"/>
<feOffset dy="7"/>
<feGaussianBlur stdDeviation="27"/>
<feColorMatrix type="matrix" values="0 0 0 0 0 0 0 0 0 0.353448 0 0 0 0 0.683333 0 0 0 0.16 0"/>
<feBlend mode="normal" in2="BackgroundImageFix" result="effect1_dropShadow"/>
<feBlend mode="normal" in="SourceGraphic" in2="effect1_dropShadow" result="shape"/>
</filter>
<clipPath id="clip0">
<rect width="556" height="397" fill="white"/>
</clipPath>
</defs>
</svg>
