<svg width="156" height="44" viewBox="0 0 156 44" fill="none" xmlns="http://www.w3.org/2000/svg"><rect x="1.04199" y="0.5" width="154" height="43" rx="21.5" fill="white"/><circle cx="28.542" cy="22" r="12" fill="#555ABF"/><path d="M27.557 28.8571C30.5258 28.8571 32.5712 27.3103 32.5712 24.6007C32.5712 20.1126 27.1136 20.9176 27.1136 19.2244C27.1136 18.6359 27.5782 18.4083 28.3262 18.4083C29.4125 18.4083 30.7909 18.7589 31.8772 19.3768V15.8319C30.6945 15.3349 29.5118 15.1428 28.3291 15.1428C25.4336 15.1428 23.5029 16.7374 23.5029 19.4022C23.5029 23.5702 28.9306 22.8933 28.9306 24.6902C28.9306 25.3853 28.3571 25.611 27.5609 25.611C26.3782 25.611 24.8514 25.0957 23.6533 24.4087V28.0024C24.9806 28.6051 26.3262 28.8571 27.557 28.8571Z" fill="white"/><path fill-rule="evenodd" clip-rule="evenodd" d="M86.1109 16.0699H81.6014C81.7041 17.1635 82.4953 17.4854 83.3928 17.4854C84.3077 17.4854 85.028 17.2907 85.6562 16.9694V18.8491C85.0299 19.2 84.2039 19.4539 83.1023 19.4539C80.8588 19.4539 79.2864 18.0309 79.2864 15.217C79.2864 12.8409 80.6199 10.9537 82.8118 10.9537C85 10.9537 86.142 12.8403 86.142 15.2296C86.142 15.4551 86.1215 15.9439 86.1109 16.0699ZM82.7969 12.8561C82.221 12.8561 81.5809 13.2964 81.5809 14.3477H83.9625C83.9625 13.2976 83.3629 12.8561 82.7969 12.8561ZM75.6328 19.4539C74.8267 19.4539 74.3341 19.1093 74.0032 18.8636L73.9982 21.5036L71.695 22L71.6937 11.1093H73.7227L73.8421 11.6857C74.1612 11.3839 74.744 10.9537 75.6471 10.9537C77.2649 10.9537 78.7888 12.4296 78.7888 15.1458C78.7888 18.1109 77.2811 19.4539 75.6328 19.4539ZM75.0967 13.0205C74.5673 13.0205 74.2364 13.2164 73.9964 13.4828L74.01 16.9499C74.2333 17.195 74.5561 17.3928 75.0967 17.3928C75.9482 17.3928 76.5192 16.4535 76.5192 15.1975C76.5192 13.9767 75.9395 13.0205 75.0967 13.0205ZM68.4401 11.1093H70.7527V19.2869H68.4401V11.1093ZM68.4401 8.49827L70.7527 8V9.90047L68.4401 10.3981V8.49827ZM66.051 13.743V19.2869H63.7484V11.1093H65.74L65.885 11.7991C66.4236 10.795 67.5009 10.9984 67.8075 11.1099V13.2542C67.5146 13.1584 66.5953 13.0186 66.051 13.743ZM61.1889 16.4176C61.1889 17.7928 62.6425 17.365 62.938 17.2454V19.1446C62.6307 19.3153 62.074 19.4539 61.3208 19.4539C59.9536 19.4539 58.928 18.434 58.928 17.0526L58.9379 9.56724L61.1871 9.08346L61.1889 11.1093H62.9386V13.0986H61.1889V16.4176ZM58.3937 16.8157C58.3937 18.4951 57.0738 19.4539 55.1581 19.4539C54.3638 19.4539 53.4955 19.2976 52.639 18.9241V16.6967C53.4122 17.1225 54.3974 17.4419 55.1606 17.4419C55.6743 17.4419 56.0444 17.302 56.0444 16.8712C56.0444 15.7575 52.542 16.177 52.542 13.5937C52.542 11.942 53.7878 10.9537 55.6563 10.9537C56.4195 10.9537 57.1827 11.0728 57.9459 11.3808V13.578C57.2449 13.195 56.3554 12.9776 55.6544 12.9776C55.1718 12.9776 54.872 13.1187 54.872 13.4835C54.872 14.5329 58.3937 14.034 58.3937 16.8157Z" fill="#555ABF"/><path d="M55.919 33L52.806 25.3H54.181L56.612 31.537H56.128L58.581 25.3H59.934L56.799 33H55.919ZM62.2724 33.11C61.7444 33.11 61.2678 32.9927 60.8424 32.758C60.4244 32.516 60.0908 32.186 59.8414 31.768C59.5994 31.35 59.4784 30.8807 59.4784 30.36C59.4784 29.8393 59.5994 29.3737 59.8414 28.963C60.0834 28.545 60.4098 28.215 60.8204 27.973C61.2384 27.731 61.7004 27.61 62.2064 27.61C62.6978 27.61 63.1304 27.7237 63.5044 27.951C63.8858 28.1783 64.1828 28.49 64.3954 28.886C64.6154 29.282 64.7254 29.733 64.7254 30.239C64.7254 30.327 64.7181 30.4187 64.7034 30.514C64.6961 30.602 64.6814 30.701 64.6594 30.811H60.3254V29.821H64.0324L63.5814 30.217C63.5668 29.8943 63.5044 29.623 63.3944 29.403C63.2844 29.183 63.1268 29.0143 62.9214 28.897C62.7234 28.7797 62.4778 28.721 62.1844 28.721C61.8764 28.721 61.6088 28.787 61.3814 28.919C61.1541 29.051 60.9781 29.238 60.8534 29.48C60.7288 29.7147 60.6664 29.997 60.6664 30.327C60.6664 30.657 60.7324 30.9467 60.8644 31.196C60.9964 31.4453 61.1834 31.6397 61.4254 31.779C61.6674 31.911 61.9461 31.977 62.2614 31.977C62.5328 31.977 62.7821 31.9293 63.0094 31.834C63.2441 31.7387 63.4421 31.5993 63.6034 31.416L64.3734 32.197C64.1168 32.4977 63.8051 32.725 63.4384 32.879C63.0718 33.033 62.6831 33.11 62.2724 33.11ZM65.6954 33V27.72H66.9054V33H65.6954ZM66.9054 30.063L66.4874 29.854C66.4874 29.1867 66.6341 28.6477 66.9274 28.237C67.2281 27.819 67.6791 27.61 68.2804 27.61C68.5444 27.61 68.7827 27.6577 68.9954 27.753C69.2081 27.8483 69.4061 28.0023 69.5894 28.215L68.7974 29.029C68.7021 28.9263 68.5957 28.853 68.4784 28.809C68.3611 28.765 68.2254 28.743 68.0714 28.743C67.7341 28.743 67.4554 28.8493 67.2354 29.062C67.0154 29.2747 66.9054 29.6083 66.9054 30.063ZM70.1859 33V27.72H71.3959V33H70.1859ZM70.7909 26.752C70.5856 26.752 70.4132 26.6823 70.2739 26.543C70.1419 26.4037 70.0759 26.2313 70.0759 26.026C70.0759 25.8207 70.1419 25.6483 70.2739 25.509C70.4132 25.3697 70.5856 25.3 70.7909 25.3C71.0036 25.3 71.1759 25.3697 71.3079 25.509C71.4399 25.6483 71.5059 25.8207 71.5059 26.026C71.5059 26.2313 71.4399 26.4037 71.3079 26.543C71.1759 26.6823 71.0036 26.752 70.7909 26.752ZM73.479 33V26.807C73.479 26.455 73.556 26.1433 73.71 25.872C73.8714 25.5933 74.0914 25.3733 74.37 25.212C74.6487 25.0507 74.975 24.97 75.349 24.97C75.6277 24.97 75.8697 25.0177 76.075 25.113C76.2877 25.201 76.4857 25.3293 76.669 25.498L75.877 26.29C75.8037 26.2313 75.723 26.1873 75.635 26.158C75.5544 26.1213 75.459 26.103 75.349 26.103C75.1364 26.103 74.9714 26.1653 74.854 26.29C74.744 26.4147 74.689 26.5833 74.689 26.796V33H73.479ZM72.214 28.82V27.72H77.362V28.82H72.214ZM76.669 33V27.72H77.879V33H76.669ZM77.274 27.258C77.0687 27.258 76.8964 27.1883 76.757 27.049C76.625 26.9097 76.559 26.7373 76.559 26.532C76.559 26.3267 76.625 26.1543 76.757 26.015C76.8964 25.8757 77.0687 25.806 77.274 25.806C77.4867 25.806 77.659 25.8757 77.791 26.015C77.923 26.1543 77.989 26.3267 77.989 26.532C77.989 26.7373 77.923 26.9097 77.791 27.049C77.659 27.1883 77.4867 27.258 77.274 27.258ZM81.6836 33.11C81.1556 33.11 80.6789 32.9927 80.2536 32.758C79.8356 32.516 79.5019 32.186 79.2526 31.768C79.0106 31.35 78.8896 30.8807 78.8896 30.36C78.8896 29.8393 79.0106 29.3737 79.2526 28.963C79.4946 28.545 79.8209 28.215 80.2316 27.973C80.6496 27.731 81.1116 27.61 81.6176 27.61C82.1089 27.61 82.5416 27.7237 82.9156 27.951C83.2969 28.1783 83.5939 28.49 83.8066 28.886C84.0266 29.282 84.1366 29.733 84.1366 30.239C84.1366 30.327 84.1292 30.4187 84.1146 30.514C84.1072 30.602 84.0926 30.701 84.0706 30.811H79.7366V29.821H83.4436L82.9926 30.217C82.9779 29.8943 82.9156 29.623 82.8056 29.403C82.6956 29.183 82.5379 29.0143 82.3326 28.897C82.1346 28.7797 81.8889 28.721 81.5956 28.721C81.2876 28.721 81.0199 28.787 80.7926 28.919C80.5652 29.051 80.3892 29.238 80.2646 29.48C80.1399 29.7147 80.0776 29.997 80.0776 30.327C80.0776 30.657 80.1436 30.9467 80.2756 31.196C80.4076 31.4453 80.5946 31.6397 80.8366 31.779C81.0786 31.911 81.3572 31.977 81.6726 31.977C81.9439 31.977 82.1932 31.9293 82.4206 31.834C82.6552 31.7387 82.8532 31.5993 83.0146 31.416L83.7846 32.197C83.5279 32.4977 83.2162 32.725 82.8496 32.879C82.4829 33.033 82.0942 33.11 81.6836 33.11ZM87.3175 33.11C86.8409 33.11 86.4082 32.989 86.0195 32.747C85.6382 32.505 85.3339 32.1787 85.1065 31.768C84.8865 31.35 84.7765 30.8843 84.7765 30.371C84.7765 29.8503 84.8865 29.3847 85.1065 28.974C85.3339 28.556 85.6382 28.226 86.0195 27.984C86.4082 27.7347 86.8409 27.61 87.3175 27.61C87.7209 27.61 88.0765 27.698 88.3845 27.874C88.6999 28.0427 88.9492 28.2773 89.1325 28.578C89.3159 28.8787 89.4075 29.2197 89.4075 29.601V31.119C89.4075 31.5003 89.3159 31.8413 89.1325 32.142C88.9565 32.4427 88.7109 32.681 88.3955 32.857C88.0802 33.0257 87.7209 33.11 87.3175 33.11ZM87.5155 31.966C87.8162 31.966 88.0765 31.9 88.2965 31.768C88.5239 31.6287 88.6999 31.438 88.8245 31.196C88.9492 30.954 89.0115 30.6753 89.0115 30.36C89.0115 30.0447 88.9492 29.766 88.8245 29.524C88.6999 29.282 88.5239 29.095 88.2965 28.963C88.0765 28.8237 87.8199 28.754 87.5265 28.754C87.2259 28.754 86.9619 28.8237 86.7345 28.963C86.5145 29.095 86.3385 29.282 86.2065 29.524C86.0819 29.766 86.0195 30.0447 86.0195 30.36C86.0195 30.6753 86.0819 30.954 86.2065 31.196C86.3385 31.438 86.5145 31.6287 86.7345 31.768C86.9619 31.9 87.2222 31.966 87.5155 31.966ZM90.1445 33H88.9345V31.581L89.1435 30.294L88.9345 29.018V25.08H90.1445V33ZM94.7236 30.096V28.996H96.6486C96.9126 28.996 97.1436 28.9447 97.3416 28.842C97.5469 28.732 97.7082 28.5817 97.8256 28.391C97.9429 28.193 98.0016 27.962 98.0016 27.698C98.0016 27.434 97.9429 27.2067 97.8256 27.016C97.7082 26.818 97.5469 26.6677 97.3416 26.565C97.1436 26.455 96.9126 26.4 96.6486 26.4H94.7236V25.3H96.7146C97.1986 25.3 97.6312 25.399 98.0126 25.597C98.4012 25.795 98.7056 26.0737 98.9256 26.433C99.1529 26.7923 99.2666 27.214 99.2666 27.698C99.2666 28.182 99.1529 28.6037 98.9256 28.963C98.7056 29.3223 98.4012 29.601 98.0126 29.799C97.6312 29.997 97.1986 30.096 96.7146 30.096H94.7236ZM93.8546 33V25.3H95.1196V33H93.8546ZM102.271 33.11C101.794 33.11 101.361 32.989 100.973 32.747C100.591 32.505 100.287 32.1787 100.06 31.768C99.8397 31.35 99.7297 30.8843 99.7297 30.371C99.7297 29.8503 99.8397 29.3847 100.06 28.974C100.287 28.556 100.591 28.226 100.973 27.984C101.361 27.7347 101.794 27.61 102.271 27.61C102.674 27.61 103.03 27.698 103.338 27.874C103.653 28.0427 103.902 28.2773 104.086 28.578C104.269 28.8787 104.361 29.2197 104.361 29.601V31.119C104.361 31.5003 104.269 31.8413 104.086 32.142C103.91 32.4427 103.664 32.681 103.349 32.857C103.033 33.0257 102.674 33.11 102.271 33.11ZM102.469 31.966C102.916 31.966 103.275 31.8157 103.547 31.515C103.825 31.2143 103.965 30.8293 103.965 30.36C103.965 30.0447 103.902 29.766 103.778 29.524C103.653 29.282 103.477 29.095 103.25 28.963C103.03 28.8237 102.769 28.754 102.469 28.754C102.175 28.754 101.915 28.8237 101.688 28.963C101.468 29.095 101.292 29.282 101.16 29.524C101.035 29.766 100.973 30.0447 100.973 30.36C100.973 30.6753 101.035 30.954 101.16 31.196C101.292 31.438 101.468 31.6287 101.688 31.768C101.915 31.9 102.175 31.966 102.469 31.966ZM103.888 33V31.581L104.097 30.294L103.888 29.018V27.72H105.098V33H103.888ZM106.441 33V27.72H107.651V33H106.441ZM107.651 30.063L107.233 29.854C107.233 29.1867 107.379 28.6477 107.673 28.237C107.973 27.819 108.424 27.61 109.026 27.61C109.29 27.61 109.528 27.6577 109.741 27.753C109.953 27.8483 110.151 28.0023 110.335 28.215L109.543 29.029C109.447 28.9263 109.341 28.853 109.224 28.809C109.106 28.765 108.971 28.743 108.817 28.743C108.479 28.743 108.201 28.8493 107.981 29.062C107.761 29.2747 107.651 29.6083 107.651 30.063ZM111.745 33V25.52H112.955V33H111.745ZM110.48 28.82V27.72H114.22V28.82H110.48ZM118.718 33V29.953C118.718 29.601 118.604 29.3113 118.377 29.084C118.157 28.8567 117.871 28.743 117.519 28.743C117.284 28.743 117.075 28.7943 116.892 28.897C116.708 28.9997 116.565 29.1427 116.463 29.326C116.36 29.5093 116.309 29.7183 116.309 29.953L115.836 29.689C115.836 29.2857 115.924 28.93 116.1 28.622C116.276 28.3067 116.518 28.061 116.826 27.885C117.141 27.7017 117.493 27.61 117.882 27.61C118.278 27.61 118.63 27.7127 118.938 27.918C119.246 28.116 119.488 28.3763 119.664 28.699C119.84 29.0143 119.928 29.3443 119.928 29.689V33H118.718ZM115.099 33V27.72H116.309V33H115.099ZM123.61 33.11C123.082 33.11 122.606 32.9927 122.18 32.758C121.762 32.516 121.429 32.186 121.179 31.768C120.937 31.35 120.816 30.8807 120.816 30.36C120.816 29.8393 120.937 29.3737 121.179 28.963C121.421 28.545 121.748 28.215 122.158 27.973C122.576 27.731 123.038 27.61 123.544 27.61C124.036 27.61 124.468 27.7237 124.842 27.951C125.224 28.1783 125.521 28.49 125.733 28.886C125.953 29.282 126.063 29.733 126.063 30.239C126.063 30.327 126.056 30.4187 126.041 30.514C126.034 30.602 126.019 30.701 125.997 30.811H121.663V29.821H125.37L124.919 30.217C124.905 29.8943 124.842 29.623 124.732 29.403C124.622 29.183 124.465 29.0143 124.259 28.897C124.061 28.7797 123.816 28.721 123.522 28.721C123.214 28.721 122.947 28.787 122.719 28.919C122.492 29.051 122.316 29.238 122.191 29.48C122.067 29.7147 122.004 29.997 122.004 30.327C122.004 30.657 122.07 30.9467 122.202 31.196C122.334 31.4453 122.521 31.6397 122.763 31.779C123.005 31.911 123.284 31.977 123.599 31.977C123.871 31.977 124.12 31.9293 124.347 31.834C124.582 31.7387 124.78 31.5993 124.941 31.416L125.711 32.197C125.455 32.4977 125.143 32.725 124.776 32.879C124.41 33.033 124.021 33.11 123.61 33.11ZM127.033 33V27.72H128.243V33H127.033ZM128.243 30.063L127.825 29.854C127.825 29.1867 127.972 28.6477 128.265 28.237C128.566 27.819 129.017 27.61 129.618 27.61C129.882 27.61 130.121 27.6577 130.333 27.753C130.546 27.8483 130.744 28.0023 130.927 28.215L130.135 29.029C130.04 28.9263 129.934 28.853 129.816 28.809C129.699 28.765 129.563 28.743 129.409 28.743C129.072 28.743 128.793 28.8493 128.573 29.062C128.353 29.2747 128.243 29.6083 128.243 30.063Z" fill="#4B5563"/><rect x="1.04199" y="0.5" width="154" height="43" rx="21.5" stroke="#E5E7EB"/></svg>