<?xml version="1.0" encoding="UTF-8"?>
<svg width="378px" height="15px" viewBox="0 0 378 15" version="1.1" xmlns="http://www.w3.org/2000/svg" xmlns:xlink="http://www.w3.org/1999/xlink">
    <!-- Generator: Sketch 53 (72520) - https://sketchapp.com -->
    <title>Path 2</title>
    <desc>Created with Sketch.</desc>
    <g id="Page-1" stroke="none" stroke-width="1" fill="none" fill-rule="evenodd">
        <g id="E-commerce" transform="translate(-234.000000, -410.000000)" fill="#FFE100" fill-rule="nonzero">
            <path d="M236.287932,416.938966 C234.702931,418.751821 233.941456,420.090864 234.003506,420.956095 C234.069923,421.882205 235.024097,423.230173 236.866031,425 L269.674726,423.671088 C338.369754,420.934676 388.683515,419.24401 420.596808,418.59933 L428.004585,418.460731 L433.801843,418.366153 C461.641912,417.942075 487.16641,417.994743 523.188945,418.417264 L580.508919,419.129843 L589.399991,419.22108 L596.317586,419.308555 C625.851614,419.708071 608.526474,411.351746 586.495035,411.114628 L569.496278,410.946387 L531.18692,410.440823 L517.683477,410.28093 C480.463742,409.87304 454.316121,409.889727 423.859791,410.460386 L416.859927,410.601552 L409.909197,410.760647 C372.316888,411.66519 314.450555,413.724537 236.287932,416.938966 Z" id="Path-2"></path>
        </g>
    </g>
</svg>