<svg xmlns:xlink="http://www.w3.org/1999/xlink"  xmlns="http://www.w3.org/2000/svg" fill="none" viewBox="0 0 48 48" height="48" width="48"><desc>Document Certificate Streamline Icon: https://streamlinehq.com</desc><g><path id="Subtract" fill="#8fbffa" d="M39.752 3.463c2.55 0.177 4.539 2.081 4.762 4.627C44.76 10.88 45 15.115 45 21s-0.486 12.91 -0.486 12.91 0 -4.41 -0.514 -5.91c0 -1.774 -0.58 -3.416 -1.556 -4.74a7.977 7.977 0 0 0 -2.252 -4.452 7.977 7.977 0 0 0 -4.452 -2.252A7.977 7.977 0 0 0 31 15c-1.774 0 -3.416 0.58 -4.74 1.556a7.977 7.977 0 0 0 -4.452 2.252 7.977 7.977 0 0 0 -2.252 4.452A7.976 7.976 0 0 0 18 28c0 1.774 0.58 3.416 1.556 4.74a7.977 7.977 0 0 0 2.252 4.452c0.372 0.373 0.773 0.702 1.197 0.986 0.002 0.269 0.005 0.542 0.01 0.82 -6.848 -0.02 -11.686 -0.246 -14.767 -0.46 -2.55 -0.178 -4.539 -2.082 -4.762 -4.628C3.24 31.12 3 26.885 3 21s0.24 -10.121 0.486 -12.91c0.223 -2.546 2.212 -4.45 4.762 -4.627C11.475 3.238 16.628 3 24 3c7.371 0 12.525 0.238 15.752 0.463Z" stroke-width="3"></path><path id="Union" fill="#ffffff" d="M22 28c0 1.257 0.58 2.379 1.487 3.112a3.992 3.992 0 0 0 1.15 3.252 3.983 3.983 0 0 0 2.374 1.146c-0.03 2.262 -0.005 5.2 0.19 8.395 0.05 0.84 1.057 1.224 1.665 0.642l1.615 -1.55a0.75 0.75 0 0 1 1.038 0l1.615 1.55c0.608 0.582 1.615 0.198 1.666 -0.642 0.194 -3.196 0.22 -6.133 0.19 -8.395a3.983 3.983 0 0 0 2.374 -1.146 3.992 3.992 0 0 0 1.15 -3.252A3.992 3.992 0 0 0 40 28c0 -1.257 -0.58 -2.379 -1.487 -3.112a3.992 3.992 0 0 0 -1.149 -3.252 3.993 3.993 0 0 0 -3.252 -1.15A3.992 3.992 0 0 0 31 19c-1.257 0 -2.379 0.58 -3.112 1.487a3.992 3.992 0 0 0 -3.252 1.149 3.992 3.992 0 0 0 -1.15 3.252A3.992 3.992 0 0 0 22 28Z" stroke-width="3"></path><path id="Ellipse 71" fill="#8fbffa" d="M28 28.047a3 3 0 1 0 6 0 3 3 0 1 0 -6 0" stroke-width="3"></path><path id="Rectangle 1096" stroke="#2859c5" stroke-linecap="round" stroke-linejoin="round" d="M22 38.994c-6.313 -0.038 -10.825 -0.252 -13.752 -0.457 -2.55 -0.177 -4.539 -2.081 -4.762 -4.627C3.24 31.12 3 26.885 3 21s0.24 -10.121 0.486 -12.91c0.223 -2.546 2.212 -4.45 4.762 -4.627C11.475 3.238 16.628 3 24 3c7.371 0 12.525 0.238 15.752 0.463 2.55 0.177 4.539 2.081 4.762 4.627C44.76 10.88 45 15.115 45 21s-0.24 10.121 -0.486 12.91c-0.216 2.463 -2.084 4.325 -4.514 4.605" stroke-width="3"></path><path id="Union_2" stroke="#2859c5" stroke-linecap="round" stroke-linejoin="round" d="M22 28c0 1.257 0.58 2.379 1.487 3.112a3.992 3.992 0 0 0 1.15 3.252 3.983 3.983 0 0 0 2.374 1.146c-0.03 2.262 -0.005 5.2 0.19 8.395 0.05 0.84 1.057 1.224 1.665 0.642l1.615 -1.55a0.75 0.75 0 0 1 1.038 0l1.615 1.55c0.608 0.582 1.615 0.198 1.666 -0.642 0.194 -3.196 0.22 -6.133 0.19 -8.395a3.983 3.983 0 0 0 2.374 -1.146 3.992 3.992 0 0 0 1.15 -3.252A3.992 3.992 0 0 0 40 28c0 -1.257 -0.58 -2.379 -1.487 -3.112a3.992 3.992 0 0 0 -1.149 -3.252 3.993 3.993 0 0 0 -3.252 -1.15A3.992 3.992 0 0 0 31 19c-1.257 0 -2.379 0.58 -3.112 1.487a3.992 3.992 0 0 0 -3.252 1.149 3.992 3.992 0 0 0 -1.15 3.252A3.992 3.992 0 0 0 22 28Z" stroke-width="3"></path><path id="Ellipse 70" stroke="#2859c5" stroke-linecap="round" stroke-linejoin="round" d="M28 28.045a3 3 0 1 0 6 0 3 3 0 1 0 -6 0" stroke-width="3"></path><path id="Vector 1166" stroke="#2859c5" stroke-linecap="round" stroke-linejoin="round" d="M12 12h21" stroke-width="3"></path><path id="Vector 1167" stroke="#2859c5" stroke-linecap="round" stroke-linejoin="round" d="M12 19h6" stroke-width="3"></path></g></svg>