<svg xmlns:xlink="http://www.w3.org/1999/xlink"  xmlns="http://www.w3.org/2000/svg" width="26" height="24" viewBox="0 0 26 24" fill="none"><path d="M21.7395 0.235352H4.26043C2.32976 0.235352 0.764648 1.80047 0.764648 3.73113V20.269C0.764648 22.1996 2.32976 23.7648 4.26043 23.7648H21.7395C23.6701 23.7648 25.2352 22.1996 25.2352 20.269V3.73113C25.2352 1.80047 23.6701 0.235352 21.7395 0.235352Z" fill="#006AFF"></path><path d="M6.99722 17.1923C6.85632 17.3061 6.65039 17.2066 6.65039 17.0415V15.0251C6.65086 14.9965 6.65773 14.9683 6.67072 14.9422C6.68371 14.9162 6.70263 14.8927 6.72625 14.8739L10.4267 11.9079L10.4834 11.8624L10.4267 11.817L6.72635 8.85103L6.72493 8.8499C6.6759 8.81292 6.65039 8.75955 6.65039 8.70026V6.68322C6.6502 6.64604 6.66112 6.60906 6.6823 6.57724C6.70348 6.54534 6.73397 6.51955 6.77068 6.50327C6.80729 6.48699 6.84823 6.48096 6.88851 6.48623C6.92879 6.49141 6.96644 6.5075 6.99693 6.53226L13.4678 11.7084C13.5668 11.788 13.5668 11.9336 13.4678 12.0132L6.99722 17.1923ZM13.8548 17.2407C13.7496 17.2407 13.6603 17.1518 13.6603 17.0415V15.4974C13.6603 15.3872 13.7496 15.2984 13.8548 15.2984H20.0895C20.1947 15.2984 20.284 15.3872 20.284 15.4974V17.0415C20.284 17.1518 20.1947 17.2407 20.0895 17.2407H13.8548Z" fill="white" stroke="#006AFF" stroke-width="0.123809"></path></svg>