<svg xmlns:xlink="http://www.w3.org/1999/xlink"  xmlns="http://www.w3.org/2000/svg" width="28" height="28" viewBox="0 0 28 28" fill="none"><mask id="mask0_2119_16185" style="mask-type:luminance" maskUnits="userSpaceOnUse" x="0" y="0" width="28" height="28"><path d="M28 0H0V28H28V0Z" fill="white"></path></mask><g mask="url(#mask0_2119_16185)"><path d="M27.4419 7.21671C27.2836 6.62101 26.9716 6.0774 26.5372 5.64015C26.1027 5.20292 25.5611 4.88747 24.9664 4.72535C22.7773 4.13672 14.0273 4.13672 14.0273 4.13672C14.0273 4.13672 5.27735 4.13672 3.08825 4.72535C2.4936 4.88747 1.95195 5.20292 1.51751 5.64015C1.08308 6.0774 0.771101 6.62101 0.612796 7.21671C0.0273438 9.41535 0.0273438 14.0003 0.0273438 14.0003C0.0273438 14.0003 0.0273438 18.5853 0.612796 20.784C0.771101 21.3797 1.08308 21.9234 1.51751 22.3606C1.95195 22.7978 2.4936 23.1132 3.08825 23.2753C5.27735 23.864 14.0273 23.864 14.0273 23.864C14.0273 23.864 22.7773 23.864 24.9664 23.2753C25.5611 23.1132 26.1027 22.7978 26.5372 22.3606C26.9716 21.9234 27.2836 21.3797 27.4419 20.784C28.0273 18.5853 28.0273 14.0003 28.0273 14.0003C28.0273 14.0003 28.0273 9.41535 27.4419 7.21671Z" fill="#FF0302"></path><path d="M11.1641 18.1637V9.83691L18.4823 14.0003L11.1641 18.1637Z" fill="#FEFEFE"></path></g></svg>