<svg xmlns:xlink="http://www.w3.org/1999/xlink"  xmlns="http://www.w3.org/2000/svg" width="25" height="22" viewBox="0 0 25 22" fill="none"><mask id="mask0_1873_13509" style="mask-type:luminance" maskUnits="userSpaceOnUse" x="0" y="0" width="25" height="22"><path d="M24.75 0H0V22H24.75V0Z" fill="white"></path></mask><g mask="url(#mask0_1873_13509)"><path d="M0.564114 15.9179L8.7811 2C9.8249 2.60797 15.0881 5.48977 15.9381 6.0379L7.7211 19.9565C6.82248 21.1311 -0.574386 17.7011 0.564114 15.9179Z" fill="#FBBC04"></path><path d="M24.1772 15.9167L15.9602 1.9997C14.8115 0.108268 12.3374 -0.579082 10.3053 0.538038C8.27319 1.65516 7.65449 4.06158 8.80319 6.0375L17.0202 19.9562C18.169 21.8468 20.6431 22.534 22.6752 21.417C24.6185 20.2998 25.326 17.808 24.1772 15.9183V15.9167Z" fill="#3D7FFE"></path><path d="M4.12474 21.9541C6.40277 21.9541 8.2495 20.1724 8.2495 17.9746C8.2495 15.7768 6.40277 13.9951 4.12474 13.9951C1.84671 13.9951 0 15.7768 0 17.9746C0 20.1724 1.84671 21.9541 4.12474 21.9541Z" fill="#34A853"></path></g></svg>