<svg xmlns:xlink="http://www.w3.org/1999/xlink"  xmlns="http://www.w3.org/2000/svg" width="20" height="20" viewBox="0 0 20 20" fill="none"><path d="M2.00742 16.1496C2.08867 17.1477 2.85234 17.9113 3.85039 17.9926C5.11133 18.0949 7.12344 18.2031 10 18.2031C12.8766 18.2031 14.8887 18.0949 16.1496 17.9926C17.1477 17.9113 17.9113 17.1477 17.9926 16.1496C18.0949 14.8887 18.2031 12.8766 18.2031 10C18.2031 7.12344 18.0949 5.11133 17.9926 3.85039C17.9113 2.85234 17.1477 2.08867 16.1496 2.00742C14.8887 1.90508 12.8766 1.79688 10 1.79688C7.12344 1.79688 5.11133 1.90508 3.85039 2.00742C2.85234 2.08867 2.08867 2.85234 2.00742 3.85039C1.90508 5.11133 1.79688 7.12344 1.79688 10C1.79688 12.8766 1.90508 14.8887 2.00742 16.1496Z" fill="white"></path><path d="M18.1187 5.89844H1.88159C1.9187 5.07148 1.96362 4.3918 2.00737 3.85039C2.08862 2.85234 2.85229 2.08867 3.85073 2.00742C5.11167 1.90508 7.12378 1.79688 9.99995 1.79688C12.8765 1.79688 14.8886 1.90508 16.1496 2.00742C17.148 2.08867 17.9113 2.85234 17.9929 3.85039C18.0367 4.3918 18.0816 5.07148 18.1187 5.89844Z" fill="#EEF0F6"></path><path d="M5.3125 9.60938C5.3125 9.60938 8.4375 11.1719 8.4375 11.9531C8.4375 12.7344 5.3125 14.2969 5.3125 14.2969" stroke="#3D4A61" stroke-width="1.25" stroke-linecap="round" stroke-linejoin="round"></path><path d="M10.7812 13.9062H14.6875" stroke="#3D4A61" stroke-width="1.25" stroke-linecap="round" stroke-linejoin="round"></path><path d="M2.00742 16.1496C2.08867 17.1477 2.85234 17.9113 3.85039 17.9926C5.11133 18.0949 7.12344 18.2031 10 18.2031C12.8766 18.2031 14.8887 18.0949 16.1496 17.9926C17.1477 17.9113 17.9113 17.1477 17.9926 16.1496C18.0949 14.8887 18.2031 12.8766 18.2031 10C18.2031 7.12344 18.0949 5.11133 17.9926 3.85039C17.9113 2.85234 17.1477 2.08867 16.1496 2.00742C14.8887 1.90508 12.8766 1.79688 10 1.79688C7.12344 1.79688 5.11133 1.90508 3.85039 2.00742C2.85234 2.08867 2.08867 2.85234 2.00742 3.85039C1.90508 5.11133 1.79688 7.12344 1.79688 10C1.79688 12.8766 1.90508 14.8887 2.00742 16.1496Z" stroke="#3D4A61" stroke-width="1.25" stroke-linejoin="round"></path><path d="M1.99219 5.89844H18.0078" stroke="#3D4A61" stroke-width="1.25" stroke-linecap="round" stroke-linejoin="round"></path><path d="M4.53125 3.94531H5.3125" stroke="#3D4A61" stroke-width="1.25" stroke-linecap="round" stroke-linejoin="round"></path><path d="M7.65625 3.94531H8.4375" stroke="#3D4A61" stroke-width="1.25" stroke-linecap="round" stroke-linejoin="round"></path></svg>