<svg xmlns:xlink="http://www.w3.org/1999/xlink"  xmlns="http://www.w3.org/2000/svg" fill="none" viewBox="0 0 48 48" height="48" width="48" id="Ios-Ipados--Streamline-Plump.svg"><desc>Ios Ipados Streamline Icon: https://streamlinehq.com</desc><g id="Ios-Ipados--Streamline-Plump.svg"><path id="Subtract" fill="#8fbffa" d="M23.983 44.92c1.494 0.05 3.163 0.08 5.017 0.08 4.937 0 8.568 -0.214 11.045 -0.444 2.528 -0.235 4.385 -2.24 4.542 -4.774 0.2 -3.225 0.413 -8.388 0.413 -15.782s-0.212 -12.557 -0.413 -15.782c-0.157 -2.534 -2.014 -4.539 -4.542 -4.774C37.568 3.214 33.937 3 29 3c-4.936 0 -8.567 0.214 -11.044 0.444 -2.528 0.235 -4.385 2.24 -4.542 4.774a182.15 182.15 0 0 0 -0.213 4.29c1.364 0.02 2.55 0.074 3.569 0.144 5.002 0.345 8.365 4.41 8.557 8.965 0.093 2.214 0.173 5.307 0.173 9.383 0 4.076 -0.08 7.169 -0.173 9.383a9.683 9.683 0 0 1 -1.344 4.537Z" stroke-width="3"></path><path id="Rectangle 1099" fill="#ffffff" d="M3.17 40.194c0.105 2.495 1.878 4.493 4.37 4.665 1.2 0.082 2.679 0.141 4.46 0.141 1.781 0 3.26 -0.059 4.46 -0.141 2.492 -0.172 4.265 -2.17 4.37 -4.665 0.09 -2.148 0.17 -5.177 0.17 -9.194 0 -4.017 -0.08 -7.046 -0.17 -9.194 -0.105 -2.495 -1.878 -4.493 -4.37 -4.665A65.115 65.115 0 0 0 12 17c-1.781 0 -3.26 0.059 -4.46 0.141 -2.492 0.172 -4.265 2.17 -4.37 4.665C3.08 23.954 3 26.983 3 31c0 4.017 0.08 7.046 0.17 9.194Z" stroke-width="3"></path><path id="Rectangle 1097" stroke="#2859c5" stroke-linecap="round" stroke-linejoin="round" d="M13.244 11.5c0.055 -1.26 0.114 -2.352 0.171 -3.282 0.158 -2.534 2.015 -4.539 4.543 -4.774C20.434 3.214 24.066 3 29.002 3c4.937 0 8.568 0.214 11.045 0.444 2.528 0.235 4.385 2.24 4.542 4.774 0.2 3.225 0.413 8.388 0.413 15.782s-0.212 12.557 -0.413 15.782c-0.157 2.534 -2.015 4.539 -4.542 4.774 -2.477 0.23 -6.108 0.444 -11.045 0.444 -1.444 0 -2.776 -0.018 -4 -0.05" stroke-width="3"></path><path id="Vector 1491" stroke="#2859c5" stroke-linecap="round" stroke-linejoin="round" d="M28 40h2" stroke-width="3"></path><path id="Rectangle 1095" stroke="#2859c5" stroke-linecap="round" stroke-linejoin="round" d="M3.17 40.194c0.105 2.495 1.878 4.493 4.37 4.665 1.2 0.082 2.679 0.141 4.46 0.141 1.781 0 3.26 -0.059 4.46 -0.141 2.492 -0.172 4.265 -2.17 4.37 -4.665 0.09 -2.148 0.17 -5.177 0.17 -9.194 0 -4.017 -0.08 -7.046 -0.17 -9.194 -0.105 -2.495 -1.878 -4.493 -4.37 -4.665A65.115 65.115 0 0 0 12 17c-1.781 0 -3.26 0.059 -4.46 0.141 -2.492 0.172 -4.265 2.17 -4.37 4.665C3.08 23.954 3 26.983 3 31c0 4.017 0.08 7.046 0.17 9.194Z" stroke-width="3"></path><path id="Vector 1363" stroke="#2859c5" stroke-linecap="round" stroke-linejoin="round" d="M11 40h2" stroke-width="3"></path></g></svg>