<svg xmlns:xlink="http://www.w3.org/1999/xlink"  xmlns="http://www.w3.org/2000/svg" width="20" height="20" viewBox="0 0 20 20" fill="none"><g clipPath="url(#clip0_7405_111802)"><path fill-rule="evenodd" clip-rule="evenodd" d="M3.16641 15.2883C2.31094 15.2188 1.65625 14.5641 1.58672 13.7086C1.49883 12.6277 1.40625 10.9031 1.40625 8.4375C1.40625 5.97187 1.49883 4.24727 1.58672 3.16641C1.65625 2.31094 2.31094 1.65625 3.16641 1.58672C4.24727 1.49883 5.97187 1.40625 8.4375 1.40625C10.9031 1.40625 12.6277 1.49883 13.7086 1.58672C14.5641 1.65625 15.2188 2.31094 15.2883 3.16641C15.3762 4.24727 15.4688 5.97187 15.4688 8.4375V8.61797C14.4785 7.97656 13.0453 8.23477 12.4117 9.39258L11.7563 10.5918C11.4873 11.0832 11.083 11.4872 10.5914 11.7559L9.39219 12.4121C8.23477 13.0449 7.97656 14.4785 8.61797 15.4688H8.4375C5.97187 15.4688 4.24727 15.3762 3.16641 15.2883Z" fill="#EEF0F6"></path><path fill-rule="evenodd" clip-rule="evenodd" d="M11.1159 6.76328C11.1161 7.21413 11.0024 7.65774 10.7854 8.05293C10.5684 8.44811 10.2551 8.78208 9.8745 9.02382C10.6531 9.30624 11.3284 9.81705 11.812 10.4894L11.7561 10.591C11.4873 11.0827 11.083 11.487 10.5913 11.7559L9.39208 12.4113C9.20701 12.5121 9.03754 12.6392 8.88895 12.7887C8.74247 12.7894 8.59208 12.7898 8.43739 12.7898C7.08583 12.7898 6.04403 12.7523 5.27997 12.707C5.26903 12.7063 5.25809 12.7055 5.24716 12.7047C4.65848 12.6605 4.35145 12.0289 4.54911 11.4727C4.95067 10.3422 5.85458 9.44101 7.00028 9.02382C6.60762 8.77417 6.28677 8.42654 6.06933 8.01517C5.85189 7.6038 5.74536 7.14288 5.76025 6.67781C5.77513 6.21275 5.9109 5.75958 6.1542 5.36295C6.39749 4.96632 6.73991 4.63992 7.14773 4.41588C7.55554 4.19184 8.01469 4.07791 8.47993 4.0853C8.94518 4.09269 9.40047 4.22115 9.80097 4.45802C10.2015 4.6949 10.5333 5.03202 10.7639 5.43618C10.9945 5.84033 11.1158 6.29797 11.1159 6.76328Z" fill="#EEF0F6"></path><path d="M13.9543 10.2361C13.9879 10.1747 14.0375 10.1234 14.0977 10.0877C14.158 10.052 14.2268 10.0332 14.2968 10.0332C14.3669 10.0332 14.4356 10.052 14.4959 10.0877C14.5562 10.1234 14.6057 10.1747 14.6394 10.2361L15.2957 11.4354C15.7258 12.2218 16.3725 12.8685 17.1589 13.2986L18.3578 13.9545C18.4192 13.9882 18.4705 14.0377 18.5062 14.098C18.5419 14.1583 18.5607 14.227 18.5607 14.2971C18.5607 14.3671 18.5419 14.4359 18.5062 14.4962C18.4705 14.5564 18.4192 14.606 18.3578 14.6397L17.1585 15.2959C16.3721 15.7261 15.7254 16.3727 15.2953 17.1592L14.6394 18.358C14.6057 18.4194 14.5562 18.4707 14.4959 18.5064C14.4356 18.5421 14.3669 18.5609 14.2968 18.5609C14.2268 18.5609 14.158 18.5421 14.0977 18.5064C14.0375 18.4707 13.9879 18.4194 13.9543 18.358L13.298 17.1588C12.8679 16.3723 12.2212 15.7257 11.4347 15.2955L10.2359 14.6397C10.1745 14.606 10.1232 14.5564 10.0875 14.4962C10.0518 14.4359 10.033 14.3671 10.033 14.2971C10.033 14.227 10.0518 14.1583 10.0875 14.098C10.1232 14.0377 10.1745 13.9882 10.2359 13.9545L11.4351 13.2982C12.2216 12.8681 12.8682 12.2214 13.2984 11.435L13.9543 10.2361Z" fill="#EEF0F6"></path><path d="M13.9543 10.2361C13.9879 10.1747 14.0375 10.1234 14.0977 10.0877C14.158 10.052 14.2268 10.0332 14.2968 10.0332C14.3669 10.0332 14.4356 10.052 14.4959 10.0877C14.5562 10.1234 14.6057 10.1747 14.6394 10.2361L15.2957 11.4354C15.7258 12.2218 16.3725 12.8685 17.1589 13.2986L18.3578 13.9545C18.4192 13.9882 18.4705 14.0377 18.5062 14.098C18.5419 14.1583 18.5607 14.227 18.5607 14.2971C18.5607 14.3671 18.5419 14.4359 18.5062 14.4962C18.4705 14.5564 18.4192 14.606 18.3578 14.6397L17.1585 15.2959C16.3721 15.7261 15.7254 16.3727 15.2953 17.1592L14.6394 18.358C14.6057 18.4194 14.5562 18.4707 14.4959 18.5064C14.4356 18.5421 14.3669 18.5609 14.2968 18.5609C14.2268 18.5609 14.158 18.5421 14.0977 18.5064C14.0375 18.4707 13.9879 18.4194 13.9543 18.358L13.298 17.1588C12.8679 16.3723 12.2212 15.7257 11.4347 15.2955L10.2359 14.6397C10.1745 14.606 10.1232 14.5564 10.0875 14.4962C10.0518 14.4359 10.033 14.3671 10.033 14.2971C10.033 14.227 10.0518 14.1583 10.0875 14.098C10.1232 14.0377 10.1745 13.9882 10.2359 13.9545L11.4351 13.2982C12.2216 12.8681 12.8682 12.2214 13.2984 11.435L13.9543 10.2361Z" stroke="#3D4A61" stroke-width="1.25" stroke-linecap="round" stroke-linejoin="round"></path><path d="M15.4688 8.24219C15.4637 5.88047 15.3738 4.21875 15.2883 3.16641C15.2188 2.31094 14.5641 1.65625 13.7086 1.58672C12.6277 1.49883 10.9031 1.40625 8.4375 1.40625C5.97187 1.40625 4.24727 1.49883 3.16641 1.58672C2.31094 1.65625 1.65625 2.31094 1.58672 3.16641C1.49883 4.24727 1.40625 5.97187 1.40625 8.4375C1.40625 10.9031 1.49883 12.6277 1.58672 13.7086C1.65625 14.5641 2.31094 15.2188 3.16641 15.2883C4.21875 15.3738 5.88047 15.4641 8.24219 15.4688" stroke="#3D4A61" stroke-width="1.25" stroke-linecap="round" stroke-linejoin="round"></path></g><path d="M4.48438 6.39062H11.5156" stroke="#3D4A61" stroke-width="1.25" stroke-linecap="round" stroke-linejoin="round"></path><path d="M4.48438 9.90625H8" stroke="#3D4A61" stroke-width="1.25" stroke-linecap="round" stroke-linejoin="round"></path><defs><clipPath id="clip0_7405_111802"><rect width="20" height="20" fill="white"></rect></clipPath></defs></svg>