<svg xmlns:xlink="http://www.w3.org/1999/xlink"  xmlns="http://www.w3.org/2000/svg" width="24" height="24" viewBox="0 0 24 24" fill="none"><mask id="mask0_1688_5098" style="mask-type:luminance" maskUnits="userSpaceOnUse" x="0" y="0" width="24" height="24"><path d="M24 0H0V24H24V0Z" fill="white"></path></mask><g mask="url(#mask0_1688_5098)"><path d="M24 12.0733C24 18.0996 19.6116 23.0945 13.875 24V15.5633H16.6711L17.2031 12.0733H13.875V9.8086C13.875 8.8536 14.34 7.9231 15.8306 7.9231H17.3438V4.95195C17.3438 4.95195 15.9703 4.71615 14.6573 4.71615C11.9166 4.71615 10.125 6.38755 10.125 9.4134V12.0733H7.0781V15.5633H10.125V24C4.38844 23.0945 0 18.0996 0 12.0733C0 5.40565 5.37281 0 12 0C18.6272 0 24 5.40565 24 12.0733Z" fill="#1877F2"></path><path d="M16.6711 15.4688L17.2031 12H13.875V9.749C13.875 8.8 14.3399 7.875 15.8306 7.875H17.3438V4.92188C17.3438 4.92188 15.9705 4.6875 14.6576 4.6875C11.9165 4.6875 10.125 6.34875 10.125 9.3563V12H7.07812V15.4688H10.125V23.8542C10.736 23.95 11.3621 24 12 24C12.6379 24 13.264 23.95 13.875 23.8542V15.4688H16.6711Z" fill="white"></path></g></svg>